<svg width="46" height="71" viewBox="0 0 46 71" fill="none" xmlns="http://www.w3.org/2000/svg">
<path d="M36.5639 15.5815C36.4639 15.5815 36.2639 15.4813 36.1639 15.4813C36.3639 15.1808 36.7639 15.0806 36.7639 14.6799C36.7639 13.8785 37.1639 13.077 37.6639 12.4759C38.0639 11.975 38.2639 11.3739 38.6639 10.9732C39.7639 9.67087 41.5639 9.27015 42.6639 7.86763C42.9639 7.4669 43.1639 6.966 43.4639 6.56528C43.7639 6.26474 43.7639 5.76384 44.0639 5.56347C44.0639 4.96239 43.9639 4.26113 43.9639 3.66004C43.9639 3.25932 43.9639 2.8586 43.7639 2.45788C43.5639 2.05716 43.2639 1.65643 42.8639 1.35589C42.1639 0.85499 41.2639 0.654628 40.4639 0.253906H40.3639C40.2639 0.354087 40.1639 0.454268 40.0639 0.554449C39.6639 0.554449 39.3639 0.454269 38.9639 0.65463C38.4639 0.854991 38.1639 1.35589 37.6639 1.65643C37.2639 1.45607 36.9639 0.955171 36.5639 0.955171C35.6639 0.955171 34.7639 0.854991 33.9639 1.15553C33.6639 1.25571 33.3639 1.55625 33.0639 1.75661C33.0639 1.95697 33.1639 2.25752 33.0639 2.45788C32.8639 2.75842 32.3639 2.75842 32.2639 3.15914C31.8639 3.96059 31.9639 5.06257 32.4639 5.86402C33.2639 7.26654 34.6639 8.16817 35.6639 9.37033C35.9639 9.67087 36.0639 10.1718 36.0639 10.5725C36.1639 12.3757 35.0639 13.9786 35.2639 15.7819C35.5639 16.1826 36.0639 16.0824 36.4639 16.0824C36.5639 15.7819 36.5639 15.5815 36.5639 15.5815ZM34.2639 5.56347C34.1639 5.26293 33.6639 5.26293 33.5639 4.96239C33.3639 4.56167 33.4639 3.96059 33.6639 3.55986C34.0639 2.95878 34.4639 2.45788 34.9639 2.05716C35.4639 1.65643 36.1639 1.75662 36.5639 2.15734C36.8639 2.45788 37.0639 2.8586 37.1639 3.25932C37.7639 3.45968 37.8639 4.06077 38.1639 4.46149C38.6639 4.76203 39.1639 4.06077 39.0639 3.66004C39.0639 3.15914 38.3639 2.8586 38.4639 2.3577C38.4639 2.25752 38.5639 2.15734 38.6639 2.05716C38.8639 1.95698 39.0639 1.85679 39.2639 1.85679C39.9639 1.65643 40.8639 1.55625 41.5639 1.95698C42.0639 2.15734 42.3639 2.65824 42.3639 3.25932C42.4639 4.16095 42.4639 5.16275 42.0639 5.9642C41.7639 6.36492 41.1639 6.4651 40.9639 6.966C40.7639 7.06618 40.5639 7.06618 40.4639 7.26654C39.3639 8.26835 38.2639 9.16997 37.2639 10.1718C37.1639 9.57069 36.9639 8.96961 36.6639 8.56889C36.0639 7.36672 34.8639 6.76564 34.2639 5.56347Z" fill="white"/>
<path d="M37.8639 33.9146C36.5639 34.1149 35.3639 33.8144 34.1639 33.3135C31.8639 32.4119 29.864 30.809 28.464 28.8054C27.964 28.0039 27.4639 29.5066 27.3639 29.8072C26.1639 32.512 24.9639 35.2169 23.8639 37.9218C23.7639 38.2223 23.7639 38.6231 23.8639 38.9236C23.8639 39.0238 23.964 39.124 23.964 39.2241C23.864 39.5247 23.6639 39.8252 23.5639 40.0256C22.6639 40.3261 21.5639 40.6267 21.0639 41.6285C20.7639 42.1294 20.9639 42.6303 21.0639 43.1312C21.0639 44.0328 20.7639 44.9344 20.5639 45.7359C20.5639 45.836 20.464 46.0364 20.264 46.1366C20.064 45.7359 20.2639 45.3351 20.3639 45.0346C20.2639 44.8342 20.1639 44.6339 20.1639 44.4335C19.6639 43.5319 19.264 42.6303 18.764 41.7286C18.864 41.4281 19.0639 41.1276 18.8639 40.827C17.3639 38.1221 15.8639 35.4173 14.3639 32.6122C14.0639 32.1113 13.3639 32.0111 12.8639 32.3117C12.1639 32.9128 11.6639 33.614 10.8639 34.1149C9.86394 34.8162 8.66395 35.0166 7.56395 35.2169C7.16395 35.3171 6.76392 35.5175 6.66392 35.9182C6.56392 36.3189 6.76397 36.6194 6.96397 36.92C8.36397 39.4245 9.76395 42.0292 11.0639 44.5337C11.2639 44.9344 11.8639 44.9344 12.1639 45.235C12.7639 46.3369 13.364 47.3388 13.964 48.4407C14.164 48.8415 14.6639 48.7413 15.0639 48.8415C15.6639 50.0436 16.464 51.1456 16.964 52.3478C16.564 53.2494 16.164 54.0508 15.964 54.9525C15.764 55.7539 15.664 56.6555 15.764 57.457C15.864 58.2584 16.164 59.0599 16.764 59.661C16.964 59.8613 16.964 60.1619 16.964 60.4624C17.064 61.4642 17.764 62.3658 18.764 62.466C18.964 62.9669 19.1639 63.568 19.6639 63.8685C19.9639 64.0689 20.4639 64.1691 20.8639 64.1691C21.6639 64.8703 22.9639 65.1709 23.8639 64.4696C24.1639 64.1691 24.764 64.3694 25.0639 64.0689C25.4639 63.7684 25.6639 63.2674 25.8639 62.7665C26.2639 62.7665 26.764 62.7666 27.0639 62.466C27.464 62.1655 27.464 61.5644 27.464 61.0635C28.064 60.9633 28.4639 60.4624 28.6639 59.8613C29.1639 59.661 29.6639 59.661 30.0639 59.3604C30.6639 58.9597 30.764 58.2584 30.964 57.5572C31.564 57.1564 32.264 56.8559 32.764 56.355C33.164 55.9543 33.4639 55.253 33.3639 54.6519C33.3639 54.2512 33.164 53.8505 32.764 53.6501C32.264 53.5499 31.7639 53.7503 31.3639 53.9507C31.3639 52.8487 30.964 51.7467 30.464 50.7449C30.264 50.244 29.9639 49.6429 29.8639 49.0418C30.2639 47.7395 31.3639 46.8378 32.1639 45.7359C32.4639 45.0346 32.264 44.2332 31.964 43.5319C32.064 43.3315 32.1639 43.031 32.3639 42.7305C32.5639 42.6303 32.864 42.6303 33.064 42.5301C33.264 42.4299 33.364 42.2295 33.464 42.0292C35.164 39.5247 36.864 36.92 38.564 34.4155C38.664 34.1149 38.964 33.8144 38.764 33.5138C38.464 33.8144 38.1639 33.9146 37.8639 33.9146ZM31.264 55.5536C31.564 55.3532 31.964 55.1528 32.464 55.0527C32.564 55.253 32.6639 55.5536 32.564 55.7539C32.264 56.2548 31.764 56.5554 31.264 56.7557C31.164 56.2548 31.164 55.8541 31.264 55.5536ZM14.764 47.9398C14.064 46.8379 13.4639 45.7359 12.8639 44.6339C12.6639 44.2332 12.0639 44.4335 11.8639 43.9326C10.7639 41.929 9.66395 39.9254 8.56395 37.8216C8.36395 37.4209 8.06394 37.0202 7.86394 36.5193C7.86394 36.3189 8.16394 36.3189 8.36394 36.2187C10.1639 35.9182 11.664 34.9164 12.964 33.7142C13.064 33.614 13.1639 33.5138 13.1639 33.5138C13.2639 33.4137 13.5639 33.4137 13.5639 33.614C14.7639 35.9182 16.064 38.2223 17.264 40.5265C17.364 40.7268 17.564 40.9272 17.464 41.1276C17.364 41.6285 17.0639 41.929 16.6639 42.2295C16.1639 42.6303 15.564 43.031 14.964 43.3315C14.664 43.5319 14.264 43.6321 13.964 43.9326C13.864 44.133 13.8639 44.4335 14.0639 44.5337C14.3639 44.8342 14.7639 44.6339 15.0639 44.4335C15.5639 44.133 16.0639 43.8324 16.5639 43.5319C16.9639 43.2314 17.364 42.9308 17.764 42.6303C18.164 43.3315 18.564 44.0328 18.964 44.7341C19.064 44.9344 19.1639 45.1348 19.1639 45.3351C18.8639 46.1366 18.164 46.6375 17.464 47.0382C16.764 47.4389 15.764 48.04 14.764 47.9398ZM16.0639 48.7413C17.5639 48.1402 18.264 47.6393 19.464 46.7377C19.564 46.938 19.664 47.1384 19.764 47.2386C19.064 48.6411 18.3639 50.0436 17.5639 51.346H17.464C16.964 50.5445 16.5639 49.6429 16.0639 48.7413ZM24.264 63.4678C23.864 63.4678 23.564 63.2675 23.464 62.9669C23.164 62.2656 22.8639 61.4642 23.0639 60.6628C23.3639 59.8613 23.7639 59.7611 24.1639 60.5626C24.4639 61.2638 24.6639 61.9651 24.6639 62.7665C24.7639 62.9669 24.564 63.3676 24.264 63.4678ZM26.3639 61.9651C26.1639 62.1655 25.864 62.0653 25.5639 62.0653C25.264 61.1637 25.064 60.0617 24.264 59.4606C23.964 59.2602 23.464 59.2602 23.464 58.8595C23.064 57.457 23.964 57.6573 24.764 58.3586C25.464 59.1601 25.964 60.0617 26.264 60.9633C26.464 61.2638 26.6639 61.6646 26.3639 61.9651ZM27.1639 60.4624C26.6639 59.3604 25.864 58.2584 24.964 57.457C24.364 56.9561 24.1639 55.9543 25.0639 56.0545C25.864 56.2548 26.2639 57.0563 26.6639 57.6573C26.8639 58.2584 27.364 58.7593 27.5639 59.4606C27.6639 59.8613 27.4639 60.262 27.1639 60.4624ZM28.3639 59.0599C27.9639 58.0581 27.464 56.9561 26.764 56.1546C26.464 55.8541 26.0639 55.4534 26.6639 55.1528C27.3639 55.253 27.764 55.8541 28.0639 56.355C28.364 57.0563 28.8639 57.6573 28.8639 58.4588C28.8639 58.6592 28.6639 58.9597 28.3639 59.0599ZM31.1639 45.7359C30.5639 46.7377 29.7639 47.6393 29.1639 48.6411C29.0639 48.9416 28.864 49.142 28.964 49.4425C28.964 51.1456 30.464 52.448 30.264 54.0508C30.164 55.3532 30.164 56.7557 29.764 57.9579C29.464 56.4552 28.6639 54.9525 27.3639 54.151C27.0639 53.9507 26.764 53.9507 26.464 54.151C26.064 54.2512 25.864 54.6519 25.764 54.9525C25.264 54.9525 24.664 54.9525 24.264 55.3532C23.864 55.6537 23.764 56.1546 23.764 56.6555C23.364 56.8559 22.864 57.2566 22.764 57.7575C22.664 58.1582 22.7639 58.6592 22.8639 59.0599C22.4639 59.661 22.264 60.3622 22.264 61.0635C22.364 62.0653 22.664 63.0671 23.264 63.8685C22.664 64.0689 22.0639 63.7684 21.6639 63.2674C21.0639 62.3658 21.264 61.2638 21.264 60.262C21.264 59.5608 21.664 58.8595 21.264 58.2584C21.064 58.0581 20.6639 58.3586 20.6639 58.559C20.2639 59.9615 20.0639 61.5644 20.3639 63.0671C19.8639 62.7666 19.564 62.0653 19.464 61.4642C19.364 59.9615 19.6639 58.559 20.0639 57.0563C20.1639 56.8559 20.0639 56.5554 19.8639 56.355C19.6639 56.1546 19.364 56.4552 19.264 56.6555C18.764 58.1582 18.5639 59.7611 18.6639 61.364C18.1639 61.1637 17.9639 60.5626 17.8639 60.0617C17.7639 58.7593 18.0639 57.5572 18.3639 56.2548C18.4639 55.9543 18.464 55.6537 18.264 55.3532C17.964 55.1528 17.664 55.4534 17.464 55.7539C17.164 56.5554 17.0639 57.457 16.8639 58.2584C16.3639 57.6573 16.4639 56.8559 16.5639 56.1546C16.6639 54.9525 17.2639 53.7503 17.8639 52.6483C18.7639 50.8451 19.7639 49.2422 20.6639 47.4389C21.1639 46.2368 21.8639 45.0346 22.0639 43.6321C22.1639 42.3297 21.464 41.6285 23.264 41.1276C23.264 41.6285 23.1639 42.1294 23.3639 42.6303C23.7639 43.7323 24.6639 44.4335 25.6639 44.9344C26.9639 45.5355 28.4639 45.836 29.8639 45.4353C30.3639 45.3351 30.7639 44.9344 31.1639 44.7341C31.1639 45.3351 31.2639 45.5355 31.1639 45.7359ZM30.0639 44.4335C28.764 45.1348 27.164 44.9344 25.964 44.2332C25.264 43.8324 24.5639 43.3315 24.3639 42.5301C24.1639 41.7286 24.3639 40.9272 24.8639 40.2259C26.7639 41.6285 28.964 42.6303 31.264 43.031C31.064 43.6321 30.6639 44.133 30.0639 44.4335ZM32.464 42.0292C30.064 42.0292 27.664 41.1276 25.764 39.6249C25.364 39.3243 24.9639 39.124 24.6639 38.7232C24.6639 38.5229 24.7639 38.2223 24.8639 38.022C25.3639 38.4227 25.964 38.8234 26.464 39.2241C28.264 40.5265 30.464 41.4281 32.764 41.4281C32.764 41.6285 32.664 41.8288 32.464 42.0292ZM33.464 40.6267C31.464 40.7268 29.5639 40.0256 27.8639 38.9236C27.0639 38.3225 26.264 37.7214 25.464 37.0202C25.464 36.7196 25.664 36.4191 25.764 36.1185C27.464 37.6212 29.3639 39.0238 31.6639 39.6249C32.3639 39.8252 33.1639 39.9254 33.8639 39.9254C33.8639 40.1258 33.664 40.4263 33.464 40.6267ZM34.3639 39.0238C33.0639 39.0238 31.664 38.7232 30.464 38.2223C28.864 37.5211 27.464 36.4191 26.264 35.2169C26.364 34.9164 26.4639 34.6158 26.6639 34.3153C28.1639 35.6176 29.6639 36.92 31.564 37.7214C32.6639 38.2223 33.864 38.4227 35.064 38.3225C34.864 38.623 34.6639 39.0238 34.3639 39.0238ZM35.6639 37.4209C33.5639 37.5211 31.464 36.8198 29.764 35.6176C28.764 34.9164 27.864 34.1149 27.0639 33.2133C27.0639 32.9128 27.2639 32.6122 27.3639 32.4119C28.9639 34.0147 30.764 35.5175 32.964 36.2187C33.964 36.5193 35.064 36.7196 36.064 36.6194C35.964 37.0202 35.7639 37.2205 35.6639 37.4209ZM36.564 35.7178C35.464 35.9182 34.264 35.7178 33.264 35.3171C31.264 34.6158 29.464 33.2133 28.0639 31.7106C27.6639 31.4101 28.064 30.9092 28.264 30.6086C29.664 32.0111 31.0639 33.3135 32.8639 34.2151C34.2639 34.9164 35.764 35.2169 37.264 35.1167C37.064 35.3171 36.964 35.7178 36.564 35.7178Z" fill="white"/>
<path d="M42.364 68.076C42.364 65.7719 42.664 63.5679 42.564 61.2638C42.564 60.863 42.764 60.4623 42.764 59.9614C42.864 59.5607 42.664 59.2602 42.764 58.8594C43.164 56.956 42.4639 54.9524 42.6639 53.049C42.6639 52.6482 42.864 52.2475 42.864 51.8468C42.764 51.3459 42.564 50.9452 42.464 50.5445C42.064 48.8414 42.364 47.0381 42.564 45.2349C42.664 44.1329 42.764 43.1311 42.564 42.0291C42.464 41.6284 42.864 41.3278 42.864 40.9271C42.864 40.7268 42.5639 40.5264 42.6639 40.326C43.3639 37.521 43.064 34.6158 43.864 31.9109C44.064 31.8107 44.264 31.8107 44.464 31.7105C44.364 31.5102 44.264 31.2096 44.064 31.1094C43.864 31.0093 43.564 31.0093 43.364 30.8089C41.064 28.9055 38.464 27.4028 36.464 25.0986C36.364 24.8982 36.1639 24.7981 36.1639 24.4975C36.1639 23.9966 36.364 23.5959 36.364 23.095C36.364 22.7945 36.5639 22.4939 36.6639 22.1934C37.2639 20.5905 37.164 18.6871 38.064 17.1843C38.264 16.6834 38.764 16.3829 39.064 15.9822C38.964 15.5815 38.664 15.4813 38.364 15.2809C38.164 15.4813 38.064 15.6816 37.764 15.6816C37.364 15.7818 36.964 15.6816 36.564 15.6816C36.164 15.6816 35.664 15.6816 35.364 15.3811C35.064 15.0806 34.764 14.6798 34.364 14.4795C34.064 14.2791 33.564 14.3793 33.364 14.6798C32.364 16.2827 33.164 18.4867 31.964 20.0896C30.564 19.188 29.264 18.086 27.964 17.0842C27.264 16.5833 26.564 16.0824 25.864 15.5815C24.664 14.6798 23.364 13.7782 22.764 12.2755C22.964 11.5742 23.464 11.0733 23.764 10.3721C23.364 10.3721 23.164 10.3721 22.864 10.6726C22.564 10.9732 22.364 11.2737 21.964 11.2737C21.864 11.1735 21.864 11.0733 21.764 10.873C21.464 10.873 21.064 10.873 20.764 10.873C20.664 11.2737 20.5639 11.5742 20.6639 11.975C20.7639 12.2755 21.064 12.2755 21.264 12.3757C21.164 12.9768 20.864 13.5778 20.464 14.0787C20.264 14.3793 19.964 14.5797 19.764 14.78C17.364 18.1861 13.764 20.3901 10.864 23.2954C10.564 23.5959 10.164 23.7963 9.86395 23.9966C8.86395 24.7981 8.16398 25.9 7.26398 26.8017C6.96398 27.1022 6.46394 27.4028 6.16394 27.7033C5.36394 28.5047 4.46395 29.3062 3.86395 30.308C3.76395 30.4082 3.76394 30.5084 3.66394 30.6085C3.36394 30.6085 3.06394 30.6085 2.66394 30.7087C2.66394 31.0093 2.66399 31.3098 2.46399 31.6103C2.16399 32.1112 1.66399 32.3116 1.46399 32.8125C1.46399 33.113 1.36396 33.3134 1.56396 33.6139C1.86396 33.8143 2.16399 33.8143 2.46399 34.0147C2.76399 36.3188 3.06395 38.623 2.86395 40.8269C2.66395 41.8287 2.86398 42.9307 2.76398 44.0327C2.56398 45.9361 2.16396 47.7394 2.06396 49.6428C2.06396 49.9434 1.86395 50.1437 1.86395 50.4443C1.56395 54.5517 1.46395 58.7593 1.36395 62.8667C1.36395 63.5679 0.963965 64.2692 1.06396 64.9704C1.06396 66.373 1.56399 67.7755 0.963989 69.0778V69.2782C1.06399 69.3784 1.26399 69.5788 1.46399 69.4786C1.66399 69.4786 1.96394 69.2782 2.16394 69.3784C2.56394 69.5788 2.96395 69.5787 3.36395 69.5787C3.66395 69.5787 3.76396 69.2782 4.06396 69.2782C8.56396 69.8793 13.064 69.7791 17.564 69.4786C17.764 69.4786 17.9639 69.4786 18.1639 69.4786C20.0639 69.9795 22.064 70.28 24.064 70.28C24.264 70.28 24.564 70.28 24.764 70.3802H26.464C27.164 70.28 27.764 70.28 28.464 70.28C30.664 70.1798 32.864 69.9795 35.064 69.6789C35.464 69.6789 35.964 69.5787 36.364 69.6789C38.464 69.9795 40.664 70.0797 42.764 70.0797C42.864 69.5787 43.164 69.0778 43.364 68.6771C43.164 68.6771 42.964 68.7773 42.864 68.7773C42.564 68.8775 42.264 68.4768 42.364 68.076ZM32.6639 20.4903C33.0639 19.0878 33.164 17.5851 33.764 16.1825C34.564 16.0824 35.164 16.6834 35.764 16.984C36.164 17.1843 36.664 17.0842 37.064 16.8838C36.864 17.7854 36.864 18.7872 36.464 19.5887C36.364 19.8892 36.064 19.9894 36.064 20.2899C35.864 21.2917 35.564 22.2936 35.364 23.3955C35.264 23.3955 35.164 23.3955 34.964 23.2954C34.864 23.095 34.7639 22.8946 34.6639 22.7945C34.1639 22.0932 33.0639 21.8928 32.6639 21.0914C32.5639 20.7908 32.6639 20.5905 32.6639 20.4903ZM41.6639 35.317C41.6639 35.7177 41.8639 36.2186 41.6639 36.6194C41.5639 37.1203 41.764 37.6212 41.464 38.0219C41.064 38.623 40.8639 39.4244 41.1639 40.0255C41.0639 40.0255 40.964 40.0255 40.864 40.0255C40.964 41.7286 40.864 43.5318 40.564 45.2349C40.464 45.6356 40.264 46.0363 40.364 46.4371C40.564 47.4389 40.364 48.4407 40.464 49.3423C40.564 49.743 40.664 50.1437 40.864 50.5445C40.964 56.3549 40.864 62.2656 40.464 68.076C40.464 68.4768 39.964 68.3766 39.764 68.3766C39.664 68.4768 39.664 68.5769 39.564 68.6771C39.264 68.5769 39.064 68.1762 38.764 68.1762C38.264 68.1762 37.764 68.2764 37.264 68.1762C35.064 68.2764 32.964 68.8775 30.764 68.9777C27.464 69.0778 24.264 69.0778 20.964 68.5769C20.864 68.4768 20.664 68.3766 20.464 68.2764C18.564 67.8757 16.564 68.1762 14.564 68.3766C12.064 68.9777 9.46395 68.2764 6.86395 68.4768C6.36395 68.076 5.66399 68.1762 4.96399 68.2764C4.76399 68.3766 4.56395 68.1762 4.36395 68.1762C4.06395 68.076 3.76395 68.1762 3.36395 68.2764C3.06395 68.1762 2.76399 68.076 2.46399 68.076C2.56399 58.8594 3.26399 49.743 3.96399 40.5264C3.96399 40.1257 4.06396 39.725 4.06396 39.3242C3.56396 37.0201 3.46399 34.6158 3.96399 32.4118C4.06399 32.2114 4.06398 31.9109 4.26398 31.8107C5.36398 31.0093 5.86399 29.7069 6.96399 28.9055C7.26399 28.6049 7.66395 28.5047 7.86395 28.2042C10.664 24.3973 14.764 21.8928 18.064 18.4867C19.064 17.4849 21.564 13.2773 22.264 13.678C22.864 13.9786 23.1639 14.5797 23.6639 14.8802C24.7639 15.5815 25.564 16.7836 26.964 17.1843C27.164 17.8856 27.864 18.086 28.264 18.5869C28.864 19.188 29.564 19.6889 30.264 20.2899C30.664 20.7908 31.2639 21.0914 31.6639 21.4921C32.8639 22.4939 33.864 23.8964 34.564 25.299C34.664 25.5995 34.9639 25.6997 35.1639 25.7999C37.5639 27.5029 39.464 29.7069 41.864 31.2096C41.564 32.9127 41.5639 34.1148 41.6639 35.317Z" fill="white"/>
<path d="M45.6639 66.7738C45.5639 66.5735 45.4639 66.4733 45.2639 66.3731C45.0639 66.273 44.9639 66.2729 44.7639 66.2729C44.5639 66.2729 44.3639 66.273 44.2639 66.3731C44.0639 66.4733 43.9639 66.5735 43.8639 66.7738C43.7639 66.9742 43.7639 67.1746 43.7639 67.2747C43.7639 67.4751 43.7639 67.6755 43.8639 67.7757C43.9639 67.976 44.0639 68.0762 44.2639 68.1764C44.4639 68.2766 44.6639 68.2766 44.7639 68.2766C44.8639 68.2766 45.1639 68.2766 45.2639 68.1764C45.4639 68.0762 45.5639 67.976 45.6639 67.7757C45.7639 67.5753 45.7639 67.3749 45.7639 67.2747C45.8639 67.1746 45.7639 66.9742 45.6639 66.7738ZM45.5639 67.7757C45.4639 67.8758 45.3639 68.0762 45.2639 68.0762C45.1639 68.1764 44.9639 68.1764 44.8639 68.1764C44.6639 68.1764 44.5639 68.1764 44.4639 68.0762C44.3639 67.976 44.1639 67.8758 44.1639 67.7757C44.1639 67.6755 44.0639 67.4751 44.0639 67.3749C44.0639 67.1746 44.0639 67.0744 44.1639 66.874C44.2639 66.7739 44.3639 66.5735 44.4639 66.5735C44.5639 66.4733 44.7639 66.4733 44.8639 66.4733C45.0639 66.4733 45.1639 66.4733 45.2639 66.5735C45.3639 66.6737 45.5639 66.7739 45.5639 66.874C45.6639 66.9742 45.6639 67.1746 45.6639 67.3749C45.6639 67.4751 45.6639 67.6755 45.5639 67.7757Z" fill="white"/>
<path d="M44.9639 67.4749C44.9639 67.4749 44.8639 67.4749 44.9639 67.4749C44.9639 67.3748 45.0639 67.3748 45.0639 67.2746C45.0639 67.1744 45.1639 67.1744 45.1639 67.0742C45.1639 66.974 45.1639 66.974 45.0639 66.8739C45.0639 66.7737 44.9639 66.7737 44.9639 66.7737C44.8639 66.7737 44.7639 66.7737 44.6639 66.7737H44.2639V67.9758H44.4639V67.4749H44.5639C44.6639 67.4749 44.6639 67.4749 44.7639 67.4749C44.7639 67.4749 44.8639 67.5751 44.9639 67.7755L45.0639 67.9758H45.2639L45.1639 67.7755C45.0639 67.5751 44.9639 67.5751 44.9639 67.4749ZM44.6639 67.2746H44.4639V66.8739H44.6639C44.7639 66.8739 44.8639 66.8739 44.8639 66.8739C44.8639 66.8739 44.9639 66.8739 44.9639 66.974V67.0742C44.9639 67.1744 44.9639 67.1744 44.8639 67.1744C44.8639 67.2746 44.8639 67.2746 44.6639 67.2746Z" fill="white"/>
<path d="M23.864 49.4426C23.164 49.8434 22.764 50.5446 22.264 51.1457C22.364 50.3443 22.564 49.5428 22.464 48.7414C22.364 48.0401 21.564 48.6412 21.264 48.8416C20.264 49.643 19.664 50.8452 19.064 51.9472C19.264 52.0473 19.4639 52.2477 19.6639 52.3479C20.2639 51.2459 20.8639 50.1439 21.6639 49.2423C21.7639 49.0419 21.9639 48.9417 22.1639 48.8416C22.1639 50.2441 21.564 51.5464 20.964 52.8488C20.964 53.1493 21.3639 53.3497 21.6639 53.4499C21.8639 53.55 21.864 53.3497 21.964 53.2495C22.364 52.3479 22.764 51.4462 23.364 50.745C23.564 50.4444 23.864 50.0437 24.264 49.8434C24.364 51.4463 23.6639 52.8488 23.1639 54.3515C23.1639 54.4517 23.064 54.5518 23.064 54.7522C23.264 54.9526 23.4639 55.0527 23.6639 55.1529C24.264 53.4499 24.764 51.6466 24.564 49.8434C24.464 49.643 24.264 49.3425 23.864 49.4426Z" fill="white"/>
</svg>
