<svg width="39" height="51" viewBox="0 0 39 51" fill="none" xmlns="http://www.w3.org/2000/svg">
<path fill-rule="evenodd" clip-rule="evenodd" d="M19.2735 12.494C19.2735 12.494 28.0735 32.4299 27.9735 32.4299C26.0735 32.4299 24.1735 32.4299 22.2735 32.4299C22.2735 32.3297 19.5735 25.9181 19.5735 25.9181C17.4735 25.9181 15.4735 25.9181 13.3735 25.9181C13.4735 25.9181 19.3735 12.3938 19.2735 12.494Z" fill="white"/>
<path fill-rule="evenodd" clip-rule="evenodd" d="M0.673584 0.271973H14.0736L0.773575 32.4299C0.673575 32.3297 0.673584 0.271973 0.673584 0.271973Z" fill="white"/>
<path fill-rule="evenodd" clip-rule="evenodd" d="M24.2736 0.271973H38.0736C38.0736 0.372153 38.0736 32.4299 38.0736 32.4299C38.0736 32.5301 24.2736 0.271973 24.2736 0.271973Z" fill="white"/>
<path fill-rule="evenodd" clip-rule="evenodd" d="M6.07362 37.439L9.07362 50.1619H6.87363L6.37363 47.7576H3.67363L3.17363 50.1619H0.973633L3.97363 37.439H6.07362ZM5.97363 45.6538L5.07362 40.8451L4.17363 45.6538H5.97363Z" fill="white"/>
<path fill-rule="evenodd" clip-rule="evenodd" d="M13.9735 50.1618L13.8735 49.0598H13.7735C13.4735 49.9614 12.8735 50.5625 12.0735 50.5625C10.1735 50.5625 9.37354 48.3586 9.37354 45.5535C9.37354 43.1492 9.97353 40.6447 12.0735 40.6447C12.8735 40.6447 13.1735 40.9452 13.6735 41.6465V37.5391H15.5735V50.262H13.9735V50.1618ZM12.5735 42.4479C12.0735 42.4479 11.3735 42.9488 11.3735 45.5535C11.3735 46.7557 11.5735 48.6591 12.5735 48.6591C13.5735 48.6591 13.7735 46.956 13.7735 45.5535C13.8735 42.9488 13.0735 42.4479 12.5735 42.4479Z" fill="white"/>
<path fill-rule="evenodd" clip-rule="evenodd" d="M16.9736 45.5536C16.9736 42.6484 17.9736 40.6448 20.1736 40.6448C22.3736 40.6448 23.3736 42.7486 23.3736 45.5536C23.3736 48.4588 22.3736 50.5626 20.1736 50.5626C18.0736 50.5626 16.9736 48.4588 16.9736 45.5536ZM21.4736 45.5536C21.4736 43.0491 20.9736 42.448 20.1736 42.448C19.5736 42.448 18.8736 42.8487 18.8736 45.5536C18.8736 48.2585 19.5736 48.6592 20.1736 48.6592C21.0736 48.6592 21.4736 47.9579 21.4736 45.5536Z" fill="white"/>
<path fill-rule="evenodd" clip-rule="evenodd" d="M26.5735 50.1619H24.8735V37.439H26.7735V41.6465C27.1735 40.7449 27.8735 40.5446 28.3735 40.5446C30.3735 40.5446 31.1735 42.6484 31.1735 45.4534C31.1735 48.2585 30.4735 50.4624 28.4735 50.4624C27.6735 50.4624 27.1735 50.0617 26.7735 48.9597H26.6735L26.5735 50.1619ZM27.8735 48.6592C28.8735 48.6592 29.0735 46.9561 29.0735 45.5536C29.0735 42.9489 28.3735 42.448 27.8735 42.448C27.3735 42.448 26.6735 42.9489 26.6735 45.5536C26.6735 46.7558 26.7735 48.6592 27.8735 48.6592Z" fill="white"/>
<path fill-rule="evenodd" clip-rule="evenodd" d="M38.3736 47.5572C37.8736 50.3623 36.3736 50.5626 35.2736 50.5626C34.0736 50.5626 32.0736 50.1619 32.0736 45.5536C32.0736 42.3478 33.3736 40.6448 35.3736 40.6448C36.6736 40.6448 38.4736 41.346 38.4736 45.754V46.2549H34.0736C34.0736 48.4588 34.8736 48.6592 35.3736 48.6592C35.7736 48.6592 36.2736 48.559 36.4736 47.457H38.3736V47.5572ZM36.5736 44.7522C36.4736 42.8487 36.0736 42.5482 35.4736 42.5482C34.3736 42.5482 34.1736 44.0509 34.1736 44.7522H36.5736Z" fill="white"/>
</svg>
