<svg width="80" height="31" viewBox="0 0 80 31" fill="none" xmlns="http://www.w3.org/2000/svg">
<path fill-rule="evenodd" clip-rule="evenodd" d="M4.07361 24.1329V30.0436H2.57361V24.1329H0.473633V22.8306H6.17361V24.1329H4.07361Z" fill="white"/>
<path fill-rule="evenodd" clip-rule="evenodd" d="M14.9736 30.0436V26.8378H12.1736V30.0436H10.6736V22.8306H12.1736V25.5354H14.9736V22.8306H16.4736V30.0436H14.9736Z" fill="white"/>
<path fill-rule="evenodd" clip-rule="evenodd" d="M21.6736 30.0436V22.8306H26.8736V24.1329H23.0736V25.7358H26.5736V26.938H23.0736V28.8414H26.9736V30.0436H21.6736Z" fill="white"/>
<path fill-rule="evenodd" clip-rule="evenodd" d="M36.5736 30.0436L36.0736 28.641H33.3737L32.8737 30.0436H31.3737L33.8737 22.8306H35.5736L38.0736 30.0436H36.5736ZM34.7737 24.6338L33.8737 27.4389H35.6736L34.7737 24.6338Z" fill="white"/>
<path fill-rule="evenodd" clip-rule="evenodd" d="M45.7736 24.1329V30.0436H44.2736V24.1329H42.0736V22.8306H47.8736V24.1329H45.7736Z" fill="white"/>
<path fill-rule="evenodd" clip-rule="evenodd" d="M56.7736 30.0436C56.6736 29.8432 56.5736 29.6428 56.5736 29.3423C56.5736 28.9416 56.5736 28.4407 56.5736 27.9398C56.5736 27.4389 56.1736 27.2385 55.6736 27.2385H53.9736V30.0436H52.4736V22.8306H56.4736C57.1736 22.8306 57.8736 23.2313 58.1736 23.9326C58.2736 24.2331 58.3736 24.734 58.2736 25.3351C58.0736 25.9362 57.7736 26.1365 57.2736 26.4371C57.4736 26.6374 57.9736 26.7376 58.0736 27.4389C58.0736 27.7394 58.1736 28.641 58.1736 29.0418C58.1736 29.4425 58.2736 29.5427 58.4736 29.6428V30.0436H56.7736ZM55.9736 24.1329H53.9736V26.0363H55.9736C56.2736 26.0363 56.9736 25.6356 56.8736 24.9344C56.8736 24.4335 56.6736 24.1329 55.9736 24.1329Z" fill="white"/>
<path fill-rule="evenodd" clip-rule="evenodd" d="M63.3737 30.0436V22.8306H68.5736V24.1329H64.7737V25.7358H68.2737V26.938H64.7737V28.8414H68.6736V30.0436H63.3737Z" fill="white"/>
<path fill-rule="evenodd" clip-rule="evenodd" d="M77.4736 25.0345C77.4736 24.4334 76.9736 23.9325 75.9736 23.9325C75.2736 23.9325 74.6736 24.1328 74.6736 24.7339C74.6736 25.2348 74.7736 25.335 75.1736 25.4352C75.3736 25.6355 76.6736 25.8359 76.9736 25.8359C77.3736 25.9361 78.1736 26.0363 78.6736 26.5372C79.4736 27.4388 79.0736 29.1419 78.1736 29.7429C77.5736 30.1437 76.7736 30.2438 75.9736 30.2438C75.5736 30.2438 74.7736 30.1437 74.1736 29.7429C73.5736 29.242 73.1736 28.5408 73.1736 27.8395H74.5736C74.5736 28.0399 74.6736 28.3404 74.8736 28.5408C75.1736 28.8413 75.7736 28.9415 76.1736 28.9415C76.6736 28.9415 77.1736 28.7411 77.2736 28.641C77.5736 28.3404 77.6736 27.7393 77.2736 27.4388C76.7736 26.9379 75.3736 26.9379 74.4736 26.6373C73.6736 26.3368 73.0736 25.8359 73.1736 24.6337C73.2736 23.5318 74.0736 22.6301 75.8736 22.6301C76.2736 22.6301 77.5736 22.6301 78.2736 23.5318C78.6736 24.0327 78.7736 24.7339 78.6736 24.9343H77.4736V25.0345Z" fill="white"/>
<path fill-rule="evenodd" clip-rule="evenodd" d="M76.0736 18.122C76.0736 17.3206 76.6736 16.7195 77.4736 16.7195C78.2736 16.7195 78.8736 17.3206 78.8736 18.122C78.8736 18.9235 78.2736 19.5245 77.4736 19.5245C76.6736 19.5245 76.0736 18.8233 76.0736 18.122ZM78.6736 18.122C78.6736 17.4207 78.0736 16.9198 77.4736 16.9198C76.7736 16.9198 76.2736 17.5209 76.2736 18.122C76.2736 18.8233 76.8736 19.3242 77.4736 19.3242C78.1736 19.3242 78.6736 18.7231 78.6736 18.122ZM78.1736 18.8233H77.9736L77.4736 18.122H77.0736V18.8233H76.8736V17.2204H77.5736C77.6736 17.2204 77.8736 17.2204 77.9736 17.3206C78.0736 17.4207 78.1736 17.5209 78.1736 17.6211C78.1736 17.9216 77.9736 18.0218 77.6736 18.0218L78.1736 18.8233ZM77.3736 18.0218C77.5736 18.0218 77.9736 18.0218 77.9736 17.7213C77.9736 17.5209 77.7736 17.4207 77.5736 17.4207H77.0736V18.0218H77.3736Z" fill="white"/>
<path fill-rule="evenodd" clip-rule="evenodd" d="M41.9737 3.3946C45.5737 0.389182 49.2737 0.38918 52.4737 1.99207C55.4737 3.59496 56.4736 5.79893 56.5736 9.10488V17.1193C56.5736 17.1193 56.5736 19.4235 54.1736 19.4235C51.9736 19.4235 51.8737 17.1193 51.8737 17.1193V9.10488C51.8737 9.10488 51.7736 5.39821 48.0736 5.39821C44.3736 5.39821 44.0736 9.10488 44.0736 9.10488V17.0191C44.0736 17.0191 44.0736 19.4235 41.6736 19.4235C39.3736 19.4235 39.3737 17.0191 39.3737 17.0191V9.20507C39.3737 9.20507 39.2737 5.49839 35.3737 5.49839C31.4737 5.49839 31.5736 9.30524 31.5736 9.30524V17.3197C31.5736 17.3197 31.2737 19.4235 29.2737 19.4235C27.1737 19.4235 26.8737 17.3197 26.8737 17.3197V9.20507C26.8737 6.19965 27.4736 3.29441 31.6736 1.59134C33.5736 0.789901 35.8737 0.890082 37.8737 1.2908C39.2737 1.79171 40.3736 2.49297 41.5736 3.3946L41.7737 3.59495L41.9737 3.3946Z" fill="white"/>
<path fill-rule="evenodd" clip-rule="evenodd" d="M19.3736 17.1193C19.3736 14.8151 17.0736 14.8151 17.0736 14.8151H8.77359C8.27359 14.8151 8.1736 14.4144 8.3736 14.0137C9.3736 11.5092 11.6736 8.60395 14.0736 7.40179C16.0736 6.39998 18.3736 5.298 20.6736 5.49836C21.1736 5.49836 21.1736 5.7989 21.1736 6.50016V17.0191C21.1736 17.0191 21.2736 19.4235 23.5736 19.4235C25.9736 19.4235 25.7736 17.1193 25.7736 17.1193V3.89547C25.7736 3.09403 25.6736 2.29258 25.1736 1.6915C24.7736 1.39096 24.3736 0.990235 23.7736 0.990235C20.9736 0.789874 18.1736 0.990234 15.5736 1.79168C10.7736 3.19421 6.07359 7.10125 3.77359 11.8097C2.97359 13.4126 2.17358 15.5164 2.17358 17.4198C2.17358 18.3215 2.57358 19.4235 3.67358 19.4235L17.0736 19.5236C17.0736 19.4234 19.3736 19.5236 19.3736 17.1193Z" fill="white"/>
<path fill-rule="evenodd" clip-rule="evenodd" d="M74.7736 11.41C77.0736 11.6104 76.8736 13.8143 76.8736 13.8143C75.5736 17.8215 71.8736 20.2259 67.4736 20.2259C61.9736 20.2259 57.5736 15.8179 57.5736 10.308C57.5736 4.79808 61.9736 0.390137 67.4736 0.390137C71.8736 0.390137 75.6736 2.5941 76.8736 6.60132C76.8736 6.60132 77.4736 9.00566 74.8736 9.3062C72.9736 9.3062 72.6736 7.70331 72.6736 7.70331C71.9736 5.49934 69.8736 4.79808 67.4736 4.79808C64.4736 4.79808 61.9736 7.30259 61.9736 10.308C61.9736 13.3134 64.4736 15.8179 67.4736 15.8179C69.8736 15.8179 71.8736 14.7159 72.6736 12.6122C72.6736 12.7123 73.0736 11.41 74.7736 11.41Z" fill="white"/>
</svg>
