<svg width="99" height="15" viewBox="0 0 99 15" fill="none" xmlns="http://www.w3.org/2000/svg">
<path d="M21.5043 2.60867C24.1043 2.60867 26.3043 4.71246 26.3043 7.41734C26.3043 10.1222 24.2043 12.226 21.5043 12.226C18.8043 12.226 16.7043 10.1222 16.7043 7.41734C16.7043 4.71246 18.9043 2.60867 21.5043 2.60867ZM21.5043 0.80542C17.9043 0.80542 14.9043 3.71066 14.9043 7.41734C14.9043 11.0238 17.8043 14.0292 21.5043 14.0292C25.1043 14.0292 28.1043 11.124 28.1043 7.41734C28.1043 3.81084 25.1043 0.80542 21.5043 0.80542Z" fill="white"/>
<path d="M45.9043 1.20532C45.8043 1.20532 45.8043 1.20532 45.8043 1.3055L39.0043 10.4219L32.2043 1.3055L32.1043 1.20532C32.0043 1.20532 31.9043 1.3055 31.9043 1.40568V13.6277H33.7043V6.41471L38.9043 13.4273H39.0043H39.1043L44.3043 6.41471V13.6277H46.1043V1.40568C46.1043 1.3055 46.0043 1.20532 45.9043 1.20532Z" fill="white"/>
<path d="M52.8043 9.11958V13.6277H51.0043V1.20532" fill="white"/>
<path d="M57.0043 1.20532H51.0043V13.6277H52.8043V9.21976H57.0043C59.2043 9.21976 61.0043 7.41651 61.0043 5.21254C61.0043 3.00857 59.2043 1.20532 57.0043 1.20532ZM57.0043 7.31633H52.8043V3.00857H57.0043C58.2043 3.00857 59.2043 4.01038 59.2043 5.21254C59.2043 6.41471 58.2043 7.31633 57.0043 7.31633Z" fill="white"/>
<path d="M10.5043 10.3226C9.60427 11.4246 8.30425 12.226 6.70425 12.226C4.10425 12.226 1.90427 10.1222 1.90427 7.41734C1.90427 4.71246 4.00425 2.60867 6.70425 2.60867C8.20425 2.60867 9.60427 3.30993 10.5043 4.5121L11.8043 3.20975C10.6043 1.70705 8.80425 0.80542 6.70425 0.80542C3.10425 0.80542 0.104248 3.71066 0.104248 7.41734C0.104248 11.124 3.00425 14.0292 6.70425 14.0292C8.70425 14.0292 10.6043 13.1276 11.8043 11.6249L10.5043 10.3226Z" fill="white"/>
<path d="M81.5043 13.8284C79.4043 13.8284 78.0042 12.7264 77.1042 11.7246L78.4043 10.5224C78.7043 10.9232 79.8043 12.1253 81.5043 12.1253C83.1043 12.1253 84.2043 11.3239 84.2043 10.1217C84.2043 9.11991 83.5042 8.41864 82.1042 8.1181L80.6042 7.81756C77.4042 7.01612 77.4043 5.11269 77.4043 4.41143C77.4043 2.40782 79.0043 1.10547 81.4043 1.10547C83.0043 1.10547 84.3043 1.70655 85.5043 2.90872L84.2043 4.11088C83.9043 3.81034 82.8043 2.80854 81.4043 2.80854C80.0043 2.80854 79.2043 3.40962 79.2043 4.41143C79.2043 4.71197 79.3043 5.71377 80.8043 6.01431L82.2043 6.31486C84.7043 6.91594 86.0043 8.21828 86.0043 10.1217C86.0043 12.2255 84.1043 13.8284 81.5043 13.8284Z" fill="white"/>
<path d="M93.6043 13.8284C91.5043 13.8284 90.1043 12.7264 89.2043 11.7246L90.5043 10.5224C90.8043 10.9232 91.9043 12.1253 93.6043 12.1253C95.2043 12.1253 96.3043 11.3239 96.3043 10.1217C96.3043 9.11991 95.6043 8.41864 94.2043 8.1181L92.7043 7.81756C89.5043 7.01612 89.5043 5.11269 89.5043 4.41143C89.5043 2.40782 91.1043 1.10547 93.5043 1.10547C95.1043 1.10547 96.4043 1.70655 97.6043 2.90872L96.3043 4.11088C96.0043 3.81034 94.9043 2.80854 93.5043 2.80854C92.1043 2.80854 91.3043 3.40962 91.3043 4.41143C91.3043 4.71197 91.4043 5.71377 92.9043 6.01431L94.3043 6.31486C96.8043 6.91594 98.1043 8.21828 98.1043 10.1217C98.1043 12.2255 96.1043 13.8284 93.6043 13.8284Z" fill="white"/>
<path d="M23.0693 4.58513L18.6853 8.97705L19.9581 10.2521L24.3421 5.86021L23.0693 4.58513Z" fill="white"/>
<path d="M68.4043 1.20565C68.4043 1.10547 68.3043 1.10547 68.2043 1.10547C68.1043 1.10547 68.1043 1.10547 68.0043 1.20565L61.5043 13.628H63.5043L65.2043 10.4223H71.2043L72.9043 13.628H74.9043L68.4043 1.20565ZM66.2043 8.61901L68.2043 4.71197L70.2043 8.61901H66.2043Z" fill="white"/>
</svg>

