<svg width="168" height="13" viewBox="0 0 168 13" fill="none" xmlns="http://www.w3.org/2000/svg">
<path d="M4.00421 1.60839C4.00421 1.40803 4.00424 1.20767 3.90424 1.00731C3.80424 0.806952 3.60426 0.806951 3.30426 0.806951H2.70422V6.31688H3.40424C3.60424 6.31688 3.80424 6.21669 3.90424 6.11651C4.00424 5.91615 4.00421 5.71579 4.00421 5.51543V1.60839ZM2.60425 6.61742V11.927H3.10425V12.2275H0.104248V11.927H0.604248V0.907134H0.104248V0.606589H3.60425C3.80425 0.606589 4.70422 0.506412 5.20422 0.907134C5.80422 1.30786 5.90424 1.70858 5.90424 2.30966V5.01453C5.90424 5.31507 5.80426 5.81597 5.30426 6.2167C4.80426 6.51724 3.90422 6.61742 3.20422 6.61742H2.60425Z" fill="white"/>
<path d="M19.2042 2.61045C19.2042 2.00936 19.0042 1.809 18.5042 1.809C18.0042 1.809 17.7042 2.00936 17.7042 2.61045V11.226C17.7042 11.6267 17.8042 12.0274 18.4042 12.0274C18.9042 12.0274 19.1042 11.8271 19.1042 11.226V2.61045H19.2042ZM21.0042 10.5247C21.0042 11.5265 20.3042 12.2278 18.5042 12.2278C16.5042 12.2278 16.0042 11.5265 16.0042 10.5247V3.51207C16.0042 2.30991 16.9042 1.60864 18.6042 1.60864C20.2042 1.60864 21.1042 2.41009 21.1042 3.51207V10.5247" fill="white"/>
<path d="M37.1042 1.70874V3.81253H36.8043V2.20964H35.2042V11.9272H35.7042V12.1275H33.0042V11.9272H33.4042V2.20964H31.9042V3.81253H31.6042V1.70874H37.1042Z" fill="white"/>
<path d="M53.1042 1.70874V3.81253H52.8043V2.20964H51.3043V11.9272H51.7042V12.1275H49.0042V11.9272H49.5042V2.20964H48.0042V3.81253H47.7042V1.70874H53.1042Z" fill="white"/>
<path d="M65.9042 6.61758H67.9042V5.71596H68.2042V8.02011H67.9042V7.11849H65.9042V11.6266H67.9042V10.1239H68.2042V12.1275H63.7042V11.9272H64.1042V2.00928H63.7042V1.70874H68.2042V3.71235H67.9042V2.20964H65.9042V6.61758Z" fill="white"/>
<path d="M82.2042 2.61028C82.2042 2.40992 82.2042 2.30974 82.1042 2.10938C81.9042 1.90902 81.7042 1.90902 81.5042 1.90902H80.9042V6.71768H81.6042C81.8042 6.71768 82.0042 6.6175 82.1042 6.51732C82.2042 6.31696 82.2042 6.1166 82.2042 6.01642V2.61028ZM82.8043 6.81786C82.8043 6.91804 83.5042 6.91805 83.9042 7.21859C84.4042 7.51913 84.4042 7.91985 84.4042 8.32057V11.8269H84.8043V12.0273H82.5042V8.02003C82.5042 7.71949 82.6043 7.41895 82.3043 7.21859C82.1043 7.11841 81.7042 7.1184 81.5042 7.1184H80.9042V12.0273H81.3043V12.2276H78.6042V12.0273H79.0042V2.0092H78.6042V1.80884H81.8043C82.0043 1.80884 82.8043 1.80884 83.3043 2.0092C83.8043 2.30974 83.9042 2.71046 83.9042 3.31155V5.51552C83.9042 5.6157 83.9042 6.1166 83.5042 6.51732C83.3042 6.71768 82.8043 6.71768 82.8043 6.81786Z" fill="white"/>
<path d="M96.5042 8.42084L94.6042 2.00928H94.1042V1.70874H96.8043V2.00928H96.4042L98.0042 7.41903L99.4042 2.00928H98.9042V1.70874H100.404V2.00928H100.004L98.3043 8.42084V11.9272H98.7042V12.1275H96.0042V11.9272H96.5042V8.42084Z" fill="white"/>
<path d="M113.304 0.807133V6.1167H114.404C114.404 6.1167 114.704 6.1167 114.804 6.01652C114.904 5.91634 114.904 5.71598 114.904 5.6158V1.5084C114.904 1.5084 114.904 1.10768 114.804 0.907315C114.704 0.807135 114.204 0.807133 114.204 0.807133H113.304ZM113.304 11.827H114.404C114.404 11.827 114.804 11.827 115.004 11.7268C115.204 11.5265 115.304 11.4263 115.304 11.1257V7.01833C115.304 6.81797 115.304 6.71778 115.204 6.6176C115.104 6.51742 114.904 6.41725 114.604 6.41725H113.404V11.827H113.304ZM117.204 7.81977V10.4245C117.204 10.8252 117.204 11.2259 116.904 11.5265C116.504 12.0274 115.604 12.1275 115.204 12.1275H110.804V11.827H111.304V0.807133H110.804V0.506592H114.904C115.404 0.506592 115.804 0.606774 116.204 0.907315C116.804 1.40822 116.804 2.0093 116.804 2.0093V4.81435C116.804 4.81435 116.804 5.41544 116.404 5.71598C115.904 6.1167 115.504 6.21688 115.504 6.21688C115.504 6.31706 116.204 6.31706 116.804 6.71779C117.104 7.01833 117.204 7.31887 117.204 7.81977Z" fill="white"/>
<path d="M129.804 8.62111H131.804L130.804 2.91083L129.804 8.62111ZM130.604 2.0092H130.204V1.80884H133.004V2.0092H132.504L134.304 11.9271H134.704V12.1274H132.004V11.9271H132.404L131.904 9.02183H129.704L129.104 11.9271H129.504V12.1274H128.104V11.9271H128.504L130.604 2.0092Z" fill="white"/>
<path d="M148.704 2.61028C148.704 2.40992 148.704 2.30974 148.604 2.10938C148.404 1.90902 148.204 1.90902 148.004 1.90902H147.404V6.71768H148.104C148.304 6.71768 148.504 6.6175 148.604 6.51732C148.704 6.31696 148.704 6.1166 148.704 6.01642V2.61028ZM149.304 6.81786C149.304 6.91804 150.004 6.91805 150.404 7.21859C150.904 7.51913 150.904 7.91985 150.904 8.32057V11.8269H151.304V12.0273H149.004V8.02003C149.004 7.71949 149.104 7.41895 148.804 7.21859C148.604 7.11841 148.204 7.1184 148.004 7.1184H147.404V12.0273H147.804V12.2276H145.104V12.0273H145.504V2.0092H145.104V1.80884H148.304C148.504 1.80884 149.304 1.80884 149.804 2.0092C150.304 2.30974 150.404 2.71046 150.404 3.31155V5.51552C150.404 5.6157 150.404 6.1166 150.004 6.51732C149.804 6.71768 149.304 6.71768 149.304 6.81786Z" fill="white"/>
<path d="M165.104 12.1275L163.004 3.51199V11.9272H163.404V12.1275H162.004V11.9272H162.404V2.00928H162.004V1.70874H164.204L166.504 10.725V2.00928H166.104V1.70874H167.504V2.00928H167.104V12.1275H165.104Z" fill="white"/>
</svg>
