<svg width="67" height="19" viewBox="0 0 67 19" fill="none" xmlns="http://www.w3.org/2000/svg">
<path d="M34.764 4.0075C33.564 3.20606 31.864 2.90552 29.664 2.90552H25.464V16.7304H29.764C31.264 16.7304 32.564 16.5301 33.664 16.1293C34.764 15.7286 35.664 14.9272 36.164 13.9254C36.764 12.9236 37.064 11.521 37.064 9.91815C37.064 8.41544 36.864 7.21328 36.464 6.31165C36.164 5.30985 35.564 4.60858 34.764 4.0075ZM33.664 12.3225C33.464 13.0237 33.164 13.5246 32.664 13.9254C32.064 14.3261 31.264 14.5265 30.164 14.5265H28.664V5.20967H29.964C31.164 5.20967 32.164 5.41003 32.764 5.91093C33.264 6.21147 33.564 6.71237 33.764 7.31346C33.964 7.91454 34.064 8.71598 34.064 9.71779C33.964 10.7196 33.864 11.6212 33.664 12.3225Z" fill="white"/>
<path d="M39.064 16.8306H42.264V10.92H45.864V8.6158H42.264V5.20967H47.864V2.90552H39.064V16.8306Z" fill="white"/>
<path d="M49.864 16.8306H53.064V2.90552H49.864V16.8306Z" fill="white"/>
<path d="M66.964 2.90552H63.764V10.92L57.864 2.90552H55.364V16.8306H58.564V8.6158L64.364 16.8306H66.964V2.90552Z" fill="white"/>
<path d="M13.5639 17.3315C13.2639 17.2313 13.064 17.0309 12.364 15.8288L10.964 13.4244L9.26396 10.6194L9.16398 10.419C9.26398 10.419 9.36399 10.419 9.36399 10.3188C11.264 9.61757 12.464 7.9145 12.464 5.40999C12.464 4.20782 11.964 3.00565 10.964 2.10403C10.864 2.00385 10.6639 1.90367 10.5639 1.80349C9.26394 1.00204 7.56396 0.601318 5.26396 0.601318H0.864003H0.763966C0.463967 0.601318 0.463954 0.801682 0.563954 0.901863C0.663954 1.00204 0.764003 1.2024 0.864003 1.70331V15.6284C0.864003 16.2295 0.663954 16.3297 0.563954 16.53C0.463954 16.6302 0.463967 16.8306 0.763966 16.8306H3.96397V10.9199H5.46397L6.46397 12.623L7.76396 14.827L8.36399 15.9289C9.16399 17.2313 9.86396 18.0327 11.264 18.1329C11.464 18.1329 11.664 18.1329 11.864 18.1329H12.0639C12.5639 18.1329 13.064 17.9326 13.364 17.8324H13.464C13.864 17.632 13.7639 17.4316 13.5639 17.3315ZM6.06395 8.61576H4.16399H4.06395V2.90547H6.06395C7.06395 2.90547 7.86397 3.00565 8.46397 3.60673C8.66397 3.8071 8.86397 4.00746 8.96397 4.308C9.06397 4.70872 9.16398 5.10944 9.16398 5.61034C9.06398 6.41179 9.06394 8.61576 6.06395 8.61576Z" fill="white"/>
<path d="M17.664 10.92H21.364V8.6158H17.664V5.20967H23.364V2.90552H14.564V16.8306H23.364V14.5265H17.664V10.92Z" fill="white"/>
</svg>
