<svg width="79" height="21" viewBox="0 0 79 21" fill="none" xmlns="http://www.w3.org/2000/svg">
<path fill-rule="evenodd" clip-rule="evenodd" d="M78.1531 15.5265C77.1532 18.2314 74.5531 20.0346 70.2531 20.0346C66.6532 20.0346 63.1532 17.9308 64.0532 13.2223C64.7532 9.11495 68.4532 6.51025 72.6532 6.51025C77.3531 6.51025 79.4531 9.71603 78.7531 13.5229L78.5532 14.3243H69.6532C69.6532 14.4245 69.5532 14.8252 69.5532 15.3261C69.5532 16.4281 70.1531 16.929 70.8531 16.929C71.6531 16.929 72.3531 16.4281 72.7531 15.6267H78.1531V15.5265ZM73.6532 11.6195L73.7531 11.3189C73.9531 10.3171 73.4531 9.51567 72.4531 9.51567C71.4531 9.51567 70.6531 10.2169 70.3531 11.6195H73.6532Z" fill="white"/>
<path fill-rule="evenodd" clip-rule="evenodd" d="M63.2533 6.71045C61.8533 6.71045 60.7533 7.41171 60.0533 8.5137H59.9532L60.1533 6.91081H54.4532L54.0533 8.61388L57.1533 8.21316L57.0533 8.5137L53.8533 9.0146L51.6533 19.6337H57.8533C57.8533 19.6337 58.4533 16.5281 58.8533 14.8251C59.4533 11.9198 61.0533 11.3188 62.0533 11.3188C62.9533 11.3188 63.5533 11.7195 63.6533 11.8197L64.6533 7.11117C64.6533 7.01099 64.1533 6.71045 63.2533 6.71045Z" fill="white"/>
<path fill-rule="evenodd" clip-rule="evenodd" d="M7.15336 12.1203C4.65336 11.3188 2.75334 9.91631 2.75334 7.11126C2.75334 3.00386 6.85334 0.699707 12.2533 0.699707C16.7533 0.699707 19.8533 2.60314 19.3533 6.41H12.8533C13.0533 5.40819 12.4533 4.80711 11.3533 4.80711C10.5533 4.80711 9.85333 5.20783 9.75333 5.80891C9.65333 6.51017 10.1533 7.01108 11.2533 7.31162C12.2533 7.61216 12.8533 7.81252 13.8533 8.01288C16.6533 8.81433 17.9533 10.5174 18.2533 12.2205L10.0534 13.0219L7.15336 12.1203ZM7.35331 16.5282L7.85331 13.9235H0.853324C0.353326 18.3315 3.85334 20.1347 8.25333 20.1347C12.4533 20.1347 17.0533 18.632 17.9533 14.8252L7.35331 16.5282Z" fill="white"/>
<path fill-rule="evenodd" clip-rule="evenodd" d="M43.7533 7.71152C44.2533 7.3108 45.4533 6.40918 47.2533 6.40918C49.1533 6.40918 50.5533 7.21062 51.2533 8.71333L36.9533 10.216L38.8533 1.09961H45.0534L43.6533 7.61134H43.7533V7.71152ZM43.3533 10.7169C42.9533 11.2178 42.6533 12.0193 42.3533 13.2215C41.8533 15.726 42.4533 16.4272 43.1533 16.4272C44.1533 16.4272 45.0533 15.4254 45.4533 13.3216C45.6533 11.9191 45.6533 10.9173 45.2533 10.5166L51.4533 9.51477C51.7533 10.5166 51.8534 11.7187 51.5534 13.1213C50.6534 17.7296 47.8533 20.1339 44.7533 20.1339C43.3533 20.1339 41.7533 19.7332 41.1533 18.2305H40.9533L40.4533 19.7332H34.8533L36.4533 11.8189L43.3533 10.7169Z" fill="white"/>
<path fill-rule="evenodd" clip-rule="evenodd" d="M27.9531 15.1257C27.7531 16.1275 27.1532 16.9289 26.1532 16.9289C25.2532 16.9289 24.8532 16.2277 25.0532 15.4262C25.2532 14.725 25.8532 14.1239 27.1532 14.1239H28.1532L27.9531 15.1257ZM26.3531 10.7178C26.5531 9.91631 27.1531 9.31523 27.9531 9.31523C28.6531 9.31523 29.0531 10.0165 28.8531 10.6176L28.7532 11.1185L34.4531 10.5174C34.0531 7.51198 31.3532 6.30981 28.0532 6.30981C23.2532 6.30981 20.9531 8.71415 20.4531 10.8179L20.3531 11.1185H26.0532L26.3531 10.7178ZM19.3531 14.6248C19.1531 15.1257 19.0532 15.6266 19.0532 16.2277C19.0532 18.2313 20.5532 20.0345 23.1532 20.0345C25.4532 20.0345 26.7531 19.0327 27.3531 18.4317H27.4531L27.3531 19.734H33.1532L34.5532 13.0219C34.6532 12.8215 34.6532 12.521 34.7532 12.2205L19.3531 14.6248Z" fill="white"/>
</svg>
