<svg width="128" height="47" viewBox="0 0 128 47" fill="none" xmlns="http://www.w3.org/2000/svg">
<path d="M4.48486 6.58691H4.38477C4.18477 6.48673 4.08484 6.38655 4.08484 6.28637V6.08601L4.18481 5.78547C4.28481 5.5851 4.38484 5.5851 4.58484 5.5851H4.68481V5.48492C4.68481 5.28456 4.78477 5.28456 4.88477 5.28456L5.28479 5.18438L5.08484 4.98402L4.88477 4.68348V4.5833L5.08484 4.38294H5.18481V4.0824C5.18481 3.88204 5.28486 3.68168 5.48486 3.68168C5.58486 3.5815 5.78477 3.68167 5.88477 3.78186L5.98486 3.88204L6.08484 3.78186L6.28479 3.68168C6.38479 3.68168 6.58481 3.68167 6.68481 4.0824V4.18258H6.88477L7.08484 4.28276L7.18481 4.18258V3.98222L7.28479 3.78186C7.38479 3.68167 7.48481 3.58149 7.68481 3.58149H7.88477L7.78479 3.38114V3.18077V3.08059L7.98486 2.88023L8.08484 2.78005V2.67987C7.98484 2.57969 7.98486 2.37933 7.98486 2.27915C7.98486 2.07879 8.08481 1.97861 8.18481 1.87843C8.28481 1.77825 8.48481 1.67806 8.68481 1.77825H8.78479V1.67807L8.98486 1.4777H9.08484V1.37753L8.98486 1.07698C8.98486 0.976801 8.98481 0.77644 9.18481 0.77644C9.38481 0.67626 9.58479 0.77644 9.78479 1.07698L9.88477 1.17716H9.98486H10.2848C10.4848 1.17716 10.5848 1.37752 10.5848 1.67807V1.77825H10.6848H10.7848L10.8848 1.87843H10.9849L11.0848 1.77825L11.1848 1.67807H11.3848H11.4849V1.57788C11.5849 1.27734 11.6849 1.07698 11.9849 1.07698L12.2848 1.27734L12.4849 1.37753L12.5848 1.4777L12.6848 1.37753C12.8848 1.17716 12.9848 1.07698 13.1848 1.17716C13.2848 1.17716 13.4849 1.27734 13.4849 1.67807V1.77825H13.5848C13.6848 1.77825 13.7848 1.87843 13.8848 1.97861V2.17897C13.8848 2.27915 13.7848 2.37933 13.6848 2.47951V2.57969L13.7848 2.88023L13.8848 2.78005L14.1848 2.67987C14.2848 2.67987 14.4848 2.78005 14.5848 2.88023L14.6848 3.18077V3.38114H14.8848H14.9849L15.1848 3.48131H15.2848L15.3848 3.38114C15.5848 3.28096 15.6848 3.08059 15.8848 3.18077C15.9848 3.18077 16.0848 3.28096 16.0848 3.38114V3.48131H16.1848C16.4848 3.38113 16.6848 3.48131 16.7848 3.58149L16.8848 3.78186V3.88204C16.8848 3.98222 16.7848 4.0824 16.6848 4.18258H16.5848L16.6848 4.48312H16.7848C16.9848 4.38294 17.0848 4.38294 17.1848 4.48312L17.3848 4.68348V4.88384L17.2848 5.0842V5.18438L17.3848 5.28456H17.4849V5.48492V5.5851H17.5848C17.8848 5.48492 17.9848 5.5851 18.0848 5.78547L18.1848 6.08601C18.1848 6.28637 18.0848 6.38655 17.8848 6.48673H17.7848V6.58691V6.78727V6.88745C17.6848 7.08781 17.2849 7.08781 16.9849 6.98763H16.8848V7.08781L16.6848 7.28817H16.5848V7.38836V7.48853V7.58871V7.78908L16.7848 7.6889C17.0848 7.48854 17.2849 7.48854 17.4849 7.6889L17.5848 7.98944V8.08962H17.6848C17.9848 8.1898 18.1848 8.28998 18.1848 8.59052V8.6907L17.9849 8.99124L17.5848 9.09142H17.4849V9.1916L17.2848 9.39196H16.8848H16.7848L16.6848 9.49214L16.5848 9.59232V9.69251C16.4848 9.79269 16.3848 9.89287 16.2848 9.89287H16.1848V9.99305L16.0848 10.0932H15.9849H15.8848V10.2936V10.3938L15.9849 10.5941L15.8848 10.7945C15.8848 10.8947 15.6848 10.9949 15.3848 10.8947H15.2848C15.1848 10.9949 15.1849 10.9949 14.9849 10.9949C14.8849 10.9949 14.6848 10.8947 14.6848 10.7945L14.5848 10.6943H14.4849L14.1848 10.7945C13.9848 10.7945 13.8848 10.5941 13.7848 10.2936H13.6848L13.3848 10.1934C13.3848 10.1934 13.2848 10.0932 13.1848 9.79268V9.69251L13.0848 9.79268C12.7848 9.89287 12.5849 10.1934 12.4849 10.3938C12.2849 10.7945 12.1848 11.2954 12.1848 11.5959C12.1848 12.0968 12.2848 12.4976 12.3848 12.5977C12.4848 12.7981 12.6848 13.0986 13.3848 13.3992H13.4849C14.0849 13.6997 14.2849 13.7999 14.4849 14.0003L14.7848 14.1004C14.8848 14.0003 14.9848 14.0003 15.1848 14.0003C15.4848 14.0003 15.6848 14.1004 15.8848 14.3008C15.9848 14.5012 16.0848 14.8017 15.8848 15.1023C15.7848 15.4028 15.4848 15.503 15.1848 15.503C15.0848 15.503 14.8848 15.503 14.7848 15.4028H14.6848C14.5848 15.4028 14.4848 15.503 14.2848 15.503L13.9849 15.4028H13.8848L13.5848 15.503L13.2848 15.4028C13.1848 15.4028 13.0848 15.503 12.8848 15.503L12.5848 15.4028L12.2848 15.503L11.9849 15.4028C11.8849 15.4028 11.7848 15.503 11.5848 15.503L11.2848 15.4028H11.1848L10.8848 15.503L10.5848 15.4028C10.4848 15.4028 10.3848 15.503 10.1848 15.503L9.88477 15.4028L9.58484 15.503L9.28479 15.4028C9.18479 15.503 8.98477 15.503 8.88477 15.503C8.78477 15.503 8.68486 15.503 8.48486 15.4028H8.38477C8.28477 15.503 8.18486 15.503 7.98486 15.503C7.68486 15.503 7.38479 15.4028 7.28479 15.1023C7.18479 14.9019 7.08479 14.6013 7.28479 14.3008C7.38479 14.2006 7.58486 13.9001 7.98486 13.9001C8.08486 13.9001 8.28477 13.9001 8.38477 14.0003H8.48486C8.58486 14.0003 8.68477 13.9001 8.88477 13.9001H8.98486C9.28486 13.6997 9.88481 13.3992 10.1848 13.1988L10.3848 13.0986C10.7848 12.8983 10.9848 12.4976 11.0848 11.8965L10.7848 11.3956C10.4848 10.9949 10.3848 10.7945 10.3848 10.6943C10.2848 10.5941 9.98481 10.0932 9.68481 9.89287L9.58484 9.79268V9.89287C9.48484 10.2936 9.28479 10.3938 9.28479 10.4939H9.08484L8.98486 10.3938L8.88477 10.5941C8.78477 10.7945 8.68477 10.9949 8.38477 11.095C8.28477 11.095 8.08486 11.095 7.98486 10.9949L7.88477 10.8947H7.78479C7.48479 10.9949 7.18484 11.1952 7.08484 10.8947L6.98486 10.5941C6.98486 10.4939 7.08481 10.2936 7.18481 10.1934L7.08484 9.99305C6.78484 10.1934 6.58477 10.1934 6.38477 10.0932L6.28479 9.89287V9.79268H6.18481C5.88481 9.79268 5.78481 9.6925 5.68481 9.49214V9.39196V9.29178L5.88477 9.09142H5.58484L5.28479 8.99124L5.18481 8.79088V8.59052L5.08484 8.49034C4.88484 8.39016 4.68481 8.28998 4.68481 8.08962V7.98944L4.88477 7.78908H5.18481H5.28479V7.6889C5.28479 7.58872 5.38486 7.38836 5.48486 7.38836H5.68481H5.78479L5.68481 7.28817L5.58484 7.08781L4.48486 6.58691ZM4.18481 6.78727C3.98481 6.88745 3.88477 6.98763 3.88477 7.18799C3.78477 7.18799 3.58486 7.18799 3.48486 7.28817C3.38486 7.38835 3.28481 7.48854 3.18481 7.6889V7.78908C3.18481 7.98944 3.28484 8.1898 3.58484 8.39016V8.49034C3.58484 8.59052 3.58479 8.79088 3.78479 8.89106L3.98486 8.99124V9.1916V9.39196C4.08486 9.59233 4.18484 9.79269 4.58484 9.89287L4.78479 10.1934C4.88479 10.2936 5.08477 10.3938 5.38477 10.2936L5.28479 10.4939C5.28479 10.5941 5.28477 10.7945 5.38477 10.8947C5.58477 11.2954 6.08479 11.095 6.28479 10.9949C6.38479 11.1952 6.58479 11.1952 6.78479 11.1952C7.18479 11.095 7.28477 10.8947 7.38477 10.6943H7.68481C7.78481 10.5941 7.98484 10.3938 8.08484 10.0932C8.38484 10.2936 8.58484 10.6943 8.58484 10.6943C8.58484 10.7945 8.78486 10.9949 8.98486 11.4958L9.28479 11.8965C9.18479 12.3974 8.98481 12.6979 8.68481 12.8983L8.48486 12.9985C8.08486 13.1988 7.58479 13.4994 7.28479 13.6997C7.08479 13.6997 6.88477 13.6997 6.88477 13.7999C6.78477 13.7999 6.58477 13.6997 6.38477 13.6997C5.78477 13.6997 5.58486 14.0003 5.48486 14.2006C5.28486 14.6013 5.38486 15.0021 5.48486 15.2024C5.68486 15.503 5.98477 15.6032 6.38477 15.6032C6.58477 15.6032 6.68479 15.6032 6.78479 15.503C6.88479 15.503 7.08481 15.6032 7.18481 15.6032C7.38481 15.6032 7.48484 15.6032 7.58484 15.503C7.68484 15.6032 7.88486 15.6032 7.98486 15.6032C8.08486 15.6032 8.28477 15.6032 8.38477 15.503C8.48477 15.503 8.58479 15.6032 8.78479 15.6032C8.98479 15.6032 9.08481 15.6032 9.18481 15.503C9.28481 15.6032 9.38484 15.6032 9.58484 15.6032C9.68484 15.6032 9.88486 15.6032 9.98486 15.503C10.0849 15.503 10.1848 15.6032 10.3848 15.6032C10.5848 15.6032 10.6848 15.6032 10.7848 15.503C10.8848 15.6032 10.9848 15.6032 11.1848 15.6032C11.2848 15.6032 11.4848 15.6032 11.5848 15.503C11.6848 15.503 11.7849 15.6032 11.9849 15.6032C12.1849 15.6032 12.2848 15.6032 12.3848 15.503C12.4848 15.6032 12.5848 15.6032 12.7848 15.6032C12.8848 15.6032 13.0848 15.6032 13.1848 15.503C13.2848 15.503 13.3848 15.6032 13.5848 15.6032C13.7848 15.6032 13.9849 15.6032 13.9849 15.503C14.0849 15.6032 14.2849 15.6032 14.4849 15.6032C14.8849 15.6032 15.2848 15.4028 15.3848 15.1023C15.5848 14.7015 15.4848 14.3008 15.2848 14.1004C15.0848 13.7999 14.7848 13.6997 14.3848 13.6997C14.1848 13.6997 14.0849 13.6997 13.9849 13.7999H13.8848C13.6848 13.4994 13.4848 13.3992 12.8848 13.1988H12.7848C12.1848 12.8983 12.0848 12.6979 11.8848 12.4976C11.8848 12.3974 11.7848 12.0968 11.7848 11.5959C11.7848 11.2954 11.7848 10.8947 12.0848 10.4939C12.1848 10.2936 12.3848 10.1934 12.5848 9.99305C12.6848 10.1934 12.6848 10.2936 12.7848 10.3938L13.0848 10.4939V10.3938C13.1848 10.6943 13.3848 10.9949 13.6848 10.9949L13.9849 10.8947C14.0849 10.9949 14.2849 11.095 14.4849 11.095C14.6849 11.095 14.7848 10.9949 14.8848 10.8947C15.2848 10.9949 15.4848 10.7945 15.5848 10.6943L15.6848 10.3938L15.5848 10.0932L15.7848 9.89287C16.0848 9.89287 16.1848 9.6925 16.2848 9.59232V9.49214C16.3848 9.59232 16.5848 9.59232 16.7848 9.49214C16.8848 9.39196 16.9848 9.29178 17.0848 9.1916C17.1848 9.1916 17.3849 9.1916 17.4849 9.09142C17.5849 8.99124 17.6848 8.79088 17.7848 8.59052V8.49034C17.7848 8.28998 17.6848 7.98944 17.1848 7.78908C17.1848 7.68889 17.0849 7.48854 16.9849 7.38836C16.7849 7.18799 16.4848 7.18799 16.2848 7.28817L16.4849 7.08781C16.7849 7.18799 17.1849 7.18799 17.4849 6.78727L17.5848 6.58691V6.38655C17.8848 6.18619 17.8848 5.98583 17.8848 5.78547L17.7848 5.48492C17.6848 5.18438 17.3848 5.0842 17.0848 5.0842L16.9849 4.88384L17.0848 4.68348L16.9849 4.38294C16.8849 4.18258 16.7848 4.0824 16.6848 3.98222C16.5848 3.88204 16.3848 3.98222 16.2848 3.98222C16.3848 3.88204 16.4848 3.68167 16.5848 3.58149V3.48131C16.5848 3.38113 16.5849 3.18077 16.4849 3.08059C16.2849 2.88023 16.0848 2.78005 15.6848 2.88023C15.5848 2.78005 15.5848 2.78005 15.3848 2.67987C15.0848 2.57969 14.8848 2.78005 14.6848 2.88023L14.5848 2.78005H14.4849C14.4849 2.57969 14.3848 2.47951 14.2848 2.37933C14.0848 2.17897 13.9848 2.17897 13.7848 2.17897H13.5848L13.6848 1.87843L13.5848 1.67807C13.4848 1.47771 13.3848 1.37753 13.2848 1.37753C13.2848 0.876623 12.9848 0.776442 12.7848 0.676261C12.4848 0.576081 12.2848 0.676261 12.0848 0.976802H11.8848C11.7848 0.876622 11.5849 0.77644 11.4849 0.77644C11.0849 0.67626 10.8848 1.07698 10.7848 1.37753L10.4849 1.4777L10.3848 1.57788H10.2848C10.1848 1.17716 9.98477 0.976802 9.88477 0.976802H9.58484C9.18484 0.57608 8.88481 0.576081 8.68481 0.676261C8.48481 0.776442 8.38477 0.976803 8.38477 1.17716L8.48486 1.4777L8.28479 1.57788C8.08479 1.4777 7.88481 1.57789 7.68481 1.67807C7.48481 1.77825 7.38477 1.97861 7.38477 2.17897C7.38477 2.37933 7.48486 2.47951 7.48486 2.57969L7.28479 2.88023V2.98041V3.18077C7.08479 3.18077 6.98477 3.28096 6.88477 3.38114L6.78479 3.68168C6.68479 3.38113 6.48479 3.28095 6.28479 3.28095C6.18479 3.28095 6.08486 3.38113 5.98486 3.48131C5.78486 3.28095 5.58486 3.38114 5.48486 3.38114C5.38486 3.48132 5.08484 3.5815 5.08484 3.98222V4.18258L4.88477 4.38294V4.5833L4.98486 4.88384C4.88486 4.88384 4.78481 4.98402 4.68481 5.18438C4.48481 5.18438 4.28481 5.28456 4.18481 5.5851L4.08484 5.88565L4.18481 6.18619C4.28481 6.28637 4.38486 6.38655 4.48486 6.48673L4.18481 6.78727Z" fill="white"/>
<path d="M9.38464 14.8017C9.48464 15.002 9.68464 15.002 9.88464 15.002C10.0846 15.002 10.1847 14.9019 10.1847 14.9019H10.3846C10.3846 14.9019 10.4847 15.002 10.6847 15.002H10.8846L10.7847 14.9019L10.2847 14.2006C10.1847 14.0002 9.98467 14.0002 9.78467 14.0002C9.58467 14.0002 9.48474 14.1004 9.48474 14.1004H9.28467C9.28467 14.1004 9.18474 14.0002 8.98474 14.0002H8.78467L8.88464 14.1004L9.38464 14.8017Z" fill="white"/>
<path d="M6.08476 14.8017C5.98477 14.7015 5.98477 14.401 6.08476 14.3008C6.18476 14.1004 6.38476 14.0002 6.58475 14.0002C6.78474 14.0002 7.08471 14.1004 7.18471 14.2006L7.6847 14.9019L7.78467 15.002H7.48475C7.28475 15.002 7.08474 14.9019 7.08474 14.9019H6.98476C6.98476 14.9019 6.88472 15.002 6.68472 15.002C6.38473 15.002 6.18476 14.9019 6.08476 14.8017Z" fill="white"/>
<path d="M8.68481 4.78346C8.78481 4.68328 8.88483 4.5831 9.08483 4.5831C9.28484 4.48292 9.48484 4.38274 9.58484 4.38274C9.38484 3.98202 9.18486 3.98201 8.98486 3.98201H8.88476L8.68481 3.88184V4.08219V4.18238V4.28256C8.58481 4.28256 8.48481 4.48292 8.68481 4.78346Z" fill="white"/>
<path d="M6.48486 6.18604L6.28479 6.3864H6.18481L5.98486 6.58675L6.18481 6.8873L6.28479 6.98748V7.08766C6.38479 7.08766 6.58481 7.08766 6.68481 7.08766H6.78479C6.98479 7.08766 7.08479 7.18784 7.28479 7.18784C7.28479 7.08766 7.38486 6.98748 7.48486 6.98748C7.68486 6.98748 7.78477 7.18784 7.88477 7.28802L7.98486 7.18784V6.98748L8.08484 6.8873L7.88477 6.68694C7.68477 6.78712 7.28484 6.8873 7.08484 6.78712C6.98484 6.68694 6.88479 6.58676 6.78479 6.48658C6.68479 6.3864 6.58486 6.28622 6.48486 6.18604Z" fill="white"/>
<path d="M5.88477 7.38833L5.68481 7.4885V7.68887V7.78905L5.78479 8.08959C5.88479 8.18977 5.98484 8.39013 6.08484 8.39013L6.48486 7.68887L6.38477 7.38833V7.18796C6.18477 7.08778 5.98477 7.28814 5.88477 7.28814V7.38833Z" fill="white"/>
<path d="M12.585 6.48691C12.785 6.28655 12.885 6.18637 13.085 6.18637C12.985 6.08619 12.985 5.88582 12.985 5.78564C12.885 5.88582 12.785 6.08618 12.585 6.08618L12.6849 6.18637V6.28655L12.585 6.48691Z" fill="white"/>
<path d="M14.3846 7.08779L14.2847 6.98779L14.3846 7.08779Z" fill="white"/>
<path d="M13.4849 6.8873C13.4849 6.98748 13.1848 7.08766 12.8848 7.18784L12.4849 7.3882L12.1848 7.68874C12.2848 7.78892 12.6848 7.8891 12.7848 7.78892V7.68874L12.8848 7.48838H13.0848C13.1848 7.48838 13.4848 7.58856 13.5848 7.48838L13.4849 7.28802V7.18784H13.5848H13.7848H13.9849H14.0848L14.1848 7.08766V6.98748V6.8873L14.3848 6.68694C14.5848 6.58676 14.5848 6.58676 14.5848 6.3864H14.2848H14.0848L13.9849 6.28621L13.8848 6.18604L13.6848 6.28621L13.4849 6.3864L13.3848 6.28621C13.3848 6.28621 13.2849 6.28621 12.9849 6.58675L12.7848 6.68694L12.6848 6.58675C12.5848 6.58675 12.3848 6.8873 12.3848 7.18784C12.4848 7.08766 12.8848 6.98748 13.0848 6.98748C13.0848 6.98748 13.3849 6.8873 13.4849 6.8873Z" fill="white"/>
<path d="M6.78479 5.38485H6.58484H6.48486V5.48503C6.48486 5.68539 6.58479 5.98593 6.78479 6.08611L6.88477 5.98593C7.08477 5.78557 7.28479 5.38485 7.28479 5.28467C7.18479 5.28467 6.98479 5.38485 6.78479 5.38485Z" fill="white"/>
<path d="M16.2848 5.28455C16.2848 5.38473 16.3847 5.48492 16.3847 5.68528C16.3847 5.98582 15.8848 5.98582 15.5848 5.98582L15.6848 6.18618V6.28636C15.5848 6.5869 14.9848 6.5869 14.6848 6.5869V6.68708V6.78726L14.8848 6.88744C15.1848 6.88744 15.3848 6.88744 15.5848 6.98762H15.7848C15.9848 6.98762 16.0848 6.98762 16.0848 6.88744V6.78726L16.1848 6.5869C16.2848 6.48672 16.3848 6.5869 16.5848 6.5869C16.7848 6.5869 16.9848 6.68708 17.0848 6.5869L16.9848 6.48672L16.8847 6.28636L16.9848 6.18618C17.1848 6.086 17.2848 5.98582 17.1848 5.78546C17.1848 5.68527 17.0847 5.68527 16.8847 5.78546C16.7847 5.78546 16.5848 5.88564 16.5848 5.68528V5.48491V5.38474C16.5848 5.18437 16.5847 5.18437 16.2848 5.28455Z" fill="white"/>
<path d="M12.8848 5.48496L12.9849 5.58514L13.0848 5.2846C13.2848 4.98406 13.5848 4.98406 13.6848 4.98406C13.8848 4.88388 14.0848 4.88388 14.2848 4.88388C14.2848 4.7837 14.4848 4.58334 14.5848 4.48316L14.4849 4.2828C14.3849 4.18262 14.2848 4.2828 14.0848 4.38298L13.7848 4.48316L13.6848 4.38298L13.5848 4.18262L13.4849 4.2828L13.5848 4.48316V4.58334C13.5848 4.68352 13.3848 4.7837 13.2848 4.88388V5.08424C13.1848 5.18442 13.0848 5.2846 12.8848 5.48496Z" fill="white"/>
<path d="M12.085 4.38299C12.085 4.08245 11.985 3.88208 11.985 3.7819V3.68173L11.8849 3.58154L11.6849 3.68173H11.585C11.485 3.68173 11.185 3.88208 11.085 4.08244C11.485 4.18262 11.985 4.28281 12.085 4.38299Z" fill="white"/>
<path d="M14.5847 5.08423L14.3846 5.18441C14.2846 5.18441 14.0847 5.08423 13.7847 5.28459C13.7847 5.68531 14.0846 5.88567 14.3846 6.08603C14.5846 5.88567 14.5847 5.68531 14.5847 5.58513V5.48495V5.38477V5.08423Z" fill="white"/>
<path d="M12.2847 8.08952L12.3846 7.98934L12.0847 7.88916C11.9847 7.98934 11.9846 8.1897 11.8846 8.28988C11.7846 8.49024 11.7847 8.79078 11.7847 8.99114V9.09132L12.0847 8.79078C11.9847 8.6906 11.9847 8.39006 12.0847 8.1897L12.2847 8.08952Z" fill="white"/>
<path d="M13.8846 7.78923L13.9847 7.68905V7.58887H13.7847V7.68905L13.6847 7.78923C13.4847 7.98959 13.1847 7.88941 12.9847 7.88941L12.8846 8.08977C12.7846 8.08977 12.6847 8.08977 12.5847 8.08977C12.5847 8.29013 12.4846 8.29013 12.3846 8.39031L12.2847 8.49049V8.79103L12.5847 8.49049C12.5847 8.49049 12.7846 8.39031 12.8846 8.29013L13.2847 8.18995L12.9847 8.49049L12.7847 8.69085L12.5847 9.09157C12.6847 9.09157 12.7846 9.09157 12.8846 9.09157H13.0847L13.3846 8.99139V8.89121L13.2847 8.79103V8.69085L13.4847 8.59067C13.6847 8.59067 13.8846 8.49049 13.8846 8.39031L13.7847 8.29013L13.6847 8.18995V8.08977L13.8846 7.78923Z" fill="white"/>
<path d="M15.7848 4.58309L15.6848 4.48291C15.5848 4.48291 15.3848 4.58309 15.2848 4.78345L14.9849 4.98381L14.8848 4.88363L14.6848 4.78345L14.4849 4.98381H14.7848V5.28435V5.38454V5.68508C14.9848 5.5849 15.3848 5.28435 15.3848 5.28435C15.4848 5.28435 15.0848 5.68508 14.7848 5.88544L14.5848 5.98562L14.3848 6.18598V6.38634L14.4849 6.48652H14.5848C14.7848 6.48652 15.3849 6.48652 15.4849 6.28616L15.3848 6.0858V5.88544C15.3848 5.78526 15.4848 5.78526 15.5848 5.78526C16.0848 5.78526 16.1848 5.68508 16.1848 5.68508L16.0848 5.48471L15.9849 5.38454V5.28435L16.1848 5.08399L16.2848 4.98381C16.3848 4.88363 16.4849 4.78345 16.4849 4.58309L16.3848 4.48291L15.9849 4.58309H15.8848H15.7848Z" fill="white"/>
<path d="M15.5847 7.28825C15.4847 7.18807 15.1847 7.08789 14.7847 7.08789C14.7847 7.18807 14.6847 7.38843 14.7847 7.58879C14.7847 7.78915 14.8848 7.88933 14.9847 7.98951C15.4847 7.88933 15.5847 7.58879 15.5847 7.48861V7.38843L15.6847 7.28825L15.7847 7.18807L15.6847 7.08789L15.5847 7.28825Z" fill="white"/>
<path d="M11.6849 7.48779L11.8849 7.38779C11.8849 7.28779 11.985 7.18779 11.985 6.98779C11.785 7.08779 11.685 7.08779 11.585 7.18779C11.585 7.18779 11.6849 7.28779 11.6849 7.48779Z" fill="white"/>
<path d="M12.4849 6.28648L12.2849 6.1863H12.1849L12.3848 6.08612L12.7849 5.78558H12.6849L12.5849 5.6854L12.6849 5.58522C12.8849 5.48503 12.9848 5.28467 12.8848 5.08431H12.7849H12.5849L12.4849 4.88396L12.3848 4.68359C12.3848 4.68359 12.2849 4.68359 12.0849 4.88396H11.985H11.8849H11.7849C11.6849 4.88396 11.5849 5.18449 11.5849 5.28467V5.38486H11.3849L11.2849 5.48504V5.58522C11.2849 5.6854 11.3849 5.88576 11.3849 5.98594V6.08612L11.2849 6.1863H11.1849H11.085V6.38666C11.085 6.58702 11.1849 6.78738 11.2849 6.88756L11.3849 6.6872C11.4849 6.48684 11.7849 5.78558 11.8849 5.88576C11.9849 5.88576 11.5849 6.58702 11.5849 6.78738L11.485 7.08792C11.885 6.78738 12.4849 6.48684 12.4849 6.28648Z" fill="white"/>
<path d="M8.98499 6.98765C8.98499 6.88747 9.08494 6.78729 9.18494 6.68711L9.08496 6.38657L9.18494 6.08602H8.98499H8.78491L8.58496 5.6853H8.48499C8.28499 5.78548 8.28491 5.98584 8.28491 6.1862V6.38657L8.18494 6.48674H8.08496L8.28491 6.78729L8.38489 6.98765L8.28491 7.18801V7.28819C8.38491 7.38837 8.48499 7.58873 8.48499 7.78909H8.68494H8.78491L8.68494 7.48855C8.58494 6.98765 8.68494 6.88747 8.68494 6.78729C8.78494 6.78729 8.78489 6.98765 8.88489 7.48855C8.88489 7.78909 8.98499 7.98945 8.98499 8.08963L9.08496 8.18981C9.18496 8.08963 9.38489 7.98945 9.38489 7.78909V7.68891V7.48855L9.48499 7.28819C9.28499 7.28819 8.98499 7.28819 8.98499 6.98765Z" fill="white"/>
<path d="M10.1847 10.4938V10.2935C10.1847 10.0931 10.1847 9.89276 10.0847 9.49204C9.98472 8.6906 9.48467 8.49023 9.28467 8.49023C9.38467 8.59041 9.38464 8.79077 9.38464 9.09132V9.1915C9.38464 9.79258 9.98469 10.3937 10.1847 10.4938Z" fill="white"/>
<path d="M7.88491 8.18971C7.9849 8.28989 8.18492 8.39007 8.28492 8.49025C8.48492 8.59043 8.68494 8.69062 8.68494 8.69062V8.59043C8.68494 8.18971 8.58499 7.98935 8.48499 7.98935L8.38489 8.08953L8.28492 8.18971L8.18495 8.08953C8.18495 7.78899 8.085 7.48845 7.985 7.48845L7.88491 7.68881L7.78493 7.78899L7.68496 7.68881C7.68496 7.58863 7.58491 7.38827 7.38492 7.28809V7.38827L7.18497 7.48845H7.085L6.78495 7.38827L6.68498 7.48845C6.58498 7.58863 6.68496 7.68881 6.78495 7.78899L6.88493 7.98935L6.78495 8.18971L6.68498 8.28989C6.68498 8.39007 6.78503 8.39007 6.98502 8.49025L7.18497 8.59043L7.085 8.79079H6.98502C7.08502 8.89097 7.18492 8.99116 7.38492 8.99116H7.58498L7.78493 9.09134L7.68496 8.99116C7.78496 9.09134 8.085 9.09134 8.48499 8.99116L8.28492 8.69062C8.18492 8.59043 7.9849 8.49025 7.88491 8.39007L7.58498 7.98935L7.88491 8.18971Z" fill="white"/>
<path d="M10.3848 8.0896C10.3848 8.28996 10.3848 8.49032 10.5848 8.79087L10.9849 9.39195C11.0849 9.19159 11.0848 8.89105 11.0848 8.79087V8.69069C11.0848 8.59051 11.0849 8.39014 10.9849 8.18978H10.8848C10.7848 8.18978 10.5848 8.28996 10.3848 8.0896Z" fill="white"/>
<path d="M11.2848 5.78537C11.2848 5.68519 11.1848 5.48483 11.1848 5.28447V5.08411L11.0848 4.88375L10.9849 4.98393L10.7848 5.08411L10.6848 4.98393C10.5848 4.78356 10.3848 4.5832 10.1848 4.68339C10.0848 4.68339 9.98484 4.88375 10.0848 5.18429L9.98486 5.48483L9.88477 5.58501C9.88477 5.68519 9.98484 5.78537 10.0848 5.88555C10.2848 5.88555 10.4848 6.1861 10.5848 6.38646C10.6848 6.28628 10.8849 6.18609 10.9849 6.28627C11.1849 6.38645 11.1848 6.78718 11.1848 6.88736H11.2848C11.1848 6.687 11.0848 6.48663 11.0848 6.28627L11.1848 5.98573L11.2848 5.78537Z" fill="white"/>
<path d="M11.0848 7.68883C11.1848 7.28811 11.1848 7.08774 11.1848 7.08774H11.0848H10.8848L10.7848 6.98756L10.5848 6.48666L10.3848 6.58684L10.1848 6.68702L10.0848 6.58684C9.98484 6.38648 9.78481 6.08594 9.68481 6.08594L9.58484 6.2863L9.48486 6.38648H9.38477C9.38477 6.38648 9.28484 6.2863 9.08484 6.38648C8.88484 6.48666 9.08484 6.7872 9.08484 6.7872V6.88739V6.98756L8.98486 7.18793C8.98486 7.28811 9.08479 7.28811 9.28479 7.38829L9.48486 7.48847L9.38477 7.68883C9.38477 7.68883 9.28477 7.78901 9.38477 7.98937L9.48486 8.08955L9.88477 7.98937H10.0848H10.1848V8.08955V8.28991L10.2848 8.39009C10.4848 8.49027 10.5848 8.49027 10.7848 8.39009V8.28991C10.6848 8.18973 10.5849 7.98937 10.4849 7.88919C10.2849 7.68883 9.98486 7.48847 9.98486 7.48847C9.98486 7.38829 10.3848 7.58865 10.5848 7.78901C10.6848 7.88919 10.8848 7.98937 10.8848 8.08955L11.0848 7.68883Z" fill="white"/>
<path d="M11.085 13.8995L10.985 13.5995L10.8849 13.4995C10.6849 13.4995 10.685 13.5995 10.585 13.6995H10.6849C10.7849 13.7995 10.985 13.7995 11.085 13.8995Z" fill="white"/>
<path d="M13.4849 14.2006C13.3849 14.0002 13.1849 14.0002 12.9849 14.0002C12.7849 14.0002 12.6848 14.1004 12.6848 14.1004H12.4849C12.4849 14.1004 12.3848 14.0002 12.1848 14.0002H11.9849L12.0848 14.1004L12.5848 14.8017C12.6848 15.002 12.8848 15.002 13.0848 15.002C13.2848 15.002 13.3848 14.9019 13.3848 14.9019H13.5848C13.5848 14.9019 13.6848 15.002 13.8848 15.002H14.0848L13.9849 14.9019L13.4849 14.2006Z" fill="white"/>
<path d="M8.98486 13.7998C9.28486 13.7998 9.38486 13.7998 9.48486 13.8998L9.68481 13.7998V13.6998C9.48481 13.6998 9.18486 13.5998 8.98486 13.7998Z" fill="white"/>
<path d="M6.68485 9.9931L6.98489 9.59237C7.18489 9.39201 7.28486 9.29183 7.58485 9.29183L7.38478 9.19165V9.09147L7.48488 8.89111H7.38478H7.28481L7.38478 8.99129V9.19165L7.28481 9.29183H7.18484C7.08484 9.19165 6.88485 9.09147 6.68485 9.19165L6.78482 9.29183L6.8848 9.39202V9.49219H6.68485C6.58485 9.49219 6.48481 9.49219 6.38481 9.59237V9.79273V9.9931L6.28484 10.0933C6.08484 10.2936 5.9849 10.3938 6.08489 10.494L6.48491 10.3938L6.68485 10.2936C6.88485 10.2936 6.8848 10.3938 6.8848 10.494L6.98489 10.5942C7.18489 10.5942 7.28479 10.3938 7.38478 10.1935L7.58485 9.89292H7.68483L7.7848 9.9931C7.8848 9.89292 7.98484 9.69256 8.08484 9.39202L7.68483 9.49219C7.28484 9.59237 6.68485 9.9931 6.68485 9.9931Z" fill="white"/>
<path d="M6.38477 9.29176V9.19158L6.48486 9.0914L6.28479 8.99122L6.18481 8.59049L5.88477 8.39014H5.58484V8.59049L5.48486 8.89104L5.18481 8.79086C5.08481 8.69068 4.98477 8.69068 4.88477 8.69068V8.79086V8.99122L4.68481 9.0914L4.48486 9.19158V9.29176C4.48486 9.39194 4.58479 9.39194 4.78479 9.39194H4.98486L5.08484 9.5923L5.18481 9.79266L5.68481 9.5923L5.78479 9.49212H5.88477L5.98486 9.39194C6.08486 9.29176 6.18477 9.29176 6.38477 9.29176Z" fill="white"/>
<path d="M16.8849 8.08968H16.7849V7.88933V7.68896L16.2849 7.78914L16.085 7.88933L15.985 7.78914L15.8849 7.68896C15.8849 7.78915 15.7849 7.88932 15.6849 8.08968C15.9849 8.08968 16.3849 8.18987 16.3849 8.29005C16.3849 8.39023 15.5849 8.29005 15.3849 8.29005H15.2849H15.085L15.1849 8.39023H15.2849C15.3849 8.39023 15.5849 8.29005 15.6849 8.39023L15.8849 8.69077V8.89113L16.085 8.99131V8.89113V8.79095H16.2849L16.585 8.89113L16.6849 8.69077L16.7849 8.49041H16.985H17.2849L17.3849 8.39023C17.3849 8.29005 17.2849 8.18986 16.8849 8.08968Z" fill="white"/>
<path d="M5.28467 8.49045V8.39027L5.38464 8.08973H5.28467C5.08467 8.08973 4.48474 8.08973 4.48474 7.98955C4.48474 7.88937 5.18464 7.88937 5.38464 7.88937L5.68469 7.98955L5.58472 7.78918V7.689C5.48472 7.48864 5.28469 7.28828 5.18469 7.38846L5.08472 7.48864L4.98474 7.689L4.78467 7.58882L4.38464 7.38846C4.38464 7.38846 4.28464 7.38846 4.38464 7.58882L4.28467 7.88937H4.08472H3.78467V7.98955C3.78467 8.18991 3.88472 8.18991 4.08472 8.29009L4.28467 8.39027V8.59063V8.79099C4.38467 8.89117 4.48469 8.89117 4.68469 8.79099L4.88464 8.69081H4.98474C4.98474 8.29009 5.18467 8.49045 5.28467 8.49045Z" fill="white"/>
<path d="M12.8846 9.09141C12.5846 9.09141 12.4847 9.1916 12.4847 9.1916H12.3846V9.09141L12.4847 8.79087C12.1847 9.09141 11.9846 9.39195 11.8846 9.59231H11.7847L11.6847 9.49214C11.6847 9.39196 11.6847 9.19159 11.7847 8.99123C11.7847 8.69069 11.7846 8.39015 11.8846 8.18979C11.9846 7.88925 12.0847 7.68888 12.1847 7.5887L11.9847 7.68889C11.7847 7.78907 11.6847 7.78907 11.6847 7.78907V7.5887V7.48853C11.6847 7.58871 11.5847 7.78907 11.5847 7.88925L11.4847 7.98943H11.3846C11.4846 8.28997 11.4847 8.59051 11.4847 8.79087V8.99123C11.4847 8.99123 11.3847 9.89286 11.1847 9.99304H11.0847L10.8846 9.6925L10.5847 9.1916C10.2847 8.79087 10.2847 8.39015 10.2847 8.18979C10.1847 8.28997 9.98467 8.28997 9.78467 8.28997L9.48474 8.59051H9.58472C9.78472 8.69069 10.3847 8.79087 10.5847 9.79268C10.5847 10.0932 10.6847 10.3938 10.6847 10.5941C10.6847 10.7945 10.6847 10.9948 10.5847 10.9948H10.4847C10.3847 10.9948 9.38474 10.2936 9.48474 9.29177C9.48474 8.59051 9.28469 8.49033 9.18469 8.49033V8.79087C9.18469 8.99123 9.08472 8.99123 9.08472 9.09141H8.88464L8.98474 9.29177L8.88464 9.39196L8.58472 9.49214C9.08472 9.6925 9.58469 10.3938 9.68469 10.5941C9.68469 10.6943 9.88472 10.9948 10.0847 11.2954C10.4847 11.8965 10.4847 11.8965 10.4847 11.9966C10.3847 12.6979 10.0847 13.1988 9.58472 13.3992L9.38464 13.4994C9.08464 13.6997 8.58467 13.9001 8.28467 14.1004C8.38467 14.0003 8.48469 14.0003 8.68469 14.0003C8.78469 14.0003 8.98472 14.0003 9.08472 14.1004C9.28472 13.6997 9.88472 13.6997 10.0847 13.6997L10.1847 13.4994L10.2847 13.299C10.3847 13.0986 10.5847 12.5977 10.6847 12.5977C10.7847 12.5977 10.6847 12.9985 10.4847 13.4994L10.3846 13.6997L10.2847 13.9001V14.1004C10.3847 14.1004 10.5847 14.1004 10.6847 14.2006C10.7847 13.9001 10.9847 13.6997 11.2847 13.6997L11.5847 13.7999L11.7847 14.1004H11.8846C11.9846 14.1004 12.1847 14.1004 12.2847 14.2006C12.3847 14.2006 12.4847 14.1004 12.6847 14.1004C12.7847 14.1004 12.9847 14.1004 12.9847 14.2006C12.8847 14.0003 12.7847 13.9001 12.4847 13.7999C12.1847 13.6997 11.8847 13.4994 11.5847 12.9985C11.4847 12.6979 11.4846 12.3974 11.3846 12.0968C11.3846 11.8965 11.3847 11.1952 11.4847 11.1952C11.5847 11.1952 11.5847 11.8965 11.5847 12.0968C11.5847 12.3974 11.6847 12.6979 11.7847 12.9985C11.9847 13.4994 12.2847 13.5995 12.4847 13.6997C12.6847 13.7999 12.8847 13.9001 13.0847 14.1004L13.1847 14.2006H13.3846C13.4846 14.2006 13.6847 14.2006 13.7847 14.3008C13.8847 14.3008 13.9847 14.2006 14.0847 14.2006C13.9847 14.1004 13.7847 14.0003 13.2847 13.7999H13.1847C12.3847 13.4994 12.1847 13.0986 12.0847 12.8983C11.9847 12.6979 11.6847 11.2954 12.1847 10.4939C12.1847 9.39196 12.5846 9.19159 12.8846 9.09141Z" fill="white"/>
<path d="M15.7848 9.09139L15.6848 8.99122V8.79085L15.5848 8.59049H15.2848H15.0848L14.9849 8.49032C14.7849 8.5905 14.3848 8.5905 14.0848 8.39014L13.6848 8.49032L13.7848 8.59049C14.0848 8.49031 14.2848 8.59049 14.3848 8.59049L14.4849 8.79085V8.89104H14.5848C14.8848 8.89104 14.9848 8.99122 15.0848 8.99122V9.09139V9.29175H15.1848L15.3848 9.39194H15.4849H15.6848V9.29175L15.7848 9.09139H15.9849H16.1848C15.9848 9.19157 15.8848 9.09139 15.7848 9.09139Z" fill="white"/>
<path d="M15.0848 10.1934L14.9849 10.0933L15.0848 9.8929L14.8848 9.79271L14.6848 9.69254V9.59235V9.49217V9.39199L14.2848 9.29181C14.0848 9.29181 13.9849 9.29181 13.9849 9.19163V9.09145C13.9849 9.09145 13.6848 8.99127 13.2848 9.19163C13.3848 9.29181 13.5848 9.39199 13.6848 9.49217C13.7848 9.59235 13.9849 9.79272 13.9849 9.8929L13.5848 9.69254C13.4848 9.59236 13.1849 9.49218 12.9849 9.39199C12.9849 9.59236 13.0848 9.99308 13.1848 9.99308L13.3848 9.8929C13.4848 9.8929 13.4849 9.99308 13.4849 10.0933L13.7848 10.494L13.8848 10.3938L14.0848 10.2936L14.1848 10.3938L14.4849 10.5942L14.5848 10.494L14.6848 10.3938H14.7848C14.8848 10.3938 14.9848 10.494 15.0848 10.3938V10.2936V10.1934Z" fill="white"/>
<path d="M11.7847 1.67798L12.0847 1.77816L12.1847 2.0787C12.1847 2.27906 12.0847 2.47942 11.9847 2.5796L12.1847 2.77997V2.88015L12.0847 3.28087H12.2847C12.3847 3.08051 12.4847 2.77997 12.6847 2.77997H12.7847V2.67979L12.6847 2.5796V2.47943C12.7847 2.37924 13.0848 2.17888 12.9848 2.0787L12.7847 1.87834H12.6847V1.67798C12.6847 1.47762 12.6847 1.37744 12.5847 1.37744C12.4847 1.37744 12.3847 1.47762 12.2847 1.5778L12.0847 1.67798L11.9847 1.5778L11.8846 1.47762L11.7847 1.67798Z" fill="white"/>
<path d="M10.6848 2.78022C10.8848 2.8804 10.8848 3.08076 10.8848 3.18094C10.8848 3.3813 10.7848 3.58166 10.7848 3.58166H10.8848H10.9849C10.9849 3.48148 11.0848 3.18094 11.1848 2.8804C11.2848 2.57986 11.2848 2.27932 11.2848 2.27932C11.3848 2.27932 11.3848 2.47968 11.2848 2.78022C11.2848 3.08076 11.1848 3.3813 11.0848 3.58166C11.1848 3.48148 11.3849 3.3813 11.4849 3.3813L11.5848 3.28112C11.6848 3.08076 11.7848 2.78022 11.7848 2.78022H11.6848L11.4849 2.68004L11.5848 2.47968C11.7848 2.27932 11.8848 2.07895 11.6848 1.77841H11.5848H11.3848V1.67823C11.3848 1.57805 11.4848 1.37769 11.3848 1.17733L11.1848 1.07715L10.9849 1.47787L10.8848 1.67823H10.6848H10.5848C10.4848 1.77841 10.5848 1.97878 10.6848 2.17914C10.7848 2.27932 10.7848 2.3795 10.7848 2.47968L10.6848 2.57986L10.4849 2.68004V2.78022H10.6848Z" fill="white"/>
<path d="M12.8848 2.98055L12.7848 2.88037H12.6848C12.5848 2.98055 12.4848 3.18091 12.3848 3.28109L12.1848 3.48145H12.0848H11.8848L11.9849 3.68181C12.0849 3.78199 12.0848 3.98235 12.0848 4.08253L12.2848 3.88217C12.4848 3.68181 12.6848 3.48145 12.7848 3.58163C12.7848 3.58163 12.5849 3.78199 12.4849 3.98235L12.2848 4.18271H12.4849C12.5849 4.2829 12.6848 4.48325 12.6848 4.58343V4.68362H12.7848L12.9849 4.48326V4.38308V4.28289L13.0848 4.18271L13.3848 4.08253C13.4848 3.98235 13.5848 3.88217 13.5848 3.88217L13.4849 3.78199L13.3848 3.58163L13.4849 3.38127L13.6848 3.08073L13.5848 2.98055L13.3848 2.88037L13.0848 3.08073L12.8848 3.18091V2.98055Z" fill="white"/>
<path d="M13.8848 4.28265C14.0848 4.18247 14.2849 4.08229 14.4849 4.08229L14.6848 3.98211C14.8848 3.88193 15.0848 3.78175 15.1848 3.88193C15.1848 3.88193 14.9848 4.08229 14.7848 4.18247L14.5848 4.28265L14.6848 4.48301L14.9849 4.58319L15.0848 4.48301C15.1848 4.38283 15.3848 4.08229 15.6848 4.18247V3.98211V3.88193L15.7848 3.78174L16.0848 3.4812V3.38103C15.9848 3.28085 15.7848 3.28085 15.6848 3.38103H15.4849L15.3848 3.28084L15.2848 3.18066L14.9849 3.38103L14.7848 3.4812L14.5848 3.38103L14.4849 3.28084L14.2848 3.4812L14.1848 3.58138H14.0848L13.8848 3.88193V4.28265Z" fill="white"/>
<path d="M5.48499 6.78729L5.38489 7.18801L5.48499 7.28819C5.58499 7.08783 5.78489 7.08783 5.88489 7.08783L5.98499 6.98765V6.88747C5.88499 6.78729 5.68494 6.68711 5.68494 6.48675V6.38657C5.68494 6.28639 5.78489 6.18621 5.88489 6.08603L5.78491 5.88567V5.78549H5.68494H5.38489L5.28491 5.68531L5.08496 5.48494L4.68494 5.38477V5.58512L4.58496 5.78549H4.38489C4.18489 5.78549 4.18496 5.78549 4.08496 5.88567V6.08603C4.18496 6.18621 4.48496 6.28639 4.58496 6.28639L4.68494 6.38657V6.48675L4.58496 6.68711V6.78729C4.58496 6.78729 4.68489 6.78729 4.88489 6.78729C5.08489 6.68711 5.28499 6.58693 5.48499 6.78729Z" fill="white"/>
<path d="M9.78479 2.67969C9.68479 2.67969 9.68481 2.88005 9.68481 3.08041V3.28077H9.48486H9.38477C9.38477 3.38095 9.48484 3.48113 9.58484 3.68149L9.68481 3.88185L9.58484 3.98203L9.68481 4.18239L9.78479 4.28257L9.88477 4.48294L10.0848 4.38276L9.98486 4.08221C9.98486 3.78167 9.98486 3.48113 9.98486 3.48113C10.0849 3.48113 10.0848 3.78167 10.1848 4.08221L10.2848 4.38276L10.5848 4.58311L10.6848 4.28257L10.8848 4.18239L10.9849 3.98203H10.8848C10.7848 3.98203 10.5848 3.98203 10.5848 3.78167V3.58131C10.6848 3.28077 10.7848 3.08041 10.5848 2.98023L10.4849 3.08041L10.2848 3.18059L10.1848 3.08041C10.0848 2.88005 9.88479 2.67969 9.78479 2.67969Z" fill="white"/>
<path d="M8.28491 3.58148L8.18494 3.78184L8.08496 3.88203C8.08496 3.88203 8.08489 3.9822 8.38489 3.9822C8.38489 3.88202 8.38499 3.68166 8.48499 3.58148H8.78491L8.68494 3.38112L8.48499 2.9804C8.58499 2.88022 8.78489 3.18076 8.88489 3.38112C8.98489 3.58148 9.08496 3.68166 9.08496 3.78184L9.28491 3.88203L9.08496 3.58148V3.4813C9.18496 3.28094 9.28489 3.28094 9.38489 3.28094V3.08058V2.9804H9.18494H9.08496L8.98499 2.78004C8.98499 2.67986 8.98491 2.27914 8.78491 2.17896L8.68494 2.37932L8.48499 2.57968L8.28491 2.4795C8.08491 2.27913 7.88494 2.17895 7.68494 2.27913C7.58494 2.37931 7.68491 2.57968 7.78491 2.88022L7.88489 3.08058L7.78491 3.18076L7.58496 3.28094C7.58496 3.4813 7.78499 3.58148 7.98499 3.58148C8.18499 3.38112 8.28491 3.4813 8.28491 3.58148Z" fill="white"/>
<path d="M5.48486 5.68517L5.28479 5.48481L5.48486 5.38463L5.58484 5.28445L5.48486 5.08409C5.08486 4.88372 4.98486 4.78355 4.98486 4.68337L5.08484 4.58318L5.18481 4.483V4.28264C5.18481 4.08228 5.08479 3.88192 5.28479 3.88192L5.48486 3.9821L5.68481 4.08228L5.88477 3.88192L5.98486 3.78174L6.08484 4.18246C6.08484 4.28264 6.08481 4.38282 6.18481 4.483L6.38477 4.38282L6.48486 4.28264L6.58484 4.58318C6.58484 4.68336 6.58481 4.78355 6.68481 4.88373C6.68481 4.88373 6.78486 4.98391 6.98486 4.88373L7.38477 4.98391H7.48486V5.08409C7.08486 4.98391 6.78481 4.98391 6.68481 5.08409H6.58484H6.48486L6.28479 5.18427C6.18479 5.08409 5.98477 4.98391 5.88477 4.88373C5.68477 4.68337 5.58484 4.38282 5.58484 4.38282C5.48484 4.38282 5.58481 4.78355 5.68481 4.88373C5.78481 5.08409 6.08479 5.28445 6.28479 5.38463V5.68517C6.18479 5.78535 6.08484 5.88553 6.08484 5.98571L5.98486 5.78535L5.88477 5.48481H5.58484L5.48486 5.68517Z" fill="white"/>
<path d="M7.38468 4.2828L7.28471 4.48316V4.58334C7.28471 4.68352 7.38475 4.7837 7.58475 4.7837L7.88467 4.88389V5.08424C8.08467 5.08424 8.18469 5.28461 8.28469 5.48497L8.38466 5.38479H8.58473C8.78473 5.48497 8.88466 5.68533 8.88466 5.78551C8.98465 5.78551 9.18465 5.68533 9.38465 5.88569H9.58472L9.68469 5.68533C9.58469 5.58515 9.58472 5.48497 9.58472 5.38479C9.38472 5.48497 9.08468 5.48497 8.78468 5.38479C8.58469 5.28461 8.38466 5.18443 8.38466 4.98407V4.7837C8.18467 4.48316 8.18469 4.18262 8.28469 4.08244C8.08469 4.08244 7.8847 3.98226 7.7847 3.7819L7.58475 3.68172C7.38475 3.58154 7.18478 3.48135 6.98479 3.58153C6.88479 3.68172 6.98476 3.7819 7.08476 3.88208L7.38468 4.2828Z" fill="white"/>
<path d="M8.88476 1.87833C9.18476 1.87833 9.28478 2.37923 9.28478 2.57959H9.58483L9.78478 2.47941H10.0848C10.0848 2.27905 10.1848 1.87833 10.0848 1.87833L9.98485 1.97851H9.88476L9.78478 1.87833C9.78478 1.67797 9.78481 1.37743 9.68481 1.27725H9.58483L9.38476 1.37743L9.28478 1.27725C9.18479 1.17707 8.98476 0.876525 8.88476 0.976706C8.78476 1.07689 8.88476 1.27725 8.88476 1.47761V1.67797L8.68481 1.77815L8.48486 1.87833L8.58484 2.07869C8.68484 1.97851 8.78476 1.87833 8.88476 1.87833Z" fill="white"/>
<path d="M14.3846 7.08779L14.2847 6.98779L14.3846 7.08779Z" fill="white"/>
<path d="M12.3849 36.641C12.3849 36.741 12.085 36.741 11.985 36.741C11.785 36.741 11.585 36.741 11.585 36.641C11.585 36.541 11.785 36.541 11.985 36.541C12.185 36.541 12.3849 36.541 12.3849 36.641Z" fill="white"/>
<path d="M6.28479 28.1256H6.18481H6.08484C6.08484 28.1256 5.78486 27.8251 5.48486 27.8251C5.18486 27.8251 4.98479 27.9253 4.78479 28.0254C4.58479 28.1256 4.38481 28.2258 4.18481 28.2258H3.68481L3.58484 28.1256V25.02L3.38477 25.2204V28.326H5.78479H5.88477C5.88477 28.326 6.08479 28.5263 6.28479 28.5263H6.38477C6.58477 28.5263 6.78479 28.326 6.78479 28.326H6.88477H9.28479V25.2204L9.08484 25.02V28.0254L8.98486 28.1256H8.48486C8.28486 28.1256 8.08477 28.0254 7.88477 27.9253C7.68477 27.8251 7.48481 27.7249 7.18481 27.7249C6.78481 27.7249 6.58484 28.0254 6.58484 28.0254H6.48486L6.28479 28.1256Z" fill="white"/>
<path d="M9.48486 28.3259L9.38477 28.4261H6.88477C6.78477 28.5263 6.68477 28.6264 6.38477 28.6264H6.18481C5.88481 28.6264 5.78481 28.4261 5.68481 28.4261H3.18481L3.08484 28.3259V25.1201H2.88477V28.6264H5.68481H5.78479C5.78479 28.6264 5.88481 28.7266 6.18481 28.8268H6.48486C6.68486 28.8268 6.78479 28.6264 6.78479 28.6264H6.88477H9.68481V25.1201H9.48486V28.3259Z" fill="white"/>
<path d="M5.78467 25.02C5.68467 25.02 5.48467 25.02 5.28467 25.1202L4.98474 25.2204L4.78467 25.3206C4.58467 25.4207 4.38467 25.4207 4.28467 25.4207H4.18469C4.18469 25.4207 4.38469 25.4207 4.68469 25.3206L4.88464 25.2204L5.28467 25.1202C5.48467 24.9198 5.68467 24.9198 5.78467 25.02ZM5.78467 25.6211C5.68467 25.6211 5.48467 25.6211 5.28467 25.7213L4.98474 25.8215L4.78467 25.9217C4.58467 26.0218 4.38467 26.0218 4.28467 26.0218H4.18469V25.9217C4.18469 25.9217 4.38469 25.9216 4.68469 25.8215L4.88464 25.7213L5.28467 25.6211C5.48467 25.5209 5.68467 25.6211 5.78467 25.6211ZM5.78467 26.3224C5.68467 26.3224 5.48467 26.3224 5.28467 26.4226L4.98474 26.5227L4.78467 26.6229C4.58467 26.7231 4.38467 26.7231 4.28467 26.7231H4.18469C4.18469 26.7231 4.38469 26.7231 4.68469 26.6229L4.88464 26.5227L5.28467 26.4226C5.48467 26.2222 5.68467 26.2222 5.78467 26.3224ZM5.78467 26.9235C5.68467 26.9235 5.48467 26.9235 5.28467 27.0236L4.98474 27.1238L4.78467 27.224C4.58467 27.3242 4.38467 27.3242 4.28467 27.3242H4.18469V27.224C4.18469 27.224 4.38469 27.224 4.68469 27.1238L4.88464 27.0236L5.28467 26.9235C5.48467 26.8233 5.68467 26.9235 5.78467 26.9235ZM5.38464 24.4189C4.98464 24.4189 4.78472 24.5191 4.58472 24.7195C4.48472 24.8197 4.28469 24.9198 4.18469 24.9198H3.78467V27.9253H4.18469C4.28469 27.9253 4.48469 27.8251 4.68469 27.8251C4.88469 27.7249 5.18474 27.6247 5.48474 27.6247C5.78474 27.6247 6.08469 27.8251 6.18469 27.9253C6.18469 27.6247 6.18469 24.8197 6.18469 24.8197C6.18469 24.7195 6.08464 24.4189 5.38464 24.4189Z" fill="white"/>
<path d="M6.38477 28.1256H6.28479H6.18481H6.08484C6.08484 28.1256 5.78486 27.8251 5.48486 27.8251C5.18486 27.8251 4.98479 27.9253 4.78479 28.0254C4.58479 28.1256 4.38481 28.2258 4.18481 28.2258H3.68481L3.58484 28.1256V25.02L3.38477 25.2204V28.326H5.78479H5.88477C5.88477 28.326 6.08479 28.5263 6.28479 28.5263H6.38477C6.58477 28.5263 6.78479 28.326 6.78479 28.326H6.88477H9.28479V25.2204L9.08484 25.02V28.0254L8.98486 28.1256H8.48486C8.28486 28.1256 8.08477 28.0254 7.88477 27.9253C7.68477 27.8251 7.48481 27.7249 7.18481 27.7249C6.68481 27.7249 6.48477 28.0254 6.38477 28.1256Z" fill="white"/>
<path d="M9.68481 25.1201H9.48486V28.3259L9.38477 28.4261H6.88477C6.78477 28.5263 6.68477 28.6264 6.38477 28.6264H6.18481C5.88481 28.6264 5.78481 28.4261 5.68481 28.4261H3.18481L3.08484 28.3259V25.1201H2.88477V28.6264H5.68481H5.78479C5.78479 28.6264 5.88481 28.7266 6.18481 28.8268H6.48486C6.68486 28.8268 6.78479 28.6264 6.78479 28.6264H6.88477H9.68481V25.1201Z" fill="white"/>
<path d="M8.28479 25.4208C8.18479 25.4208 8.08479 25.4208 7.78479 25.3207L7.58484 25.2205L7.28479 25.1203C7.08479 25.1203 6.88479 25.1203 6.78479 25.1203H6.68481V25.0201C6.68481 25.0201 6.98481 24.9199 7.18481 25.0201L7.58484 25.1203L7.78479 25.2205C8.08479 25.3207 8.28479 25.3207 8.28479 25.4208ZM8.28479 26.0219C8.18479 26.0219 8.08479 26.0219 7.78479 25.9217L7.58484 25.8216L7.28479 25.7214C7.08479 25.6212 6.88479 25.7214 6.78479 25.7214H6.68481V25.6212C6.68481 25.6212 6.98481 25.521 7.18481 25.6212L7.58484 25.7214L7.78479 25.8216C8.08479 25.9217 8.28479 25.9217 8.28479 26.0219ZM8.28479 26.7232C8.18479 26.7232 8.08479 26.7232 7.78479 26.623L7.58484 26.5228L7.28479 26.4226C7.08479 26.4226 6.88479 26.4226 6.78479 26.4226H6.68481V26.3225C6.68481 26.3225 6.98481 26.3225 7.18481 26.3225L7.58484 26.4226L7.78479 26.5228C8.08479 26.623 8.28479 26.623 8.28479 26.7232ZM8.28479 27.3243C8.18479 27.3243 8.08479 27.3243 7.78479 27.2241L7.58484 27.1239L7.28479 27.0237C7.08479 27.0237 6.88479 27.0237 6.78479 27.0237H6.68481V26.9235C6.68481 26.9235 6.98481 26.9235 7.18481 26.9235L7.58484 27.0237L7.78479 27.1239C8.08479 27.2241 8.28479 27.2241 8.28479 27.3243ZM8.38477 24.8198C8.18477 24.8198 8.08486 24.7196 7.98486 24.6194C7.78486 24.5192 7.58481 24.3188 7.18481 24.3188C6.48481 24.3188 6.38477 24.7196 6.38477 24.7196V27.8252C6.48477 27.725 6.78484 27.5246 7.08484 27.5246C7.38484 27.5246 7.68477 27.6248 7.88477 27.725C8.08477 27.8252 8.18477 27.8252 8.38477 27.8252H8.78479V24.8198H8.38477Z" fill="white"/>
<path d="M14.9849 28.1256H15.0848H15.1848C15.1848 28.1256 15.4848 27.8251 15.7848 27.8251C16.0848 27.8251 16.2849 27.9253 16.4849 28.0254C16.6849 28.1256 16.8848 28.2258 17.0848 28.2258H17.5848L17.6848 28.1256V25.02L17.8848 25.2204V28.326H15.4849H15.3848C15.3848 28.326 15.1849 28.5263 14.9849 28.5263H14.8848C14.6848 28.5263 14.4849 28.326 14.4849 28.326H14.3848H11.9849V25.2204L12.1848 25.02V28.0254L12.2848 28.1256H12.7848C12.9848 28.1256 13.1848 28.0254 13.3848 27.9253C13.5848 27.8251 13.7848 27.7249 14.0848 27.7249C14.4848 27.7249 14.6848 28.0254 14.6848 28.0254H14.7848L14.9849 28.1256Z" fill="white"/>
<path d="M18.1849 28.3259L18.085 28.4261H15.585C15.485 28.5263 15.385 28.6264 15.085 28.6264H14.8849C14.5849 28.6264 14.4849 28.4261 14.3849 28.4261H11.8849L11.7849 28.3259V25.1201H11.585V28.6264H14.3849H14.485C14.485 28.6264 14.5849 28.7266 14.8849 28.8268H15.1849C15.3849 28.8268 15.485 28.6264 15.485 28.6264H15.585H18.3849V25.1201H18.1849V28.3259Z" fill="white"/>
<path d="M15.085 28.1256H14.985H14.8849H14.7849C14.7849 28.1256 14.4849 27.8251 14.1849 27.8251C13.8849 27.8251 13.685 27.9253 13.485 28.0254C13.285 28.1256 13.0849 28.2258 12.8849 28.2258H12.3849L12.2849 28.1256V25.02L12.085 25.2204V28.326H14.485H14.585C14.585 28.326 14.785 28.5263 14.985 28.5263H15.085C15.285 28.5263 15.485 28.326 15.485 28.326H15.585H17.985V25.2204L17.7849 25.02V28.0254L17.6849 28.1256H17.1849C16.9849 28.1256 16.785 28.0254 16.585 27.9253C16.385 27.8251 16.1849 27.7249 15.8849 27.7249C15.4849 27.7249 15.185 28.0254 15.085 28.1256Z" fill="white"/>
<path d="M18.3849 25.1201H18.1849V28.3259L18.085 28.4261H15.585C15.485 28.5263 15.385 28.6264 15.085 28.6264H14.8849C14.5849 28.6264 14.4849 28.4261 14.3849 28.4261H11.8849L11.7849 28.3259V25.1201H11.585V28.6264H14.3849H14.485C14.485 28.6264 14.5849 28.7266 14.8849 28.8268H15.1849C15.3849 28.8268 15.485 28.6264 15.485 28.6264H15.585H18.3849V25.1201Z" fill="white"/>
<path d="M14.3848 26.3224C14.2848 26.3224 14.0848 26.3224 13.8848 26.3224L13.5848 26.4226L13.3848 26.5227C13.1848 26.6229 12.9848 26.6229 12.8848 26.6229C12.8848 26.6229 13.0848 26.6229 13.3848 26.5227L13.5848 26.4226L13.9849 26.3224C14.1849 26.2222 14.4848 26.2222 14.3848 26.3224ZM14.3848 26.9235C14.2848 26.9235 14.0848 26.9235 13.8848 26.9235L13.5848 27.0236L13.3848 27.1238C13.1848 27.224 12.9848 27.224 12.8848 27.224C12.8848 27.224 13.0848 27.224 13.3848 27.1238L13.5848 27.0236L13.9849 26.9235C14.1849 26.8233 14.4848 26.9235 14.3848 26.9235ZM12.9849 25.9217C13.0849 25.9217 13.1849 25.9216 13.4849 25.8215L13.6848 25.7213L14.0848 25.6211C14.3848 25.5209 14.5848 25.6211 14.5848 25.6211V25.7213H14.4849C14.3849 25.7213 14.1849 25.7213 13.9849 25.7213L13.6848 25.8215L13.4849 25.9217C13.1849 26.0218 12.9849 26.0218 12.9849 25.9217ZM12.9849 25.3206C12.9849 25.3206 13.1849 25.3206 13.4849 25.2204L13.6848 25.1202L14.0848 25.02C14.3848 24.9198 14.5848 25.02 14.5848 25.02V25.1202H14.4849C14.3849 25.1202 14.1849 25.1202 13.9849 25.1202L13.6848 25.2204L13.4849 25.3206C13.1849 25.4207 12.9849 25.4207 12.9849 25.3206ZM14.0848 24.4189C13.6848 24.4189 13.4848 24.5191 13.2848 24.7195C13.1848 24.8197 12.9848 24.9198 12.8848 24.9198H12.4849V27.9253H12.8848C12.9848 27.9253 13.1848 27.8251 13.3848 27.8251C13.5848 27.7249 13.8848 27.6247 14.1848 27.6247C14.4848 27.6247 14.7848 27.8251 14.8848 27.9253C14.8848 27.6247 14.8848 24.8197 14.8848 24.8197C14.8848 24.7195 14.7848 24.4189 14.0848 24.4189Z" fill="white"/>
<path d="M15.585 26.9235C15.685 27.0237 15.885 27.0237 16.085 27.0237L16.3849 27.1239L16.585 27.2241C16.785 27.3243 16.985 27.3243 17.085 27.3243V27.2241C17.085 27.2241 16.885 27.2241 16.585 27.1239L16.3849 27.0237L15.985 26.9235C15.885 26.8234 15.585 26.8234 15.585 26.9235ZM15.585 26.2223C15.685 26.3225 15.885 26.3225 16.085 26.3225L16.3849 26.4226L16.585 26.5228C16.785 26.623 16.985 26.623 17.085 26.623C17.085 26.623 16.885 26.623 16.585 26.5228L16.3849 26.4226L15.985 26.3225C15.885 26.2223 15.585 26.2223 15.585 26.2223ZM15.585 24.9199C15.685 25.0201 15.885 25.0201 16.085 25.0201L16.3849 25.1203L16.585 25.2205C16.785 25.3207 16.985 25.3207 17.085 25.3207V25.2205C17.085 25.2205 16.885 25.2205 16.585 25.1203L16.3849 25.0201L15.985 24.9199C15.785 24.9199 15.585 24.9199 15.585 24.9199ZM15.585 25.6212C15.685 25.7214 15.885 25.7214 16.085 25.7214L16.3849 25.8216L16.585 25.9217C16.785 26.0219 16.985 26.0219 17.085 26.0219V25.9217C17.085 25.9217 16.885 25.9217 16.585 25.8216L16.3849 25.7214L15.985 25.6212C15.785 25.521 15.585 25.6212 15.585 25.6212ZM15.7849 27.5246C15.4849 27.5246 15.185 27.725 15.085 27.8252V24.7196C15.085 24.7196 15.1849 24.3188 15.8849 24.3188C16.2849 24.3188 16.4849 24.419 16.6849 24.6194C16.7849 24.7196 16.985 24.8198 17.085 24.8198H17.485V27.8252H17.085C16.985 27.8252 16.785 27.725 16.585 27.725C16.385 27.6248 16.0849 27.5246 15.7849 27.5246Z" fill="white"/>
<path d="M8.48486 34.0362L8.38477 33.936L8.18481 34.0362H7.98486C7.78486 34.0362 7.48477 34.1364 7.38477 34.3368V34.5371L7.48486 34.7375H7.58484C7.48484 34.5371 7.68481 34.3368 7.68481 34.3368V34.5371V34.6373L7.78479 34.5371C7.78479 34.3368 7.98484 34.2366 8.08484 34.2366H8.18481L8.68481 34.3368C8.58481 34.3368 8.48486 34.1364 8.48486 34.0362Z" fill="white"/>
<path d="M11.5848 35.1383C11.3848 35.1383 10.6848 35.0382 10.6848 34.938C10.6848 34.938 10.5848 34.938 10.3848 35.0382C10.1848 35.1383 10.0849 35.2385 9.98486 35.3387L10.0848 35.4389C10.1848 35.3387 10.1848 35.2385 10.3848 35.2385H10.7848C10.7848 35.2385 10.5849 35.3387 10.4849 35.4389L10.2848 35.6393H10.4849H10.6848C10.7848 35.6393 11.8848 35.6393 12.1848 35.6393V35.5391C12.1848 35.3387 11.8848 35.2385 11.5848 35.1383Z" fill="white"/>
<path d="M14.0847 31.6321C12.4847 29.6285 10.1847 30.6303 10.0847 30.6303C9.58473 30.7305 9.28475 30.9309 8.98475 31.0311L8.6847 31.1312L7.88465 31.2314C7.68465 31.3316 7.28465 31.4318 6.88465 31.7323L6.58472 31.9327C6.08472 32.2332 5.98474 32.4336 5.98474 32.4336L5.88464 32.5338L5.78467 32.6339L5.88464 32.5338H5.98474V32.6339L5.88464 32.7341C5.98464 32.8343 6.08472 32.9345 6.08472 32.9345C6.18472 32.9345 6.48472 32.8343 6.58472 33.1348V33.3352L6.48474 33.5356H6.78467H6.88465H6.98475C7.28475 33.4354 7.58468 33.4354 7.78468 33.4354C8.08468 33.5356 8.48473 33.7359 8.58473 33.9363L8.78468 34.6376C8.78468 34.7377 8.78475 34.9381 8.48475 35.0383C8.38475 35.1385 8.18473 35.1385 8.08473 35.1385H7.98475L7.78468 35.439H7.88465L8.08473 35.2386V35.439H8.28468H8.38465C8.48465 35.439 8.78466 35.439 8.88466 35.3388L8.98475 35.2386L9.38466 34.9381L9.78468 34.6376L9.98476 34.5374C10.0848 34.4372 10.0848 33.9363 9.98476 33.5356L10.0847 33.4354L10.1847 33.5356C10.1847 33.7359 10.2847 34.1367 10.1847 34.4372C10.4847 34.6376 10.7847 34.7377 11.0847 34.8379C10.9847 34.7377 10.8847 34.5374 10.8847 34.4372C10.8847 34.337 10.7847 34.2368 10.7847 34.0365C10.7847 33.6358 10.9847 33.3352 11.1847 33.1348C11.3847 32.9345 11.4848 32.7341 11.4848 32.6339L11.5847 32.5338L11.6847 32.6339C11.6847 32.9345 11.5847 33.1349 11.3847 33.3352C11.1847 33.6358 10.8847 33.9363 11.0847 34.4372C11.1847 34.7377 11.3847 34.9381 11.5847 35.0383H11.6847C11.9847 35.2386 12.4848 35.2386 12.4848 35.2386H12.5847V35.3388C12.5847 35.3388 12.5848 35.5392 12.4848 35.6394V35.7395L12.3847 35.8397L11.9848 36.1403C11.6848 36.3406 11.1847 36.6412 10.6847 37.0419C10.0847 37.5428 9.68468 38.2441 9.78468 38.5446C9.78468 38.6448 9.88476 38.6448 9.98476 38.6448C10.9848 38.745 11.5847 38.1439 12.1847 37.5428L12.2847 37.4426C12.6847 37.0419 12.8847 36.6412 13.0847 36.2404C13.1847 36.0401 13.2847 35.9399 13.2847 35.9399C13.6847 35.6394 14.3848 34.7377 14.4848 33.6358C14.6848 32.8343 14.4848 32.133 14.0847 31.6321ZM7.38465 31.7323L7.58472 31.6321H7.6847L7.78468 31.7323L7.88465 31.8325C7.98465 31.8325 8.08465 31.6321 7.88465 31.4318H7.6847C7.3847 31.532 7.38465 31.7323 7.38465 31.7323ZM6.78467 32.9345L6.6847 32.5338C6.7847 32.4336 7.1847 32.2332 7.1847 32.133C7.1847 32.0329 6.58474 32.2332 6.48474 32.4336C6.38474 32.7341 6.68467 33.0347 6.78467 32.9345ZM13.8847 33.0347V33.1348H13.9848H14.0847V33.0347L13.9848 32.9345H13.8847V33.0347ZM14.1847 32.7341V32.8343L14.2847 32.9345H14.3847V32.8343L14.2847 32.7341H14.1847ZM13.0847 32.8343L13.1847 33.0347H13.2847V32.9345L13.0847 32.8343ZM13.2847 32.5338V32.6339L13.3847 32.7341H13.4848V32.6339L13.2847 32.5338ZM13.3847 32.133V32.2332C13.3847 32.2332 13.4847 32.2332 13.5847 32.3334H13.6847V32.2332C13.4847 32.0329 13.4848 32.0329 13.4848 32.0329L13.3847 32.133ZM13.4848 31.6321V31.7323C13.4848 31.7323 13.5847 31.8325 13.7847 31.9327H13.8847V31.8325C13.6847 31.6321 13.5847 31.532 13.5847 31.532L13.4848 31.6321ZM12.3847 32.2332L12.5847 32.3334H12.6847V32.2332H12.3847ZM12.4848 31.8325L12.8847 32.0329H12.9848V31.9327C12.6848 31.7323 12.5848 31.7323 12.4848 31.8325ZM12.3847 31.3316L12.4848 31.4318C12.4848 31.4318 12.6847 31.532 12.8847 31.532H12.9848V31.4318C12.7848 31.3316 12.5847 31.2314 12.5847 31.2314L12.3847 31.3316ZM12.2847 30.8307L12.3847 30.9309C12.3847 30.9309 12.6848 31.0311 12.9848 31.1312H13.0847V31.0311C12.7847 30.9309 12.4848 30.8307 12.4848 30.7305L12.2847 30.8307ZM9.98476 32.7341L9.68471 32.6339L9.58473 32.7341L9.68471 32.8343L9.98476 32.7341ZM10.0847 32.2332L9.68471 32.133L9.58473 32.2332L9.68471 32.3334L10.0847 32.2332ZM10.0847 31.6321H9.58473L9.48476 31.7323L9.58473 31.8325L10.0847 31.6321ZM9.98476 31.1312L9.28468 31.3316V31.532L9.48476 31.6321L9.98476 31.1312ZM6.58472 32.0329L6.48474 32.2332L6.58472 32.3334H6.6847L6.78467 32.2332L6.58472 32.0329ZM10.9848 38.1439L10.6847 38.0437C10.4847 38.0437 10.3847 38.0437 10.2847 38.1439C10.2847 38.2441 10.4847 38.2441 10.6847 38.2441L10.9848 38.1439ZM11.4848 37.5428C11.4848 37.4426 11.1848 37.4426 10.9848 37.4426C10.7848 37.4426 10.4848 37.4426 10.4848 37.5428C10.4848 37.643 10.6848 37.643 10.9848 37.643C11.1848 37.7432 11.4848 37.643 11.4848 37.5428ZM11.9848 37.1421C11.9848 37.2423 11.6848 37.2423 11.4848 37.2423C11.1848 37.2423 10.9848 37.2423 10.9848 37.1421C10.9848 37.0419 11.2848 37.0419 11.4848 37.0419C11.6848 37.0419 11.9848 37.0419 11.9848 37.1421Z" fill="white"/>
<path d="M16.7847 35.7396C16.9847 35.7396 17.1846 35.7396 17.3846 35.6394C17.5846 35.5392 17.6847 35.439 17.7847 35.3389C17.8847 35.5392 18.2846 36.0401 18.3846 36.2405C18.1846 36.541 17.8847 36.7414 17.6847 37.0419L16.7847 35.7396Z" fill="white"/>
<path d="M3.48486 35.3389C3.58486 35.439 3.68477 35.6394 3.88477 35.6394C4.08477 35.7396 4.28486 35.7396 4.48486 35.7396L3.58484 36.9418C3.28484 36.6412 3.08477 36.4409 2.88477 36.1403C3.08477 36.0401 3.38486 35.5392 3.48486 35.3389Z" fill="white"/>
<path d="M6.38477 42.7522L6.58484 42.5518L6.78479 42.4517C6.98478 42.2513 7.28486 42.0509 7.48485 41.8506C7.88485 42.0509 8.28482 42.2513 8.58482 42.5518C8.78482 42.7522 8.78479 43.0528 8.68479 43.1529L8.58482 43.2531L8.28477 43.5537H8.08482C7.18483 43.5537 6.58486 43.2531 6.48486 42.9526L6.38477 42.7522Z" fill="white"/>
<path d="M14.6848 42.4516L14.8848 42.5518L15.0848 42.7521V43.0527C14.9848 43.3532 14.3849 43.6537 13.4848 43.6537H13.2848L12.9848 43.3532L12.8847 43.253C12.7847 43.1528 12.7848 42.8523 12.9848 42.6519C13.1848 42.3514 13.5848 42.151 14.0848 41.9507C14.0848 42.0509 14.3848 42.2512 14.6848 42.4516Z" fill="white"/>
<path d="M3.08474 37.3425L3.18471 37.2423L2.88467 36.9418L2.78469 37.0419L2.88467 37.1421L2.38467 37.7432L2.58474 36.7414L2.68472 36.8416L2.78469 36.7414C2.68469 36.6412 2.58477 36.4409 2.48477 36.2405L2.38467 36.3407L2.48477 36.4409L2.28469 37.8434L2.38467 38.0438C2.48467 37.9436 2.98474 37.4427 3.08474 37.3425ZM6.38465 39.3461C6.28465 39.2459 6.08475 39.2459 5.98475 39.1457L5.88465 39.2459L5.98475 39.3461C5.78475 39.6466 5.58468 40.4481 5.28468 40.1475C5.08468 39.9472 5.18468 39.847 5.28468 39.5465C5.38468 39.3461 5.48475 39.2459 5.48475 39.0456L5.58473 39.1457L5.6847 39.0456C5.48471 38.9454 5.38471 38.8452 5.18471 38.8452L5.08473 38.9454L5.18471 39.0456L5.08473 39.3461C4.88473 39.6466 4.78466 39.9472 4.88466 40.1475L5.08473 40.3479L5.38466 40.4481C5.78466 40.4481 5.9847 39.9472 6.1847 39.5465H6.28468L6.38465 39.3461ZM7.48475 39.847C7.18475 39.6466 6.78475 39.5465 6.48475 39.3461L6.28468 39.6466L6.38465 39.7468L6.48475 39.5465L6.6847 39.6466C6.5847 39.9472 6.38468 40.3479 6.28468 40.6484L6.08473 40.5483L5.98475 40.6484C6.18475 40.7486 6.28475 40.8488 6.48475 40.8488L6.58473 40.7486L6.38465 40.6484C6.48465 40.3479 6.68468 39.9472 6.78468 39.6466L6.98475 39.7468L6.88465 39.9472L6.98475 40.0474L7.48475 39.847ZM3.58474 38.6448L3.78469 38.3443L3.68471 38.2441L3.58474 38.3443L3.38466 38.2441C3.48466 38.1439 3.48474 37.9436 3.58474 37.8434L3.78469 38.0438L3.68471 38.2441L3.78469 38.3443L3.98476 38.0438C3.78476 37.8434 3.58469 37.643 3.28469 37.5429L3.18471 37.643L3.28469 37.7432C3.08469 38.0438 2.98469 38.3443 2.78469 38.6448L2.68472 38.5447L2.58474 38.6448C2.78474 38.8452 2.98469 39.0456 3.28469 39.2459L3.48476 38.9454L3.58474 38.6448L3.38466 38.9454L3.08474 38.745L3.28469 38.3443L3.48476 38.5447L3.58474 38.6448ZM4.68471 38.5447L4.78468 38.4445C4.58468 38.3443 4.48466 38.2441 4.38466 38.1439L4.28469 38.2441L4.38466 38.3443C4.18466 38.6448 4.08466 38.9454 3.88466 39.3461L3.78469 39.2459L3.68471 39.3461C3.88471 39.5465 4.18466 39.6466 4.38466 39.847L4.58473 39.5465L4.48476 39.4463L4.28469 39.6466L3.98476 39.4463C3.98476 39.3461 4.28466 38.745 4.38466 38.5447H4.68471ZM6.6847 41.2495C4.58471 40.4481 2.88472 39.3461 2.18472 38.3443C1.28472 37.2423 1.48472 36.3407 1.68472 35.8398L1.98477 35.2387L2.28469 34.7378C2.28469 35.0383 2.28477 35.3389 2.48477 35.7396C2.88476 36.7414 4.28466 37.7432 5.38466 38.3443C5.88466 38.6448 6.2847 38.8452 6.6847 39.0456C7.8847 39.6466 8.88464 40.0474 8.88464 41.1494V42.4517V42.5519L8.78467 42.3515C8.18467 41.8506 7.4847 41.5501 6.6847 41.2495Z" fill="white"/>
<path d="M18.3848 37.6429C18.1848 37.4425 17.9848 37.4425 17.6848 37.6429L17.5849 37.743C17.4849 37.8432 17.3848 38.0436 17.3848 38.2439V38.4443L17.4849 38.7448C17.6849 39.0454 17.8848 39.0454 18.1848 38.9452C18.6848 38.7449 18.6848 38.0436 18.3848 37.6429ZM18.2848 38.7448C17.9848 38.9452 17.6848 38.6447 17.6848 38.2439C17.6848 38.0436 17.6848 37.9434 17.7848 37.8432L17.8848 37.743L18.0849 37.6429C18.2849 37.743 18.5848 38.4443 18.2848 38.7448ZM17.0849 38.2439V38.0436C16.9849 38.1438 16.7848 38.244 16.6848 38.3441L16.7848 38.4443L16.8848 38.3441C16.8848 38.5445 16.9849 39.0454 16.9849 39.2458V39.4461L16.7848 39.2458L16.4849 38.845L16.2848 38.6447L16.3848 38.5445V38.4443C16.1848 38.5445 16.0848 38.6447 15.8848 38.7448V38.845L15.9849 38.7448L16.1848 38.9452C16.3848 39.1456 16.4848 39.2458 16.6848 39.4461L16.8848 39.6465L17.0849 39.5463C17.0849 39.2458 17.0849 38.9452 16.9849 38.5445C17.0849 38.5445 17.0849 38.4443 17.0849 38.2439ZM16.0848 39.8468V40.0472L15.6848 40.2476L15.4849 39.8468L15.7848 39.7467L15.8848 39.8468H16.0848L15.8848 39.4461L15.7848 39.5463V39.6465L15.4849 39.8468C15.3849 39.6465 15.3848 39.5463 15.2848 39.3459L15.6848 39.1456L15.7848 39.3459L15.8848 39.2458L15.6848 38.9452C15.4848 39.0454 15.1848 39.2458 14.8848 39.3459C14.8848 39.8468 14.7848 40.2476 14.7848 40.7485L14.6848 40.8486L14.7848 40.9488C14.8848 40.8486 15.0848 40.8486 15.1848 40.7485L15.0848 40.6483L14.9849 40.7485C14.9849 40.6483 14.9849 40.4479 14.9849 40.2476L15.2848 40.0472L15.4849 40.4479L15.3848 40.5481L15.4849 40.6483C15.7849 40.5481 16.0848 40.3477 16.3848 40.2476L16.2848 39.947L16.0848 39.8468ZM14.9849 39.947C14.9849 39.7467 14.9849 39.5463 14.9849 39.3459C15.0849 39.5463 15.0848 39.6465 15.1848 39.8468L14.9849 39.947ZM19.1848 38.3441C18.3848 39.3459 16.7848 40.3477 14.7848 41.1492H14.6848C13.8848 41.4497 13.1848 41.7503 12.7848 42.2512L12.6848 42.4515V42.3514V41.049C12.6848 39.947 13.6848 39.5463 14.8848 38.9452C15.2848 38.7449 15.7848 38.5445 16.1848 38.2439C17.2848 37.6429 18.5849 36.6411 19.0849 35.6393C19.2849 35.2385 19.2848 34.938 19.2848 34.6375L19.5849 35.1384L19.8848 35.7394C19.8848 36.4407 19.9848 37.3423 19.1848 38.3441Z" fill="white"/>
<path d="M11.9849 44.1546H11.7848C11.5848 44.2547 11.4848 44.3549 11.3848 44.4551L11.2848 44.6555V44.956C11.3848 45.2565 11.4848 45.4569 11.7848 45.4569C12.2848 45.5571 12.6849 44.956 12.4849 44.4551C12.5849 44.2547 12.3849 44.1546 11.9849 44.1546ZM12.0848 45.3567C11.7848 45.4569 11.5848 44.956 11.6848 44.6555C11.6848 44.4551 11.7848 44.3549 11.8848 44.2547H11.9849H12.1848C12.4848 44.4551 12.4848 45.2565 12.0848 45.3567ZM7.98486 44.1546H7.78479C7.68479 44.5553 7.48477 44.956 7.38477 45.3567H7.28479V45.4569H7.78479V45.3567H7.68481L7.78479 45.1564C7.88479 45.1564 8.08481 45.1564 8.18481 45.1564L8.28479 45.3567H8.18481V45.4569H8.68481V45.3567H8.58484L7.98486 44.1546ZM7.68481 44.956C7.78481 44.7556 7.78477 44.5553 7.88477 44.4551L8.08484 44.956H7.68481ZM9.68481 45.2565L9.48486 44.8558C9.68486 44.7556 9.88481 44.4551 9.68481 44.2547C9.48481 44.1546 9.18479 44.1546 8.78479 44.1546V44.2547H8.88477V45.2565H8.78479V45.3567H9.28479V45.2565H9.18481V44.8558H9.38477L9.68481 45.3567H9.98486V45.2565H9.88477H9.68481ZM9.08484 44.8558C9.08484 44.6555 9.08484 44.5553 9.08484 44.3549H9.28479C9.38479 44.4551 9.48477 44.6555 9.38477 44.7556C9.38477 44.7556 9.28484 44.8558 9.08484 44.8558ZM10.7848 44.7556C10.9848 44.6555 11.0848 44.3549 10.8848 44.1546C10.6848 44.0544 10.2848 44.0544 10.0848 44.0544V44.1546H10.1848V45.2565H10.0848V45.3567C10.3848 45.3567 10.7849 45.3567 10.9849 45.2565C11.0849 45.1564 11.2848 44.956 11.0848 44.7556H10.7848ZM10.4849 44.2547C10.5849 44.2547 10.7848 44.2547 10.7848 44.3549V44.5553C10.7848 44.7556 10.5848 44.7556 10.3848 44.7556C10.4848 44.5553 10.4849 44.4551 10.4849 44.2547ZM10.8848 45.1564L10.6848 45.3567H10.4849V45.2565V44.8558C10.6849 44.8558 10.9848 44.956 10.8848 45.1564ZM13.8848 45.2565L13.6848 44.8558C13.8848 44.7556 14.0848 44.4551 13.8848 44.2547C13.6848 44.1546 13.3849 44.1546 12.9849 44.1546V44.2547H13.0848V45.2565H12.9849V45.3567H13.4849V45.2565H13.3848V44.8558H13.5848L13.8848 45.3567H14.1848V45.2565H14.0848H13.8848ZM13.2848 44.8558C13.2848 44.6555 13.2848 44.5553 13.2848 44.3549H13.4849C13.5849 44.4551 13.6848 44.6555 13.5848 44.7556C13.5848 44.7556 13.4848 44.8558 13.2848 44.8558ZM15.0848 43.2529V45.0562C15.0848 45.5571 14.1848 45.7574 13.3848 45.7574H7.88477C7.08477 45.7574 6.18481 45.5571 6.18481 45.0562V43.2529C6.48481 43.6537 7.18477 43.854 7.88477 43.854H13.3848C14.1848 43.854 14.7848 43.5535 15.0848 43.2529Z" fill="white"/>
<path d="M10.0847 18.9093C9.88472 18.6088 9.58464 18.6088 9.38464 18.6088C8.98464 18.6088 8.68472 18.8091 8.58472 18.9093H8.48474C8.18474 18.9093 7.88467 19.0095 7.78467 19.2098C7.58467 19.4102 7.58469 19.7107 7.68469 19.8109L7.78467 20.0113C7.78467 19.6106 7.98467 19.31 8.28467 19.2098H8.38464C8.48464 19.31 7.88472 19.6106 8.08472 20.1115C8.18472 20.412 8.28474 20.5122 8.48474 20.5122L8.38464 20.3118V20.2116C8.28464 20.1115 8.18469 20.0113 8.18469 19.9111C8.18469 19.8109 8.28474 19.7107 8.48474 19.6106H8.58472V19.5104C8.58472 19.31 8.78464 19.1097 8.88464 19.0095H9.08472C9.18472 19.0095 9.48472 19.2098 9.58472 19.5104H9.68469C9.88469 19.5104 9.98474 19.6106 9.98474 19.6106L10.0847 19.5104L9.78467 19.2098C9.68467 19.1097 9.48474 19.0095 9.48474 19.0095H9.58472L9.78467 19.1097C9.88467 19.2098 9.98472 19.31 10.0847 19.31V18.9093ZM10.7847 21.1133L10.5847 21.3136L10.3846 21.1133L10.5847 20.9129L10.7847 21.1133ZM9.38464 18.4084L9.08472 18.3082C8.78472 18.208 8.58467 18.1079 8.28467 18.1079C7.68467 18.1079 7.28467 18.5086 7.28467 18.9093C7.28467 19.1097 7.28464 19.2098 7.38464 19.4102L7.58472 19.1097C7.78472 18.9093 8.08474 18.7089 8.48474 18.8091C8.58474 18.5086 8.98464 18.4084 9.38464 18.4084ZM13.5847 19.2098C13.4847 19.0095 13.1846 18.9093 12.8846 18.9093H12.7847C12.6847 18.8091 12.3847 18.6088 11.9847 18.6088C11.7847 18.6088 11.4847 18.6088 11.2847 18.9093V19.2098C11.3847 19.1097 11.4847 19.0095 11.5847 19.0095L11.7847 18.9093H11.8846C11.8846 18.9093 11.6847 19.0095 11.5847 19.1097L11.2847 19.4102L11.3846 19.5104C11.4846 19.4102 11.5847 19.4102 11.6847 19.4102H11.7847C11.8847 19.1097 12.1847 19.0095 12.2847 18.9093H12.4847C12.5847 19.0095 12.7847 19.2098 12.7847 19.4102V19.5104H12.8846C13.0846 19.6106 13.1847 19.7107 13.1847 19.8109C13.1847 19.9111 13.0847 20.1115 12.9847 20.1115V20.2116L12.8846 20.412C12.9846 20.412 13.1847 20.3118 13.1847 20.0113C13.2847 19.5104 12.7846 19.2098 12.8846 19.1097H12.9847C13.2847 19.2098 13.4847 19.5104 13.4847 19.9111L13.5847 19.7107C13.6847 19.7107 13.6847 19.4102 13.5847 19.2098ZM11.2847 18.5086V18.6088L11.4847 18.5086H11.2847ZM13.8846 19.4102C13.9846 19.2098 13.9847 19.1097 13.9847 18.9093C13.9847 18.4084 13.5847 18.1079 12.9847 18.1079C12.6847 18.1079 12.4847 18.208 12.1847 18.3082L11.8846 18.4084H11.9847C12.3847 18.4084 12.6846 18.5086 12.8846 18.7089C13.2846 18.7089 13.5847 18.8091 13.7847 19.0095L13.8846 19.4102ZM10.0847 18.5086H9.88464L10.0847 18.6088V18.5086ZM10.5847 22.9165C11.9847 22.9165 12.6847 22.616 12.6847 22.5158C12.6847 22.4156 11.9847 22.1151 10.5847 22.1151C9.18472 22.1151 8.48474 22.4156 8.48474 22.5158C8.58474 22.7162 9.28472 22.9165 10.5847 22.9165ZM14.1847 18.9093C14.1847 19.5104 13.6847 20.2116 13.4847 20.412C13.3847 20.6124 13.1847 20.8127 12.7847 20.6124C12.5847 20.5122 12.4846 20.5122 12.3846 20.3118C12.2846 20.2116 12.2846 20.1115 12.3846 19.9111L12.4847 19.8109V19.9111L12.5847 20.1115H12.6847V19.9111C12.7847 19.8109 12.9847 19.6106 12.6847 19.5104C12.4847 19.4102 12.2847 19.7107 12.2847 19.7107C12.2847 19.5104 12.4847 19.4102 12.5847 19.2098C12.5847 19.0095 12.4846 18.9093 12.3846 18.8091H12.2847C12.1847 18.8091 12.0847 18.9093 11.9847 19.1097C11.9847 19.31 12.0847 19.5104 12.0847 19.7107C12.0847 19.7107 12.0847 19.31 11.7847 19.31C11.4847 19.31 11.5847 19.6106 11.5847 19.7107L11.4847 19.9111L11.5847 20.0113L11.6847 19.8109L11.7847 19.7107L11.8846 19.8109C11.8846 20.0113 11.8847 20.1115 11.7847 20.1115C11.5847 20.2116 11.3847 20.2116 11.2847 20.2116C10.8847 20.2116 10.7847 19.9111 10.7847 19.9111L11.0847 20.0113L11.1847 19.9111V19.5104L11.0847 19.4102L10.7847 19.5104L10.8846 19.31L10.7847 19.2098H10.4847H10.1847L10.0847 19.31L10.1847 19.5104L9.88464 19.4102L9.78467 19.5104V19.9111L9.88464 20.0113L10.1847 19.9111C10.1847 19.9111 10.1847 20.2116 9.68469 20.2116C9.58469 20.2116 9.28469 20.2116 9.18469 20.1115C9.08469 20.0113 8.98472 19.9111 9.08472 19.8109L9.18469 19.7107L9.28467 19.8109L9.38464 20.0113L9.48474 19.9111L9.38464 19.7107C9.48464 19.6106 9.58469 19.31 9.18469 19.31C8.98469 19.31 8.88464 19.6106 8.88464 19.7107C8.88464 19.5104 8.98474 19.31 8.98474 19.1097C8.98474 18.9093 8.78469 18.8091 8.68469 18.8091H8.58472C8.48472 18.9093 8.38464 19.0095 8.38464 19.2098C8.38464 19.4102 8.58469 19.5104 8.68469 19.7107C8.68469 19.7107 8.48467 19.4102 8.28467 19.5104C7.98467 19.6106 8.18467 19.8109 8.28467 19.9111V20.1115H8.38464L8.48474 19.9111V19.8109L8.58472 19.9111C8.68472 20.0113 8.68472 20.2116 8.58472 20.3118C8.48472 20.5122 8.28469 20.5122 8.18469 20.6124C7.88469 20.7125 7.58474 20.5122 7.48474 20.412C7.28474 20.1115 6.78467 19.5104 6.78467 18.9093C6.78467 18.3082 7.28474 17.9075 7.98474 17.9075C8.28474 17.9075 8.58464 18.0077 8.88464 18.1079C9.18464 18.208 9.48467 18.3082 9.78467 18.3082V17.7071L9.88464 17.6069L9.98474 17.7071V19.31H10.7847V17.7071L10.8846 17.6069L10.9847 17.7071V18.3082C11.2847 18.3082 11.5846 18.208 11.8846 18.1079C12.1846 18.0077 12.4847 17.9075 12.7847 17.9075C13.6847 17.9075 14.1847 18.3082 14.1847 18.9093ZM10.5847 21.9147C11.3847 21.9147 12.8846 22.0149 12.8846 22.5158C12.8846 23.0167 11.3847 23.1169 10.5847 23.1169C9.78472 23.1169 8.28467 23.0167 8.28467 22.5158C8.38467 22.1151 9.88472 21.9147 10.5847 21.9147ZM11.0847 17.106L10.9847 17.2062H10.7847V17.4066L10.6847 17.5068L10.5847 17.4066V17.2062H10.3846L10.2847 17.106L10.3846 17.0059H10.5847V16.8055L10.6847 16.7053L10.7847 16.8055V17.0059H10.9847L11.0847 17.106ZM10.6847 20.8127C9.78469 20.8127 8.98464 20.9129 8.38464 21.1133C8.08464 21.2134 7.98467 21.3136 7.78467 21.4138H7.68469L7.58472 21.3136C7.58472 21.2134 7.48467 20.8127 7.28467 20.412H7.38464C7.48464 20.6124 7.78467 21.0131 7.78467 21.2134C7.88467 21.1133 8.08469 21.1133 8.18469 21.0131C8.78469 20.8127 9.58474 20.6124 10.4847 20.6124C11.3847 20.6124 12.1847 20.7125 12.7847 21.0131C12.9847 21.1133 13.0847 21.1133 13.1847 21.2134C13.1847 21.1133 13.4847 20.6124 13.5847 20.412H13.6847C13.4847 20.8127 13.3846 21.2134 13.3846 21.3136L13.2847 21.4138H13.1847C13.0847 21.3136 12.8847 21.2134 12.5847 21.1133C12.3847 20.9129 11.4847 20.8127 10.6847 20.8127ZM12.4847 23.1169L12.6847 23.0167C13.0847 22.8163 13.2847 22.616 13.2847 22.4156C13.2847 22.1151 12.1847 21.7144 10.6847 21.7144C9.18469 21.7144 8.08472 22.1151 8.08472 22.4156C8.08472 22.616 8.28469 22.8163 8.68469 23.0167L8.88464 23.1169H8.68469C8.18469 22.9165 7.88464 22.7162 7.88464 22.4156C7.88464 21.8145 9.38469 21.514 10.6847 21.514C12.0847 21.514 13.4847 21.8145 13.4847 22.4156C13.4847 22.7162 13.1847 22.9165 12.6847 23.1169H12.4847ZM14.4847 19.9111L14.2847 20.1115L14.0847 19.9111L14.2847 19.7107L14.4847 19.9111ZM14.6847 19.31L14.4847 19.5104L14.2847 19.31L14.4847 19.1097L14.6847 19.31ZM14.6847 18.6088L14.4847 18.8091L14.2847 18.6088L14.4847 18.4084L14.6847 18.6088ZM14.3846 18.0077L14.1847 18.208L13.9847 18.0077L14.1847 17.8073L14.3846 18.0077ZM13.7847 17.6069L13.5847 17.8073L13.3846 17.6069L13.5847 17.4066L13.7847 17.6069ZM13.0847 17.5068L12.8846 17.7071L12.6847 17.5068L12.8846 17.3064L13.0847 17.5068ZM12.4847 17.7071L12.2847 17.9075L12.0847 17.7071L12.2847 17.5068L12.4847 17.7071ZM11.7847 17.9075L11.5847 18.1079L11.3846 17.9075L11.5847 17.7071L11.7847 17.9075ZM7.08472 19.7107L7.28467 19.9111L7.08472 20.1115L6.88464 19.9111L7.08472 19.7107ZM6.78467 19.1097L6.98474 19.31L6.78467 19.5104L6.58472 19.31L6.78467 19.1097ZM6.78467 18.4084L6.98474 18.6088L6.78467 18.8091L6.58472 18.6088L6.78467 18.4084ZM7.08472 17.8073L7.28467 18.0077L7.08472 18.208L6.88464 18.0077L7.08472 17.8073ZM7.68469 17.4066L7.88464 17.6069L7.68469 17.8073L7.48474 17.6069L7.68469 17.4066ZM8.38464 17.4066L8.58472 17.6069L8.38464 17.8073L8.18469 17.6069L8.38464 17.4066ZM9.08472 17.5068L9.28467 17.7071L9.08472 17.9075L8.88464 17.7071L9.08472 17.5068ZM9.68469 17.7071L9.88464 17.9075L9.68469 18.1079L9.48474 17.9075L9.68469 17.7071ZM10.6847 17.7071L10.8846 17.9075L10.6847 18.0077L10.4847 17.8073L10.6847 17.7071ZM10.6847 18.208L10.8846 18.4084L10.6847 18.6088L10.4847 18.4084L10.6847 18.208ZM10.6847 18.8091L10.8846 19.0095L10.6847 19.2098L10.4847 19.0095L10.6847 18.8091ZM11.3846 21.1133L11.2847 21.2134L11.1847 21.1133L11.2847 21.0131L11.3846 21.1133ZM12.7847 21.4138L12.6847 21.514L12.5847 21.4138L12.6847 21.3136L12.7847 21.4138ZM13.4847 21.7144L13.1847 21.8145L13.0847 21.514L13.3846 21.4138L13.4847 21.7144ZM12.1847 21.2134L11.9847 21.4138L11.7847 21.2134L11.9847 21.0131L12.1847 21.2134ZM9.98474 21.0131L10.0847 21.1133L9.98474 21.2134L9.88464 21.1133L9.98474 21.0131ZM8.58472 21.3136L8.68469 21.4138L8.58472 21.514L8.48474 21.4138L8.58472 21.3136ZM7.88464 21.514L8.18469 21.6142L8.08472 21.9147L7.78467 21.8145L7.88464 21.514ZM9.28467 21.0131L9.48474 21.2134L9.28467 21.4138L9.08472 21.2134L9.28467 21.0131ZM19.8846 23.5176V16.4048H10.5847H1.28467V23.5176H19.8846ZM19.9847 23.5176V23.6178V23.718H1.38464V23.6178V23.5176H19.9847Z" fill="white"/>
<path d="M16.4849 36.0401C15.4849 37.2423 14.4849 38.3442 13.4849 39.1457L12.3848 40.0473C11.4848 40.7486 10.7848 41.1493 10.7848 41.1493L10.6848 41.2495L10.5848 41.1493C10.5848 41.1493 9.88479 40.7486 8.78479 39.9471L7.98486 39.2459C6.98486 38.4444 5.88477 37.3424 4.88477 36.0401L4.78479 35.8397L4.48486 35.439L4.28479 35.2386C3.98479 34.8379 3.68477 34.337 3.38477 33.8361L3.28479 33.6358L3.18481 33.4354L3.08484 33.235C1.98484 31.1312 1.08484 28.6267 1.08484 25.7215V16.004H20.2848V25.7215C20.2848 28.6267 19.4848 31.1312 18.2848 33.235L18.1848 33.4354L18.0848 33.5356L17.9849 33.7359C17.8849 33.9363 17.7848 34.0365 17.6848 34.2368L17.5848 34.337C17.3848 34.6376 17.1848 34.8379 17.0848 35.1385L16.8848 35.3388C16.7848 35.439 16.6848 35.6394 16.5848 35.7395L16.4849 36.0401ZM14.2848 38.745C15.0848 38.0437 15.8848 37.2422 16.5848 36.2404L17.1848 37.0419C16.7848 37.3424 16.2848 37.7432 15.8848 37.9435C15.4848 38.1439 14.9848 38.3442 14.5848 38.5446L14.2848 38.745ZM12.4849 43.3533H8.88477C9.08477 43.1529 9.18481 42.9525 9.18481 42.4516V41.1493C9.18481 40.8487 9.18484 40.6484 9.08484 40.448C9.88484 41.0491 10.3849 41.3497 10.4849 41.3497L10.7848 41.4498L11.0848 41.3497C11.0848 41.3497 11.5848 41.0491 12.3848 40.5482C12.2848 40.7486 12.2848 40.9489 12.2848 41.2495V42.5518C12.0848 42.9525 12.2849 43.1529 12.4849 43.3533ZM4.68481 36.2404C5.48481 37.2422 6.28484 38.1439 7.08484 38.8451L6.78479 38.6448C6.38479 38.4444 5.88486 38.2441 5.48486 38.0437C5.28486 37.9435 4.78481 37.643 4.18481 37.1421C4.18481 37.0419 4.48481 36.6412 4.68481 36.2404ZM19.1848 34.4372L19.5848 35.2386L19.8848 35.8397C19.9848 36.0401 20.0848 36.3406 20.0848 36.7413C20.0848 37.3424 19.8848 37.9435 19.3848 38.5446C18.5848 39.5464 16.8848 40.6484 14.8848 41.4498L14.1848 41.7504L14.9849 42.4516L15.0848 42.5518C15.2848 42.7522 15.3848 42.9525 15.3848 43.3533V45.0563C15.3848 45.6574 14.6848 46.0581 13.3848 46.0581H7.88477C6.68477 46.0581 5.88477 45.6574 5.88477 45.0563V43.2531C5.88477 42.9525 5.98481 42.652 6.18481 42.4516L6.28479 42.3515L6.48486 42.2513L7.08484 41.7504L6.38477 41.4498C4.38477 40.6484 2.68477 39.5464 1.88477 38.5446C1.38477 37.9435 1.18481 37.3424 1.18481 36.7413C1.18481 36.3406 1.28477 36.0401 1.38477 35.8397L1.68481 35.2386L2.08484 34.4372C2.38484 33.9363 2.58477 33.6358 2.88477 33.5356L2.98486 33.7359C2.78486 33.8361 2.68484 33.9363 2.58484 34.1367C2.48484 34.337 2.38477 34.5374 2.38477 34.8379C2.38477 35.0383 2.48484 35.3388 2.58484 35.6394L2.78479 36.0401C2.78479 36.0401 3.38484 35.1385 3.58484 34.8379V34.9381C3.68484 35.1385 3.78486 35.2386 3.98486 35.3388H4.08484C4.18484 35.5392 4.38486 35.7395 4.48486 35.9399C4.18486 36.3406 3.78479 37.0419 3.78479 37.0419L3.98486 37.1421C4.58486 37.643 5.18477 37.9435 5.38477 38.0437C5.88477 38.3442 6.28481 38.5446 6.68481 38.745C7.08481 38.9453 7.48479 39.1457 7.78479 39.346C8.08479 39.5464 8.28484 39.7468 8.58484 39.9471C8.78484 40.2477 8.98486 40.5482 8.98486 41.0491V42.3515C8.98486 42.7522 8.88481 42.9525 8.68481 43.1529L8.38477 43.5536H12.9849L12.6848 43.1529C12.5848 42.9525 12.3848 42.7522 12.3848 42.3515V41.0491C12.3848 40.6484 12.4848 40.3478 12.6848 40.0473C12.9848 39.8469 13.3848 39.5464 13.6848 39.2459C13.9848 39.0455 14.2848 38.9453 14.6848 38.745C15.0848 38.5446 15.5849 38.3442 15.9849 38.0437C16.3849 37.8433 16.8848 37.4426 17.3848 37.1421L17.5848 37.0419C17.5848 37.0419 17.1848 36.4408 16.8848 36.0401C17.0848 35.8397 17.1848 35.6394 17.3848 35.439C17.5848 35.3388 17.7848 35.2386 17.7848 35.0383V34.9381C17.9848 35.2386 18.5848 36.1403 18.5848 36.1403L18.7848 35.7395C18.8848 35.439 18.9849 35.2386 18.9849 34.9381C18.9849 34.6376 18.8848 34.4372 18.7848 34.2368C18.6848 34.0365 18.5848 33.9363 18.3848 33.8361L18.4849 33.6358C18.6849 33.8361 18.9848 34.0365 19.1848 34.4372ZM20.4849 15.9038H0.884766V25.8217C0.884766 28.7269 1.68477 31.2314 2.88477 33.4354C2.58477 33.5356 2.28486 33.8361 1.98486 34.4372L1.58484 35.2386L1.28479 35.8397C1.18479 36.0401 1.08484 36.4408 1.08484 36.8415C1.08484 37.4426 1.38477 38.1439 1.88477 38.745C2.68477 39.7468 4.48486 40.8487 6.48486 41.7504C6.48486 41.7504 6.68479 41.8506 6.78479 41.8506C6.68479 41.9507 6.38477 42.1511 6.38477 42.1511L6.18481 42.2513L6.08484 42.3515L5.98486 42.4516C5.78486 42.652 5.68481 42.9525 5.68481 43.3533V45.0563C5.68481 45.7576 6.48477 46.2585 7.88477 46.2585H13.3848C14.7848 46.2585 15.5848 45.8578 15.5848 45.0563V43.2531C15.5848 42.8524 15.4848 42.5518 15.2848 42.3515L15.1848 42.2513C15.1848 42.2513 14.8848 41.9507 14.6848 41.8506C14.7848 41.7504 14.9849 41.7504 14.9849 41.7504C17.0849 40.9489 18.7848 39.8469 19.5848 38.745C20.0848 38.1439 20.3848 37.4426 20.3848 36.8415C20.3848 36.3406 20.2848 36.0401 20.1848 35.8397L19.8848 35.2386L19.4849 34.4372C19.2849 34.0365 18.9848 33.7359 18.5848 33.5356C19.7848 31.4318 20.5848 28.8271 20.5848 25.9219V15.9038H20.4849Z" fill="white"/>
<path d="M4.98486 7.18745L4.78479 7.28745L4.68481 7.08745L5.18481 6.88745L5.08484 7.08745L4.98486 7.18745Z" fill="white"/>
<path d="M6.78467 4.08252H6.88464L7.08472 4.38306L6.98474 4.6836L6.88464 4.38306L6.78467 4.08252Z" fill="white"/>
<path d="M10.2848 2.27906V1.97852L10.4849 2.37924L10.3848 2.47942L10.2848 2.67978L10.1848 2.5796L10.2848 2.27906Z" fill="white"/>
<path d="M7.48486 3.3811L7.98486 3.5811L7.88477 3.6811L7.68481 3.5811L7.48486 3.4811L7.38477 3.3811" fill="white"/>
<path d="M14.0848 3.18066L13.8848 3.48066L14.2848 3.18066H14.0848Z" fill="white"/>
<path d="M39.2847 15.7032H38.9847C38.5847 15.7032 37.7847 15.7032 37.6847 15.7032V16.0038C38.0847 16.0038 38.1847 16.0037 38.2847 16.1039C38.3847 16.2041 38.4847 16.8052 38.4847 17.7068L38.3846 19.6102C38.3846 20.9126 39.1847 21.6139 40.7847 21.6139C43.1847 21.6139 43.3846 20.3115 43.3846 17.6066V16.8052C43.3846 16.4045 43.3847 16.2041 44.0847 16.2041V15.9036H43.9847H42.9847H42.1847H41.8846V16.0038C42.1846 16.0038 42.4847 16.0037 42.5847 16.1039C42.7847 16.3043 42.7847 17.0056 42.7847 17.4063V18.0074C42.7847 19.9108 42.6846 21.0128 40.8846 21.0128C39.2846 21.0128 39.2847 19.7104 39.2847 19.1093V18.0074C39.2847 16.0038 39.3847 16.0038 40.2847 15.9036V15.603C40.1847 15.7032 39.6847 15.7032 39.2847 15.7032ZM49.6847 15.7032L49.5847 16.0038H49.6847C50.7847 16.1039 50.5847 16.1039 50.6847 18.4081V19.9108L46.7847 15.8034H46.1847H45.7847H45.3846V15.9036V16.2041C46.1846 16.3043 46.2847 16.4045 46.2847 18.0074V19.0092C46.2847 19.4099 46.2847 20.5119 46.1847 20.8124C46.1847 21.113 45.9847 21.2131 45.7847 21.2131L45.3846 21.3133V21.6139L46.6847 21.5137H47.2847H47.6847V21.2131C46.5847 21.0128 46.5847 20.9126 46.5847 20.011V17.6066V17.3061C46.7847 17.5065 50.6847 21.6139 50.6847 21.6139H51.0847V21.5137C51.0847 21.0128 51.0847 19.9108 51.0847 19.3097C51.0847 18.5083 51.0847 16.705 51.1847 16.5047C51.1847 16.1039 51.5846 16.0038 51.8846 16.0038V15.7032C51.2846 15.7032 50.9847 15.7032 50.6847 15.7032H50.4847H50.0847H49.6847ZM52.8846 15.7032V16.0038C53.5846 16.0038 53.7847 16.2041 53.7847 16.3043C53.8847 16.5047 53.8846 18.2077 53.8846 18.8088V18.909C53.8846 19.4099 53.8847 20.5119 53.7847 20.8124C53.7847 20.9126 53.5847 21.0128 52.7847 21.113V21.4135H53.6847H54.4847H55.8846V21.3133V21.0128C55.2846 21.0128 55.0847 21.0128 54.9847 20.8124C54.9847 20.7122 54.8846 20.1112 54.8846 19.2095C54.8846 17.0056 54.8847 16.4045 54.9847 16.2041C55.1847 16.0038 55.6847 16.0038 55.7847 16.0038V15.7032H55.0847H54.0847H53.4847H53.1847H52.8846ZM56.7847 15.8034V16.0038C57.5847 16.1039 57.5847 16.1039 58.1847 17.4063L59.4847 20.011C59.6847 20.5119 59.9847 21.113 60.1847 21.5137H60.4847C60.6847 20.9126 60.7847 20.5119 61.2847 19.7104L62.6847 17.0056C62.9847 16.4045 63.1847 16.2041 63.7847 16.1039V15.8034C63.3847 15.8034 63.0847 15.8034 62.7847 15.8034H61.6847V16.1039H61.7847C62.0847 16.1039 62.4847 16.1039 62.4847 16.4045C62.4847 16.6048 62.3847 16.8052 62.2847 17.0056C61.9847 17.6066 61.7847 18.0074 61.6847 18.4081L61.0847 19.7104L60.9847 20.011C60.3847 19.0092 59.2847 16.3043 59.1847 16.2041C59.1847 16.1039 59.1847 16.1039 59.6847 16.1039H59.7847V15.8034H58.8846H58.3846C57.7846 15.7032 57.0847 15.7032 56.7847 15.8034ZM68.9847 15.7032C68.2847 15.7032 67.1847 15.8034 66.4847 15.8034C66.0847 15.8034 64.9847 15.8034 64.4847 15.8034V16.0038C64.9847 16.1039 64.9847 16.1039 64.9847 16.2041C65.0847 16.3043 65.0847 16.8052 65.0847 18.6084C65.0847 19.3097 64.9847 20.5119 64.9847 20.9126C64.9847 21.113 64.6847 21.2131 64.2847 21.2131V21.5137C65.0847 21.4135 65.9847 21.4135 66.4847 21.4135H68.7847C68.8847 21.2131 69.0847 20.9126 69.1847 20.011V19.9108H68.8846C68.6846 20.4117 68.2846 21.0128 66.8846 21.0128C66.3846 21.0128 66.1846 20.9126 65.8846 20.8124C65.8846 20.6121 65.7847 20.4117 65.7847 19.7104C65.7847 19.7104 65.7847 18.909 65.7847 18.7086C66.1847 18.7086 66.4847 18.7086 66.5847 18.7086C67.6847 18.7086 67.7846 18.8088 67.8846 19.5101H68.1847V19.4099C68.1847 18.7086 68.1847 18.5083 68.1847 17.7068H67.8846C67.7846 18.1075 67.6847 18.2077 67.4847 18.2077C66.6847 18.3079 65.8847 18.3079 65.6847 18.3079V17.6066C65.6847 17.2059 65.6847 16.705 65.7847 16.3043C66.0847 16.2041 66.6846 16.2041 66.8846 16.2041C67.4846 16.2041 67.8847 16.3043 68.0847 16.5047C68.1847 16.6048 68.1847 16.9054 68.1847 17.1057H68.4847V17.0056L68.5847 16.5047V16.3043C69.0847 16.0038 69.0847 15.9036 68.9847 15.7032ZM72.3846 18.3079H72.9847C73.4847 18.3079 74.3846 18.2077 74.3846 17.2059C74.3846 16.705 73.9847 16.0038 73.0847 16.0038C72.4847 16.0038 72.4847 16.0038 72.4847 17.0056L72.3846 18.3079ZM73.2847 15.7032C74.4847 15.7032 75.2847 16.3043 75.2847 17.3061C75.2847 18.0074 74.6847 18.5083 73.9847 18.7086C75.0847 20.3115 75.3847 20.6121 75.7847 21.0128C75.7847 21.0128 76.1847 21.4135 76.5847 21.4135V21.714C75.5847 21.714 75.0846 21.3133 74.8846 21.113C73.9846 20.4117 73.1847 19.1093 72.9847 18.8088H72.2847V19.6102V19.9108C72.2847 20.3115 72.2846 20.8124 72.3846 21.0128C72.4846 21.113 72.8847 21.2131 73.1847 21.3133V21.6139H73.0847C72.7847 21.5137 72.1846 21.5137 71.8846 21.5137C71.6846 21.5137 70.7847 21.6139 70.5847 21.6139L70.4847 21.3133C70.5847 21.3133 71.0847 21.2131 71.1847 21.0128C71.2847 20.8124 71.2847 19.8106 71.2847 19.4099V19.3097V18.0074C71.2847 16.3043 71.1847 16.3043 70.5847 16.3043V16.0038H70.6847H71.1847H71.6847C71.7847 16.0038 72.1847 16.0038 72.4847 15.9036L73.2847 15.7032ZM77.2847 17.3061C77.2847 18.3079 78.0847 18.6084 78.6847 18.909H78.7847C79.7847 19.3097 80.2847 19.5101 80.2847 20.2113C80.2847 20.6121 79.9847 21.113 79.2847 21.113C78.6847 21.113 78.1847 20.8124 77.9847 20.6121C77.6847 20.3115 77.5847 19.9108 77.5847 19.8106H77.2847V19.9108C77.4847 20.5119 77.5847 20.8124 77.4847 21.5137H77.7847L77.8846 21.4135L78.1847 21.5137H78.2847C78.3847 21.5137 78.5847 21.6139 78.9847 21.6139C80.3847 21.6139 81.0847 20.8124 81.0847 20.011C81.0847 18.909 79.9847 18.5083 79.2847 18.2077C78.5847 17.9072 78.0847 17.7068 78.0847 17.1057C78.0847 16.5047 78.4847 16.2041 79.1847 16.2041C79.7847 16.2041 80.1847 16.5047 80.2847 16.6048C80.4847 16.8052 80.5847 17.1057 80.5847 17.3061H80.8846L80.7847 16.6048C80.7847 16.3043 80.8846 16.0038 80.8846 15.9036H80.5847L80.3846 16.0038C79.8846 15.9036 79.5847 15.8034 79.2847 15.8034C78.1847 15.603 77.2847 16.3043 77.2847 17.3061ZM82.2847 15.7032V16.0038C82.9847 16.0038 83.1847 16.2041 83.1847 16.3043C83.2847 16.5047 83.2847 18.2077 83.2847 18.8088V18.909C83.2847 19.4099 83.2847 20.5119 83.1847 20.8124C83.0847 20.9126 82.9847 21.0128 82.1847 21.113V21.4135H83.0847H83.8846H85.2847V21.3133V21.0128C84.6847 21.0128 84.4846 21.0128 84.3846 20.8124C84.3846 20.7122 84.2847 20.1112 84.2847 19.2095C84.2847 17.0056 84.2846 16.4045 84.3846 16.2041C84.4846 16.0038 85.0847 16.0038 85.1847 16.0038H85.2847V15.7032H84.5847H83.6847H83.0847H82.7847H82.2847ZM91.7847 15.603H91.5847C91.5847 15.603 91.4847 15.7032 91.1847 15.7032H90.0847H88.4847H87.2847C86.9847 15.7032 86.9846 15.603 86.8846 15.603H86.6847L86.2847 16.705L86.5847 16.9054V16.8052C86.7847 16.3043 86.9847 16.1039 87.9847 16.1039C88.2847 16.1039 88.5847 16.1039 88.7847 16.1039C88.8847 16.9054 88.8846 17.6066 88.8846 18.2077C88.8846 18.7086 88.8847 20.3115 88.7847 20.7122C88.7847 20.8124 88.6847 20.9126 88.2847 21.0128H87.8846H87.7847L87.8846 21.3133H88.3846H88.4847H89.3846H89.4847H89.9847H90.3846H90.7847V21.0128H90.4847H90.3846C90.1846 21.0128 89.9846 20.9126 89.8846 20.8124C89.7846 20.7122 89.6847 20.4117 89.6847 18.7086V17.5065V16.2041C89.6847 16.1039 89.6847 16.1039 90.1847 16.1039H90.4847H90.5847C91.4847 16.1039 91.5847 16.3043 91.6847 16.705V16.8052L91.9847 16.6048L91.8846 16.3043C91.9846 16.0038 91.8847 15.7032 91.7847 15.603ZM96.8846 15.7032V16.0038H96.9847C97.2847 16.0038 97.6847 16.0038 97.6847 16.3043C97.6847 16.4045 97.5847 16.705 96.4847 18.3079C95.9847 17.7068 94.9847 16.4045 94.9847 16.3043C94.9847 16.2041 94.9847 16.2041 95.5847 16.2041V15.9036H95.0847H94.0847H92.9847V16.0038C93.2847 16.0038 93.3847 16.0037 93.5847 16.1039C93.8847 16.3043 95.1847 17.9072 95.1847 18.0074L95.6847 18.7086C95.6847 19.1093 95.7847 19.6102 95.7847 20.1111C95.7847 20.9126 95.7847 21.113 94.9847 21.2131V21.5137C95.0847 21.5137 95.4847 21.5137 95.7847 21.5137H96.3846H96.8846H96.9847H97.5847V21.4135V21.2131C96.7847 21.113 96.7847 21.0128 96.7847 20.9126V20.8124C96.7847 20.5119 96.7847 20.1111 96.7847 19.6102C96.7847 19.3097 96.7847 18.909 96.7847 18.6084L97.8846 16.9054C98.2846 16.4045 98.4847 16.1039 99.1847 16.0038V15.7032C99.0847 15.7032 98.7847 15.7032 98.4847 15.7032H98.0847H97.6847H97.3846H96.8846ZM107.785 21.0128C108.785 21.0128 109.485 20.011 109.485 19.0092C109.485 17.5065 108.685 16.0038 107.185 16.0038C106.085 16.0038 105.485 17.0056 105.485 18.0074C105.485 19.5101 106.285 21.0128 107.785 21.0128ZM107.485 15.603C109.385 15.603 110.485 17.1057 110.485 18.5083C110.485 20.1112 109.085 21.5137 107.385 21.5137C105.785 21.5137 104.485 20.2113 104.485 18.5083C104.485 17.0056 105.885 15.603 107.485 15.603ZM116.085 15.7032C115.285 15.8034 115.085 15.8034 114.185 15.8034H113.185H112.185H111.885H111.585V16.0038C111.885 16.0038 112.085 16.0038 112.185 16.2041C112.285 16.4045 112.385 16.6048 112.385 18.7086C112.385 19.6102 112.285 20.7122 112.285 20.9126C112.185 21.113 111.885 21.2131 111.685 21.2131V21.5137H111.785C112.385 21.5137 112.985 21.4135 113.085 21.4135H113.585H114.485V21.3133V21.0128H114.385C113.685 20.9126 113.485 20.8124 113.485 20.7122C113.385 20.6121 113.385 20.3115 113.385 19.9108V19.6102C113.385 19.6102 113.385 18.8088 113.385 18.6084H113.885C114.385 18.6084 114.985 18.7086 115.185 18.8088C115.285 18.8088 115.385 19.0092 115.385 19.3097H115.685C115.685 18.7086 115.685 18.1075 115.685 17.7068H115.385C115.285 18.1075 115.285 18.3079 114.185 18.3079C113.885 18.3079 113.785 18.3079 113.385 18.3079V18.0074V17.6066C113.385 17.6066 113.385 16.4045 113.385 16.2041C113.685 16.2041 113.985 16.1039 114.085 16.1039C114.685 16.1039 115.285 16.2041 115.485 16.4045C115.685 16.5047 115.685 16.8052 115.785 17.0056H116.085V16.9054C116.085 16.8052 116.085 16.5047 116.085 16.2041V15.7032ZM33.9847 26.9234H31.2847C30.0847 26.9234 29.1847 26.9234 28.4847 26.9234C27.7847 26.9234 27.6847 26.7231 27.5847 26.6229H27.1847L26.2847 29.2276L26.6847 29.5281C27.0847 28.4261 27.5847 27.825 29.7847 27.825C29.9847 27.825 30.6847 27.8251 31.5847 27.9252C31.6847 29.5281 31.7847 31.131 31.7847 32.7339C31.7847 33.7357 31.7847 37.5426 31.5847 38.344C31.4847 38.7447 31.2847 38.9451 30.2847 39.1454C29.8847 39.2456 29.5847 39.2456 29.2847 39.2456L29.3846 39.7465C29.6846 39.7465 30.0847 39.6463 30.6847 39.6463C31.1847 39.6463 31.7847 39.5462 32.6847 39.5462C32.9847 39.5462 33.5847 39.5462 34.1847 39.5462C34.6847 39.5462 35.1846 39.5462 35.8846 39.6463L35.9847 39.1454C35.8847 39.1454 35.6846 39.1454 35.3846 39.0453C34.9846 39.0453 34.4847 38.8449 34.2847 38.6445C33.8847 38.1436 33.8846 34.7375 33.8846 33.8359C33.8846 33.0344 33.9847 29.0272 33.9847 28.1256C33.9847 27.7249 34.0847 27.7249 35.2847 27.7249C35.7847 27.7249 35.9847 27.7249 36.0847 27.7249C38.3847 27.7249 38.3847 28.2258 38.7847 29.4279L39.1847 29.1274L38.6847 26.5227H38.3846C38.2846 26.6229 38.0847 26.8232 37.4847 26.8232C36.5847 26.8232 35.5847 26.8232 34.5847 26.8232H33.9847V26.9234ZM47.5847 39.0453C49.9847 39.0453 51.4847 36.7411 51.4847 34.437C51.4847 30.8305 49.3846 27.4243 46.3846 27.4243C43.9846 27.4243 42.4847 29.6283 42.4847 32.1328C42.2847 35.4388 44.2847 39.0453 47.5847 39.0453ZM46.8846 26.6229C50.9846 26.6229 53.4847 29.8287 53.4847 33.1346C53.4847 36.8413 50.2847 39.8467 46.6847 39.8467C42.9847 39.8467 40.2847 36.8413 40.2847 33.1346C40.2847 29.6283 43.3846 26.6229 46.8846 26.6229ZM59.3846 32.7339C59.7846 32.8341 60.3847 32.8341 60.7847 32.8341C61.2847 32.8341 63.8846 32.8341 63.8846 30.3296C63.8846 29.1274 62.9847 27.4243 60.7847 27.4243C59.4847 27.4243 59.4846 27.6247 59.3846 29.7285V32.7339ZM55.6847 26.8232C56.0847 26.8232 56.4846 26.9234 56.8846 26.9234C57.2846 26.9234 57.6847 26.9234 58.0847 26.9234C58.3847 26.9234 59.0847 26.8232 59.7847 26.8232C60.4847 26.7231 61.0847 26.7231 61.4847 26.7231C64.1847 26.7231 65.8846 28.2258 65.8846 30.1292C65.8846 31.9324 64.2847 33.0344 62.9847 33.335C65.5847 37.1418 66.0847 37.7429 67.0847 38.6445C67.1847 38.7447 67.9847 39.5462 68.9847 39.5462V40.0471C66.7847 40.0471 65.6847 39.1454 65.1847 38.7447C63.2847 37.242 61.3847 34.2366 60.9847 33.5353C60.4847 33.5353 60.1847 33.5353 59.2847 33.4352V35.2384C59.2847 36.0398 59.2847 37.9433 59.4847 38.4442C59.6847 38.7447 60.5847 39.0453 61.1847 39.2456V39.7465C60.3847 39.6463 59.1846 39.5462 58.3846 39.5462C57.9846 39.5462 55.9847 39.6463 55.5847 39.7465L55.4847 39.3458C55.6847 39.3458 56.7847 39.0453 57.0847 38.5444C57.2847 38.0435 57.2847 35.4388 57.2847 34.5371V31.4315C57.2847 27.5245 57.0847 27.4243 55.4847 27.3241L55.6847 26.8232ZM76.4847 39.0453C78.8847 39.0453 80.3846 36.7411 80.3846 34.437C80.3846 30.8305 78.2847 27.4243 75.2847 27.4243C72.8847 27.4243 71.3846 29.6283 71.3846 32.1328C71.2846 35.4388 73.1847 39.0453 76.4847 39.0453ZM75.8846 26.6229C79.9846 26.6229 82.4847 29.8287 82.4847 33.1346C82.4847 36.8413 79.2847 39.8467 75.6847 39.8467C71.9847 39.8467 69.2847 36.8413 69.2847 33.1346C69.2847 29.6283 72.3846 26.6229 75.8846 26.6229ZM87.3846 26.8232C86.8846 26.8232 86.4846 26.8232 85.8846 26.8232C85.5846 26.8232 85.2847 26.8232 84.9847 26.8232C84.6847 26.8232 84.5847 26.8232 84.2847 26.7231V27.224C86.0847 27.5245 86.2847 27.825 86.1847 31.5317V33.8359C86.1847 34.7375 86.0847 37.242 85.9847 37.9433C85.8847 38.7447 85.5847 38.8449 85.0847 38.9451C84.7847 39.0453 84.5846 39.0453 84.3846 39.1454V39.6463C84.8846 39.6463 85.3847 39.6463 85.7847 39.5462C86.2847 39.5462 86.8846 39.446 87.3846 39.446C87.8846 39.446 88.3847 39.446 88.7847 39.5462C89.1847 39.5462 89.4847 39.5462 89.6847 39.6463V39.1454C87.1847 38.7447 87.1847 38.344 87.1847 36.2402V30.8305V29.8287C87.1847 29.8287 87.1847 29.8287 96.4847 39.7465H97.0847C96.9847 38.7447 96.9847 36.0399 96.9847 34.8377C96.9847 33.1346 96.9847 28.8269 97.0847 28.2258C97.1847 27.4243 98.2846 27.3241 98.8846 27.3241V26.8232C97.4846 26.8232 96.7847 26.8232 96.1847 26.8232C95.5847 26.7231 95.1846 26.7231 94.8846 26.7231C94.5846 26.7231 94.2847 26.7231 94.0847 26.7231L93.9847 27.224C96.0847 27.3241 96.0847 27.5245 96.0847 32.3332C96.0847 32.9343 96.0847 35.7393 96.0847 36.2402L87.3846 26.8232ZM108.285 26.9234H105.585C104.385 26.9234 103.485 26.9234 102.785 26.9234C102.085 26.9234 101.985 26.7231 101.885 26.6229H101.485L100.485 29.2276L100.885 29.5281C101.285 28.4261 101.785 27.825 103.985 27.825C104.185 27.825 104.885 27.8251 105.785 27.9252C105.885 29.5281 105.985 31.131 105.985 32.7339C105.985 33.7357 105.985 37.5426 105.785 38.344C105.685 38.7447 105.485 38.9451 104.485 39.1454C104.085 39.2456 103.785 39.2456 103.485 39.2456L103.585 39.7465C103.885 39.7465 104.285 39.6463 104.885 39.6463C105.385 39.6463 105.985 39.5462 106.885 39.5462C107.185 39.5462 107.785 39.5462 108.385 39.5462C108.885 39.5462 109.385 39.5462 110.085 39.6463L110.185 39.1454C110.085 39.1454 109.885 39.1454 109.585 39.0453C109.185 39.0453 108.685 38.8449 108.485 38.6445C108.085 38.1436 108.085 34.7375 108.085 33.8359C108.085 33.0344 108.185 29.0272 108.185 28.1256C108.185 27.7249 108.285 27.7249 109.485 27.7249C109.985 27.7249 110.185 27.7249 110.285 27.7249C112.585 27.7249 112.585 28.2258 112.985 29.4279L113.385 29.1274L112.885 26.5227H112.585C112.485 26.6229 112.285 26.8232 111.685 26.8232C110.785 26.8232 109.785 26.8232 108.785 26.8232H108.285V26.9234ZM121.485 39.0453C123.885 39.0453 125.385 36.7411 125.385 34.437C125.385 30.8305 123.285 27.4243 120.285 27.4243C117.885 27.4243 116.385 29.6283 116.385 32.1328C116.285 35.4388 118.185 39.0453 121.485 39.0453ZM120.785 26.6229C124.885 26.6229 127.385 29.8287 127.385 33.1346C127.385 36.8413 124.185 39.8467 120.585 39.8467C116.885 39.8467 114.185 36.8413 114.185 33.1346C114.185 29.6283 117.285 26.6229 120.785 26.6229Z" fill="white"/>
</svg>
