<svg width="36" height="36" viewBox="0 0 36 39" fill="none" xmlns="http://www.w3.org/2000/svg">
<path d="M35.5896 17.8762C35.5896 8.15015 27.7051 0.265625 17.979 0.265625C8.25294 0.265625 0.368408 8.15015 0.368408 17.8762C0.368408 27.6023 8.25294 35.4868 17.979 35.4868C27.7051 35.4868 35.5896 27.6023 35.5896 17.8762Z" fill="white"/>
<path d="M24.4859 25.3729L25.2909 20.1285H20.2596V16.7252C20.2244 16.3335 20.2777 15.9389 20.4157 15.5707C20.5536 15.2024 20.7727 14.8699 21.0567 14.5978C21.3406 14.3257 21.6821 14.121 22.0559 13.9988C22.4297 13.8767 22.8263 13.8402 23.2161 13.8921H25.5041V9.42629C24.1611 9.20752 22.8038 9.08738 21.4432 9.06689C17.2984 9.06689 14.5899 11.5825 14.5899 16.125V20.1237H9.97791V25.3682H14.5839V38.0457C16.4627 38.3398 18.3759 38.3398 20.2548 38.0457V25.3729H24.4859Z" fill="#335998"/>
</svg>
