<svg width="36" height="36" viewBox="0 0 40 40" fill="none" xmlns="http://www.w3.org/2000/svg">
<path d="M36.3798 19.7773C36.3798 10.7194 29.0369 3.37646 19.979 3.37646C10.921 3.37646 3.57812 10.7194 3.57812 19.7773C3.57812 28.8352 10.921 36.1781 19.979 36.1781C29.0369 36.1781 36.3798 28.8352 36.3798 19.7773Z" fill="white"/>
<path fill-rule="evenodd" clip-rule="evenodd" d="M30.9017 20.036C30.9025 19.2557 30.8331 18.4769 30.6945 17.709H19.9789V22.107H26.102C25.9752 22.8032 25.7086 23.4664 25.3184 24.0567C24.9282 24.647 24.4224 25.1521 23.8316 25.5414V28.3963H27.5084C28.6281 27.3176 29.5086 26.0158 30.093 24.5751C30.6774 23.1344 30.9525 21.587 30.9007 20.0331L30.9017 20.036Z" fill="#487EBC"/>
<path fill-rule="evenodd" clip-rule="evenodd" d="M19.9789 31.1553C22.747 31.2296 25.439 30.2437 27.5045 28.3992L23.8325 25.5483C22.9529 26.1129 21.9558 26.4692 20.9175 26.5899C19.8792 26.7106 18.827 26.5925 17.8412 26.2447C16.8555 25.8969 15.9622 25.3286 15.2295 24.5831C14.4968 23.8376 13.9441 22.9345 13.6134 21.9429H9.8125V24.8905C10.7589 26.7751 12.2108 28.3594 14.0057 29.4664C15.8007 30.5734 17.868 31.1595 19.9769 31.1592L19.9789 31.1553Z" fill="#00A347"/>
<path fill-rule="evenodd" clip-rule="evenodd" d="M13.6125 21.9394C13.1369 20.5377 13.1369 19.0183 13.6125 17.6166V14.668H9.81259C9.0169 16.2537 8.60254 18.0034 8.60254 19.7775C8.60254 21.5517 9.0169 23.3013 9.81259 24.8871L13.6135 21.9394H13.6125Z" fill="#FFB100"/>
<path fill-rule="evenodd" clip-rule="evenodd" d="M19.979 12.9248C21.5964 12.8975 23.1594 13.5089 24.3291 14.6263L27.5925 11.363C25.5326 9.42907 22.8042 8.36746 19.979 8.40066C17.8702 8.40039 15.8029 8.98639 14.008 10.0932C12.2131 11.2 10.7612 12.784 9.81458 14.6684L13.6155 17.617C14.0527 16.2674 14.9021 15.0889 16.0441 14.2474C17.1862 13.4058 18.5634 12.9436 19.9819 12.9258L19.979 12.9248Z" fill="#F52F26"/>
</svg>
