<svg width="140" height="32" viewBox="0 0 140 32" fill="none" xmlns="http://www.w3.org/2000/svg">
<path d="M92.1107 8.86683H83.4889L82.2576 14.4493H90.1941L89.3288 18.7912H81.3924L79.4757 27.7852H74.8206L79.7952 4.5249H93.0225L92.1107 8.86683Z" fill="#F38632"/>
<path d="M100.142 9.02832C94.3055 9.02832 92.2524 13.6804 91.2506 18.3324C90.2923 22.8511 90.9777 28.139 97.2704 28.139C103.11 28.139 105.12 23.5334 106.122 18.7914C107.077 14.3193 106.435 9.02832 100.142 9.02832ZM101.783 18.7418C101.054 22.2092 99.7298 23.9397 97.3603 23.8529C94.8978 23.7598 95.0343 20.888 95.5801 18.379C96.3121 15.0047 97.5867 13.2245 99.9624 13.3175C102.561 13.4044 102.285 16.3259 101.783 18.7418Z" fill="#F38632"/>
<path d="M117.478 13.4508C113.875 13.6772 113.009 16.1955 112.597 18.2052L110.544 27.7854H106.031L109.954 9.17711H112.141L112.37 11.7233C113.555 9.98967 115.199 8.82666 118.483 8.82666L117.478 13.4508Z" fill="#F38632"/>
<path d="M137.148 27.7851H132.629L135.092 16.2387C135.321 15.1036 135.777 13.2056 134.043 13.2056C132.493 13.2056 131.807 14.5454 131.351 16.6884L128.982 27.7851H124.42L126.882 16.2387C127.158 15.0571 127.571 13.2056 125.884 13.2056C124.286 13.2056 123.601 14.5454 123.148 16.6884L120.773 27.7851H116.254L120.177 9.17689H122.41L122.596 11.6797C123.657 10.0111 125.488 8.98968 127.465 8.96289C129.106 8.96289 130.61 9.84058 131.02 11.5246C132.3 9.70102 133.895 8.9784 135.721 8.9784C139.781 8.9784 140.417 12.4519 139.461 17.0141L137.148 27.7851Z" fill="#F38632"/>
<path d="M45.7392 21.2723C44.8274 25.7848 43.4597 28.4303 35.8396 27.8813L36.708 23.7751C39.7628 23.8185 40.6746 23.1362 41.0871 21.0893L44.6413 4.5249H49.2934L45.7392 21.2723Z" fill="#F38632"/>
<path d="M57.6874 9.02832C51.8506 9.02832 49.7975 13.6804 48.7927 18.3324C47.8374 22.8511 48.5166 28.139 54.8155 28.139C60.6523 28.139 62.6589 23.5334 63.6668 18.7914C64.6128 14.3193 63.9739 9.02832 57.6874 9.02832ZM59.3311 18.7418C58.5992 22.2092 57.278 23.9397 54.9055 23.8529C52.443 23.7598 52.5794 20.888 53.1284 18.379C53.8541 15.0047 55.1319 13.2245 57.5075 13.3175C60.1003 13.4044 59.8242 16.3259 59.3249 18.7418H59.3311Z" fill="#F38632"/>
<path d="M75.5214 13.2087H71.9208L70.0909 21.812C69.6785 23.6387 70.0909 23.924 73.2326 23.9829L72.3704 28.0519C65.9816 28.3248 64.5674 26.1508 65.5753 21.4119L67.2997 13.2087H65.2001L65.7025 10.6873L68.1836 9.22348L69.1822 4.5249H73.6978L72.693 9.17696H76.3898L75.5214 13.2087Z" fill="#F38632"/>
<path d="M16 32C24.8365 32 32 24.8365 32 16C32 7.16344 24.8365 0 16 0C7.16344 0 0 7.16344 0 16C0 24.8365 7.16344 32 16 32Z" fill="#ECECEC"/>
<path opacity="0.05" d="M29.0953 18.636L31.0399 10.5445C29.5915 6.56778 26.6309 3.32411 22.8026 1.51953L19.8811 17.2776L8.99219 26.1165L29.0953 18.636Z" fill="black"/>
<path d="M16.0016 1.46492e-05C14.5443 0.000248638 13.0939 0.199545 11.6906 0.592392L10.2578 5.88644L13.2413 6.30822L16.3179 7.36579L19.1091 8.75831L21.3235 0.90563C19.6138 0.303805 17.8141 -0.00244081 16.0016 1.46492e-05Z" fill="#F38632"/>
<path d="M11.9951 21.1669L8.99609 26.1167L9.35585 20.3047L10.2335 20.3419L11.3035 20.6365L11.9951 21.1669Z" fill="#4E4E4E"/>
<path d="M11.9947 21.1667L11.3031 20.6364L10.2332 20.3417L9.35547 20.3045L10.2518 5.88623L13.2353 6.31112L16.3118 7.36869L19.0907 8.7612L11.9947 21.1667Z" fill="url(#paint0_linear)"/>
<path d="M11.6858 0.5957L10.2529 5.88974L13.2365 6.31153L15.0508 0.03125C13.9121 0.0985915 12.784 0.287823 11.6858 0.5957Z" fill="#F6A259"/>
<g style="mix-blend-mode:multiply" opacity="0.2">
<path d="M21.3046 0.905725C20.382 0.577775 19.431 0.335871 18.4638 0.183105L16.3114 7.35968L8.99219 26.1168L11.9881 21.1546L19.0841 8.7491L21.3046 0.905725Z" fill="#1A1A1A"/>
</g>
<path opacity="0.15" d="M8.99609 26.0421L13.2357 6.31112L10.2521 5.88623L8.99609 26.0421Z" fill="white"/>
<defs>
<linearGradient id="paint0_linear" x1="12.2565" y1="13.3142" x2="16.0047" y2="13.7571" gradientUnits="userSpaceOnUse">
<stop stop-color="#F1CEBA"/>
<stop offset="1" stop-color="#B8846F"/>
</linearGradient>
</defs>
</svg>
