<svg width="64" height="32" viewBox="0 0 189 72" fill="none" xmlns="http://www.w3.org/2000/svg">
<path fill-rule="evenodd" clip-rule="evenodd" d="M94.5788 71.5627C146.179 71.5627 188.079 55.7627 188.079 36.1627C188.079 16.6627 146.179 0.762695 94.5788 0.762695C42.8788 0.762695 0.97876 16.6627 0.97876 36.1627C0.97876 55.7627 42.8788 71.5627 94.5788 71.5627Z" fill="#2F5E9C"/>
<path fill-rule="evenodd" clip-rule="evenodd" d="M94.5787 67.8628C44.9787 67.8628 4.67871 53.7628 4.67871 36.1628C4.67871 18.6628 44.9787 4.36279 94.5787 4.36279C144.279 4.36279 184.579 18.6628 184.579 36.2628C184.479 53.7628 144.279 67.8628 94.5787 67.8628Z" fill="white"/>
<path fill-rule="evenodd" clip-rule="evenodd" d="M94.5788 65.4626C142.679 65.4626 181.679 52.3626 181.679 36.1626C181.679 20.0626 142.679 6.96265 94.5788 6.96265C46.3788 6.96265 7.47876 20.0626 7.47876 36.1626C7.47876 52.3626 46.3788 65.4626 94.5788 65.4626Z" fill="#2F5E9C"/>
<path fill-rule="evenodd" clip-rule="evenodd" d="M117.379 42.0626C121.479 38.1626 123.779 34.1626 129.679 34.2626C133.279 34.3626 134.179 37.1626 134.779 38.3626L142.579 25.1626H147.379L134.479 48.0626C134.279 48.5626 133.679 49.4626 133.679 50.1626C133.779 51.2626 135.279 50.9626 134.679 50.9626C137.279 50.8626 142.079 45.8626 143.179 44.6626C143.379 44.3626 143.879 43.8626 144.079 43.8626C144.279 43.8626 144.779 44.0626 144.779 44.4626C144.779 44.6626 144.279 45.5626 143.779 46.1626C141.379 49.1626 137.379 53.8626 132.879 53.9626C130.679 53.9626 129.779 53.0626 129.479 51.2626C128.479 52.1626 124.979 53.7626 121.379 53.7626C118.379 53.6626 117.179 51.9626 116.579 50.5626C116.079 49.4626 115.779 47.7626 116.179 46.0626C114.579 46.8626 113.079 47.0626 110.879 46.9626C108.379 46.8626 106.779 45.7626 105.979 42.7626C103.079 48.0626 102.979 48.2626 99.9787 53.7626H94.9787L101.579 42.5626C102.379 41.0626 102.879 39.8626 103.179 38.5626C103.379 37.8626 102.779 37.1626 102.079 37.1626C101.279 37.1626 99.8787 37.9626 98.4787 39.2626C98.4787 39.2626 95.0787 42.8626 92.5787 46.5626C90.1787 50.0626 86.1787 54.0626 81.7787 54.0626C78.5787 54.0626 75.6787 52.3626 75.0787 48.9626C75.0787 48.9626 74.7787 49.7626 71.9787 51.3626C71.7787 51.4626 71.1787 51.8626 70.9787 51.7626C70.4787 51.2626 70.1787 50.6626 70.0787 50.2626C70.2787 50.3626 70.5787 50.0626 71.7787 49.1626C73.9787 47.4626 74.4787 46.1626 74.4787 46.1626C74.9787 45.0626 75.9787 43.1626 76.6787 41.9626C78.4787 38.3626 81.5787 34.6626 86.7787 34.4626C87.5787 34.4626 87.8787 34.8626 88.0787 35.1626C88.5787 35.5626 88.3787 36.2626 88.3787 36.2626C84.7787 36.7626 82.2787 38.9626 80.7787 40.9626C79.8787 42.2626 78.8787 44.4626 78.6787 46.0626C78.2787 48.7626 79.5787 50.5626 81.4787 50.9626C84.9787 51.4626 87.8787 48.9626 90.1787 45.0626C90.7787 44.0626 91.1787 41.3626 91.1787 39.9626C91.1787 38.5626 90.3787 36.9626 89.7787 36.3626C89.7787 35.3626 90.4787 34.6626 91.1787 34.6626C91.3787 34.6626 91.6787 34.6626 91.8787 34.8626C93.0787 36.0626 93.7787 38.3626 93.7787 40.0626C93.7787 40.6626 93.7787 41.2626 93.6787 41.8626C96.1787 38.7626 99.3787 34.7626 101.879 34.0626C102.379 33.8626 102.879 33.8626 103.279 33.8626C107.779 33.7626 107.179 37.8626 107.179 37.8626C109.579 35.0626 111.279 34.0626 113.479 34.1626C115.879 34.2626 116.779 35.9626 116.779 37.2626C116.679 38.8626 115.579 40.6626 113.579 40.6626C111.779 40.6626 110.779 39.8626 110.279 38.2626C109.179 38.6626 108.579 39.4626 108.379 41.0626C107.979 43.0626 109.479 44.6626 111.479 44.6626C114.679 44.5626 116.179 43.1626 117.379 42.0626Z" fill="white"/>
<path fill-rule="evenodd" clip-rule="evenodd" d="M120.979 16.0627C120.979 17.9627 114.179 21.6627 108.479 21.6627C99.5788 21.6627 90.2788 17.3627 85.9788 16.4627C81.3788 15.3627 77.0788 14.4627 73.7788 14.4627C62.1788 14.4627 56.9788 19.4627 57.1788 24.0627C57.2788 25.9627 58.7788 27.1627 61.0788 26.7627C63.4788 26.3627 66.8788 24.0627 67.6788 22.0627C67.8788 21.6627 68.3788 21.5627 68.4788 21.6627C68.8788 21.9627 68.6788 22.3627 68.6788 22.3627C68.3788 24.7627 64.7788 31.2627 58.4788 31.2627C54.9788 31.2627 52.5788 27.9627 52.6788 24.7627C52.7788 18.7627 58.8788 12.7627 73.8788 12.7627C76.6788 12.7627 79.8788 12.9627 83.3788 13.5627C87.3788 14.2627 97.4788 15.9627 105.679 16.0627C108.679 16.0627 112.579 16.1627 115.679 15.6627C118.979 15.1627 118.279 14.9627 119.579 14.9627C120.979 15.0627 120.979 15.5627 120.979 16.0627Z" fill="white"/>
<path fill-rule="evenodd" clip-rule="evenodd" d="M129.879 37.0628C127.779 36.8628 125.079 38.6628 122.979 41.2628C121.879 42.5628 120.779 45.1628 120.579 46.6628C120.379 48.1628 120.779 49.6628 121.279 50.0628C121.779 50.4628 124.279 51.7628 127.979 47.9628C130.079 45.8628 132.179 42.3628 132.179 42.3628L131.479 42.1628C132.779 39.8628 132.479 37.3628 129.879 37.0628Z" fill="#2F5E9C"/>
<path fill-rule="evenodd" clip-rule="evenodd" d="M85.7788 29.8628C85.7788 30.5628 86.6788 31.0628 87.4788 31.1628C87.2788 31.8628 87.3788 32.1628 87.0788 32.0628C85.2788 32.0628 84.5788 30.3628 84.5788 30.3628C82.1788 30.7628 79.7788 31.0628 75.0788 31.5628C62.9788 50.9628 59.2788 54.1628 51.8788 54.1628C46.6788 54.1628 41.9788 50.7628 41.8788 44.5628C41.7788 40.8628 44.8788 36.2628 50.4788 34.8628C51.1788 34.8628 51.3788 35.0628 51.3788 35.4628C51.3788 35.6628 51.1788 35.9628 50.5788 36.2628C48.9788 36.8628 46.0788 40.0628 46.0788 43.0628C46.0788 45.2628 47.4788 47.7628 49.7788 48.2628C50.4788 48.4628 51.0788 48.3628 51.6788 48.3628C57.5788 48.3628 64.0788 41.7628 71.1788 31.7628C70.0788 31.8628 65.1788 32.3628 63.9788 33.7628C63.4788 34.1628 63.0788 33.9628 62.9788 33.4628C62.9788 33.3628 63.1788 32.9628 63.3788 32.6628C65.2788 30.4628 71.0788 29.9628 72.4788 29.8628C77.8788 21.5628 84.8788 16.3628 86.3788 16.3628C86.5788 16.3628 87.1788 16.7628 86.8788 17.3628C86.7788 17.4628 86.1788 18.1628 85.9788 18.3628C84.7788 19.4628 80.6788 22.0628 76.1788 29.6628C79.7788 29.4628 83.9788 28.7628 83.9788 28.7628C83.9788 28.7628 83.7788 27.9628 83.7788 27.3628C83.9788 24.7628 85.4788 23.1628 87.3788 23.4628C88.4788 23.6628 89.1788 24.5628 89.1788 25.5628C89.1788 26.5628 88.3788 28.0628 87.5788 28.8628C87.1788 29.1628 86.4788 29.5628 85.7788 29.8628Z" fill="white"/>
<path fill-rule="evenodd" clip-rule="evenodd" d="M85.4788 28.5628C85.4788 28.5628 86.0788 28.6628 86.9788 27.5628C87.3788 27.1628 87.9788 26.1628 87.7788 25.3628C87.6788 24.9628 87.5788 24.5628 87.0788 24.6628C86.1788 24.8628 85.6788 25.2628 85.3788 26.1628C85.1788 27.1628 85.2788 27.8628 85.4788 28.5628Z" fill="#2F5E9C"/>
</svg>
