<svg width="902" height="690" fill="none" xmlns="http://www.w3.org/2000/svg"><path d="M834.24 175.073C708.774 5.047 496.996-48.043 245.02 84.334-6.956 216.538-58.29 491.355 62.128 638.653c120.594 147.645 226.048-75.818 545.021-19.605 318.798 56.386 352.383-273.95 227.091-443.975z" fill="#3B61EA"/><path d="M80 10.694h268.725v381.414H80V10.694z" fill="#FEC14F"/><path d="M348.685 0H80v12.45h268.685V0z" fill="#EAEAEA"/><path fill="#fff" d="M99.906 3.716h5.359v5.457h-5.359zm10.718-.001h5.359v5.457h-5.359zm10.719 0h5.359v5.457h-5.359zm63.417 0h143.807v5.457H184.76zm141.113 24.956H103.44c-3.237 0-5.861 2.673-5.861 5.969v335.354c0 3.296 2.624 5.969 5.861 5.969h222.433c3.237 0 5.861-2.673 5.861-5.969V34.64c0-3.296-2.624-5.969-5.861-5.969z"/><path d="M122.964 301.609c0 2.161-1.718 3.898-3.819 3.898s-3.819-1.737-3.819-3.898 1.718-3.898 3.819-3.898 3.819 1.737 3.819 3.898zm78.502 0c0 2.161-1.718 3.898-3.82 3.898-2.101 0-3.819-1.737-3.819-3.898s1.718-3.898 3.819-3.898c2.102 0 3.82 1.737 3.82 3.898z" stroke="#398EAE" stroke-width=".956"/><path d="M273.508 340.53H157.134c-2.107 0-3.815 1.739-3.815 3.885v13.035c0 2.145 1.708 3.885 3.815 3.885h116.374c2.107 0 3.816-1.74 3.816-3.885v-13.035c0-2.146-1.709-3.885-3.816-3.885z" fill="#F59D4C"/><path d="M208.775 347.876c-.168-.844-.864-1.94-2.678-1.94-1.413 0-2.604 1.012-2.604 2.34 0 1.129.77 1.898 1.961 2.141l1.044.211c.58.116.907.453.907.885 0 .528-.433.918-1.213.918-1.054 0-1.571-.665-1.634-1.403l-1.35.359c.116 1.065.991 2.341 2.974 2.341 1.739 0 2.699-1.16 2.699-2.309 0-1.055-.728-1.941-2.088-2.204l-1.044-.201c-.548-.105-.812-.432-.812-.843 0-.496.464-.949 1.171-.949.949 0 1.286.643 1.36 1.054l1.307-.4zm4.108 5.862c1.603 0 2.878-.98 2.878-2.815v-4.829h-1.455v4.724c0 .98-.537 1.497-1.423 1.497-.865 0-1.413-.517-1.413-1.497v-4.724h-1.455v4.829c0 1.835 1.276 2.815 2.868 2.815zm4.516-7.644v7.475h2.889c1.403 0 2.31-.875 2.31-2.087 0-.928-.591-1.592-1.318-1.772.622-.21 1.086-.833 1.086-1.602 0-1.16-.823-2.014-2.278-2.014h-2.689zm1.434 3.089v-1.866h1.023c.707 0 1.076.358 1.076.928 0 .569-.401.938-1.065.938h-1.034zm0 3.174v-1.972h1.202c.728 0 1.107.411 1.107 1.002 0 .601-.421.97-1.128.97h-1.181zm13.342 1.212v-7.475h-1.982L228 351.492l-2.246-5.398h-1.919v7.475h1.392v-5.198l2.151 5.198h1.212l2.151-5.24v5.24h1.434zm3.186 0v-7.475h-1.476v7.475h1.476zm7.209-6.094v-1.381h-6.189v1.381h2.362v6.094h1.465v-6.094h2.362z" fill="#fff"/><path d="M111.704 99.862v-2.613h1.403c.888 0 1.428.502 1.428 1.313 0 .785-.54 1.3-1.428 1.3h-1.403zm1.621 1.531c1.802 0 2.999-1.184 2.999-2.844 0-1.647-1.197-2.844-2.999-2.844h-3.41v9.124h1.776v-3.436h1.634zm5.112-.45c.038-.579.528-1.249 1.415-1.249.978 0 1.39.618 1.416 1.249h-2.831zm2.998 1.647c-.206.566-.643.965-1.441.965-.849 0-1.557-.605-1.596-1.441h4.53c0-.026.026-.283.026-.528 0-2.033-1.171-3.281-3.127-3.281-1.622 0-3.115 1.312-3.115 3.333 0 2.136 1.532 3.384 3.269 3.384 1.557 0 2.561-.914 2.883-2.007l-1.429-.425zm6.727-4.118a3.868 3.868 0 00-.399-.026c-.54 0-1.415.155-1.801.991v-.94h-1.66v6.332h1.711v-2.895c0-1.364.759-1.789 1.635-1.789.154 0 .321.013.514.051v-1.724zm.701 4.594c.078.721.734 1.956 2.639 1.956 1.66 0 2.458-1.055 2.458-2.085 0-.926-.631-1.685-1.879-1.943l-.901-.193c-.348-.064-.579-.257-.579-.566 0-.36.36-.63.811-.63.72 0 .99.475 1.042.849l1.428-.322c-.077-.682-.682-1.827-2.483-1.827-1.364 0-2.368.939-2.368 2.071 0 .888.553 1.622 1.776 1.892l.836.193c.489.103.682.335.682.618 0 .335-.27.631-.836.631-.747 0-1.12-.464-1.158-.966l-1.468.322zm9.292.399c-.837 0-1.609-.618-1.609-1.802 0-1.196.772-1.801 1.609-1.801.836 0 1.608.605 1.608 1.801 0 1.197-.772 1.802-1.608 1.802zm0-5.16c-1.892 0-3.321 1.402-3.321 3.358 0 1.944 1.429 3.359 3.321 3.359 1.891 0 3.32-1.415 3.32-3.359 0-1.956-1.429-3.358-3.32-3.358zm6.382 2.882c0-.733.438-1.312 1.184-1.312.824 0 1.171.553 1.171 1.261v3.693h1.712v-3.989c0-1.39-.721-2.51-2.291-2.51-.682 0-1.441.296-1.827.953v-.785h-1.66v6.331h1.711v-3.642zm5.418 1.918c0 .991.824 1.904 2.175 1.904.939 0 1.544-.437 1.866-.939 0 .244.026.592.064.759h1.57a7.186 7.186 0 01-.077-1.004v-3.114c0-1.274-.746-2.406-2.754-2.406-1.699 0-2.612 1.093-2.715 2.084l1.518.322c.052-.553.463-1.03 1.21-1.03.72 0 1.068.374 1.068.824 0 .219-.116.399-.476.451l-1.557.231c-1.056.155-1.892.785-1.892 1.918zm2.535.63c-.553 0-.823-.36-.823-.733 0-.489.347-.734.785-.798l1.428-.219v.283c0 1.12-.669 1.467-1.39 1.467zm6.5 1.094v-9.317h-1.712v9.317h1.712zm6.942 0v-9.124h-1.802v9.124h1.802zm3.664-3.642c0-.733.438-1.312 1.184-1.312.824 0 1.171.553 1.171 1.261v3.693h1.712v-3.989c0-1.39-.721-2.51-2.291-2.51-.682 0-1.441.296-1.827.953v-.785h-1.66v6.331h1.711v-3.642zm8.738-4.26c.283 0 .451.04.541.065v-1.441c-.142-.065-.489-.129-.85-.129-1.402 0-2.303.927-2.303 2.355v.72h-1.055v1.468h1.055v4.864h1.724v-4.864h1.429v-1.467h-1.429v-.695c0-.708.502-.875.888-.875zm4.359 6.538c-.837 0-1.609-.618-1.609-1.802 0-1.196.772-1.801 1.609-1.801.836 0 1.609.605 1.609 1.801 0 1.197-.773 1.802-1.609 1.802zm0-5.16c-1.892 0-3.32 1.402-3.32 3.358 0 1.944 1.428 3.359 3.32 3.359s3.32-1.415 3.32-3.359c0-1.956-1.428-3.358-3.32-3.358zm8.532.167c-.129-.013-.258-.026-.399-.026-.541 0-1.416.155-1.802.991v-.94h-1.66v6.332h1.712v-2.895c0-1.364.759-1.789 1.634-1.789.154 0 .322.013.515.051v-1.724zm2.915 6.357v-3.706c0-.695.438-1.248 1.184-1.248.772 0 1.12.514 1.12 1.196v3.758h1.699v-3.706c0-.682.437-1.248 1.171-1.248.785 0 1.119.514 1.119 1.196v3.758h1.66v-4.105c0-1.699-1.119-2.407-2.29-2.407-.837 0-1.506.284-2.008 1.056-.322-.682-1.017-1.056-1.879-1.056-.695 0-1.505.335-1.853.953v-.772h-1.634v6.331h1.711zm9.301-1.724c0 .991.824 1.904 2.175 1.904.939 0 1.544-.437 1.866-.939 0 .244.026.592.064.759h1.57a7.186 7.186 0 01-.077-1.004v-3.114c0-1.274-.746-2.406-2.754-2.406-1.699 0-2.612 1.093-2.715 2.084l1.518.322c.052-.553.464-1.03 1.21-1.03.721 0 1.068.374 1.068.824 0 .219-.116.399-.476.451l-1.557.231c-1.055.155-1.892.785-1.892 1.918zm2.535.63c-.553 0-.823-.36-.823-.733 0-.489.347-.734.785-.798l1.428-.219v.283c0 1.12-.669 1.467-1.39 1.467zm6.861-7.13h-1.544v.889c0 .566-.309 1.004-.978 1.004h-.322v1.518h1.145v2.947c0 1.223.773 1.956 2.008 1.956.502 0 .811-.09.965-.154v-1.416a2.46 2.46 0 01-.527.052c-.489 0-.747-.181-.747-.734v-2.651h1.274v-1.518h-1.274v-1.892zm4.44 8.224v-6.331h-1.712v6.331h1.712zm-1.918-8.403c0 .566.476 1.042 1.055 1.042a1.05 1.05 0 001.056-1.042 1.055 1.055 0 10-2.111 0zm6.594 7.039c-.836 0-1.609-.618-1.609-1.802 0-1.196.773-1.801 1.609-1.801.837 0 1.609.605 1.609 1.801 0 1.197-.772 1.802-1.609 1.802zm0-5.16c-1.892 0-3.32 1.402-3.32 3.358 0 1.944 1.428 3.359 3.32 3.359s3.32-1.415 3.32-3.359c0-1.956-1.428-3.358-3.32-3.358zm6.383 2.882c0-.733.437-1.312 1.184-1.312.823 0 1.171.553 1.171 1.261v3.693h1.711v-3.989c0-1.39-.72-2.51-2.29-2.51-.682 0-1.442.296-1.828.953v-.785h-1.66v6.331h1.712v-3.642z" fill="#398EAE"/><path d="M194.08 135.315h-85.316v13.382h85.316v-13.382zm94.319-.43h-85.316v13.382h85.316v-13.382zm-96.876 38.961h-85.315v13.382h85.315v-13.382zm0 87.101h-85.315v13.382h85.315v-13.382zm121.259-42.825H106.208v13.382h206.574v-13.382zm0 20.297H106.208v13.382h206.574v-13.382zm-24.383-65.004h-85.316v13.382h85.316v-13.382zm-1.053 87.101h-85.315v13.382h85.315v-13.382zm-39.756 33.396h-45.018v13.382h45.018v-13.382zm-79.541 1.006h-43.674V308.3h43.674v-13.382z" fill="#DBDBDB"/><path d="M117.443 130.812v-9.255h-1.279v7.102l-4.621-7.102h-1.71v9.255h1.279v-7.545l4.999 7.545h1.332zm1.76-1.684c0 .993.822 1.88 2.101 1.88 1.123 0 1.749-.6 2.024-1.044 0 .457.039.692.065.848h1.201a5.884 5.884 0 01-.079-1.031v-3.146c0-1.227-.731-2.297-2.61-2.297-1.358 0-2.441.835-2.572 2.036l1.175.274c.078-.731.561-1.266 1.423-1.266.953 0 1.357.509 1.357 1.123 0 .222-.104.417-.483.47l-1.697.248c-1.083.156-1.905.783-1.905 1.905zm2.271.849c-.627 0-1.018-.444-1.018-.914 0-.561.391-.861.913-.94l1.919-.287v.287c0 1.371-.809 1.854-1.814 1.854zm6.167.835v-3.785c0-.94.587-1.593 1.462-1.593.94 0 1.331.627 1.331 1.436v3.942h1.227v-3.798c0-.901.588-1.58 1.449-1.58.927 0 1.332.614 1.332 1.436v3.942h1.214v-4.072c0-1.645-1.071-2.389-2.167-2.389-.796 0-1.606.287-2.102 1.188-.339-.81-1.096-1.188-1.879-1.188-.731 0-1.515.326-1.906 1.018v-.835h-1.175v6.278h1.214zm10.775-3.785c.052-.809.678-1.606 1.71-1.606 1.109 0 1.697.705 1.723 1.606h-3.433zm3.616 1.632c-.235.704-.745 1.266-1.763 1.266-1.057 0-1.866-.783-1.892-1.906h4.725c.013-.078.026-.235.026-.392 0-1.958-1.083-3.289-3.015-3.289-1.58 0-3.003 1.344-3.003 3.315 0 2.128 1.475 3.355 3.159 3.355 1.462 0 2.467-.874 2.82-1.984l-1.057-.365zm-33.371 35.751v-3.172h1.854c1.11 0 1.788.626 1.788 1.605 0 .953-.678 1.567-1.788 1.567h-1.854zm2.089 1.148c1.71 0 2.859-1.161 2.859-2.728 0-1.553-1.149-2.741-2.859-2.741h-3.368v9.255h1.279v-3.786h2.089zm5.39.092c.026-.927.522-1.658 1.462-1.658 1.096 0 1.462.705 1.462 1.579v3.773h1.227v-3.981c0-1.397-.744-2.481-2.245-2.481-.718 0-1.449.248-1.906.914v-3.903h-1.227v9.451h1.227v-3.694zm8.792 2.793c-1.044 0-1.958-.783-1.958-2.245 0-1.449.914-2.232 1.958-2.232s1.958.783 1.958 2.232c0 1.462-.914 2.245-1.958 2.245zm0-5.574c-1.88 0-3.211 1.423-3.211 3.329 0 1.919 1.331 3.342 3.211 3.342s3.211-1.423 3.211-3.342c0-1.906-1.331-3.329-3.211-3.329zm6.008 2.846c0-.953.496-1.723 1.462-1.723 1.097 0 1.462.705 1.462 1.579v3.773h1.227v-3.981c0-1.397-.744-2.481-2.245-2.481-.731 0-1.475.301-1.932 1.084v-.901h-1.201v6.279h1.227v-3.629zm6.899-.157c.052-.809.679-1.605 1.71-1.605 1.11 0 1.697.705 1.723 1.605h-3.433zm3.616 1.632c-.235.705-.744 1.266-1.762 1.266-1.058 0-1.867-.783-1.893-1.905h4.725a2.75 2.75 0 00.027-.392c0-1.958-1.084-3.29-3.016-3.29-1.579 0-3.002 1.345-3.002 3.316 0 2.128 1.475 3.355 3.159 3.355 1.462 0 2.467-.875 2.819-1.984l-1.057-.366zm-27.664 45.632h1.384l-3.681-9.255h-1.475l-3.681 9.255h1.37l.979-2.585h4.099l1.005 2.585zm-3.067-7.924l1.605 4.151h-3.185l1.58-4.151zm6.233 4.765c0-1.293.731-2.206 1.854-2.206 1.122 0 1.801.887 1.801 2.18 0 1.292-.692 2.271-1.815 2.271-1.174 0-1.84-.953-1.84-2.245zm3.668 2.31c0 .379.039.705.065.849h1.188a9.999 9.999 0 01-.065-1.162v-8.289h-1.214v4.06c-.209-.51-.809-1.058-1.919-1.058-1.775 0-2.976 1.514-2.976 3.29 0 1.866 1.135 3.328 2.976 3.328.979 0 1.645-.522 1.945-1.122v.104zm6.76-5.495a2.29 2.29 0 00-.404-.04c-.64 0-1.423.235-1.88 1.201v-1.096H123.9v6.279h1.227v-3.146c0-1.384.692-1.932 1.723-1.932.17 0 .353.013.535.039v-1.305zm2.041 2.558c.052-.809.678-1.605 1.71-1.605 1.109 0 1.697.704 1.723 1.605h-3.433zm3.616 1.632c-.235.705-.745 1.266-1.763 1.266-1.057 0-1.866-.783-1.892-1.906h4.725c.013-.078.026-.235.026-.391 0-1.958-1.083-3.29-3.015-3.29-1.58 0-3.003 1.345-3.003 3.316 0 2.127 1.475 3.354 3.159 3.354 1.462 0 2.467-.874 2.82-1.984l-1.057-.365zm2.075.522c.104.718.835 1.827 2.558 1.827 1.554 0 2.298-1.057 2.298-1.945 0-.926-.601-1.618-1.736-1.866l-1.018-.222c-.483-.105-.718-.379-.718-.757 0-.431.417-.836 1.044-.836.992 0 1.253.718 1.305 1.045l1.084-.405c-.131-.561-.666-1.684-2.389-1.684-1.227 0-2.232.914-2.232 1.984 0 .888.587 1.554 1.566 1.762l1.071.235c.522.118.809.418.809.81 0 .444-.379.835-1.07.835-.888 0-1.384-.522-1.462-1.175l-1.11.392zm5.902 0c.105.718.836 1.827 2.559 1.827 1.553 0 2.297-1.057 2.297-1.945 0-.926-.6-1.618-1.736-1.866l-1.018-.222c-.483-.105-.718-.379-.718-.757 0-.431.418-.836 1.044-.836.992 0 1.253.718 1.305 1.045l1.084-.405c-.131-.561-.666-1.684-2.389-1.684-1.227 0-2.232.914-2.232 1.984 0 .888.587 1.554 1.566 1.762l1.071.235c.522.118.809.418.809.81 0 .444-.378.835-1.07.835-.888 0-1.384-.522-1.462-1.175l-1.11.392zm-25.622 78.692v-4.53h-4.425v1.149h3.211c-.052.953-.796 2.415-2.859 2.415-1.658 0-3.224-1.214-3.224-3.668s1.619-3.642 3.277-3.642c1.435 0 2.519.783 2.937 2.115l1.161-.497c-.535-1.67-2.088-2.793-4.098-2.793-2.285 0-4.582 1.684-4.582 4.817s2.167 4.83 4.49 4.83c1.554 0 2.559-.771 2.963-1.502l.118 1.306h1.031zm2.632-3.786c.052-.809.679-1.605 1.71-1.605 1.11 0 1.697.705 1.723 1.605h-3.433zm3.616 1.632c-.235.705-.744 1.266-1.762 1.266-1.057 0-1.867-.783-1.893-1.906h4.726c.013-.078.026-.235.026-.391 0-1.958-1.084-3.29-3.016-3.29-1.579 0-3.002 1.345-3.002 3.316 0 2.128 1.475 3.355 3.159 3.355 1.462 0 2.467-.875 2.819-1.985l-1.057-.365zm3.89-1.475c0-.953.496-1.723 1.462-1.723 1.097 0 1.462.705 1.462 1.579v3.773h1.227V285.9c0-1.396-.744-2.48-2.245-2.48-.731 0-1.475.301-1.932 1.084v-.901h-1.201v6.279h1.227v-3.629zm6.834.47c0-1.292.731-2.206 1.853-2.206 1.123 0 1.802.887 1.802 2.18 0 1.292-.692 2.271-1.815 2.271-1.174 0-1.84-.953-1.84-2.245zm3.668 2.31c0 .379.039.705.065.849h1.188a9.98 9.98 0 01-.065-1.162v-8.289h-1.214v4.06c-.209-.509-.809-1.058-1.919-1.058-1.775 0-2.976 1.515-2.976 3.29 0 1.867 1.135 3.329 2.976 3.329.979 0 1.645-.523 1.945-1.123v.104zm4.071-2.937c.052-.809.679-1.605 1.71-1.605 1.11 0 1.697.705 1.723 1.605h-3.433zm3.616 1.632c-.235.705-.744 1.266-1.762 1.266-1.057 0-1.867-.783-1.893-1.906h4.726c.013-.078.026-.235.026-.391 0-1.958-1.084-3.29-3.016-3.29-1.579 0-3.002 1.345-3.002 3.316 0 2.128 1.475 3.355 3.159 3.355 1.462 0 2.467-.875 2.819-1.985l-1.057-.365zm6.148-4.19a2.314 2.314 0 00-.404-.039c-.64 0-1.423.235-1.88 1.201v-1.097h-1.201v6.279h1.227v-3.146c0-1.384.692-1.932 1.723-1.932.17 0 .353.013.535.039v-1.305zm61.344-115.105v-1.188h-4.347v-2.833h3.942v-1.201h-3.942v-2.846h4.347v-1.187h-5.626v9.255h5.626zm2.851 0v-3.786c0-.94.587-1.592 1.462-1.592.94 0 1.331.626 1.331 1.435v3.943h1.227v-3.799c0-.901.588-1.579 1.449-1.579.927 0 1.332.613 1.332 1.435v3.943h1.214v-4.073c0-1.645-1.071-2.389-2.167-2.389-.797 0-1.606.287-2.102 1.188-.339-.809-1.096-1.188-1.88-1.188-.731 0-1.514.326-1.905 1.018v-.835h-1.175v6.279h1.214zm9.587-1.684c0 .992.822 1.879 2.101 1.879 1.123 0 1.749-.6 2.024-1.044 0 .457.039.692.065.849h1.201a5.899 5.899 0 01-.079-1.032v-3.146c0-1.227-.731-2.297-2.61-2.297-1.358 0-2.441.835-2.572 2.036l1.175.275c.078-.731.561-1.267 1.423-1.267.953 0 1.357.509 1.357 1.123 0 .222-.104.418-.483.47l-1.697.248c-1.083.157-1.905.783-1.905 1.906zm2.271.848c-.627 0-1.018-.444-1.018-.914 0-.561.391-.861.913-.939l1.919-.288v.288c0 1.37-.809 1.853-1.814 1.853zm6.167.836v-6.279h-1.214v6.279h1.214zm-1.488-8.655c0 .483.391.875.874.875a.881.881 0 10-.874-.875zm4.803 8.655v-9.451h-1.227v9.451h1.227z" fill="#398EAE"/><path d="M97.579 27.637h234.155v47.627H97.579V27.637z" fill="#3D93B4"/><path d="M153.09 54.959h2.637l-4.747-12.464h-2.812l-4.782 12.464h2.566l1.038-2.848h5.063l1.037 2.848zm-3.569-9.775l1.723 4.712h-3.446l1.723-4.712zm9.962 9.775V42.23h-2.338v12.728h2.338zm8.13 0h2.233a14.012 14.012 0 01-.088-1.565V46.31h-2.338v5.027c0 1.002-.598 1.706-1.635 1.706-1.09 0-1.583-.774-1.583-1.74V46.31h-2.338v5.467c0 1.88 1.196 3.41 3.288 3.41.914 0 1.916-.351 2.391-1.16 0 .352.035.756.07.932zm6.978 0v-5.063c0-.95.598-1.705 1.617-1.705 1.055 0 1.53.703 1.53 1.634v5.134h2.32v-5.063c0-.932.598-1.705 1.6-1.705 1.073 0 1.53.703 1.53 1.634v5.134h2.267V49.35c0-2.32-1.529-3.288-3.129-3.288-1.142 0-2.057.387-2.742 1.442-.44-.932-1.389-1.442-2.567-1.442-.949 0-2.057.457-2.531 1.301V46.31h-2.233v8.649h2.338zm15.571-4.975c0-1.002.598-1.793 1.618-1.793 1.125 0 1.6.755 1.6 1.722v5.046h2.338v-5.45c0-1.898-.985-3.428-3.13-3.428-.931 0-1.969.404-2.496 1.3V46.31h-2.268v8.65h2.338v-4.975zm10.267 4.975v-8.65h-2.338v8.65h2.338zm-2.62-11.48c0 .774.651 1.424 1.442 1.424.809 0 1.441-.65 1.441-1.424a1.44 1.44 0 00-1.441-1.459c-.791 0-1.442.65-1.442 1.46zm18.028 1.987c-.281-1.407-1.442-3.235-4.465-3.235-2.356 0-4.343 1.688-4.343 3.903 0 1.88 1.284 3.164 3.27 3.569l1.741.351c.967.193 1.512.756 1.512 1.477 0 .879-.721 1.53-2.022 1.53-1.758 0-2.62-1.108-2.725-2.339l-2.25.598c.193 1.775 1.652 3.903 4.957 3.903 2.901 0 4.501-1.934 4.501-3.85 0-1.758-1.213-3.235-3.481-3.675l-1.741-.334c-.914-.175-1.353-.72-1.353-1.406 0-.826.773-1.582 1.951-1.582 1.582 0 2.145 1.072 2.268 1.758l2.18-.668zm7.486 9.493h2.232a14.322 14.322 0 01-.087-1.565V46.31h-2.339v5.027c0 1.002-.597 1.706-1.635 1.706-1.089 0-1.582-.774-1.582-1.74V46.31h-2.338v5.467c0 1.88 1.196 3.41 3.288 3.41.914 0 1.916-.351 2.39-1.16 0 .352.036.756.071.932zm9.914-8.685a5.33 5.33 0 00-.545-.035c-.739 0-1.934.211-2.461 1.354v-1.284h-2.268v8.65h2.338v-3.956c0-1.863 1.037-2.443 2.233-2.443a3.5 3.5 0 01.703.07v-2.356zm10.059.035h-2.461l-2.057 5.802-2.145-5.801h-2.566l3.533 8.649h2.338l3.358-8.65zm2.87 3.34c.053-.79.721-1.705 1.934-1.705 1.336 0 1.899.844 1.934 1.706h-3.868zm4.097 2.251c-.282.773-.879 1.318-1.969 1.318-1.161 0-2.128-.826-2.18-1.969h6.188c0-.035.035-.386.035-.72 0-2.778-1.6-4.483-4.272-4.483-2.215 0-4.254 1.793-4.254 4.553 0 2.918 2.092 4.624 4.465 4.624 2.127 0 3.498-1.249 3.938-2.743l-1.951-.58zm6.784 6.47l5.432-12.06h-2.497l-2.127 5.063-2.303-5.063h-2.619l3.674 7.559-2.039 4.5h2.479z" fill="#fff"/><path d="M558.559 472.422l-107.707-23.777s-38.934-49.877-76.316-92.897c-10.981 10.838-17.082 27.537-28.174 38.264l82.194 90.685a15.667 15.667 0 0011.647 5.198l114.141.332 39.045 3.097V468.44l-34.83 3.982z" fill="#FAB99A"/><path d="M356.567 340.596c18.857-4.976 94.285 107.938 94.285 107.938s-10.205 4.755-28.396 29.417l-29.062-32.071s-57.792-54.411-68.773-73.323c-10.982-18.69 13.089-26.873 31.946-31.961z" fill="#FAB99A"/><path d="M389.4 207.665c-10.76-21.786-35.274-28.643-59.677-28.754-7.987 0-15.197.996-21.852 2.986-9.983 4.424-29.728 32.514-36.05 78.631-2.33 16.81 4.658 14.377 33.055 37.712 25.512 20.902 58.346 6.746 73.875-2.544 19.745-11.833 20.743-9.732 22.961-25.436-.443-18.358-10.648-59.388-12.312-62.595z" fill="#0E2127"/><path d="M319.629 326.994s-30.837-5.198-48.363 9.289c-17.415 14.599-3.66 141.558-3.66 163.013 0 21.454 19.744 11.391 19.744 11.391s64.558-.885 104.823 0c0 0 2.995-63.922 2.219-79.295-.777-15.372-5.768-61.157-22.739-85.266-4.659-6.746-52.024-19.132-52.024-19.132z" fill="#F38632"/><path d="M320.405 281.209s-.111.995-.332 2.654c-.999 7.963-4.992 34.062-8.652 41.029-4.437 8.405 17.415 27.206 39.267 25.547 6.544-.553-4.105-15.04-3.772-17.695.666-4.976 1.553-11.722 2.551-18.69.555-3.87 1.11-7.852 1.553-11.612 1.442-10.616 2.552-19.353 2.552-19.353l-33.167-1.88z" fill="#FFBD9E"/><path d="M319.962 285.853c.333-1.99.555-3.096.555-3.096l34.83-.774s-1.997 10.285-4.548 22.782c-.887 4.423-1.775 9.068-2.662 13.602-5.325-.774-10.982-3.428-16.639-8.294-6.101-5.308-10.205-11.723-12.534-18.579.333-2.323.665-4.203.998-5.641z" fill="#D69E78"/><path d="M490.341 472.422l-107.707-23.777s-38.934-49.877-76.316-92.897c-10.981 10.838-17.082 27.537-28.174 38.264l82.194 90.685a15.667 15.667 0 0011.647 5.198l114.141.332 39.045 3.097V468.44l-34.83 3.982z" fill="#FFBD9E"/><path d="M711.634 350.107H534.045c-4.659 0-8.985 2.876-10.76 7.189L468.6 490.338h-97.946a4.963 4.963 0 00-4.992 4.976 4.964 4.964 0 004.992 4.977h278.752c7.653 0 14.641-4.534 17.747-11.502l55.129-122.314c3.328-7.631-2.218-16.368-10.648-16.368z" fill="#C1C1C1"/><path d="M616.017 427.632c-1.22 5.972-6.433 9.953-11.647 8.958-5.213-.995-8.541-6.746-7.321-12.718 1.221-5.972 6.434-9.953 11.647-8.958 5.214.995 8.542 6.746 7.321 12.718z" fill="#fff"/><path d="M642.085 500.401l-272.096-.221a4.964 4.964 0 01-4.992-4.977 4.964 4.964 0 014.992-4.976l296.61.11-3.661 4.645c-5.213 3.76-8.652 5.972-20.853 5.419z" fill="#919090"/><path d="M348.691 198.265s-18.746-2.101-30.504 12.608c-9.65 12.165-15.197 47.996-6.101 69.119 2.44 5.641 13.977 16.478 19.634 20.349 10.426 6.967 15.862 8.516 21.963 5.087 19.744-11.169 25.512-24.109 27.841-45.121 1.11-10.285 8.874-17.916 7.987-27.98-1.775-18.911-12.867-34.726-40.82-34.062z" fill="#FFBD9E"/><path d="M377.198 198.375s5.879 35.058-51.024 45.564c-2.995.553-10.205 18.58-8.874 9.954 3.327-21.345-29.728 13.602-29.728 13.602s-2.218-60.272 24.181-67.903c26.4-7.741 65.445-1.217 65.445-1.217z" fill="#0E2127"/><path d="M318.409 239.958c1.442 7.742-1.442 14.819-6.544 15.815-5.103.995-10.427-4.424-11.869-12.165-1.442-7.742 1.442-14.82 6.544-15.815 5.103-.995 10.427 4.424 11.869 12.165zm-36.937 89.137c17.526-4.977 74.762 83.386 74.762 83.386 15.53 20.791 26.4 35.832 26.4 35.832s-19.522-.664-27.287 30.855l-28.285-30.634s-54.908-52.31-61.674-76.751c-5.768-20.68-1.331-37.601 16.084-42.688z" fill="#FFBD9E"/><path d="M249.964 517.2H678.13v-17.031H249.964V517.2z" fill="#D29420"/><path d="M347.138 334.072c8.098-1.881 11.092 23.998 10.316 32.845-.776 8.848-43.926-22.339-47.697-30.523-3.772-8.184-1.553-12.055 1.664-11.059" stroke="#FFFF6C" stroke-width="1.348" stroke-miterlimit="10"/><path d="M367.436 254.071c-.925 1.277-1.249 3.254-1.388 4.874-.924 10.792 2.949 8.548 1.388 12.533-1.238 3.159-8.016.464-10.175 0" stroke="#C98659" stroke-width=".775" stroke-linecap="round"/><path d="M355.347 241.984c-1.921-2.139-7.714-5.147-15.512-.066m31.863 2.636c2.405-1.58 8.775-3.015 15.016 3.88" stroke="#724422" stroke-width=".775" stroke-linecap="round"/><path d="M334.869 276.885c4.826-.333 8.371-5.889 7.918-12.408-.453-6.52-4.732-11.535-9.558-11.202-4.826.333-8.371 5.889-7.918 12.408.453 6.52 4.732 11.535 9.558 11.202z" fill="#F8AC89"/><path d="M374.519 252.551c-.698.755-1.1 1.67-1.279 2.705-.127.938.096 1.939.604 2.591.19.355.508.652.878.853.371.2.794.303 1.196.269.402-.034.879-.029 1.312-.297.381-.172.815-.44 1.228-.846.698-.755 1.1-1.67 1.279-2.705.127-.938-.096-1.939-.604-2.592a2.162 2.162 0 00-.879-.852 2.17 2.17 0 00-1.195-.269c-.403.034-.805.068-1.312.297-.508.229-.942.497-1.228.846zm-27.723-4.214c-.57.849-.894 1.909-.964 2.948.001 1.066.335 1.903.859 2.457.278.343.635.478.992.614s.754.168 1.119.07c.436-.071.84-.272 1.173-.501.333-.228.705-.56 1.045-1.022.57-.849.894-1.909.964-2.948-.001-1.066-.335-1.903-.859-2.457-.278-.343-.635-.478-.992-.614a1.831 1.831 0 00-1.118-.07c-.436.071-.84.272-1.173.501-.333.228-.705.56-1.046 1.022z" fill="#724422"/><path d="M376.808 280.976c.192.238.253.354.263.244.545-1.396 1.401-4.764 2.205-8.359.931-4.249 1.679-8.847 1.679-8.847s-3.64.245-5.496 4.527c-1.857 4.282-.844 9.03 1.349 12.435z" fill="#FAB18F"/><path d="M367.301 286.907s-18.635-.442-19.966-1.658c-1.22-1.217.507 8.515 10.205 8.515 5.463 0 9.761-6.857 9.761-6.857z" fill="#E08A68"/></svg>