<svg width="36" height="39" viewBox="0 0 36 39" fill="none" xmlns="http://www.w3.org/2000/svg">
<path d="M35.7951 18.0686C35.7951 8.34254 27.9106 0.458008 18.1846 0.458008C8.4585 0.458008 0.573975 8.34254 0.573975 18.0686C0.573975 27.7947 8.4585 35.6792 18.1846 35.6792C27.9106 35.6792 35.7951 27.7947 35.7951 18.0686Z" fill="white"/>
<path d="M24.6915 25.5653L25.4965 20.3209H20.4652V16.9176C20.43 16.5259 20.4833 16.1313 20.6212 15.763C20.7592 15.3948 20.9783 15.0623 21.2622 14.7902C21.5462 14.5181 21.8877 14.3134 22.2615 14.1912C22.6353 14.0691 23.0319 14.0326 23.4217 14.0845H25.7097V9.61867C24.3666 9.3999 23.0093 9.27976 21.6487 9.25928C17.5039 9.25928 14.7954 11.7749 14.7954 16.3174V20.3161H10.1835V25.5605H14.7894V38.2381C16.6683 38.5322 18.5815 38.5322 20.4604 38.2381V25.5653H24.6915Z" fill="#335998"/>
</svg>
