<svg width="188" height="71" viewBox="0 0 188 71" fill="none" xmlns="http://www.w3.org/2000/svg">
<path fill-rule="evenodd" clip-rule="evenodd" d="M93.6 70.8C145.2 70.8 187.1 55 187.1 35.4C187.1 15.9 145.2 0 93.6 0C41.9 0 0 15.9 0 35.4C0 55 41.9 70.8 93.6 70.8Z" fill="#2F5E9C"/>
<path fill-rule="evenodd" clip-rule="evenodd" d="M93.6 67.1001C44 67.1001 3.69995 53.0001 3.69995 35.4001C3.69995 17.9001 44 3.6001 93.6 3.6001C143.3 3.6001 183.6 17.9001 183.6 35.5001C183.5 53.0001 143.3 67.1001 93.6 67.1001Z" fill="white"/>
<path fill-rule="evenodd" clip-rule="evenodd" d="M93.6 64.6999C141.7 64.6999 180.7 51.6 180.7 35.4C180.7 19.3 141.7 6.19995 93.6 6.19995C45.4 6.19995 6.5 19.3 6.5 35.4C6.5 51.6 45.4 64.6999 93.6 64.6999Z" fill="#2F5E9C"/>
<path fill-rule="evenodd" clip-rule="evenodd" d="M116.4 41.2999C120.5 37.3999 122.8 33.3999 128.7 33.4999C132.3 33.5999 133.2 36.3999 133.8 37.5999L141.6 24.3999H146.4L133.5 47.2999C133.3 47.7999 132.7 48.6999 132.7 49.3999C132.8 50.4999 134.3 50.1999 133.7 50.1999C136.3 50.0999 141.1 45.0999 142.2 43.8999C142.4 43.5999 142.9 43.0999 143.1 43.0999C143.3 43.0999 143.8 43.2999 143.8 43.6999C143.8 43.8999 143.3 44.7999 142.8 45.3999C140.4 48.3999 136.4 53.0999 131.9 53.1999C129.7 53.1999 128.8 52.2999 128.5 50.4999C127.5 51.3999 124 52.9999 120.4 52.9999C117.4 52.8999 116.2 51.1999 115.6 49.7999C115.1 48.6999 114.8 46.9999 115.2 45.2999C113.6 46.0999 112.1 46.2999 109.9 46.1999C107.4 46.0999 105.8 44.9999 105 41.9999C102.1 47.2999 102 47.4999 99 52.9999H94L100.6 41.7999C101.4 40.2999 101.9 39.0999 102.2 37.7999C102.4 37.0999 101.8 36.3999 101.1 36.3999C100.3 36.3999 98.9 37.1999 97.5 38.4999C97.5 38.4999 94.1 42.0999 91.6 45.7999C89.2 49.2999 85.2 53.2999 80.8 53.2999C77.6 53.2999 74.7 51.5999 74.1 48.1999C74.1 48.1999 73.8 48.9999 71 50.5999C70.8 50.6999 70.2 51.0999 70 50.9999C69.5 50.4999 69.2 49.8999 69.1 49.4999C69.3 49.5999 69.6 49.2999 70.8 48.3999C73 46.6999 73.5 45.3999 73.5 45.3999C74 44.2999 75 42.3999 75.7 41.1999C77.5 37.5999 80.6 33.8999 85.8 33.6999C86.6 33.6999 86.9 34.0999 87.1 34.3999C87.6 34.7999 87.4 35.4999 87.4 35.4999C83.8 35.9999 81.3 38.1999 79.8 40.1999C78.9 41.4999 77.9 43.6999 77.7 45.2999C77.3 47.9999 78.6 49.7999 80.5 50.1999C84 50.6999 86.9 48.1999 89.2 44.2999C89.8 43.2999 90.2 40.5999 90.2 39.1999C90.2 37.7999 89.4 36.1999 88.8 35.5999C88.8 34.5999 89.5 33.8999 90.2 33.8999C90.4 33.8999 90.7 33.8999 90.9 34.0999C92.1 35.2999 92.8 37.5999 92.8 39.2999C92.8 39.8999 92.8 40.4999 92.7 41.0999C95.2 37.9999 98.4 33.9999 100.9 33.2999C101.4 33.0999 101.9 33.0999 102.3 33.0999C106.8 32.9999 106.2 37.0999 106.2 37.0999C108.6 34.2999 110.3 33.2999 112.5 33.3999C114.9 33.4999 115.8 35.1999 115.8 36.4999C115.7 38.0999 114.6 39.8999 112.6 39.8999C110.8 39.8999 109.8 39.0999 109.3 37.4999C108.2 37.8999 107.6 38.6999 107.4 40.2999C107 42.2999 108.5 43.8999 110.5 43.8999C113.7 43.7999 115.2 42.3999 116.4 41.2999Z" fill="white"/>
<path fill-rule="evenodd" clip-rule="evenodd" d="M120 15.3C120 17.2 113.2 20.9 107.5 20.9C98.6 20.9 89.3 16.6 85 15.7C80.4 14.6 76.1 13.7 72.8 13.7C61.2 13.7 56 18.7 56.2 23.3C56.3 25.2 57.8 26.4 60.1 26C62.5 25.6 65.9 23.3 66.7 21.3C66.9 20.9 67.4 20.8 67.5 20.9C67.9 21.2 67.7 21.6 67.7 21.6C67.4 24 63.8 30.5 57.5 30.5C54 30.5 51.6 27.2 51.7 24C51.8 18 57.9 12 72.9 12C75.7 12 78.9 12.2 82.4 12.8C86.4 13.5 96.5 15.2 104.7 15.3C107.7 15.3 111.6 15.4 114.7 14.9C118 14.4 117.3 14.2 118.6 14.2C120 14.3 120 14.8 120 15.3Z" fill="white"/>
<path fill-rule="evenodd" clip-rule="evenodd" d="M128.9 36.3001C126.8 36.1001 124.1 37.9001 122 40.5001C120.9 41.8001 119.8 44.4001 119.6 45.9001C119.4 47.4001 119.8 48.9001 120.3 49.3001C120.8 49.7001 123.3 51.0001 127 47.2001C129.1 45.1001 131.2 41.6001 131.2 41.6001L130.5 41.4001C131.8 39.1001 131.5 36.6001 128.9 36.3001Z" fill="#2F5E9C"/>
<path fill-rule="evenodd" clip-rule="evenodd" d="M84.8001 29.1001C84.8001 29.8001 85.7001 30.3001 86.5 30.4001C86.3 31.1001 86.4 31.4001 86.1 31.3001C84.3 31.3001 83.6 29.6001 83.6 29.6001C81.2 30.0001 78.8 30.3001 74.1 30.8001C62 50.2001 58.3001 53.4001 50.9001 53.4001C45.7001 53.4001 41.0001 50.0001 40.9001 43.8001C40.8001 40.1001 43.9 35.5001 49.5 34.1001C50.2 34.1001 50.4001 34.3001 50.4001 34.7001C50.4001 34.9001 50.2 35.2001 49.6 35.5001C48 36.1001 45.1 39.3001 45.1 42.3001C45.1 44.5001 46.5 47.0001 48.8 47.5001C49.5 47.7001 50.1 47.6001 50.7001 47.6001C56.6 47.6001 63.1 41.0001 70.2 31.0001C69.1 31.1001 64.2001 31.6001 63 33.0001C62.5 33.4001 62.1 33.2001 62 32.7001C62 32.6001 62.2001 32.2001 62.4001 31.9001C64.3001 29.7001 70.1 29.2001 71.5 29.1001C76.9001 20.8001 83.9001 15.6001 85.4001 15.6001C85.6001 15.6001 86.2001 16.0001 85.9001 16.6001C85.8001 16.7001 85.2001 17.4001 85 17.6001C83.8 18.7001 79.7 21.3001 75.2 28.9001C78.8 28.7001 83 28.0001 83 28.0001C83 28.0001 82.8001 27.2001 82.8001 26.6001C83.0001 24.0001 84.5 22.4001 86.4001 22.7001C87.5 22.9001 88.2 23.8001 88.2 24.8001C88.2 25.8001 87.4 27.3001 86.6 28.1001C86.2 28.4001 85.5001 28.8001 84.8001 29.1001Z" fill="white"/>
<path fill-rule="evenodd" clip-rule="evenodd" d="M84.5 27.8001C84.5 27.8001 85.1 27.9001 86 26.8001C86.4 26.4001 87 25.4001 86.8 24.6001C86.7 24.2001 86.6 23.8001 86.1 23.9001C85.2 24.1001 84.7 24.5001 84.4 25.4001C84.2 26.4001 84.3 27.1001 84.5 27.8001Z" fill="#2F5E9C"/>
</svg>
