<svg width="141" height="32" fill="none" xmlns="http://www.w3.org/2000/svg"><path d="M92.715 8.867h-8.622l-1.231 5.582h7.936l-.865 4.342h-7.937l-1.916 8.994h-4.655l4.974-23.26h13.227l-.911 4.342zm8.031.161c-5.837 0-7.89 4.652-8.891 9.304-.959 4.52-.273 9.807 6.02 9.807 5.839 0 7.849-4.606 8.851-9.348.955-4.472.313-9.763-5.98-9.763zm1.641 9.714c-.729 3.467-2.053 5.198-4.423 5.11-2.462-.092-2.326-2.964-1.78-5.473.732-3.374 2.007-5.155 4.382-5.062 2.599.087 2.323 3.009 1.821 5.425zm15.695-5.292c-3.603.227-4.469 2.745-4.881 4.755l-2.053 9.58h-4.513l3.923-18.608h2.187l.229 2.546c1.185-1.733 2.829-2.896 6.113-2.896l-1.005 4.624zm19.67 14.335h-4.519l2.463-11.546c.229-1.135.685-3.033-1.049-3.033-1.55 0-2.236 1.34-2.692 3.482l-2.369 11.097h-4.562l2.462-11.546c.276-1.182.689-3.033-.998-3.033-1.598 0-2.283 1.34-2.736 3.482l-2.375 11.097h-4.519l3.923-18.608h2.233l.186 2.503a5.864 5.864 0 014.869-2.717c1.641 0 3.145.878 3.555 2.562 1.28-1.824 2.875-2.547 4.701-2.547 4.06 0 4.696 3.474 3.74 8.036l-2.313 10.771zm-91.409-6.513c-.912 4.513-2.28 7.158-9.9 6.61l.869-4.107c3.055.044 3.967-.639 4.38-2.686l3.553-16.564h4.652l-3.554 16.747zM58.291 9.028c-5.836 0-7.89 4.652-8.894 9.304-.956 4.52-.276 9.807 6.023 9.807 5.836 0 7.843-4.606 8.85-9.348.947-4.472.308-9.763-5.979-9.763zm1.644 9.714c-.732 3.467-2.053 5.198-4.425 5.11-2.463-.092-2.327-2.964-1.778-5.473.726-3.374 2.004-5.155 4.38-5.062 2.592.087 2.316 3.009 1.817 5.425h.006zm16.19-5.533h-3.6l-1.83 8.603c-.412 1.827 0 2.112 3.142 2.17l-.862 4.07c-6.39.273-7.804-1.901-6.796-6.64l1.725-8.203h-2.1l.502-2.522 2.482-1.464.998-4.698h4.516l-1.005 4.652h3.697l-.869 4.032z" fill="#F38632"/><path d="M16.604 32c8.837 0 16-7.163 16-16s-7.163-16-16-16-16 7.163-16 16 7.163 16 16 16z" fill="#ECECEC"/><path opacity=".05" d="M29.7 18.636l1.944-8.091a16.05 16.05 0 00-8.237-9.025l-2.922 15.758-10.889 8.838 20.103-7.48z" fill="#000"/><path d="M16.606 0a16 16 0 00-4.311.592l-1.433 5.294 2.983.422 3.077 1.058 2.791 1.392L21.927.906A15.963 15.963 0 0016.606 0z" fill="#F38632"/><path d="M12.6 21.167l-3 4.95.36-5.812.877.037 1.07.295.692.53z" fill="#4E4E4E"/><path d="M12.599 21.167l-.692-.53-1.07-.295-.878-.037.897-14.419 2.983.425 3.077 1.058 2.779 1.392-7.096 12.406z" fill="url(#paint0_linear)"/><path d="M12.29.596L10.857 5.89l2.984.422 1.814-6.28a15.955 15.955 0 00-3.365.564z" fill="#F6A259"/><path d="M21.909.906a15.878 15.878 0 00-2.841-.723L16.915 7.36 9.596 26.117l2.996-4.962 7.096-12.406 2.22-7.843z" fill="#1A1A1A" opacity=".2"/><path opacity=".15" d="M9.6 26.042l4.24-19.73-2.984-.426L9.6 26.042z" fill="#fff"/><defs><linearGradient id="paint0_linear" x1="12.861" y1="13.314" x2="16.609" y2="13.757" gradientUnits="userSpaceOnUse"><stop stop-color="#F1CEBA"/><stop offset="1" stop-color="#B8846F"/></linearGradient></defs></svg>