<svg viewBox="0 0 24 16" xmlns="http://www.w3.org/2000/svg" aria-hidden="true"><path d="M22.518.068L12 10.586 1.482.068C1.647.024 1.821 0 2 0h20c.18 0 .353.024.518.068zm1.414 1.414c.044.165.068.339.068.518v11c0 .463-.105.902-.292 1.293L17.414 8l6.518-6.518zm-1.639 14.226c-.391.187-.83.292-1.293.292H3c-.463 0-.902-.105-1.293-.292L8 9.414l3.293 3.293a1 1 0 001.414 0L16 9.414l6.293 6.294zm-22-1.415A2.988 2.988 0 010 13V2c0-.18.024-.353.068-.518L6.586 8 .292 14.293z" fill="#F81" fill-rule="nonzero"></path></svg>