<svg width="528" height="398" viewBox="0 0 628 498" fill="none" xmlns="http://www.w3.org/2000/svg">
<path d="M622.619 324.362C615.544 348.516 603.164 440.557 480.243 485.263C357.323 529.969 259.886 437.137 140.238 423.794C20.6779 410.45 -2.41754 353.191 0.76601 280.045C3.94956 206.9 92.6467 101.807 213.445 43.1735C355.289 -25.5895 468.659 -5.13596 537.989 54.9586C634.911 139.111 632.081 292.318 622.619 324.362Z" fill="#DAE6FF"/>
<rect x="427.442" y="288.487" width="153.097" height="47.5079" rx="4" fill="black" fill-opacity="0.1"/>
<rect x="427.442" y="287.487" width="152.938" height="47.5079" rx="4" fill="white"/>
<path d="M468.135 312.241C468.135 316.061 466.919 319.616 464.869 322.523L450.93 311.81L443.877 295.601C445.868 294.827 448.027 294.403 450.297 294.403C460.148 294.403 468.135 302.39 468.135 312.241Z" fill="#C6A9FE" stroke="white"/>
<path d="M432.459 312.24C432.459 305.146 436.597 299.024 442.602 296.149L449.467 311.924L434.278 320.088C433.121 317.729 432.459 315.057 432.459 312.24Z" fill="#F5A2B5" stroke="white"/>
<path d="M448.276 329.964C442.607 329.33 437.725 326.016 434.941 321.325L449.576 313.453L448.276 329.964Z" fill="#FFC14F" stroke="white"/>
<path d="M452.254 329.968L452.251 329.969C451.613 330.042 450.955 330.078 450.297 330.078C450.097 330.078 449.891 330.073 449.683 330.065L450.345 321.411L450.345 321.41L450.72 316.677L450.908 314.309L450.967 313.575L464.016 323.635C461.135 327.096 456.973 329.458 452.254 329.968Z" fill="#90D9AC" stroke="white"/>
<mask id="mask0" mask-type="alpha" maskUnits="userSpaceOnUse" x="446" y="314" width="10" height="6">
<path d="M446.113 319.895L455.936 314.612L446.113 319.895Z" fill="white"/>
</mask>
<g mask="url(#mask0)">
<path d="M446.113 319.895L455.936 314.612L446.113 319.895Z" fill="white"/>
<path d="M446.3 320.241L456.122 314.958L455.75 314.266L445.927 319.549L446.3 320.241ZM455.75 314.266L445.927 319.549L446.3 320.241L456.122 314.958L455.75 314.266Z" fill="white"/>
<path d="M454.799 325.47L454.796 325.47C451.204 325.079 448.115 322.963 446.383 319.973L455.711 314.956L454.882 325.48C454.855 325.477 454.827 325.474 454.799 325.47Z" fill="#FFC14F" stroke="white"/>
<path d="M457.25 325.47H457.249C456.85 325.515 456.44 325.538 456.029 325.538C455.866 325.538 455.697 325.533 455.528 325.525L455.946 320.061L455.946 320.061L456.178 317.136L456.294 315.673L456.347 315.012L464.667 321.426C462.866 323.636 460.237 325.147 457.25 325.47Z" fill="#90D9AC" stroke="white"/>
</g>
<path d="M478.784 318.13H480.608L477.904 313.378C479.616 313.058 480.656 311.794 480.656 310.162C480.656 308.29 479.328 306.786 477.184 306.786H472.912V318.13H474.496V313.49H476.192L478.784 318.13ZM474.496 312.082V308.194H476.896C478.176 308.194 479.04 308.962 479.04 310.162C479.04 311.33 478.176 312.082 476.896 312.082H474.496ZM483.322 313.49C483.386 312.498 484.154 311.522 485.418 311.522C486.778 311.522 487.498 312.386 487.53 313.49H483.322ZM487.754 315.49C487.466 316.354 486.842 317.042 485.594 317.042C484.298 317.042 483.306 316.082 483.274 314.706H489.066C489.082 314.61 489.098 314.418 489.098 314.226C489.098 311.826 487.77 310.194 485.402 310.194C483.466 310.194 481.722 311.842 481.722 314.258C481.722 316.866 483.53 318.37 485.594 318.37C487.386 318.37 488.618 317.298 489.05 315.938L487.754 315.49ZM492.506 321.17V317.09C492.922 317.778 493.818 318.338 495.002 318.338C497.258 318.338 498.586 316.562 498.586 314.274C498.586 312.034 497.354 310.258 495.05 310.258C493.802 310.258 492.89 310.866 492.474 311.634V310.434H491.018V321.17H492.506ZM497.05 314.274C497.05 315.858 496.17 316.994 494.778 316.994C493.402 316.994 492.49 315.858 492.49 314.274C492.49 312.738 493.402 311.586 494.778 311.586C496.186 311.586 497.05 312.738 497.05 314.274ZM503.798 317.026C502.518 317.026 501.398 316.066 501.398 314.274C501.398 312.498 502.518 311.538 503.798 311.538C505.078 311.538 506.198 312.498 506.198 314.274C506.198 316.066 505.078 317.026 503.798 317.026ZM503.798 310.194C501.494 310.194 499.862 311.938 499.862 314.274C499.862 316.626 501.494 318.37 503.798 318.37C506.102 318.37 507.734 316.626 507.734 314.274C507.734 311.938 506.102 310.194 503.798 310.194ZM513.931 310.354C513.851 310.338 513.643 310.306 513.435 310.306C512.651 310.306 511.691 310.594 511.131 311.778V310.434H509.659V318.13H511.163V314.274C511.163 312.578 512.011 311.906 513.275 311.906C513.483 311.906 513.707 311.922 513.931 311.954V310.354ZM517.956 308.002H516.58V309.25C516.58 309.922 516.228 310.434 515.396 310.434H514.98V311.794H516.452V316.018C516.452 317.41 517.284 318.21 518.596 318.21C519.108 318.21 519.492 318.114 519.62 318.066V316.786C519.492 316.818 519.22 316.85 519.028 316.85C518.244 316.85 517.956 316.498 517.956 315.794V311.794H519.62V310.434H517.956V308.002ZM525.787 306.786V318.13H529.755C531.835 318.13 533.259 316.834 533.259 315.042C533.259 313.778 532.507 312.626 531.211 312.306C532.203 311.938 532.907 311.074 532.907 309.858C532.907 308.066 531.643 306.786 529.483 306.786H525.787ZM527.355 311.746V308.162H529.243C530.539 308.162 531.323 308.866 531.323 309.938C531.323 310.994 530.571 311.746 529.307 311.746H527.355ZM527.355 316.754V313.09H529.595C530.971 313.09 531.659 313.858 531.659 314.946C531.659 316.05 530.795 316.754 529.531 316.754H527.355ZM540.012 317.202C540.012 317.522 540.044 317.954 540.076 318.13H541.516C541.484 317.858 541.436 317.314 541.436 316.706V310.434H539.932V315.074C539.932 316.242 539.324 317.042 538.108 317.042C536.844 317.042 536.364 316.114 536.364 315.058V310.434H534.86V315.282C534.86 317.026 535.948 318.37 537.74 318.37C538.636 318.37 539.596 318.002 540.012 317.202ZM545.49 318.13V310.434H544.002V318.13H545.49ZM543.666 307.522C543.666 308.114 544.146 308.594 544.738 308.594C545.346 308.594 545.826 308.114 545.826 307.522C545.826 306.914 545.346 306.434 544.738 306.434C544.146 306.434 543.666 306.914 543.666 307.522ZM549.553 318.13V306.546H548.049V318.13H549.553ZM553.008 314.258C553.008 312.674 553.904 311.554 555.28 311.554C556.656 311.554 557.488 312.642 557.488 314.226C557.488 315.81 556.64 317.01 555.264 317.01C553.824 317.01 553.008 315.842 553.008 314.258ZM557.504 317.09C557.504 317.554 557.552 317.954 557.584 318.13H559.04C559.024 318.002 558.96 317.442 558.96 316.706V306.546H557.472V311.522C557.216 310.898 556.48 310.226 555.12 310.226C552.944 310.226 551.472 312.082 551.472 314.258C551.472 316.546 552.864 318.338 555.12 318.338C556.32 318.338 557.136 317.698 557.504 316.962V317.09ZM562.494 313.49C562.558 312.498 563.326 311.522 564.59 311.522C565.95 311.522 566.67 312.386 566.702 313.49H562.494ZM566.926 315.49C566.638 316.354 566.014 317.042 564.766 317.042C563.47 317.042 562.478 316.082 562.446 314.706H568.238C568.254 314.61 568.27 314.418 568.27 314.226C568.27 311.826 566.942 310.194 564.574 310.194C562.638 310.194 560.894 311.842 560.894 314.258C560.894 316.866 562.702 318.37 564.766 318.37C566.558 318.37 567.79 317.298 568.222 315.938L566.926 315.49ZM574.462 310.354C574.382 310.338 574.174 310.306 573.966 310.306C573.182 310.306 572.222 310.594 571.662 311.778V310.434H570.19V318.13H571.694V314.274C571.694 312.578 572.542 311.906 573.806 311.906C574.014 311.906 574.238 311.922 574.462 311.954V310.354Z" fill="#18265B"/>
<rect x="57.5068" y="16.9114" width="273.353" height="12.738" fill="#C4C4C4"/>
<rect x="65.6554" y="21.4075" width="4.44477" height="4.49578" fill="white"/>
<rect x="74.5452" y="21.4075" width="4.44477" height="4.49578" fill="white"/>
<rect x="83.4346" y="21.4075" width="4.44477" height="4.49578" fill="white"/>
<rect x="136.031" y="21.4075" width="119.268" height="4.49578" fill="white"/>
<path d="M330.86 29.6497H57.5068V378.768H330.86V29.6497Z" fill="#C8CDE1"/>
<path d="M306.073 42.3704H82.2107C78.3595 42.3704 75.2374 45.4768 75.2374 49.3088V353.982C75.2374 357.814 78.3595 360.92 82.2107 360.92H306.073C309.924 360.92 313.046 357.814 313.046 353.982V49.3088C313.046 45.4768 309.924 42.3704 306.073 42.3704Z" fill="white"/>
<path d="M306.072 42.3704H82.2106C78.3593 42.3704 75.2373 42.663 75.2373 43.0239V71.721C75.2373 72.0819 78.3593 72.3745 82.2106 72.3745H306.072C309.924 72.3745 313.046 72.0819 313.046 71.721V43.0239C313.046 42.663 309.924 42.3704 306.072 42.3704Z" fill="#FFD592"/>
<path d="M159.234 331.81H229.049C230.09 331.81 231.088 332.221 231.823 332.953C232.559 333.685 232.972 334.678 232.972 335.713V344.13C232.972 345.165 232.559 346.158 231.823 346.89C231.088 347.623 230.09 348.034 229.049 348.034H159.234C158.719 348.034 158.208 347.933 157.732 347.737C157.256 347.54 156.824 347.253 156.459 346.89C156.095 346.527 155.806 346.097 155.609 345.623C155.412 345.15 155.31 344.642 155.311 344.129V335.713C155.311 334.678 155.724 333.685 156.46 332.953C157.195 332.221 158.193 331.81 159.234 331.81V331.81Z" fill="#FFD083"/>
<path d="M90.5776 80.5828H155.592C155.99 80.5552 156.391 80.5836 156.782 80.6672V86.4985C156.391 86.582 155.99 86.6105 155.592 86.5829H90.5776C90.18 86.6106 89.7807 86.5822 89.3911 86.4985V80.6672C89.7807 80.5835 90.18 80.5551 90.5776 80.5828Z" fill="#D3D9DE"/>
<path d="M135.256 93.3523H186.111C186.423 93.3249 186.739 93.3535 187.042 93.4367V99.2679C186.739 99.3512 186.423 99.3798 186.111 99.3524H135.252C134.94 99.3799 134.625 99.3513 134.323 99.2679V93.4367C134.627 93.3528 134.943 93.3242 135.256 93.3523Z" fill="#D3D9DE"/>
<path d="M167.3 80.5826H217.564C217.873 80.5553 218.184 80.5839 218.483 80.667V86.4983C218.184 86.5815 217.873 86.6101 217.564 86.5827H167.3C166.992 86.6101 166.68 86.5815 166.382 86.4983V80.667C166.68 80.5838 166.992 80.5552 167.3 80.5826Z" fill="#D3D9DE"/>
<path d="M194.497 93.3518H231.645C231.875 93.325 232.108 93.3539 232.325 93.4363V99.2675C232.108 99.3498 231.875 99.3788 231.645 99.3519H194.497C194.267 99.3789 194.034 99.3499 193.818 99.2675V93.4363C194.034 93.3538 194.267 93.3249 194.497 93.3518Z" fill="#D3D9DE"/>
<path d="M230.546 80.5825H294.104C294.493 80.555 294.884 80.5834 295.266 80.6669V86.4982C294.884 86.5817 294.493 86.6102 294.104 86.5826H230.546C230.157 86.6103 229.767 86.5819 229.386 86.4982V80.6669C229.767 80.5833 230.157 80.5548 230.546 80.5825Z" fill="#D3D9DE"/>
<path d="M216.263 208.02H169.037C168.56 208.02 168.174 208.078 168.174 208.152V217.296C168.174 217.37 168.562 217.428 169.037 217.428H216.263C216.74 217.428 217.122 217.37 217.122 217.296V208.152C217.13 208.078 216.74 208.02 216.263 208.02Z" fill="#D3D9DE"/>
<path d="M159.843 208.02H90.6561C90.2308 207.978 89.8025 208.022 89.3913 208.153V217.297C89.8025 217.427 90.2308 217.472 90.6561 217.429H159.843C160.268 217.472 160.697 217.427 161.108 217.297V208.153C160.697 208.022 160.268 207.977 159.843 208.02Z" fill="#D3D9DE"/>
<path d="M144.755 111.894H90.385C90.0508 111.851 89.7143 111.896 89.3911 112.026V121.17C89.7143 121.301 90.0508 121.345 90.385 121.302H144.755C145.089 121.346 145.426 121.301 145.749 121.17V112.026C145.426 111.896 145.089 111.851 144.755 111.894Z" fill="#D3D9DE"/>
<path d="M130.89 160.035H90.136C89.8855 159.992 89.6332 160.036 89.391 160.167V169.311C89.6332 169.441 89.8855 169.486 90.136 169.443H130.89C131.14 169.486 131.392 169.441 131.634 169.311V160.167C131.392 160.036 131.14 159.992 130.89 160.035Z" fill="#D3D9DE"/>
<rect x="88.7921" y="232.337" width="64.6889" height="14.3371" rx="1.17044" fill="white" stroke="#716969" stroke-width="0.780294"/>
<rect x="88.7921" y="279.167" width="83.7496" height="14.3371" rx="1.17044" fill="white" stroke="#716969" stroke-width="0.780294"/>
<rect x="179.395" y="279.167" width="47.8864" height="14.3371" rx="1.17044" fill="white" stroke="#716969" stroke-width="0.780294"/>
<rect x="88.7921" y="255.751" width="138.458" height="14.3371" rx="1.17044" fill="white" stroke="#716969" stroke-width="0.780294"/>
<rect x="88.7921" y="302.581" width="138.458" height="14.3371" rx="1.17044" fill="white" stroke="#716969" stroke-width="0.780294"/>
<rect x="162.593" y="232.337" width="64.6889" height="14.3371" rx="1.17044" fill="white" stroke="#716969" stroke-width="0.780294"/>
<rect x="88.7921" y="132.775" width="96.0087" height="14.3371" rx="1.17044" fill="white" stroke="#716969" stroke-width="0.780294"/>
<rect x="88.7921" y="180.915" width="199.224" height="14.3371" rx="1.17044" fill="white" stroke="#716969" stroke-width="0.780294"/>
<rect x="192.007" y="132.775" width="96.0087" height="14.3371" rx="1.17044" fill="white" stroke="#716969" stroke-width="0.780294"/>
<path d="M239.894 329.298H131.749C129.79 329.298 128.203 330.864 128.203 332.797V344.535C128.203 346.467 129.79 348.034 131.749 348.034H239.894C241.853 348.034 243.44 346.467 243.44 344.535V332.797C243.44 330.864 241.853 329.298 239.894 329.298Z" fill="#F59D4C"/>
<path d="M169.397 336.341C169.228 335.498 168.532 334.401 166.719 334.401C165.306 334.401 164.114 335.414 164.114 336.742C164.114 337.87 164.884 338.64 166.076 338.883L167.119 339.093C167.699 339.209 168.026 339.547 168.026 339.979C168.026 340.506 167.594 340.896 166.814 340.896C165.759 340.896 165.243 340.232 165.179 339.494L163.83 339.853C163.946 340.918 164.821 342.193 166.803 342.193C168.543 342.193 169.502 341.033 169.502 339.884C169.502 338.83 168.775 337.944 167.415 337.681L166.371 337.48C165.823 337.375 165.559 337.048 165.559 336.637C165.559 336.141 166.023 335.688 166.729 335.688C167.678 335.688 168.016 336.331 168.089 336.742L169.397 336.341ZM173.504 342.204C175.107 342.204 176.383 341.223 176.383 339.389V334.56H174.928V339.283C174.928 340.264 174.39 340.78 173.504 340.78C172.64 340.78 172.092 340.264 172.092 339.283V334.56H170.636V339.389C170.636 341.223 171.912 342.204 173.504 342.204ZM178.021 334.56V342.035H180.91C182.312 342.035 183.219 341.16 183.219 339.947C183.219 339.02 182.629 338.355 181.901 338.176C182.523 337.965 182.987 337.343 182.987 336.573C182.987 335.414 182.165 334.56 180.71 334.56H178.021ZM179.455 337.649V335.783H180.478C181.184 335.783 181.553 336.141 181.553 336.71C181.553 337.28 181.153 337.649 180.488 337.649H179.455ZM179.455 340.823V338.851H180.657C181.384 338.851 181.764 339.262 181.764 339.853C181.764 340.454 181.342 340.823 180.636 340.823H179.455ZM192.797 342.035V334.56H190.814L188.621 339.958L186.375 334.56H184.456V342.035H185.848V336.837L187.999 342.035H189.212L191.363 336.795V342.035H192.797ZM195.982 342.035V334.56H194.506V342.035H195.982ZM203.192 335.941V334.56H197.002V335.941H199.364V342.035H200.83V335.941H203.192Z" fill="white"/>
<path d="M166.979 397.292L129.572 452.865L198.748 460.382L197.405 480.607H94.4927C88.5864 477.833 87.244 459.488 88.3179 454.745C96.9984 417.696 143.712 341.004 154.45 334.74C165.189 328.565 192.752 316.931 192.752 316.931H251.725L264.343 324.448C264.343 324.448 296.738 335.366 303.361 345.836C309.983 356.306 325.1 386.634 341.506 453.859C341.506 453.859 342.706 480.607 323.099 480.607C301.891 480.607 236.133 479.731 229.064 473.466L239.868 452.865C239.868 452.865 270.898 458.854 284.394 455.86C297.889 452.865 309.692 455.86 309.094 452.865C306.319 438.994 282.689 406.689 282.689 406.689L285.463 486.692L164.831 484.544" fill="#398EAE"/>
<path d="M131.72 488.129C139.685 488.129 146.217 487.055 146.217 485.623C146.217 484.281 139.774 483.118 131.72 483.118C123.756 483.118 117.223 484.192 117.223 485.623C117.312 486.966 123.756 488.129 131.72 488.129Z" fill="#FFF5E6"/>
<path d="M198.032 343.514C198.032 343.514 221.478 357.564 243.94 342.709C266.402 327.854 274.992 365.618 274.992 365.618L213.782 361.323H181.118L186.04 349.6L198.032 343.514Z" fill="#398EAE"/>
<path d="M187.83 281.946C187.83 281.946 182.282 279.351 182.192 285.347C182.103 291.342 190.515 297.786 190.515 297.786L189.083 283.288L187.83 281.946Z" fill="#FAB18F"/>
<path d="M258.616 281.588C258.616 281.588 264.164 278.993 264.254 284.988C264.343 290.984 255.931 297.427 255.931 297.427L257.363 282.93L258.616 281.588Z" fill="#FAB18F"/>
<path d="M191.23 317.115C191.23 317.115 195.705 318.099 198.748 308.614C201.343 300.56 248.325 307.003 248.325 307.003C248.772 311.209 250.472 315.146 253.246 318.368C259.421 325.348 239.644 343.335 231.68 348.884C219.867 357.027 217.988 352.374 208.86 346.736C200.895 341.814 192.036 320.963 191.23 317.115Z" fill="#E8A489"/>
<path d="M221.925 353.269C215.214 353.806 198.748 347.183 198.748 347.183L206.802 343.335C213.155 351.121 221.925 353.269 221.925 353.269Z" fill="#F0F3F7"/>
<path d="M192.483 317.115L198.926 314.967L198.121 311.209C198.121 311.209 192.125 312.462 192.125 314.072L192.483 316.578" fill="#35198E"/>
<path d="M190.425 317.294C190.425 317.294 188.725 341.009 202.148 358.817L207.16 343.425C207.16 343.425 194.631 327.048 192.036 314.073L190.425 317.294Z" fill="white"/>
<path d="M221.746 353.269C228.369 353.806 243.313 347.81 243.313 347.81L237.854 343.067C233.022 349.242 221.746 353.269 221.746 353.269Z" fill="#F0F3F7"/>
<path d="M252.173 317.115L245.729 314.967L246.535 311.209C246.535 311.209 252.531 312.462 252.531 314.072L252.173 316.578" fill="#35198E"/>
<path d="M255.036 317.921C255.036 317.921 255.931 341.009 242.597 358.817L237.586 343.425C237.586 343.425 250.114 327.048 252.71 314.073L255.036 317.921Z" fill="white"/>
<path d="M198.211 319.621C225.863 364.366 248.683 319.084 248.683 319.084C230.874 336.176 218.525 339.13 198.211 319.621Z" fill="#E28357"/>
<path d="M193.378 237.022C193.378 237.022 197.942 222.972 221.836 222.972C248.951 222.972 265.507 244.45 262.643 263.601C262.374 265.48 260.585 271.028 260.585 271.028L252.441 256.083L210.023 248.924L193.378 237.022Z" fill="#71310D"/>
<path d="M261.032 280.067C259.332 307.45 244.119 334.834 223.357 334.834C202.506 334.834 187.382 307.45 185.682 280.067C183.803 249.73 202.596 230.4 223.357 230.4C244.119 230.311 262.732 252.504 261.032 280.067Z" fill="#FAB18F"/>
<path d="M199.195 260.289C209.128 263.779 232.843 270.67 253.694 266.732C254.141 266.643 254.589 266.643 255.036 266.822C255.484 267.001 255.931 267.18 256.2 267.538C256.558 267.896 256.737 268.254 256.916 268.701C257.095 269.149 257.095 269.596 257.005 270.044C256.468 272.639 257.453 275.681 258.258 278.277C260.406 284.809 260.585 282.035 260.585 282.035C260.585 282.035 267.207 259.305 259.063 244.092C251.009 228.879 213.424 206.506 188.009 244.092C188.009 244.092 177.628 258.499 186.577 282.035C186.577 282.035 190.873 281.14 193.647 263.6C193.736 262.974 194.005 262.437 194.273 261.9C194.631 261.363 195.079 261.005 195.615 260.647C196.152 260.289 196.689 260.11 197.316 260.11C197.942 260.021 198.569 260.021 199.195 260.289Z" fill="#71310D"/>
<path d="M213.871 314.52C213.871 314.52 224.968 315.325 233.022 313.714C232.932 315.415 232.395 316.936 231.501 318.368C230.606 319.8 229.353 320.873 227.921 321.679C226.31 322.484 224.52 322.753 222.731 322.484C220.941 322.216 219.33 321.5 217.988 320.337C216.108 318.726 214.766 316.757 213.871 314.52Z" fill="#DB5D26"/>
<path d="M230.785 314.072C225.147 314.699 219.509 314.878 213.871 314.52C213.871 314.52 213.871 315.057 214.945 316.668C229.084 318.726 233.022 315.504 233.022 313.714L230.785 314.072Z" fill="white"/>
<path d="M194.005 237.022C194.005 237.022 187.383 237.47 184.519 241.765C181.745 246.15 174.765 253.936 186.488 282.214C186.488 282.214 188.188 251.162 199.732 241.497C211.366 231.832 194.005 237.022 194.005 237.022Z" fill="#71310D"/>
<path d="M212.082 287.762C211.992 287.405 211.813 287.047 211.545 286.689C211.276 286.331 211.008 286.062 210.65 285.883C210.292 285.704 209.934 285.525 209.486 285.436C208.681 285.257 207.876 285.436 207.249 285.883C206.623 286.331 206.086 286.957 205.996 287.762C205.907 288.12 205.996 288.568 206.086 288.926C206.175 289.284 206.354 289.642 206.623 290C206.891 290.358 207.16 290.626 207.518 290.805C207.876 290.984 208.234 291.163 208.681 291.253C209.486 291.432 210.292 291.253 210.918 290.895C211.545 290.447 212.082 289.821 212.171 289.015C212.171 288.568 212.171 288.12 212.082 287.762Z" fill="#724422"/>
<path d="M214.319 276.845C212.976 275.681 211.365 274.876 209.576 274.697C207.786 274.429 205.996 274.787 204.475 275.592C203.311 276.218 202.864 276.487 203.043 277.024C203.311 277.65 205.907 276.308 209.218 276.755C212.529 277.292 214.766 279.261 215.124 278.903C215.303 278.814 215.214 278.098 214.319 276.845Z" fill="#724422"/>
<path d="M237.318 287.762C237.407 287.405 237.586 287.047 237.854 286.689C238.123 286.331 238.391 286.062 238.749 285.883C239.107 285.704 239.465 285.525 239.913 285.436C240.718 285.257 241.524 285.436 242.15 285.883C242.776 286.331 243.313 286.957 243.403 287.762C243.492 288.12 243.403 288.568 243.313 288.926C243.224 289.284 243.045 289.642 242.776 290C242.508 290.358 242.239 290.626 241.881 290.805C241.523 290.984 241.166 291.163 240.718 291.253C239.913 291.432 239.107 291.253 238.481 290.895C237.854 290.447 237.318 289.821 237.228 289.015C237.228 288.568 237.228 288.12 237.318 287.762Z" fill="#724422"/>
<path d="M234.991 276.845C236.333 275.681 237.944 274.876 239.734 274.697C241.523 274.429 243.313 274.787 244.834 275.592C245.998 276.218 246.445 276.487 246.266 277.024C245.998 277.65 243.403 276.308 240.092 276.755C236.78 277.292 234.543 279.261 234.185 278.903C234.006 278.814 234.185 278.098 234.991 276.845Z" fill="#724422"/>
<path opacity="0.2" d="M202.238 309.688C206.686 309.688 210.292 306.162 210.292 301.813C210.292 297.463 206.686 293.938 202.238 293.938C197.79 293.938 194.184 297.463 194.184 301.813C194.184 306.162 197.79 309.688 202.238 309.688Z" fill="#B53908"/>
<path opacity="0.2" d="M246.624 309.688C251.072 309.688 254.678 306.162 254.678 301.813C254.678 297.463 251.072 293.938 246.624 293.938C242.176 293.938 238.57 297.463 238.57 301.813C238.57 306.162 242.176 309.688 246.624 309.688Z" fill="#B53908"/>
<path opacity="0.2" d="M220.762 305.929C222.82 306.376 224.878 308.345 224.878 308.345C224.878 308.345 226.758 306.376 228.547 305.929C225.236 305.75 222.641 305.929 220.762 305.929Z" fill="#B53908"/>
<path opacity="0.5" d="M282.778 406.157C282.778 406.157 276.335 388.885 275.171 380.474C274.008 372.062 274.903 397.297 276.872 401.235C278.84 405.173 270.786 394.076 270.071 390.049C269.623 387.812 274.992 404.546 275.529 415.016C275.887 423.07 271.413 425.218 270.786 425.666C269.623 426.471 283.046 432.914 283.046 432.914L282.778 406.157Z" fill="#3D1F99"/>
<path d="M223.268 311.925C223.268 311.925 218.793 308.345 215.751 309.866C212.708 311.388 208.86 314.967 206.533 314.341C204.117 313.714 208.055 316.757 210.739 315.862C213.424 314.967 214.408 311.835 217.451 311.567C220.941 311.298 223.268 311.925 223.268 311.925Z" fill="#71310D"/>
<path d="M224.162 311.925C224.162 311.925 228.637 308.345 231.68 309.866C234.722 311.388 238.57 314.967 240.897 314.341C243.224 313.714 239.376 316.757 236.691 315.862C234.006 314.967 233.022 311.835 229.979 311.567C226.489 311.298 224.162 311.925 224.162 311.925Z" fill="#71310D"/>
<path d="M231.948 328.212C231.68 328.122 231.411 328.033 231.053 328.033C230.516 328.122 229.442 328.122 228.369 327.854C227.384 327.585 226.758 327.138 226.4 326.78C226.131 326.511 225.684 326.333 225.236 326.333H221.746C221.209 326.333 220.762 326.601 220.404 326.959C220.136 327.317 219.599 327.854 218.883 328.122C218.077 328.48 217.182 328.301 216.556 328.122C216.019 328.033 215.572 328.122 215.124 328.391C214.587 328.838 214.408 329.465 214.587 330.091C215.572 333.581 218.883 344.409 223.357 344.409C227.921 344.409 231.948 334.208 233.291 330.36C233.559 329.554 233.201 328.659 232.396 328.301L231.948 328.212Z" fill="#71310D"/>
<path d="M371.462 479.985H75.9684C73.4627 479.985 71.4044 482.044 71.4044 484.549V490.277C71.4044 492.782 73.4627 494.841 75.9684 494.841H371.551C374.057 494.841 376.115 492.782 376.115 490.277V484.549C376.026 482.044 373.968 479.985 371.462 479.985Z" fill="#D29420"/>
<path opacity="0.35" d="M129.662 451.886C129.662 451.886 119.46 441.416 114.27 441.416C109.079 441.416 126.798 452.333 126.351 452.244C125.903 452.154 110.422 448.396 105.947 451.797C104.426 452.96 114.717 452.96 127.604 454.929C153.198 458.687 192.215 464.683 192.215 464.683L194.184 460.119L129.662 451.886Z" fill="#3D1F99"/>
<path opacity="0.35" d="M310.392 452.725C310.392 452.725 320.593 442.255 325.784 442.255C330.974 442.255 313.255 453.172 313.703 453.083C314.15 452.993 329.632 449.235 334.106 452.635C335.628 453.799 325.336 453.799 312.45 455.767C286.856 459.526 247.839 465.522 247.839 465.522L245.87 460.958L310.392 452.725Z" fill="#3D1F99"/>
<path d="M185.414 463.519C185.414 463.519 195.794 462.714 198.39 460.924C200.985 459.134 224.341 455.913 234.543 459.134C244.745 462.356 258.795 467.904 251.099 469.068C251.099 469.068 265.954 473.274 264.791 476.943C263.627 480.701 254.589 479.269 254.589 479.269C254.589 479.269 238.749 475.421 223.357 475.153C213.245 474.974 203.49 478.017 197.584 479.359C194.094 480.164 191.857 479.18 192.036 479.896C193.199 483.475 185.414 463.519 185.414 463.519Z" fill="#FAB18F"/>
<path d="M200.09 459.94C200.09 460.835 192.662 457.882 193.199 479.896H178.702C178.702 479.896 176.286 469.873 185.593 458.24L200.09 459.94Z" fill="white"/>
<path d="M301.877 473.466H144.35L139.436 386.8C139.338 385.716 140.419 384.633 141.795 384.633H304.334C305.71 384.633 306.693 385.618 306.693 386.8L301.877 473.466Z" fill="#C1C0BF"/>
<path d="M297.752 479.869H148.37C146.104 479.869 144.232 477.968 144.232 475.667V473.466H301.891V475.667C301.891 477.968 300.019 479.869 297.752 479.869Z" fill="#9C9B9A"/>
<path d="M144.232 473.466L305.892 391.836L300.961 472.878L144.232 473.466Z" fill="#BDBCBB"/>
<path d="M222.662 444.655C229.786 444.655 235.466 439.854 235.466 433.851C235.466 427.849 229.69 423.047 222.662 423.047C215.634 423.047 209.858 427.849 209.858 433.851C209.761 439.754 215.538 444.655 222.662 444.655Z" fill="#E0E0DE"/>
<path d="M305.892 387.034H141.031C141.031 386.129 142.014 385.433 143.293 385.433H303.728C304.909 385.503 305.892 386.199 305.892 387.034Z" fill="#EBE9E8"/>
<rect x="390.167" y="360.853" width="134.434" height="47.5079" rx="4" fill="black" fill-opacity="0.1"/>
<rect x="389.277" y="359.699" width="133.823" height="47.5079" rx="4" fill="white"/>
<path d="M438.316 384.295V380.407H440.588C441.948 380.407 442.78 381.175 442.78 382.375C442.78 383.543 441.948 384.295 440.588 384.295H438.316ZM440.876 385.703C442.972 385.703 444.38 384.279 444.38 382.359C444.38 380.455 442.972 378.999 440.876 378.999H436.748V390.343H438.316V385.703H440.876ZM447.863 388.951V380.391H450.215C452.311 380.391 454.039 381.831 454.039 384.695C454.039 387.543 452.279 388.951 450.183 388.951H447.863ZM450.231 390.343C453.111 390.343 455.655 388.407 455.655 384.695C455.655 380.967 453.143 378.999 450.263 378.999H446.295V390.343H450.231ZM459.378 390.343V385.575H464.21V384.103H459.378V380.455H464.706V378.999H457.81V390.343H459.378ZM477.519 390.343V388.887H472.191V385.415H477.023V383.943H472.191V380.455H477.519V378.999H470.623V390.343H477.519ZM480.343 386.471C480.343 384.887 481.239 383.767 482.615 383.767C483.991 383.767 484.823 384.855 484.823 386.439C484.823 388.023 483.975 389.223 482.599 389.223C481.159 389.223 480.343 388.055 480.343 386.471ZM484.839 389.303C484.839 389.767 484.887 390.167 484.919 390.343H486.375C486.359 390.215 486.295 389.655 486.295 388.919V378.759H484.807V383.735C484.551 383.111 483.815 382.439 482.455 382.439C480.279 382.439 478.807 384.295 478.807 386.471C478.807 388.759 480.199 390.551 482.455 390.551C483.655 390.551 484.471 389.911 484.839 389.175V389.303ZM490.341 390.343V382.647H488.853V390.343H490.341ZM488.517 379.735C488.517 380.327 488.997 380.807 489.589 380.807C490.197 380.807 490.677 380.327 490.677 379.735C490.677 379.127 490.197 378.647 489.589 378.647C488.997 378.647 488.517 379.127 488.517 379.735ZM494.916 380.215H493.54V381.463C493.54 382.135 493.188 382.647 492.356 382.647H491.94V384.007H493.412V388.231C493.412 389.623 494.244 390.423 495.556 390.423C496.068 390.423 496.452 390.327 496.58 390.279V388.999C496.452 389.031 496.18 389.063 495.988 389.063C495.204 389.063 494.916 388.711 494.916 388.007V384.007H496.58V382.647H494.916V380.215ZM501.806 389.239C500.526 389.239 499.406 388.279 499.406 386.487C499.406 384.711 500.526 383.751 501.806 383.751C503.086 383.751 504.206 384.711 504.206 386.487C504.206 388.279 503.086 389.239 501.806 389.239ZM501.806 382.407C499.502 382.407 497.87 384.151 497.87 386.487C497.87 388.839 499.502 390.583 501.806 390.583C504.11 390.583 505.742 388.839 505.742 386.487C505.742 384.151 504.11 382.407 501.806 382.407ZM511.938 382.567C511.858 382.551 511.65 382.519 511.442 382.519C510.658 382.519 509.698 382.807 509.138 383.991V382.647H507.666V390.343H509.17V386.487C509.17 384.791 510.018 384.119 511.282 384.119C511.49 384.119 511.714 384.135 511.938 384.167V382.567Z" fill="#18265B"/>
<path d="M402.775 365.861C401.562 365.861 400.569 366.851 400.569 368.06V398.847C400.569 400.056 401.562 401.046 402.775 401.046H424.83C426.043 401.046 427.035 400.056 427.035 398.847V374.657L418.213 365.861H402.775Z" fill="#E0E0E0"/>
<path d="M420.473 374.549H427.035L418.286 365.861V372.377C418.286 373.571 419.27 374.549 420.473 374.549Z" fill="#B0B0B0"/>
<path d="M422.66 394.312C422.66 394.91 422.164 395.399 421.558 395.399H397.297C396.691 395.399 396.194 394.91 396.194 394.312V383.454C396.194 382.856 396.691 382.367 397.297 382.367H421.558C422.164 382.367 422.66 382.856 422.66 383.454V394.312Z" fill="#FD567C"/>
<path d="M400.839 386.895C400.839 386.61 401.069 386.299 401.44 386.299H403.482C404.632 386.299 405.668 387.051 405.668 388.493C405.668 389.859 404.632 390.62 403.482 390.62H402.006V391.762C402.006 392.143 401.758 392.358 401.44 392.358C401.148 392.358 400.839 392.143 400.839 391.762V386.895ZM402.006 387.387V389.541H403.482C404.075 389.541 404.544 389.029 404.544 388.493C404.544 387.889 404.075 387.387 403.482 387.387H402.006Z" fill="white"/>
<path d="M407.399 392.358C407.107 392.358 406.789 392.202 406.789 391.822V386.912C406.789 386.602 407.107 386.376 407.399 386.376H409.424C413.465 386.376 413.377 392.358 409.504 392.358H407.399ZM407.957 387.431V391.304H409.424C411.812 391.304 411.918 387.431 409.424 387.431H407.957Z" fill="white"/>
<path d="M414.81 387.501V388.874H417.065C417.383 388.874 417.702 389.186 417.702 389.487C417.702 389.773 417.383 390.006 417.065 390.006H414.81V391.822C414.81 392.124 414.59 392.357 414.28 392.357C413.891 392.357 413.653 392.124 413.653 391.822V386.911C413.653 386.601 413.892 386.375 414.28 386.375H417.384C417.774 386.375 418.004 386.601 418.004 386.911C418.004 387.188 417.774 387.499 417.384 387.499H414.81V387.501Z" fill="white"/>
<path d="M421.556 395.616H400.569V396.702H421.556C422.163 396.702 422.66 396.213 422.66 395.616V394.53C422.66 395.127 422.163 395.616 421.556 395.616Z" fill="#B0B0B0"/>
<rect x="417.228" y="136.167" width="142.761" height="55.2489" rx="4" fill="black" fill-opacity="0.1"/>
<rect x="416.296" y="135.004" width="142.613" height="55.2489" rx="4" fill="white"/>
<path d="M446.697 141.317H426.339C424.486 141.317 422.983 142.819 422.983 144.672V181.156C422.983 183.009 424.486 184.512 426.339 184.512H446.697C448.55 184.512 450.053 183.009 450.053 181.156V144.672C450.053 142.819 448.55 141.317 446.697 141.317Z" fill="#F38632" stroke="#CDCDCD"/>
<path d="M431.206 141.317H441.83V142.574C441.83 143.417 441.147 144.099 440.304 144.099H432.732C431.889 144.099 431.206 143.417 431.206 142.574V141.317Z" fill="white" stroke="#CDCDCD"/>
<path d="M446.889 145.81H426.147V184.211H446.889V145.81Z" fill="white"/>
<path d="M435.947 149.773H427.594V152.718H435.947V149.773Z" fill="white" stroke="#CDCDCD" stroke-width="0.5"/>
<path d="M431.84 147.379H427.442V148.675H431.84V147.379Z" fill="#CDCDCD"/>
<path d="M435.83 155.872H440.228V154.576H435.83V155.872Z" fill="#CDCDCD"/>
<path d="M440.228 147.379H432.538V148.675H440.228V147.379Z" fill="#CDCDCD"/>
<path d="M427.442 155.872H435.132V154.576H427.442V155.872Z" fill="#CDCDCD"/>
<path d="M427.442 162.864H433.117V161.568H427.442V162.864Z" fill="#CDCDCD"/>
<path d="M445.441 156.765H427.594V159.71H445.441V156.765Z" fill="white" stroke="#CDCDCD" stroke-width="0.5"/>
<path d="M444.984 173.156H428.052C427.715 173.156 427.442 173.429 427.442 173.766V175.796C427.442 176.133 427.715 176.406 428.052 176.406H444.984C445.321 176.406 445.594 176.133 445.594 175.796V173.766C445.594 173.429 445.321 173.156 444.984 173.156Z" fill="#FFC14F"/>
<path opacity="0.5" d="M441.922 173.929H431.114V175.633H441.922V173.929Z" fill="white"/>
<path d="M445.441 163.757H427.594V171.248H445.441V163.757Z" fill="white" stroke="#CDCDCD" stroke-width="0.5"/>
<path d="M445.441 149.773H437.088V152.718H445.441V149.773Z" fill="white" stroke="#CDCDCD" stroke-width="0.5"/>
<path d="M467.515 168.216V156.872H465.419L461.387 166.104L457.387 156.872H455.259V168.216H456.811V159.384L460.651 168.216H462.091L465.963 159.384V168.216H467.515ZM473.536 167.112C472.256 167.112 471.136 166.152 471.136 164.36C471.136 162.584 472.256 161.624 473.536 161.624C474.816 161.624 475.936 162.584 475.936 164.36C475.936 166.152 474.816 167.112 473.536 167.112ZM473.536 160.28C471.232 160.28 469.6 162.024 469.6 164.36C469.6 166.712 471.232 168.456 473.536 168.456C475.84 168.456 477.472 166.712 477.472 164.36C477.472 162.024 475.84 160.28 473.536 160.28ZM480.884 168.216V167.096C481.364 167.928 482.244 168.424 483.38 168.424C485.668 168.424 486.964 166.616 486.964 164.328C486.964 162.088 485.764 160.296 483.428 160.296C482.148 160.296 481.252 160.92 480.884 161.608V156.632H479.396V168.216H480.884ZM485.428 164.328C485.428 165.992 484.532 167.08 483.156 167.08C481.828 167.08 480.868 165.992 480.868 164.328C480.868 162.664 481.828 161.624 483.156 161.624C484.548 161.624 485.428 162.664 485.428 164.328ZM490.368 168.216V160.52H488.88V168.216H490.368ZM488.544 157.608C488.544 158.2 489.024 158.68 489.616 158.68C490.224 158.68 490.704 158.2 490.704 157.608C490.704 157 490.224 156.52 489.616 156.52C489.024 156.52 488.544 157 488.544 157.608ZM494.431 168.216V156.632H492.927V168.216H494.431ZM497.966 163.576C498.03 162.584 498.798 161.608 500.062 161.608C501.422 161.608 502.142 162.472 502.174 163.576H497.966ZM502.398 165.576C502.11 166.44 501.486 167.128 500.238 167.128C498.942 167.128 497.95 166.168 497.918 164.792H503.71C503.726 164.696 503.742 164.504 503.742 164.312C503.742 161.912 502.414 160.28 500.046 160.28C498.11 160.28 496.366 161.928 496.366 164.344C496.366 166.952 498.174 168.456 500.238 168.456C502.03 168.456 503.262 167.384 503.694 166.024L502.398 165.576ZM511.39 168.216V163.448H516.222V161.976H511.39V158.328H516.718V156.872H509.822V168.216H511.39ZM521.208 167.112C519.928 167.112 518.808 166.152 518.808 164.36C518.808 162.584 519.928 161.624 521.208 161.624C522.488 161.624 523.608 162.584 523.608 164.36C523.608 166.152 522.488 167.112 521.208 167.112ZM521.208 160.28C518.904 160.28 517.272 162.024 517.272 164.36C517.272 166.712 518.904 168.456 521.208 168.456C523.512 168.456 525.144 166.712 525.144 164.36C525.144 162.024 523.512 160.28 521.208 160.28ZM531.34 160.44C531.26 160.424 531.052 160.392 530.844 160.392C530.06 160.392 529.1 160.68 528.54 161.864V160.52H527.068V168.216H528.572V164.36C528.572 162.664 529.42 161.992 530.684 161.992C530.892 161.992 531.116 162.008 531.34 162.04V160.44ZM534.431 168.216V163.576C534.431 162.424 535.151 161.624 536.223 161.624C537.375 161.624 537.855 162.392 537.855 163.384V168.216H539.359V163.56C539.359 162.456 540.079 161.624 541.135 161.624C542.271 161.624 542.767 162.376 542.767 163.384V168.216H544.255V163.224C544.255 161.208 542.943 160.296 541.599 160.296C540.623 160.296 539.631 160.648 539.023 161.752C538.607 160.76 537.679 160.296 536.719 160.296C535.823 160.296 534.863 160.696 534.383 161.544V160.52H532.943V168.216H534.431ZM545.942 166.216C546.07 167.096 546.966 168.456 549.078 168.456C550.982 168.456 551.894 167.16 551.894 166.072C551.894 164.936 551.158 164.088 549.766 163.784L548.518 163.512C547.926 163.384 547.638 163.048 547.638 162.584C547.638 162.056 548.15 161.56 548.918 161.56C550.134 161.56 550.454 162.44 550.518 162.84L551.846 162.344C551.686 161.656 551.03 160.28 548.918 160.28C547.414 160.28 546.182 161.4 546.182 162.712C546.182 163.8 546.902 164.616 548.102 164.872L549.414 165.16C550.054 165.304 550.406 165.672 550.406 166.152C550.406 166.696 549.942 167.176 549.094 167.176C548.006 167.176 547.398 166.536 547.302 165.736L545.942 166.216Z" fill="#18265B"/>
<rect x="377.115" y="63.791" width="153.097" height="47.5079" rx="4" fill="black" fill-opacity="0.1"/>
<rect x="376.115" y="62.791" width="152.938" height="47.5079" rx="4" fill="white"/>
<path d="M428.397 93.6335V88.5675H433.531V87.0035H428.397V83.1275H434.058V81.5805H426.731V93.6335H428.397ZM438.829 92.4605C437.469 92.4605 436.279 91.4405 436.279 89.5365C436.279 87.6495 437.469 86.6295 438.829 86.6295C440.189 86.6295 441.379 87.6495 441.379 89.5365C441.379 91.4405 440.189 92.4605 438.829 92.4605ZM438.829 85.2015C436.381 85.2015 434.647 87.0545 434.647 89.5365C434.647 92.0355 436.381 93.8885 438.829 93.8885C441.277 93.8885 443.011 92.0355 443.011 89.5365C443.011 87.0545 441.277 85.2015 438.829 85.2015ZM449.594 85.3715C449.509 85.3545 449.288 85.3205 449.067 85.3205C448.234 85.3205 447.214 85.6265 446.619 86.8845V85.4565H445.055V93.6335H446.653V89.5365C446.653 87.7345 447.554 87.0205 448.897 87.0205C449.118 87.0205 449.356 87.0375 449.594 87.0715V85.3715ZM452.879 93.6335V88.7035C452.879 87.4795 453.644 86.6295 454.783 86.6295C456.007 86.6295 456.517 87.4455 456.517 88.4995V93.6335H458.115V88.6865C458.115 87.5135 458.88 86.6295 460.002 86.6295C461.209 86.6295 461.736 87.4285 461.736 88.4995V93.6335H463.317V88.3295C463.317 86.1875 461.923 85.2185 460.495 85.2185C459.458 85.2185 458.404 85.5925 457.758 86.7655C457.316 85.7115 456.33 85.2185 455.31 85.2185C454.358 85.2185 453.338 85.6435 452.828 86.5445V85.4565H451.298V93.6335H452.879ZM470.294 81.5805V93.6335H474.51C476.72 93.6335 478.233 92.2565 478.233 90.3525C478.233 89.0095 477.434 87.7855 476.057 87.4455C477.111 87.0545 477.859 86.1365 477.859 84.8445C477.859 82.9405 476.516 81.5805 474.221 81.5805H470.294ZM471.96 86.8505V83.0425H473.966C475.343 83.0425 476.176 83.7905 476.176 84.9295C476.176 86.0515 475.377 86.8505 474.034 86.8505H471.96ZM471.96 92.1715V88.2785H474.34C475.802 88.2785 476.533 89.0945 476.533 90.2505C476.533 91.4235 475.615 92.1715 474.272 92.1715H471.96ZM485.407 92.6475C485.407 92.9875 485.441 93.4465 485.475 93.6335H487.005C486.971 93.3445 486.92 92.7665 486.92 92.1205V85.4565H485.322V90.3865C485.322 91.6275 484.676 92.4775 483.384 92.4775C482.041 92.4775 481.531 91.4915 481.531 90.3695V85.4565H479.933V90.6075C479.933 92.4605 481.089 93.8885 482.993 93.8885C483.945 93.8885 484.965 93.4975 485.407 92.6475ZM491.228 93.6335V85.4565H489.647V93.6335H491.228ZM489.29 82.3625C489.29 82.9915 489.8 83.5015 490.429 83.5015C491.075 83.5015 491.585 82.9915 491.585 82.3625C491.585 81.7165 491.075 81.2065 490.429 81.2065C489.8 81.2065 489.29 81.7165 489.29 82.3625ZM495.545 93.6335V81.3255H493.947V93.6335H495.545ZM499.215 89.5195C499.215 87.8365 500.167 86.6465 501.629 86.6465C503.091 86.6465 503.975 87.8025 503.975 89.4855C503.975 91.1685 503.074 92.4435 501.612 92.4435C500.082 92.4435 499.215 91.2025 499.215 89.5195ZM503.992 92.5285C503.992 93.0215 504.043 93.4465 504.077 93.6335H505.624C505.607 93.4975 505.539 92.9025 505.539 92.1205V81.3255H503.958V86.6125C503.686 85.9495 502.904 85.2355 501.459 85.2355C499.147 85.2355 497.583 87.2075 497.583 89.5195C497.583 91.9505 499.062 93.8545 501.459 93.8545C502.734 93.8545 503.601 93.1745 503.992 92.3925V92.5285ZM509.295 88.7035C509.363 87.6495 510.179 86.6125 511.522 86.6125C512.967 86.6125 513.732 87.5305 513.766 88.7035H509.295ZM514.004 90.8285C513.698 91.7465 513.035 92.4775 511.709 92.4775C510.332 92.4775 509.278 91.4575 509.244 89.9955H515.398C515.415 89.8935 515.432 89.6895 515.432 89.4855C515.432 86.9355 514.021 85.2015 511.505 85.2015C509.448 85.2015 507.595 86.9525 507.595 89.5195C507.595 92.2905 509.516 93.8885 511.709 93.8885C513.613 93.8885 514.922 92.7495 515.381 91.3045L514.004 90.8285ZM522.01 85.3715C521.925 85.3545 521.704 85.3205 521.483 85.3205C520.65 85.3205 519.63 85.6265 519.035 86.8845V85.4565H517.471V93.6335H519.069V89.5365C519.069 87.7345 519.97 87.0205 521.313 87.0205C521.534 87.0205 521.772 87.0375 522.01 87.0715V85.3715Z" fill="#18265B"/>
<g opacity="0.71">
<path d="M421.131 69.0125H380.723L380.659 107.158H421.067L421.131 69.0125Z" fill="#CECECE"/>
<path d="M420.685 68.8069H381.555V106.829H420.685V68.8069Z" fill="#FCFCFC"/>
<path d="M421.134 65.9319H380.372V69.0147H421.134V65.9319Z" fill="#EDECEC"/>
<path d="M421.134 69.0149H380.372V72.0977H421.134V69.0149Z" fill="#ED8A18"/>
<path d="M394.759 72.0977H380.372V106.523H394.759V72.0977Z" fill="#3F4651"/>
<rect x="400.603" y="70.002" width="5.10886" height="1.19538" fill="white"/>
<rect x="382.77" y="74.6667" width="9.59102" height="1.54142" fill="#7E8B9F"/>
<rect x="382.77" y="80.8323" width="9.59102" height="2.05523" fill="#7E8B9F"/>
<rect x="382.77" y="87.5117" width="9.59102" height="1.54142" fill="#7E8B9F"/>
<rect x="382.77" y="93.6775" width="9.59102" height="2.05523" fill="#7E8B9F"/>
<rect x="382.77" y="100.357" width="9.59102" height="1.54142" fill="#7E8B9F"/>
<rect x="406.777" y="70.002" width="5.10886" height="1.19538" fill="white"/>
<rect x="412.843" y="70.002" width="5.10886" height="1.19538" fill="white"/>
<path d="M397.167 75.4375H418.747V104.049H397.167V75.4375Z" fill="#47C405"/>
<path d="M416.912 77.532H399.049C398.789 77.532 398.579 77.7272 398.579 77.9679V102.462C398.579 102.703 398.789 102.898 399.049 102.898H416.912C417.172 102.898 417.382 102.703 417.382 102.462V77.9679C417.382 77.7272 417.172 77.532 416.912 77.532Z" fill="white"/>
<path d="M416.496 92.2876H399.513V95.6907H416.496V92.2876Z" fill="#F5F5F5"/>
<path d="M416.457 92.3303H399.555V95.6514H416.457V92.3303Z" stroke="#DBDBDB" stroke-width="0.988967"/>
<rect x="399.513" y="88.1313" width="3.86602" height="1.00433" fill="#CBCBCB"/>
<rect x="403.779" y="88.1296" width="6.03893" height="1.00433" fill="#CBCBCB"/>
<rect x="410.198" y="88.1296" width="2.84253" height="1.00433" fill="#CBCBCB"/>
<rect x="399.513" y="84.4104" width="5.74534" height="1.00433" fill="#CBCBCB"/>
<rect x="405.765" y="84.4099" width="3.99031" height="1.00433" fill="#CBCBCB"/>
<rect x="399.513" y="80.6897" width="7.97692" height="1.00433" fill="#CBCBCB"/>
<rect x="407.996" y="80.6895" width="5.03704" height="1.00433" fill="#CBCBCB"/>
<path d="M404.075 98.8008H412.332C412.494 98.8008 412.624 98.9278 412.624 99.0867V100.071C412.624 100.23 412.494 100.357 412.332 100.357H404.075C403.913 100.357 403.784 100.23 403.784 100.071V99.1184C403.751 98.9596 403.881 98.8008 404.075 98.8008Z" fill="#FFC14F"/>
<path opacity="0.5" d="M410.843 99.1824H405.565V100.008H410.843V99.1824Z" fill="white"/>
</g>
<rect x="375.058" y="215.412" width="134.434" height="47.5079" rx="4" fill="black" fill-opacity="0.1"/>
<rect x="374.168" y="214.259" width="133.823" height="47.5079" rx="4" fill="white"/>
<path d="M415.373 229.476H388.56V238.576H415.373V229.476Z" fill="#F2F3FB" stroke="#B7B7B7" stroke-width="0.73496"/>
<path d="M441.907 229.476H415.094V238.576H441.907V229.476Z" fill="#F2F3FB" stroke="#B7B7B7" stroke-width="0.73496"/>
<path d="M415.741 219.274H388.192V229.109H415.741V219.274Z" fill="#90D9AC"/>
<path d="M442.275 219.274H414.726V229.109H442.275V219.274Z" fill="#C6A9FE"/>
<path d="M415.373 238.533H388.56V247.633H415.373V238.533Z" fill="white" stroke="#B7B7B7" stroke-width="0.73496"/>
<path d="M441.907 238.533H415.094V247.633H441.907V238.533Z" fill="white" stroke="#B7B7B7" stroke-width="0.73496"/>
<path d="M415.373 247.652H388.56V256.752H415.373V247.652Z" fill="white" stroke="#B7B7B7" stroke-width="0.73496"/>
<path d="M441.907 247.652H415.094V256.752H441.907V247.652Z" fill="white" stroke="#B7B7B7" stroke-width="0.73496"/>
<path d="M408.793 232.624H395.14V235.417H408.793V232.624Z" fill="#C4C4C4"/>
<path opacity="0.5" d="M410.824 223.221H393.109V226.015H410.824V223.221Z" fill="white"/>
<path d="M437.358 232.624H419.643V235.417H437.358V232.624Z" fill="#C4C4C4"/>
<path opacity="0.5" d="M435.944 223.221H421.057V226.015H435.944V223.221Z" fill="white"/>
<path d="M388.567 229.476H379.958V238.576H388.567V229.476Z" fill="#F2F3FB" stroke="#B7B7B7" stroke-width="0.73496"/>
<path d="M388.567 238.496H379.958V247.596H388.567V238.496Z" fill="#F2F3FB" stroke="#B7B7B7" stroke-width="0.73496"/>
<path d="M388.567 247.517H379.958V256.616H388.567V247.517Z" fill="#F2F3FB" stroke="#B7B7B7" stroke-width="0.73496"/>
<path d="M385.782 232.507H382.743V235.546H385.782V232.507Z" fill="white" stroke="#B7B7B7" stroke-width="0.7"/>
<path d="M384.479 241.367L384.263 240.996L384.047 241.367L383.588 242.154L382.698 242.347L382.278 242.438L382.564 242.758L383.171 243.438L383.079 244.344L383.036 244.771L383.429 244.598L384.263 244.231L385.097 244.598L385.489 244.771L385.446 244.344L385.354 243.438L385.962 242.758L386.248 242.438L385.828 242.347L384.937 242.154L384.479 241.367Z" fill="white" stroke="#B7B7B7" stroke-width="0.5"/>
<path d="M384.479 250.33L384.263 249.959L384.047 250.33L383.588 251.118L382.698 251.31L382.278 251.401L382.564 251.721L383.171 252.401L383.079 253.307L383.036 253.734L383.429 253.561L384.263 253.194L385.097 253.561L385.489 253.734L385.446 253.307L385.354 252.401L385.962 251.721L386.248 251.401L385.828 251.31L384.937 251.118L384.479 250.33Z" fill="white" stroke="#B7B7B7" stroke-width="0.5"/>
<path d="M459.905 235.015V233.559H450.753V235.015H454.545V244.903H456.113V235.015H459.905ZM459.503 242.839C459.503 244.055 460.511 245.143 462.079 245.143C463.455 245.143 464.223 244.407 464.559 243.863C464.559 244.423 464.607 244.711 464.639 244.903H466.111C466.079 244.711 466.015 244.311 466.015 243.639V239.783C466.015 238.279 465.119 236.967 462.815 236.967C461.151 236.967 459.823 237.991 459.663 239.463L461.103 239.799C461.199 238.903 461.791 238.247 462.847 238.247C464.015 238.247 464.511 238.871 464.511 239.623C464.511 239.895 464.383 240.135 463.919 240.199L461.839 240.503C460.511 240.695 459.503 241.463 459.503 242.839ZM462.287 243.879C461.519 243.879 461.039 243.335 461.039 242.759C461.039 242.071 461.519 241.703 462.159 241.607L464.511 241.255V241.607C464.511 243.287 463.519 243.879 462.287 243.879ZM469.846 244.903V243.783C470.326 244.615 471.206 245.111 472.342 245.111C474.63 245.111 475.926 243.303 475.926 241.015C475.926 238.775 474.726 236.983 472.39 236.983C471.11 236.983 470.214 237.607 469.846 238.295V233.319H468.358V244.903H469.846ZM474.39 241.015C474.39 242.679 473.494 243.767 472.118 243.767C470.79 243.767 469.83 242.679 469.83 241.015C469.83 239.351 470.79 238.311 472.118 238.311C473.51 238.311 474.39 239.351 474.39 241.015ZM479.346 244.903V233.319H477.842V244.903H479.346ZM482.881 240.263C482.945 239.271 483.713 238.295 484.977 238.295C486.337 238.295 487.057 239.159 487.089 240.263H482.881ZM487.313 242.263C487.025 243.127 486.401 243.815 485.153 243.815C483.857 243.815 482.865 242.855 482.833 241.479H488.625C488.641 241.383 488.657 241.191 488.657 240.999C488.657 238.599 487.329 236.967 484.961 236.967C483.025 236.967 481.281 238.615 481.281 241.031C481.281 243.639 483.089 245.143 485.153 245.143C486.945 245.143 488.177 244.071 488.609 242.711L487.313 242.263ZM489.856 242.903C489.984 243.783 490.88 245.143 492.992 245.143C494.896 245.143 495.808 243.847 495.808 242.759C495.808 241.623 495.072 240.775 493.68 240.471L492.432 240.199C491.84 240.071 491.552 239.735 491.552 239.271C491.552 238.743 492.064 238.247 492.832 238.247C494.048 238.247 494.368 239.127 494.432 239.527L495.76 239.031C495.6 238.343 494.944 236.967 492.832 236.967C491.328 236.967 490.096 238.087 490.096 239.399C490.096 240.487 490.816 241.303 492.016 241.559L493.328 241.847C493.968 241.991 494.32 242.359 494.32 242.839C494.32 243.383 493.856 243.863 493.008 243.863C491.92 243.863 491.312 243.223 491.216 242.423L489.856 242.903Z" fill="#18265B"/>
</svg>
