<svg width="557" height="471" viewBox="0 0 657 571" fill="none" xmlns="http://www.w3.org/2000/svg">
<path d="M652.229 325.018C644.821 349.173 631.856 441.214 503.137 485.919C374.417 530.625 285.888 389.885 160.595 376.541C35.394 363.198 -2.29581 353.848 1.03794 280.702C4.37168 207.556 97.2535 102.463 223.751 43.8297C372.287 -24.9333 491.006 -4.47971 563.607 55.6149C665.101 139.767 662.138 292.974 652.229 325.018Z" fill="#DAE6FF"/>
<path d="M446.28 431.878C446.28 431.878 424.121 506.426 384.965 519.661L446.28 431.878Z" fill="#C6D6F9"/>
<path d="M443.483 482.675C443.483 482.675 432.943 448.665 445.152 425.353L443.483 482.675Z" fill="#C6D6F9"/>
<path d="M442.542 488.192C448.711 488.155 447.284 477.913 442.142 478.017C436.979 478.202 436.969 488.282 442.542 488.192Z" fill="#C6D6F9"/>
<path d="M432.527 484.638C438.696 484.6 437.269 474.359 432.126 474.462C426.984 474.565 426.973 484.645 432.527 484.638Z" fill="#C6D6F9"/>
<path d="M439.574 461.512C438.951 462.322 432.937 465.786 432.257 477.621L439.574 461.512Z" fill="#C6D6F9"/>
<path d="M447.891 471.971C441.777 472.89 441.661 462.607 446.774 461.889C451.785 461.234 453.371 471.164 447.891 471.971Z" fill="#C6D6F9"/>
<path d="M439.302 450.41C440.01 451.097 444.614 453.301 447.088 465.004L439.302 450.41Z" fill="#C6D6F9"/>
<path d="M422.387 444.019C426.159 438.188 436.334 433.683 436.934 433.359C436.25 433.681 425.566 438.174 418.592 435.821C411.366 433.377 399.109 424.99 399.109 424.99C399.109 424.99 414.744 418.664 423.88 418.953C432.594 419.233 439.895 425.904 440.474 426.508C439.81 425.902 432.105 418.377 428.839 409.261C425.327 399.717 427.227 382.942 427.227 382.942C427.227 382.942 443.353 388.712 449.648 406.262C451.879 412.482 451.599 421.18 451.975 423.301C455.196 400.471 481.963 392.282 481.963 392.282C481.963 392.282 484.409 403.999 479.386 412.844C474.446 421.692 456.939 428.483 456.939 428.483C456.939 428.483 469.72 424.797 478.278 428.285C486.666 431.769 495.076 438.042 495.076 438.042C495.076 438.042 481.182 446.013 469.104 444.728C461.588 443.883 457.168 440.911 454.846 438.746C457.399 441.93 461.757 447.69 463.071 453.297C465.004 461.453 463.775 474.778 463.775 474.778C463.775 474.778 447.706 462.671 444.836 454.748C441.966 446.824 444.333 439.44 444.333 439.44C444.333 439.44 439.688 454.041 431.676 460.199C423.665 466.358 417.136 466.803 417.136 466.803C417.136 466.803 418.443 450.015 422.387 444.019Z" fill="#C6D6F9"/>
<path d="M446.65 422.928C434.075 424.928 438.385 440.405 448.377 440.291C460.654 440.228 459.224 420.928 446.65 422.928Z" fill="#C6D6F9"/>
<path d="M450.705 427.075C446.277 424.441 442.064 431.107 445.533 434.988C449.004 438.784 457.139 430.853 450.705 427.075Z" fill="#C6D6F9"/>
<path d="M187.587 327.06C185.526 323.311 181.78 319.75 177.658 317.5C177.471 311.69 174.661 305.879 170.352 301.38C172.6 298.569 173.537 294.82 173.162 291.258C172.975 288.634 171.289 285.448 168.853 282.824C169.603 282.449 170.165 282.074 170.727 281.699C170.914 281.511 171.101 281.324 171.289 281.324C171.663 280.949 172.038 280.762 172.413 280.387C172.6 280.199 172.787 280.012 172.975 279.824C173.349 279.45 173.724 279.262 173.911 278.887C174.099 278.7 174.286 278.512 174.473 278.137C174.848 277.763 175.035 277.388 175.41 277.013C175.597 276.825 175.785 276.45 175.972 276.263C176.159 275.888 176.534 275.513 176.721 275.138C176.909 274.951 177.096 274.576 177.283 274.389C177.471 274.014 177.845 273.451 178.033 273.077C178.22 272.889 178.22 272.514 178.407 272.327C178.782 271.764 178.969 271.015 179.344 270.452C179.344 270.452 179.344 270.265 179.531 270.265C179.906 269.515 180.093 268.765 180.281 268.016C180.281 267.828 180.468 267.453 180.468 267.266C180.656 266.704 180.843 266.329 180.843 265.766C180.843 265.391 181.03 265.204 181.03 264.829C181.218 264.454 181.217 263.892 181.405 263.517C181.405 263.142 181.592 262.767 181.592 262.58C181.592 262.205 181.779 261.643 181.779 261.268C181.779 260.893 181.78 260.518 181.967 260.143C181.967 259.768 181.967 259.206 182.154 258.831C182.154 258.456 182.154 258.081 182.154 257.894C182.154 257.331 182.154 256.957 182.154 256.582C182.154 256.207 182.154 256.019 182.154 255.644C182.154 255.082 182.154 254.52 182.154 253.957C182.154 253.77 182.154 253.583 182.154 253.395C182.154 251.896 181.967 250.396 181.779 248.897C180.655 242.149 177.658 235.588 172.038 231.464C170.727 230.527 169.228 229.777 167.917 229.215C181.405 213.845 167.355 190.415 149.933 180.293C150.869 175.982 151.057 171.483 150.495 168.109C149.183 160.611 143.563 153.676 136.632 151.802C132.698 132.308 106.284 116.938 88.1122 119.749C71.8141 122.373 59.8247 135.682 56.64 150.677C53.0807 151.052 49.7086 152.926 46.5239 155.363C45.7746 155.925 45.0253 156.675 44.2759 157.238C44.0886 157.425 43.9013 157.612 43.7139 157.8C43.1519 158.362 42.5899 158.924 42.0279 159.674C41.8406 159.862 41.8406 159.862 41.6532 160.049C41.0912 160.799 40.3419 161.549 39.7799 162.486C39.7799 162.673 39.5926 162.673 39.5926 162.861C39.0306 163.611 38.6559 164.36 38.2812 164.923C38.0939 165.11 38.0939 165.298 37.9066 165.672C37.5319 166.422 37.1572 167.172 36.7825 167.922C36.7825 168.109 36.5952 168.109 36.5952 168.297C36.2205 169.234 35.8459 169.984 35.4712 170.921C35.2839 170.921 35.2839 171.108 35.2839 171.296C35.0965 171.858 34.7219 172.608 34.5345 173.17C34.5345 173.358 34.3472 173.732 34.3472 173.92C34.1599 174.67 33.9725 175.607 33.7852 176.357C32.2865 183.292 33.0359 191.164 35.6585 198.287C26.1045 204.66 19.9224 215.719 18.7984 228.091C18.2364 236.338 18.9858 247.21 25.5425 253.02C20.8591 262.017 21.7958 273.264 27.6031 282.261C29.6638 285.448 32.4738 287.884 35.6585 289.571C35.4712 289.571 35.4712 289.759 35.2839 289.759C29.4765 293.508 25.5425 300.068 24.4185 306.816C23.4818 312.064 24.2311 317.688 26.8538 322.374C24.6058 324.248 23.1071 326.685 22.5451 329.871C22.5451 330.246 22.3578 330.809 22.3578 331.184C22.3578 331.746 22.3578 332.308 22.3578 332.87C22.3578 333.995 22.5451 334.932 22.9198 336.057C23.1071 336.619 23.2945 336.994 23.4818 337.557C23.1071 337.931 22.7325 338.494 22.3578 339.056C20.2971 341.68 19.1731 344.867 18.7984 348.241C18.7984 348.803 18.6111 349.365 18.6111 349.928C18.4238 352.177 18.6111 354.426 18.9858 356.676C19.5478 359.487 20.2971 362.299 21.4211 364.736C24.6058 372.046 31.1625 378.231 39.2179 379.169C39.4052 379.731 39.5926 380.481 39.9672 381.043C40.5292 382.355 41.0912 383.667 41.6532 384.792C43.1519 387.791 45.3999 390.415 48.772 391.54C52.144 392.664 55.516 392.102 58.7007 390.228C63.9461 397.538 71.4394 402.036 80.8062 399.975C81.7428 402.599 82.6795 405.223 83.4289 408.035C84.5529 411.971 85.3022 415.907 85.8642 420.031C86.4262 423.967 86.9882 428.091 87.3629 432.027C85.3022 456.02 82.3048 479.825 77.4341 503.255C77.4341 503.443 77.4341 503.817 77.4341 504.005C77.4341 504.755 77.6215 505.504 78.1835 506.067C78.3708 506.254 78.5582 506.442 78.7455 506.629C79.3075 507.191 80.0568 507.379 80.8062 507.379C80.9935 507.379 81.1808 507.379 81.5555 507.379C95.2309 507.566 108.906 507.566 122.582 507.754C124.455 507.754 126.703 505.504 125.766 503.63C122.582 495.945 119.959 488.072 117.711 480.2C116.212 470.265 115.276 460.143 114.526 450.022C114.152 445.336 113.777 440.649 113.59 435.963C113.964 432.027 114.526 428.091 115.088 424.155C115.463 421.53 116.025 418.906 116.587 416.47C116.774 415.72 116.962 415.157 116.962 414.408C122.207 417.032 128.389 417.969 133.822 415.157C137.194 413.47 139.629 410.659 141.315 407.66C143.001 408.222 144.875 408.597 146.748 408.597C148.059 408.597 149.183 408.597 150.495 408.41C152.368 408.035 154.241 407.472 155.927 406.535C161.36 403.723 165.107 398.1 167.355 391.727C168.666 387.791 169.415 383.667 169.603 379.731C169.977 379.543 170.352 379.356 170.727 379.169C171.101 378.981 171.476 378.794 171.851 378.419C172.6 377.857 173.349 377.294 174.099 376.732C175.41 375.42 176.721 373.92 177.658 372.233C178.22 371.296 178.782 370.171 178.969 369.234C179.157 368.297 179.531 367.172 179.531 366.048C179.531 365.485 179.531 364.923 179.531 364.361C179.344 362.674 178.782 361.174 177.845 359.675L177.658 359.487C178.22 359.112 178.595 358.55 179.157 357.988C179.344 357.8 179.344 357.8 179.531 357.613C179.906 357.238 180.281 356.676 180.843 356.301L181.03 356.113C181.405 355.551 181.967 355.176 182.342 354.614C182.529 354.426 182.716 354.239 182.716 354.051C183.091 353.676 183.278 353.302 183.653 352.927C183.84 352.739 183.84 352.552 184.028 352.364C184.402 351.802 184.777 351.427 185.152 350.865C185.339 350.677 185.526 350.303 185.714 350.115C185.901 349.74 186.088 349.553 186.276 349.178C186.463 348.803 186.65 348.428 186.838 348.053C187.025 347.678 187.212 347.303 187.587 346.741C187.774 346.366 187.962 346.179 187.962 345.804C188.149 345.617 188.149 345.242 188.336 345.054C188.524 344.492 188.711 344.117 188.898 343.555C189.086 343.18 189.086 342.992 189.273 342.617C189.46 342.243 189.46 341.868 189.648 341.493C189.648 341.305 189.835 340.93 189.835 340.743C189.835 340.368 190.022 339.993 190.022 339.618C190.022 339.056 190.21 338.681 190.21 338.119C190.397 334.745 189.835 330.809 187.587 327.06Z" fill="#EBF2FF"/>
<path d="M207.33 362.074C205.656 359.028 202.612 356.135 199.263 354.307C199.111 349.587 196.828 344.866 193.328 341.211C195.154 338.927 195.915 335.881 195.611 332.988C195.458 330.856 194.089 328.267 192.11 326.135C192.719 325.83 193.175 325.526 193.632 325.221C193.784 325.069 193.936 324.916 194.089 324.916C194.393 324.612 194.697 324.46 195.002 324.155C195.154 324.003 195.306 323.85 195.458 323.698C195.763 323.394 196.067 323.241 196.219 322.937C196.372 322.784 196.524 322.632 196.676 322.328C196.98 322.023 197.133 321.718 197.437 321.414C197.589 321.262 197.741 320.957 197.894 320.805C198.046 320.5 198.35 320.196 198.502 319.891C198.655 319.739 198.807 319.434 198.959 319.282C199.111 318.977 199.416 318.52 199.568 318.216C199.72 318.064 199.72 317.759 199.872 317.607C200.177 317.15 200.329 316.541 200.633 316.084C200.633 316.084 200.633 315.932 200.785 315.932C201.09 315.322 201.242 314.713 201.394 314.104C201.394 313.952 201.546 313.647 201.546 313.495C201.699 313.038 201.851 312.734 201.851 312.277C201.851 311.972 202.003 311.82 202.003 311.515C202.155 311.211 202.155 310.754 202.307 310.449C202.307 310.145 202.46 309.84 202.46 309.688C202.46 309.383 202.612 308.927 202.612 308.622C202.612 308.317 202.612 308.013 202.764 307.708C202.764 307.404 202.764 306.947 202.916 306.642C202.916 306.338 202.916 306.033 202.916 305.881C202.916 305.424 202.916 305.119 202.916 304.815C202.916 304.51 202.916 304.358 202.916 304.053C202.916 303.597 202.916 303.14 202.916 302.683C202.916 302.531 202.916 302.378 202.916 302.226C202.916 301.008 202.764 299.789 202.612 298.571C201.699 293.089 199.263 287.759 194.697 284.409C193.632 283.647 192.414 283.038 191.349 282.581C202.307 270.094 190.892 251.058 176.738 242.835C177.499 239.332 177.651 235.678 177.195 232.936C176.129 226.845 171.563 221.21 165.932 219.688C162.736 203.85 141.276 191.363 126.513 193.647C113.272 195.779 103.531 206.591 100.944 218.774C98.0519 219.078 95.3123 220.601 92.725 222.581C92.1162 223.038 91.5074 223.647 90.8986 224.104C90.7464 224.256 90.5942 224.408 90.442 224.561C89.9854 225.018 89.5288 225.474 89.0722 226.084C88.92 226.236 88.92 226.236 88.7678 226.388C88.3112 226.997 87.7024 227.606 87.2458 228.368C87.2458 228.52 87.0936 228.52 87.0936 228.672C86.6371 229.282 86.3327 229.891 86.0283 230.348C85.8761 230.5 85.8761 230.652 85.7239 230.957C85.4195 231.566 85.1151 232.175 84.8107 232.784C84.8107 232.936 84.6585 232.936 84.6585 233.089C84.3541 233.85 84.0497 234.459 83.7453 235.221C83.5931 235.221 83.5931 235.373 83.5931 235.525C83.4409 235.982 83.1365 236.591 82.9843 237.048C82.9843 237.2 82.8321 237.505 82.8321 237.657C82.6799 238.266 82.5277 239.028 82.3755 239.637C81.1579 245.271 81.7667 251.667 83.8975 257.454C76.1354 262.632 71.1129 271.617 70.1997 281.668C69.7431 288.368 70.3519 297.201 75.6788 301.921C71.8739 309.231 72.6349 318.368 77.353 325.678C79.0272 328.267 81.3101 330.246 83.8975 331.617C83.7453 331.617 83.7453 331.769 83.5931 331.769C78.875 334.815 75.6788 340.145 74.7656 345.627C74.0046 349.891 74.6134 354.46 76.7442 358.267C74.9178 359.79 73.7002 361.769 73.2437 364.358C73.2437 364.663 73.0915 365.12 73.0915 365.424C73.0915 365.881 73.0915 366.338 73.0915 366.795C73.0915 367.708 73.2437 368.47 73.548 369.384C73.7002 369.84 73.8524 370.145 74.0046 370.602C73.7002 370.906 73.3959 371.363 73.0915 371.82C71.4173 373.952 70.5041 376.541 70.1997 379.282C70.1997 379.739 70.0475 380.196 70.0475 380.653C69.8953 382.48 70.0475 384.307 70.3519 386.135C70.8085 388.419 71.4173 390.703 72.3305 392.683C74.9178 398.622 80.2447 403.648 86.7892 404.409C86.9414 404.866 87.0936 405.475 87.398 405.932C87.8546 406.998 88.3112 408.064 88.7678 408.978C89.9854 411.414 91.8118 413.546 94.5513 414.46C97.2909 415.374 100.03 414.917 102.618 413.394C106.879 419.333 112.967 422.988 120.577 421.313C121.338 423.445 122.099 425.577 122.708 427.861C123.621 431.059 124.23 434.257 124.686 437.607C125.143 440.805 125.6 444.155 125.904 447.353C124.23 466.846 121.795 486.186 117.838 505.222C117.838 505.374 117.838 505.678 117.838 505.831C117.838 506.44 117.99 507.049 118.446 507.506C118.599 507.658 118.751 507.81 118.903 507.963C119.36 508.42 119.968 508.572 120.577 508.572C120.729 508.572 120.882 508.572 121.186 508.572C132.296 508.724 143.407 508.724 154.517 508.876C156.039 508.876 157.866 507.049 157.105 505.526C154.517 499.283 152.386 492.887 150.56 486.491C149.343 478.419 148.582 470.196 147.973 461.973C147.668 458.166 147.364 454.358 147.212 450.551C147.516 447.353 147.973 444.155 148.429 440.957C148.734 438.825 149.19 436.693 149.647 434.714C149.799 434.105 149.951 433.648 149.951 433.039C154.213 435.171 159.235 435.932 163.649 433.648C166.389 432.277 168.367 429.993 169.737 427.556C171.107 428.013 172.629 428.318 174.151 428.318C175.216 428.318 176.129 428.318 177.195 428.166C178.717 427.861 180.239 427.404 181.608 426.643C186.022 424.358 189.066 419.79 190.892 414.612C191.958 411.414 192.567 408.064 192.719 404.866C193.023 404.714 193.328 404.561 193.632 404.409C193.936 404.257 194.241 404.105 194.545 403.8C195.154 403.343 195.763 402.886 196.372 402.429C197.437 401.363 198.502 400.145 199.263 398.775C199.72 398.013 200.177 397.099 200.329 396.338C200.481 395.577 200.785 394.663 200.785 393.749C200.785 393.292 200.785 392.835 200.785 392.379C200.633 391.008 200.177 389.79 199.416 388.571L199.263 388.419C199.72 388.115 200.024 387.658 200.481 387.201C200.633 387.049 200.633 387.049 200.785 386.896C201.09 386.592 201.394 386.135 201.851 385.83L202.003 385.678C202.307 385.221 202.764 384.917 203.068 384.46C203.22 384.307 203.373 384.155 203.373 384.003C203.677 383.698 203.829 383.394 204.134 383.089C204.286 382.937 204.286 382.785 204.438 382.632C204.742 382.176 205.047 381.871 205.351 381.414C205.503 381.262 205.656 380.957 205.808 380.805C205.96 380.5 206.112 380.348 206.264 380.044C206.417 379.739 206.569 379.434 206.721 379.13C206.873 378.825 207.025 378.521 207.33 378.064C207.482 377.759 207.634 377.607 207.634 377.302C207.786 377.15 207.786 376.846 207.939 376.693C208.091 376.236 208.243 375.932 208.395 375.475C208.547 375.17 208.547 375.018 208.7 374.714C208.852 374.409 208.852 374.104 209.004 373.8C209.004 373.648 209.156 373.343 209.156 373.191C209.156 372.886 209.308 372.582 209.308 372.277C209.308 371.82 209.461 371.516 209.461 371.059C209.613 368.318 209.156 365.12 207.33 362.074Z" fill="#F3F7FF"/>
<path d="M493.625 47.3157C483.877 123.044 403.022 185.843 403.022 185.843" stroke="#D7761C" stroke-miterlimit="10" stroke-dasharray="11 11"/>
<g filter="url(#filter0_d)">
<path d="M487.915 121.613C514.884 121.613 536.747 99.7501 536.747 72.7809C536.747 45.8118 514.884 23.949 487.915 23.949C460.946 23.949 439.083 45.8118 439.083 72.7809C439.083 99.7501 460.946 121.613 487.915 121.613Z" fill="url(#paint0_linear)"/>
<path d="M482.418 92.6505C482.188 95.9983 484.711 98.9997 488.037 99.2306C491.363 99.4615 494.345 96.9218 494.575 93.574L488.037 86.994C484.941 87.1095 482.532 89.5337 482.418 92.6505Z" fill="#B5B9DB"/>
<path d="M502.144 83.8769L508.222 77.2968C503.176 71.7557 495.951 68.5234 488.496 68.5234C485.858 68.5234 483.335 68.8698 480.812 69.6778L488.496 77.7586C493.657 77.7586 498.589 79.9519 502.144 83.8769Z" fill="#B5B9DB"/>
<path d="M475.996 73.141C473.931 74.4108 471.982 75.9115 470.147 77.6431L476.225 83.8768C477.945 82.1453 480.01 80.6445 482.304 79.721L475.996 73.141Z" fill="#B5B9DB"/>
<path d="M514.531 71.6404L520.38 65.4067C512.237 56.6333 500.883 51.7849 489.07 51.6694C481.959 51.6694 474.963 53.5165 468.656 56.8642L474.963 63.4443C479.436 61.4818 484.138 60.4428 488.955 60.4428C498.704 60.4428 507.879 64.4832 514.531 71.6404Z" fill="#B5B9DB"/>
<path d="M463.953 60.9047C461.889 62.2899 459.825 63.9061 457.99 65.6377L464.183 71.5251C466.018 69.7935 468.082 68.1773 470.147 66.7921L463.953 60.9047Z" fill="#B5B9DB"/>
<path d="M508.337 100.731L459.595 50.1687L462.577 47.1672L511.319 97.7296L508.337 100.731Z" fill="#B5B9DB"/>
</g>
<g style="mix-blend-mode:multiply">
<path d="M427.225 172.148H423.603V84.4149C423.56 76.1006 420.269 68.1441 414.453 62.2956C408.636 56.4471 400.772 53.1858 392.589 53.2291H180.111C171.928 53.1858 164.064 56.4471 158.248 62.2956C152.432 68.1441 149.14 76.1006 149.098 84.4149V129.17H145.252C144.677 129.168 144.125 129.397 143.717 129.807C143.309 130.218 143.078 130.776 143.075 131.36V149.835C143.076 150.124 143.133 150.41 143.244 150.676C143.354 150.943 143.515 151.184 143.717 151.388C143.919 151.591 144.159 151.752 144.422 151.861C144.685 151.97 144.967 152.026 145.252 152.024H149.098V172.142H145.301C145.01 172.14 144.722 172.197 144.452 172.309C144.183 172.42 143.938 172.585 143.731 172.793C143.524 173.001 143.359 173.248 143.247 173.521C143.134 173.793 143.075 174.086 143.073 174.382V211.298C143.075 211.593 143.134 211.886 143.247 212.158C143.359 212.431 143.524 212.678 143.731 212.886C143.938 213.094 144.183 213.259 144.452 213.37C144.722 213.482 145.01 213.539 145.301 213.537H149.098V224.714H145.301C145.01 224.713 144.722 224.769 144.452 224.881C144.183 224.993 143.938 225.157 143.731 225.365C143.524 225.573 143.359 225.82 143.247 226.093C143.134 226.366 143.075 226.658 143.073 226.954V263.864C143.075 264.159 143.134 264.452 143.247 264.725C143.359 264.997 143.524 265.244 143.731 265.452C143.938 265.66 144.183 265.825 144.452 265.937C144.722 266.048 145.01 266.105 145.301 266.103H149.098V538.945C149.14 547.259 152.432 555.216 158.248 561.064C164.064 566.913 171.928 570.174 180.111 570.131H392.589C400.772 570.174 408.636 566.913 414.453 561.064C420.269 555.216 423.56 547.259 423.603 538.945V224.715H427.225C427.813 224.718 428.377 224.484 428.795 224.064C429.212 223.644 429.449 223.073 429.452 222.476V174.389C429.45 174.093 429.392 173.8 429.279 173.528C429.166 173.255 429.002 173.008 428.795 172.8C428.588 172.592 428.343 172.427 428.074 172.315C427.804 172.203 427.516 172.146 427.225 172.148Z" fill="#C5DBFF"/>
</g>
<path d="M425.333 173.989H421.764V86.663C421.764 78.4304 418.546 70.5349 412.817 64.7136C407.088 58.8922 399.317 55.6218 391.215 55.6218H181.912C173.809 55.6218 166.039 58.8922 160.31 64.7136C154.581 70.5349 151.362 78.4304 151.362 86.663V131.212H147.573C147.004 131.212 146.458 131.442 146.056 131.851C145.654 132.259 145.428 132.814 145.428 133.392V151.785C145.428 152.071 145.483 152.355 145.591 152.619C145.699 152.884 145.857 153.124 146.056 153.326C146.255 153.529 146.491 153.689 146.752 153.799C147.012 153.908 147.291 153.965 147.573 153.965H151.362V173.989H147.622C147.334 173.989 147.048 174.047 146.782 174.159C146.515 174.271 146.273 174.435 146.07 174.642C145.866 174.849 145.704 175.095 145.594 175.366C145.484 175.636 145.427 175.927 145.427 176.219V212.96C145.427 213.252 145.484 213.542 145.594 213.813C145.705 214.083 145.866 214.329 146.07 214.536C146.274 214.743 146.516 214.907 146.782 215.019C147.048 215.131 147.334 215.189 147.622 215.189H151.361V226.309H147.622C147.334 226.309 147.048 226.367 146.782 226.479C146.515 226.591 146.273 226.755 146.07 226.962C145.866 227.169 145.704 227.415 145.594 227.686C145.484 227.956 145.427 228.247 145.427 228.539V265.279C145.427 265.571 145.484 265.861 145.594 266.132C145.704 266.403 145.866 266.649 146.07 266.856C146.273 267.063 146.515 267.227 146.782 267.339C147.048 267.451 147.334 267.509 147.622 267.509H151.361V539.088C151.361 547.321 154.579 555.217 160.309 561.038C166.038 566.859 173.808 570.13 181.91 570.13H391.215C399.317 570.13 407.088 566.859 412.817 561.038C418.546 555.217 421.764 547.321 421.764 539.088V226.314H425.333C425.621 226.314 425.906 226.256 426.172 226.144C426.439 226.032 426.681 225.868 426.884 225.661C427.088 225.454 427.249 225.208 427.36 224.937C427.47 224.667 427.526 224.377 427.526 224.084V176.219C427.526 175.927 427.47 175.637 427.36 175.366C427.249 175.096 427.088 174.85 426.884 174.643C426.681 174.435 426.439 174.271 426.172 174.159C425.906 174.047 425.621 173.989 425.333 173.989Z" fill="white"/>
<path d="M393.113 65.4917H179.843C170.094 65.4917 162.19 73.5222 162.19 83.4283V540.837C162.19 550.743 170.094 558.773 179.843 558.773H393.113C402.863 558.773 410.766 550.743 410.766 540.837V83.4283C410.766 73.5222 402.863 65.4917 393.113 65.4917Z" fill="#6DBCDB"/>
<path d="M183.344 139.72H387.472C389.345 139.72 391.141 140.515 392.465 141.93C393.789 143.345 394.533 145.265 394.533 147.266V540.406C394.533 542.408 393.789 544.327 392.465 545.743C391.141 547.158 389.345 547.953 387.472 547.953H183.344C181.472 547.953 179.676 547.158 178.351 545.743C177.027 544.327 176.283 542.408 176.283 540.406V147.266C176.283 145.265 177.027 143.345 178.351 141.93C179.676 140.515 181.472 139.72 183.344 139.72V139.72Z" fill="#C9E6F1"/>
<path d="M211.636 124.373C214.605 124.428 216.163 122.488 216.596 120.87L214.683 120.252C214.381 121.231 213.479 122.393 211.674 122.36C209.974 122.328 208.416 121.06 208.458 118.808C208.503 116.407 210.194 115.304 211.775 115.334C213.61 115.368 214.409 116.502 214.644 117.521L216.594 116.946C216.209 115.223 214.736 113.405 211.812 113.35C208.979 113.297 206.388 115.397 206.325 118.768C206.262 122.139 208.683 124.318 211.636 124.373ZM217.48 122.259C217.458 123.408 218.393 124.484 219.959 124.514C221.048 124.534 221.759 124.04 222.142 123.465C222.137 123.749 222.159 124.152 222.201 124.347L224.02 124.381C223.98 124.126 223.945 123.603 223.952 123.215L224.02 119.606C224.047 118.129 223.207 116.801 220.88 116.757C218.911 116.72 217.829 117.968 217.688 119.115L219.441 119.52C219.512 118.88 220 118.337 220.865 118.353C221.7 118.369 222.095 118.809 222.085 119.331C222.081 119.585 221.942 119.791 221.524 119.843L219.714 120.078C218.488 120.234 217.504 120.947 217.48 122.259ZM220.405 123.045C219.763 123.033 219.458 122.609 219.466 122.177C219.476 121.61 219.884 121.334 220.393 121.269L222.053 121.046L222.047 121.375C222.023 122.672 221.24 123.06 220.405 123.045ZM227.914 124.453L227.994 120.158C228.009 119.352 228.528 118.72 229.393 118.737C230.288 118.753 230.68 119.357 230.665 120.148L230.584 124.503L232.553 124.54L232.633 120.244C232.648 119.454 233.167 118.807 234.017 118.823C234.927 118.84 235.304 119.444 235.289 120.234L235.207 124.589L237.132 124.625L237.22 119.867C237.257 117.899 235.975 117.054 234.618 117.029C233.648 117.011 232.866 117.324 232.268 118.208C231.91 117.411 231.113 116.963 230.113 116.945C229.308 116.93 228.361 117.3 227.945 118.008L227.962 117.113L226.067 117.078L225.93 124.416L227.914 124.453ZM241.072 127.534L241.138 123.984C241.487 124.483 242.225 124.9 243.24 124.918C245.313 124.957 246.731 123.342 246.772 121.12C246.813 118.942 245.605 117.279 243.458 117.239C242.354 117.218 241.524 117.695 241.186 118.255L241.202 117.361L239.278 117.325L239.088 127.497L241.072 127.534ZM244.818 121.098C244.793 122.411 243.974 123.157 242.96 123.138C241.945 123.119 241.139 122.328 241.164 121.03C241.188 119.733 242.022 118.987 243.037 119.006C244.051 119.025 244.842 119.801 244.818 121.098ZM256.571 117.618C256.422 117.6 256.273 117.582 256.109 117.579C255.483 117.568 254.465 117.728 254 118.689L254.02 117.6L252.096 117.564L251.959 124.902L253.943 124.939L254.005 121.583C254.035 120.002 254.924 119.527 255.938 119.546C256.117 119.549 256.311 119.567 256.534 119.616L256.571 117.618ZM259.287 120.533C259.344 119.863 259.926 119.098 260.955 119.117C262.088 119.138 262.552 119.863 262.568 120.594L259.287 120.533ZM262.727 122.507C262.476 123.159 261.96 123.612 261.035 123.595C260.051 123.576 259.244 122.86 259.217 121.89L264.467 121.988C264.468 121.958 264.503 121.66 264.508 121.377C264.552 119.02 263.222 117.548 260.955 117.506C259.076 117.471 257.317 118.96 257.273 121.301C257.227 123.777 258.975 125.257 260.989 125.295C262.793 125.328 263.976 124.291 264.373 123.03L262.727 122.507ZM265.471 125.557C265.653 126.963 266.972 128.241 268.986 128.279C271.745 128.33 272.868 126.516 272.906 124.503L273.028 117.955L271.119 117.919L271.103 118.784C270.858 118.287 270.197 117.768 269.033 117.746C267.02 117.708 265.587 119.323 265.551 121.262C265.512 123.32 266.946 124.854 268.9 124.89C269.959 124.91 270.654 124.461 270.961 123.989L270.951 124.526C270.924 125.943 270.212 126.556 268.959 126.533C268.019 126.515 267.389 125.921 267.269 125.114L265.471 125.557ZM269.275 123.196C268.246 123.177 267.528 122.448 267.55 121.299C267.571 120.166 268.36 119.464 269.344 119.483C270.299 119.5 271.061 120.231 271.04 121.364C271.019 122.498 270.289 123.215 269.275 123.196ZM276.884 125.368L277.021 118.029L275.037 117.992L274.9 125.331L276.884 125.368ZM274.843 115.587C274.831 116.243 275.372 116.805 276.044 116.818C276.73 116.83 277.277 116.289 277.289 115.632C277.302 114.946 276.775 114.384 276.089 114.371C275.418 114.359 274.856 114.9 274.843 115.587ZM278.419 123.352C278.493 124.189 279.227 125.635 281.434 125.676C283.358 125.712 284.306 124.507 284.328 123.313C284.348 122.24 283.634 121.346 282.193 121.021L281.153 120.777C280.751 120.695 280.487 120.466 280.494 120.109C280.502 119.691 280.925 119.385 281.447 119.395C282.282 119.411 282.585 119.969 282.637 120.402L284.299 120.06C284.225 119.268 283.549 117.928 281.46 117.889C279.879 117.859 278.696 118.926 278.671 120.239C278.652 121.268 279.277 122.13 280.688 122.47L281.654 122.711C282.218 122.841 282.437 123.114 282.431 123.442C282.424 123.83 282.104 124.167 281.448 124.155C280.583 124.139 280.16 123.594 280.126 123.011L278.419 123.352ZM288.506 116.051L286.717 116.017L286.697 117.046C286.685 117.703 286.318 118.203 285.542 118.189L285.169 118.182L285.136 119.942L286.464 119.966L286.4 123.382C286.373 124.799 287.253 125.666 288.684 125.692C289.266 125.703 289.626 125.606 289.806 125.534L289.837 123.894C289.732 123.922 289.463 123.946 289.224 123.942C288.658 123.931 288.363 123.717 288.375 123.076L288.433 120.003L289.909 120.031L289.942 118.271L288.465 118.243L288.506 116.051ZM296 118.354C295.851 118.336 295.702 118.319 295.538 118.316C294.912 118.304 293.894 118.464 293.429 119.425L293.449 118.336L291.525 118.3L291.388 125.639L293.372 125.676L293.434 122.32C293.464 120.739 294.353 120.263 295.367 120.282C295.546 120.285 295.74 120.304 295.963 120.353L296 118.354ZM296.892 123.742C296.87 124.89 297.805 125.967 299.371 125.997C300.46 126.017 301.17 125.523 301.554 124.948C301.549 125.231 301.571 125.635 301.612 125.829L303.432 125.863C303.392 125.609 303.357 125.086 303.364 124.698L303.431 121.089C303.459 119.612 302.618 118.284 300.292 118.24C298.323 118.203 297.24 119.451 297.1 120.598L298.853 121.003C298.924 120.363 299.412 119.82 300.277 119.836C301.112 119.852 301.507 120.292 301.497 120.814C301.492 121.068 301.354 121.274 300.935 121.326L299.126 121.561C297.899 121.717 296.916 122.429 296.892 123.742ZM299.816 124.528C299.175 124.516 298.869 124.092 298.878 123.66C298.888 123.093 299.296 122.817 299.805 122.752L301.465 122.529L301.459 122.857C301.435 124.155 300.651 124.543 299.816 124.528ZM307.922 116.413L306.132 116.38L306.113 117.409C306.101 118.065 305.734 118.566 304.958 118.551L304.585 118.544L304.552 120.304L305.88 120.329L305.816 123.745C305.789 125.161 306.668 126.028 308.1 126.055C308.682 126.066 309.042 125.968 309.222 125.897L309.253 124.256C309.148 124.284 308.879 124.309 308.64 124.305C308.074 124.294 307.779 124.08 307.791 123.438L307.848 120.366L309.325 120.393L309.358 118.633L307.881 118.606L307.922 116.413ZM312.89 126.04L313.027 118.702L311.043 118.665L310.906 126.003L312.89 126.04ZM310.849 116.259C310.837 116.915 311.379 117.477 312.05 117.49C312.736 117.503 313.283 116.961 313.295 116.305C313.308 115.619 312.781 115.057 312.095 115.044C311.424 115.031 310.862 115.573 310.849 116.259ZM318.339 124.56C317.37 124.542 316.488 123.81 316.514 122.437C316.54 121.05 317.448 120.366 318.417 120.384C319.387 120.402 320.269 121.12 320.243 122.507C320.217 123.894 319.309 124.578 318.339 124.56ZM318.451 118.579C316.258 118.538 314.572 120.133 314.53 122.4C314.488 124.652 316.113 126.324 318.306 126.365C320.498 126.406 322.184 124.796 322.226 122.544C322.269 120.277 320.643 118.62 318.451 118.579ZM325.786 122.058C325.802 121.208 326.322 120.547 327.187 120.563C328.141 120.581 328.532 121.229 328.517 122.05L328.437 126.33L330.421 126.367L330.507 121.744C330.537 120.133 329.726 118.82 327.906 118.786C327.116 118.771 326.229 119.098 325.768 119.85L325.785 118.94L323.861 118.904L323.724 126.242L325.707 126.279L325.786 122.058ZM338.341 126.515L338.418 122.399L342.52 122.475L342.555 120.581L338.439 120.504L338.487 117.894L343.111 117.98L343.148 116.027L336.466 115.902L336.268 126.477L338.341 126.515ZM347.339 125.102C346.37 125.084 345.488 124.351 345.514 122.979C345.54 121.592 346.448 120.907 347.417 120.926C348.387 120.944 349.269 121.661 349.243 123.049C349.217 124.436 348.309 125.12 347.339 125.102ZM347.451 119.121C345.259 119.08 343.573 120.675 343.53 122.942C343.488 125.194 345.113 126.866 347.306 126.907C349.498 126.947 351.184 125.338 351.226 123.086C351.269 120.818 349.644 119.162 347.451 119.121ZM357.336 119.499C357.187 119.482 357.038 119.464 356.874 119.461C356.248 119.449 355.23 119.609 354.765 120.57L354.785 119.482L352.861 119.446L352.724 126.784L354.708 126.821L354.77 123.465C354.8 121.884 355.689 121.408 356.703 121.427C356.882 121.431 357.076 121.449 357.299 121.498L357.336 119.499ZM360.577 126.931L360.658 122.635C360.673 121.83 361.192 121.198 362.057 121.214C362.952 121.231 363.343 121.835 363.329 122.625L363.247 126.98L365.216 127.017L365.296 122.722C365.311 121.931 365.83 121.284 366.681 121.3C367.59 121.317 367.967 121.921 367.952 122.712L367.871 127.067L369.795 127.103L369.884 122.345C369.921 120.376 368.638 119.531 367.281 119.506C366.312 119.488 365.53 119.802 364.932 120.686C364.573 119.888 363.776 119.441 362.777 119.422C361.971 119.407 361.024 119.777 360.608 120.486L360.625 119.591L358.731 119.555L358.594 126.894L360.577 126.931Z" fill="white"/>
<path d="M376.253 508.281H196.703C192.461 508.281 189.023 511.761 189.023 516.053V530.654C189.023 534.947 192.461 538.426 196.703 538.426H376.253C380.495 538.426 383.934 534.947 383.934 530.654V516.053C383.934 511.761 380.495 508.281 376.253 508.281Z" fill="#FEC14F"/>
<path d="M271.588 520.549C271.368 519.462 270.473 518.057 268.173 518.057C266.355 518.057 264.854 519.407 264.854 521.045C264.854 522.505 265.846 523.483 267.333 523.785L268.71 524.075C269.55 524.254 270.018 524.763 270.018 525.397C270.018 526.154 269.412 526.746 268.242 526.746C266.837 526.746 266.107 525.81 266.011 524.791L264.469 525.231C264.62 526.636 265.763 528.233 268.242 528.233C270.473 528.233 271.698 526.787 271.698 525.273C271.698 523.896 270.776 522.808 269.054 522.464L267.65 522.174C266.892 522.009 266.507 521.541 266.507 520.921C266.507 520.178 267.195 519.517 268.187 519.517C269.495 519.517 270.004 520.412 270.101 521.018L271.588 520.549ZM277.4 527.283C277.4 527.559 277.427 527.875 277.455 528.027H278.983C278.956 527.779 278.915 527.352 278.915 526.801V521.321H277.317V525.286C277.317 526.168 276.835 526.787 275.913 526.787C274.949 526.787 274.563 526.085 274.563 525.259V521.321H272.966V525.548C272.966 527.035 273.902 528.22 275.5 528.22C276.284 528.22 277.069 527.889 277.4 527.283ZM282.538 528.027V527.132C282.924 527.779 283.654 528.192 284.604 528.192C286.559 528.192 287.757 526.663 287.757 524.639C287.757 522.67 286.669 521.142 284.659 521.142C283.626 521.142 282.855 521.624 282.552 522.147V518.057H280.982V528.027H282.538ZM286.146 524.653C286.146 525.975 285.389 526.774 284.342 526.774C283.323 526.774 282.538 525.975 282.538 524.653C282.538 523.317 283.323 522.56 284.342 522.56C285.402 522.56 286.146 523.317 286.146 524.653ZM290.876 528.027V524.047C290.876 523.193 291.413 522.56 292.267 522.56C293.176 522.56 293.562 523.166 293.562 523.937V528.027H295.131V524.047C295.131 523.221 295.682 522.56 296.522 522.56C297.417 522.56 297.817 523.152 297.817 523.937V528.027H299.359V523.675C299.359 521.899 298.202 521.128 296.99 521.128C296.123 521.128 295.338 521.431 294.815 522.312C294.457 521.527 293.685 521.128 292.804 521.128C292.047 521.128 291.207 521.486 290.821 522.174V521.321H289.293V528.027H290.876ZM302.898 528.027V521.321H301.315V528.027H302.898ZM301.067 518.966C301.067 519.544 301.535 519.999 302.1 519.999C302.678 519.999 303.146 519.544 303.146 518.966C303.146 518.388 302.678 517.919 302.1 517.919C301.535 517.919 301.067 518.388 301.067 518.966ZM306.983 519.269H305.537V520.274C305.537 520.866 305.221 521.321 304.505 521.321H304.16V522.739H305.4V526.113C305.4 527.366 306.171 528.109 307.41 528.109C307.989 528.109 308.291 527.999 308.388 527.958V526.636C308.319 526.65 308.057 526.691 307.837 526.691C307.245 526.691 306.983 526.443 306.983 525.851V522.739H308.374V521.321H306.983V519.269Z" fill="white"/>
<path d="M173.753 83.1795C173.86 83.4203 174.04 83.6203 174.267 83.7503C174.493 83.8804 174.755 83.9339 175.013 83.903C176.392 83.903 176.905 82.5469 176.86 80.8848H176.791C176.634 81.2579 176.366 81.5716 176.024 81.7816C175.682 81.9916 175.284 82.0874 174.886 82.0554C174.547 82.0667 174.21 82.0055 173.897 81.876C173.583 81.7464 173.299 81.5513 173.064 81.3033C172.829 81.0553 172.648 80.7599 172.533 80.4363C172.418 80.1127 172.371 79.768 172.395 79.4247C172.381 79.0583 172.444 78.6933 172.579 78.3534C172.715 78.0134 172.919 77.7063 173.179 77.452C173.439 77.1977 173.748 77.0021 174.088 76.8778C174.427 76.7535 174.789 76.7033 175.148 76.7306C176.561 76.7306 177.982 77.5833 177.982 80.6935C177.982 83.5023 177.018 84.9516 174.99 84.9516C174.444 85.0232 173.892 84.8801 173.447 84.5515C173.001 84.2229 172.697 83.7338 172.595 83.1843L173.753 83.1795ZM175.086 77.7686C174.876 77.7646 174.667 77.8052 174.472 77.8878C174.278 77.9705 174.103 78.0933 173.958 78.2486C173.813 78.4038 173.702 78.5881 173.631 78.7896C173.56 78.9911 173.532 79.2054 173.547 79.4188C173.531 79.6327 173.56 79.8475 173.633 80.049C173.705 80.2505 173.819 80.4339 173.967 80.587C174.115 80.7401 174.293 80.8592 174.49 80.9366C174.687 81.0139 174.898 81.0477 175.108 81.0355C175.317 81.0471 175.526 81.0138 175.721 80.9378C175.916 80.8618 176.093 80.7449 176.241 80.5945C176.388 80.4441 176.503 80.2638 176.577 80.0653C176.651 79.8668 176.683 79.6546 176.671 79.4427C176.69 79.2235 176.663 79.0027 176.591 78.7951C176.519 78.5876 176.404 78.3979 176.255 78.2389C176.105 78.0799 175.924 77.9552 175.723 77.8731C175.522 77.7909 175.306 77.7533 175.09 77.7626L175.086 77.7686Z" fill="#EFEFE5"/>
<path d="M180.555 79.2344C180.672 79.2307 180.789 79.2516 180.899 79.2957C181.008 79.3398 181.107 79.4063 181.19 79.4909C181.273 79.5755 181.338 79.6765 181.381 79.7877C181.424 79.8989 181.444 80.0179 181.44 80.1372C181.443 80.2556 181.422 80.3734 181.379 80.4833C181.335 80.5932 181.27 80.6929 181.187 80.7761C181.104 80.8593 181.005 80.9243 180.896 80.967C180.788 81.0097 180.671 81.0293 180.555 81.0245C180.441 81.0257 180.327 81.0034 180.222 80.959C180.116 80.9146 180.021 80.849 179.941 80.7661C179.861 80.6833 179.798 80.5848 179.757 80.4768C179.715 80.3687 179.696 80.2532 179.699 80.1372C179.694 80.02 179.712 79.9029 179.753 79.7931C179.793 79.6833 179.856 79.5831 179.936 79.4986C180.016 79.414 180.112 79.347 180.218 79.3016C180.325 79.2562 180.439 79.2333 180.555 79.2344ZM180.555 83.1159C180.672 83.1117 180.79 83.1322 180.899 83.1762C181.009 83.2201 181.108 83.2865 181.191 83.3713C181.274 83.456 181.339 83.5572 181.382 83.6686C181.425 83.78 181.444 83.8992 181.44 84.0187C181.443 84.1368 181.422 84.2542 181.378 84.3636C181.334 84.473 181.269 84.5722 181.186 84.6548C181.103 84.7375 181.004 84.8019 180.895 84.8441C180.787 84.8863 180.671 84.9053 180.555 84.9C180.441 84.9018 180.328 84.8802 180.223 84.8364C180.117 84.7926 180.022 84.7276 179.942 84.6452C179.862 84.5628 179.799 84.4649 179.757 84.3572C179.716 84.2495 179.696 84.1343 179.699 84.0187C179.694 83.9015 179.712 83.7844 179.753 83.6746C179.793 83.5648 179.856 83.4645 179.936 83.38C180.016 83.2955 180.112 83.2285 180.218 83.1831C180.325 83.1377 180.439 83.1148 180.555 83.1159Z" fill="#EFEFE5"/>
<path d="M187.854 76.8885V82.1715H188.852V83.2477H187.854V84.8022H186.743V83.2477H182.963V82.1583C183.92 80.3969 185.055 78.6488 186.14 76.8969L187.854 76.8885ZM186.743 82.1715V77.9205H186.68C185.807 79.2467 184.879 80.7186 184.091 82.1201V82.1715H186.743Z" fill="#EFEFE5"/>
<path d="M192.057 84.7963V78.186H191.999L190.203 79.4893V78.2613L192.056 76.8885H193.213V84.7963H192.057Z" fill="#EFEFE5"/>
<path d="M367.895 75.8363H366.806C366.622 75.8363 366.472 75.9883 366.472 76.1759V84.4567C366.472 84.6442 366.622 84.7963 366.806 84.7963H367.895C368.08 84.7963 368.229 84.6442 368.229 84.4567V76.1759C368.229 75.9883 368.08 75.8363 367.895 75.8363Z" fill="#EFEFE5" fill-opacity="0.1"/>
<path d="M364.682 78.228H363.593C363.409 78.228 363.259 78.3801 363.259 78.5676V84.4568C363.259 84.6444 363.409 84.7964 363.593 84.7964H364.682C364.867 84.7964 365.016 84.6444 365.016 84.4568V78.5676C365.016 78.3801 364.867 78.228 364.682 78.228Z" fill="#EFEFE5" fill-opacity="0.1"/>
<path d="M361.469 80.6196H360.381C360.196 80.6196 360.047 80.7717 360.047 80.9592V84.4569C360.047 84.6444 360.196 84.7965 360.381 84.7965H361.469C361.654 84.7965 361.804 84.6444 361.804 84.4569V80.9592C361.804 80.7717 361.654 80.6196 361.469 80.6196Z" fill="#EFEFE5" fill-opacity="0.1"/>
<path d="M358.256 83.011H357.168C356.983 83.011 356.833 83.163 356.833 83.3506V84.4567C356.833 84.6442 356.983 84.7963 357.168 84.7963H358.256C358.441 84.7963 358.591 84.6442 358.591 84.4567V83.3506C358.591 83.163 358.441 83.011 358.256 83.011Z" fill="#EFEFE5" fill-opacity="0.1"/>
<path opacity="0.4" d="M400.546 76.6923H388.552C388.089 76.6929 387.645 76.8801 387.318 77.2127C386.99 77.5454 386.806 77.9964 386.806 78.4668V83.2201C386.806 83.6906 386.99 84.1417 387.318 84.4745C387.645 84.8072 388.089 84.9943 388.552 84.9946H400.546C401.009 84.994 401.453 84.8068 401.781 84.4742C402.108 84.1415 402.292 83.6905 402.293 83.2201V78.4668C402.292 77.9964 402.108 77.5454 401.781 77.2127C401.453 76.8801 401.009 76.6929 400.546 76.6923ZM401.595 83.2201C401.595 83.5025 401.484 83.7733 401.288 83.973C401.091 84.1728 400.824 84.2852 400.546 84.2855H388.552C388.274 84.2855 388.007 84.1733 387.81 83.9735C387.613 83.7737 387.503 83.5027 387.502 83.2201V78.4668C387.503 78.1841 387.613 77.9132 387.81 77.7134C388.007 77.5136 388.274 77.4014 388.552 77.4014H400.546C400.825 77.4014 401.091 77.5137 401.288 77.7135C401.485 77.9133 401.595 78.1842 401.595 78.4668V83.2201Z" fill="#EFEFE5"/>
<path d="M388.742 78.1093H400.356C400.5 78.1093 400.638 78.1673 400.739 78.2707C400.841 78.3741 400.898 78.5143 400.898 78.6605V83.0263C400.898 83.0985 400.884 83.1701 400.857 83.2368C400.83 83.3035 400.79 83.3642 400.74 83.4152C400.689 83.4663 400.63 83.5068 400.564 83.5345C400.498 83.5621 400.428 83.5763 400.357 83.5763H388.743C388.599 83.5763 388.461 83.5184 388.36 83.4153C388.258 83.3122 388.201 83.1723 388.2 83.0263V78.6593C388.2 78.5134 388.257 78.3735 388.359 78.2704C388.46 78.1672 388.598 78.1093 388.742 78.1093V78.1093Z" fill="#EFEFE5"/>
<path d="M403.964 80.8441C403.964 81.0978 403.865 81.3411 403.688 81.5205C403.512 81.6999 403.272 81.8007 403.022 81.8007V79.8875C403.272 79.8875 403.512 79.9882 403.688 80.1676C403.865 80.347 403.964 80.5904 403.964 80.8441Z" fill="#EFEFE5"/>
<path fill-rule="evenodd" clip-rule="evenodd" d="M372.948 80.1613L371.502 78.7264C373.001 77.225 375.022 76.3833 377.127 76.3833C379.232 76.3833 381.253 77.225 382.753 78.7264L381.332 80.1792C380.209 79.0734 378.708 78.4528 377.144 78.4477C375.58 78.4425 374.075 79.0533 372.945 80.1518L372.948 80.1613Z" fill="#F9F9F0" fill-opacity="0.1"/>
<path fill-rule="evenodd" clip-rule="evenodd" d="M375.009 82.2887L373.578 80.8682C374.52 79.9278 375.787 79.3992 377.108 79.3952C378.429 79.3911 379.699 79.9121 380.647 80.8466L379.249 82.3007C378.672 81.7601 377.916 81.459 377.131 81.4568C376.346 81.4545 375.589 81.7514 375.009 82.2887Z" fill="#F9F9F0" fill-opacity="0.1"/>
<path fill-rule="evenodd" clip-rule="evenodd" d="M378.515 83.0193L377.125 84.4542C376.647 83.9759 376.19 83.5095 375.725 83.0372C376.104 82.6815 376.6 82.4825 377.117 82.4792C377.633 82.4759 378.131 82.6685 378.515 83.0193Z" fill="#F9F9F0" fill-opacity="0.1"/>
<path d="M220.022 62.2369H353.946V73.4318C353.946 78.2284 352.071 82.8287 348.734 86.221C345.396 89.6133 340.87 91.5199 336.149 91.5215H237.825C233.103 91.5215 228.575 89.6156 225.236 86.2231C221.898 82.8307 220.022 78.2295 220.022 73.4318V62.2369Z" fill="white"/>
<path d="M300.974 73.4329H270.458C269.288 73.4329 268.339 74.3968 268.339 75.5859C268.339 76.7749 269.288 77.7389 270.458 77.7389H300.974C302.144 77.7389 303.093 76.7749 303.093 75.5859C303.093 74.3968 302.144 73.4329 300.974 73.4329Z" fill="#9B9B9B" stroke="#7D7D7D" stroke-opacity="0.57" stroke-width="1.27375"/>
<path d="M321.741 78.6011C323.614 78.6011 325.132 77.0587 325.132 75.1561C325.132 73.2535 323.614 71.7111 321.741 71.7111C319.869 71.7111 318.351 73.2535 318.351 75.1561C318.351 77.0587 319.869 78.6011 321.741 78.6011Z" fill="#9B9B9B" stroke="#7D7D7D" stroke-opacity="0.57" stroke-width="1.27375"/>
<path d="M192.007 170.809V167.199H195.643V165.798H192.007V163.286H196.059V161.86H190.493V170.809H192.007ZM200.864 170.127C200.864 170.38 200.889 170.67 200.915 170.809H202.316C202.29 170.582 202.253 170.191 202.253 169.686V164.662H200.788V168.297C200.788 169.105 200.347 169.673 199.501 169.673C198.617 169.673 198.264 169.029 198.264 168.272V164.662H196.8V168.537C196.8 169.9 197.658 170.986 199.122 170.986C199.842 170.986 200.561 170.683 200.864 170.127ZM205.612 170.809V161.67H204.148V170.809H205.612ZM208.965 170.809V161.67H207.501V170.809H208.965ZM221.621 170.809V161.86H220.107V168.209L216.042 161.86H214.111V170.809H215.626V164.031L220.044 170.809H221.621ZM223.221 169.143C223.221 170.115 224.016 170.998 225.304 170.998C226.301 170.998 226.907 170.494 227.197 170.026C227.197 170.519 227.248 170.771 227.26 170.809H228.624C228.611 170.746 228.548 170.38 228.548 169.825V166.77C228.548 165.545 227.828 164.472 225.935 164.472C224.42 164.472 223.461 165.419 223.347 166.479L224.685 166.782C224.748 166.164 225.178 165.672 225.948 165.672C226.755 165.672 227.109 166.088 227.109 166.606C227.109 166.82 227.008 166.997 226.654 167.048L225.077 167.287C224.029 167.439 223.221 168.045 223.221 169.143ZM225.581 169.85C225.001 169.85 224.685 169.471 224.685 169.055C224.685 168.55 225.051 168.297 225.506 168.221L227.109 167.982V168.259C227.109 169.458 226.402 169.85 225.581 169.85ZM231.769 170.809V167.161C231.769 166.379 232.262 165.798 233.044 165.798C233.877 165.798 234.231 166.353 234.231 167.06V170.809H235.67V167.161C235.67 166.404 236.175 165.798 236.945 165.798C237.765 165.798 238.131 166.341 238.131 167.06V170.809H239.545V166.82C239.545 165.192 238.485 164.485 237.374 164.485C236.579 164.485 235.859 164.763 235.38 165.571C235.051 164.851 234.344 164.485 233.537 164.485C232.842 164.485 232.072 164.813 231.719 165.444V164.662H230.318V170.809H231.769ZM242.361 167.06C242.411 166.404 242.941 165.697 243.863 165.697C244.872 165.697 245.352 166.341 245.377 167.06H242.361ZM245.541 168.663C245.339 169.269 244.885 169.736 244.001 169.736C243.093 169.736 242.361 169.067 242.323 168.133H246.816C246.829 168.108 246.854 167.906 246.854 167.666C246.854 165.722 245.743 164.472 243.85 164.472C242.297 164.472 240.858 165.76 240.858 167.704C240.858 169.787 242.335 170.998 244.001 170.998C245.478 170.998 246.45 170.127 246.778 169.055L245.541 168.663Z" fill="black"/>
<path d="M253.859 161.86H252.672V163.513L251.17 162.996L250.804 164.081L252.331 164.586L251.372 165.861L252.306 166.543L253.253 165.23L254.262 166.555L255.184 165.874L254.199 164.586L255.727 164.081L255.361 162.996L253.859 163.501V161.86Z" fill="#FF0000"/>
<path d="M378.83 181.914H194.131C191.531 181.914 189.423 184.056 189.423 186.698V213.593C189.423 216.235 191.531 218.376 194.131 218.376H378.83C381.43 218.376 383.537 216.235 383.537 213.593V186.698C383.537 184.056 381.43 181.914 378.83 181.914Z" fill="white"/>
<path d="M196.021 253.798V252.384H192.007V250.011H195.643V248.635H192.007V246.262H196.021V244.849H190.493V253.798H196.021ZM199.042 253.798V250.15C199.042 249.368 199.534 248.787 200.316 248.787C201.15 248.787 201.503 249.342 201.503 250.049V253.798H202.942V250.15C202.942 249.393 203.447 248.787 204.217 248.787C205.037 248.787 205.403 249.33 205.403 250.049V253.798H206.817V249.809C206.817 248.181 205.757 247.474 204.646 247.474C203.851 247.474 203.131 247.752 202.652 248.56C202.323 247.84 201.617 247.474 200.809 247.474C200.114 247.474 199.345 247.802 198.991 248.433V247.651H197.59V253.798H199.042ZM208.231 252.132C208.231 253.104 209.027 253.987 210.314 253.987C211.311 253.987 211.917 253.483 212.208 253.015C212.208 253.508 212.258 253.76 212.271 253.798H213.634C213.621 253.735 213.558 253.369 213.558 252.814V249.759C213.558 248.534 212.839 247.461 210.945 247.461C209.431 247.461 208.471 248.408 208.358 249.468L209.696 249.771C209.759 249.153 210.188 248.661 210.958 248.661C211.766 248.661 212.119 249.077 212.119 249.595C212.119 249.809 212.018 249.986 211.665 250.037L210.087 250.276C209.039 250.428 208.231 251.034 208.231 252.132ZM210.592 252.839C210.011 252.839 209.696 252.46 209.696 252.044C209.696 251.539 210.062 251.286 210.516 251.21L212.119 250.971V251.248C212.119 252.447 211.412 252.839 210.592 252.839ZM216.78 253.798V247.651H215.328V253.798H216.78ZM215.101 245.492C215.101 246.022 215.53 246.439 216.048 246.439C216.578 246.439 217.007 246.022 217.007 245.492C217.007 244.962 216.578 244.533 216.048 244.533C215.53 244.533 215.101 244.962 215.101 245.492ZM220.133 253.798V244.659H218.669V253.798H220.133Z" fill="black"/>
<path d="M227.627 244.849H226.44V246.502L224.938 245.985L224.572 247.07L226.1 247.575L225.14 248.85L226.074 249.532L227.021 248.219L228.031 249.544L228.952 248.863L227.968 247.575L229.495 247.07L229.129 245.985L227.627 246.49V244.849Z" fill="#FF0000"/>
<path d="M378.83 264.904H194.131C191.531 264.904 189.423 267.045 189.423 269.687V296.582C189.423 299.224 191.531 301.365 194.131 301.365H378.83C381.43 301.365 383.537 299.224 383.537 296.582V269.687C383.537 267.045 381.43 264.904 378.83 264.904Z" fill="white"/>
<path d="M195.012 418.442H196.728L194.709 414.756C195.958 414.453 196.728 413.481 196.728 412.207C196.728 410.692 195.655 409.493 193.926 409.493H190.493V418.442H192.02V414.908H193.131L195.012 418.442ZM192.02 413.57V410.831H193.648C194.582 410.831 195.188 411.373 195.188 412.207C195.188 413.027 194.582 413.57 193.648 413.57H192.02ZM200.71 417.319C199.814 417.319 198.994 416.637 198.994 415.362C198.994 414.087 199.814 413.431 200.71 413.431C201.619 413.431 202.427 414.087 202.427 415.362C202.427 416.65 201.619 417.319 200.71 417.319ZM200.71 412.106C198.88 412.106 197.529 413.481 197.529 415.362C197.529 417.256 198.88 418.631 200.71 418.631C202.553 418.631 203.904 417.256 203.904 415.362C203.904 413.481 202.553 412.106 200.71 412.106ZM208.02 417.319C207.124 417.319 206.303 416.637 206.303 415.362C206.303 414.087 207.124 413.431 208.02 413.431C208.929 413.431 209.737 414.087 209.737 415.362C209.737 416.65 208.929 417.319 208.02 417.319ZM208.02 412.106C206.19 412.106 204.839 413.481 204.839 415.362C204.839 417.256 206.19 418.631 208.02 418.631C209.863 418.631 211.214 417.256 211.214 415.362C211.214 413.481 209.863 412.106 208.02 412.106ZM214.08 418.442V414.794C214.08 414.012 214.573 413.431 215.355 413.431C216.188 413.431 216.542 413.986 216.542 414.693V418.442H217.981V414.794C217.981 414.037 218.486 413.431 219.256 413.431C220.076 413.431 220.442 413.974 220.442 414.693V418.442H221.856V414.453C221.856 412.825 220.796 412.118 219.685 412.118C218.89 412.118 218.17 412.396 217.69 413.204C217.362 412.484 216.655 412.118 215.848 412.118C215.153 412.118 214.383 412.446 214.03 413.077V412.295H212.629V418.442H214.08ZM233.331 410.919V409.493H225.997V410.919H228.901V418.442H230.415V410.919H233.331ZM235.514 420.929L239.427 412.295H237.875L236.221 416.183L234.454 412.295H232.8L235.426 417.71L233.949 420.929H235.514ZM241.951 420.84V417.748C242.267 418.215 242.936 418.594 243.82 418.594C245.587 418.594 246.71 417.205 246.71 415.362C246.71 413.545 245.688 412.156 243.87 412.156C242.923 412.156 242.217 412.598 241.914 413.128V412.295H240.5V420.84H241.951ZM245.246 415.362C245.246 416.536 244.564 417.293 243.592 417.293C242.633 417.293 241.939 416.536 241.939 415.362C241.939 414.214 242.633 413.456 243.592 413.456C244.577 413.456 245.246 414.214 245.246 415.362ZM249.14 414.693C249.191 414.037 249.721 413.33 250.642 413.33C251.652 413.33 252.132 413.974 252.157 414.693H249.14ZM252.321 416.296C252.119 416.902 251.665 417.369 250.781 417.369C249.872 417.369 249.14 416.7 249.102 415.766H253.596C253.609 415.741 253.634 415.539 253.634 415.299C253.634 413.355 252.523 412.106 250.63 412.106C249.077 412.106 247.638 413.393 247.638 415.337C247.638 417.42 249.115 418.631 250.781 418.631C252.258 418.631 253.23 417.761 253.558 416.688L252.321 416.296Z" fill="black"/>
<path d="M378.83 429.547H194.131C191.531 429.547 189.423 431.689 189.423 434.331V461.226C189.423 463.868 191.531 466.009 194.131 466.009H378.83C381.43 466.009 383.537 463.868 383.537 461.226V434.331C383.537 431.689 381.43 429.547 378.83 429.547Z" fill="white"/>
<path d="M203.238 446.289V444.089H204.488C205.248 444.089 205.708 444.519 205.708 445.199C205.708 445.869 205.248 446.289 204.488 446.289H203.238ZM204.668 447.349C206.028 447.349 206.928 446.439 206.928 445.189C206.928 443.949 206.028 443.029 204.668 443.029H202.038V450.119H203.238V447.349H204.668ZM209.036 450.119V442.879H207.876V450.119H209.036ZM211.342 447.149C211.382 446.629 211.802 446.069 212.532 446.069C213.332 446.069 213.712 446.579 213.732 447.149H211.342ZM213.862 448.419C213.702 448.899 213.342 449.269 212.642 449.269C211.922 449.269 211.342 448.739 211.312 447.999H214.872C214.882 447.979 214.902 447.819 214.902 447.629C214.902 446.089 214.022 445.099 212.522 445.099C211.292 445.099 210.152 446.119 210.152 447.659C210.152 449.309 211.322 450.269 212.642 450.269C213.812 450.269 214.582 449.579 214.842 448.729L213.862 448.419ZM215.71 448.799C215.71 449.569 216.34 450.269 217.36 450.269C218.15 450.269 218.63 449.869 218.86 449.499C218.86 449.889 218.9 450.089 218.91 450.119H219.99C219.98 450.069 219.93 449.779 219.93 449.339V446.919C219.93 445.949 219.36 445.099 217.86 445.099C216.66 445.099 215.9 445.849 215.81 446.689L216.87 446.929C216.92 446.439 217.26 446.049 217.87 446.049C218.51 446.049 218.79 446.379 218.79 446.789C218.79 446.959 218.71 447.099 218.43 447.139L217.18 447.329C216.35 447.449 215.71 447.929 215.71 448.799ZM217.58 449.359C217.12 449.359 216.87 449.059 216.87 448.729C216.87 448.329 217.16 448.129 217.52 448.069L218.79 447.879V448.099C218.79 449.049 218.23 449.359 217.58 449.359ZM220.903 448.799C220.963 449.349 221.503 450.269 222.913 450.269C224.153 450.269 224.753 449.449 224.753 448.709C224.753 447.989 224.273 447.429 223.353 447.229L222.613 447.079C222.313 447.019 222.123 446.829 222.123 446.569C222.123 446.269 222.413 446.009 222.823 446.009C223.473 446.009 223.683 446.459 223.723 446.739L224.703 446.459C224.623 445.979 224.183 445.099 222.823 445.099C221.813 445.099 221.033 445.819 221.033 446.669C221.033 447.339 221.483 447.899 222.343 448.089L223.063 448.249C223.453 448.329 223.633 448.529 223.633 448.789C223.633 449.089 223.383 449.349 222.903 449.349C222.283 449.349 221.953 448.959 221.913 448.519L220.903 448.799ZM226.684 447.149C226.724 446.629 227.144 446.069 227.874 446.069C228.674 446.069 229.054 446.579 229.074 447.149H226.684ZM229.204 448.419C229.044 448.899 228.684 449.269 227.984 449.269C227.264 449.269 226.684 448.739 226.654 447.999H230.214C230.224 447.979 230.244 447.819 230.244 447.629C230.244 446.089 229.364 445.099 227.864 445.099C226.634 445.099 225.494 446.119 225.494 447.659C225.494 449.309 226.664 450.269 227.984 450.269C229.154 450.269 229.924 449.579 230.184 448.729L229.204 448.419ZM238.593 444.689C238.433 443.899 237.783 442.879 236.113 442.879C234.793 442.879 233.703 443.859 233.703 445.049C233.703 446.109 234.423 446.819 235.503 447.039L236.503 447.249C237.113 447.379 237.453 447.749 237.453 448.209C237.453 448.759 237.013 449.189 236.163 449.189C235.143 449.189 234.613 448.509 234.543 447.769L233.423 448.089C233.533 449.109 234.363 450.269 236.163 450.269C237.783 450.269 238.673 449.219 238.673 448.119C238.673 447.119 238.003 446.329 236.753 446.079L235.733 445.869C235.183 445.749 234.903 445.409 234.903 444.959C234.903 444.419 235.403 443.939 236.123 443.939C237.073 443.939 237.443 444.589 237.513 445.029L238.593 444.689ZM240.561 447.149C240.601 446.629 241.021 446.069 241.751 446.069C242.551 446.069 242.931 446.579 242.951 447.149H240.561ZM243.081 448.419C242.921 448.899 242.561 449.269 241.861 449.269C241.141 449.269 240.561 448.739 240.531 447.999H244.091C244.101 447.979 244.121 447.819 244.121 447.629C244.121 446.089 243.241 445.099 241.741 445.099C240.511 445.099 239.371 446.119 239.371 447.659C239.371 449.309 240.541 450.269 241.861 450.269C243.031 450.269 243.801 449.579 244.061 448.729L243.081 448.419ZM246.389 450.119V442.879H245.229V450.119H246.389ZM248.695 447.149C248.735 446.629 249.155 446.069 249.885 446.069C250.685 446.069 251.065 446.579 251.085 447.149H248.695ZM251.215 448.419C251.055 448.899 250.695 449.269 249.995 449.269C249.275 449.269 248.695 448.739 248.665 447.999H252.225C252.235 447.979 252.255 447.819 252.255 447.629C252.255 446.089 251.375 445.099 249.875 445.099C248.645 445.099 247.505 446.119 247.505 447.659C247.505 449.309 248.675 450.269 249.995 450.269C251.165 450.269 251.935 449.579 252.195 448.729L251.215 448.419ZM255.484 446.169C256.224 446.169 256.554 446.649 256.664 447.079L257.704 446.699C257.504 445.919 256.784 445.099 255.474 445.099C254.074 445.099 252.984 446.179 252.984 447.679C252.984 449.159 254.074 450.269 255.504 450.269C256.784 450.269 257.514 449.439 257.744 448.679L256.724 448.309C256.614 448.679 256.264 449.209 255.504 449.209C254.774 449.209 254.144 448.659 254.144 447.679C254.144 446.699 254.774 446.169 255.484 446.169ZM260.244 443.759H259.194V444.489C259.194 444.919 258.964 445.249 258.444 445.249H258.194V446.279H259.094V448.729C259.094 449.639 259.654 450.179 260.554 450.179C260.974 450.179 261.194 450.099 261.264 450.069V449.109C261.214 449.119 261.024 449.149 260.864 449.149C260.434 449.149 260.244 448.969 260.244 448.539V446.279H261.254V445.249H260.244V443.759Z" fill="black" fill-opacity="0.5"/>
<path d="M355.23 444.425C355.23 444.425 362.305 452.943 362.301 453.039C362.296 453.134 369.37 444.425 369.37 444.425" stroke="#09224C" stroke-width="2.06649" stroke-linecap="round"/>
<rect x="189.423" y="346.038" width="35.7351" height="36.6489" rx="5" fill="white"/>
<path d="M190.034 326.564V335.514H193.342C195.008 335.514 196.119 334.478 196.119 333.039C196.119 331.979 195.462 331.159 194.515 330.906C195.285 330.629 195.841 329.922 195.841 328.975C195.841 327.574 194.831 326.564 193.114 326.564H190.034ZM191.536 330.351V327.852H192.874C193.796 327.852 194.326 328.344 194.326 329.101C194.326 329.846 193.796 330.351 192.912 330.351H191.536ZM191.536 334.226V331.626H193.127C194.061 331.626 194.579 332.169 194.579 332.939C194.579 333.734 193.985 334.226 193.076 334.226H191.536ZM200.338 334.39C199.442 334.39 198.622 333.708 198.622 332.434C198.622 331.159 199.442 330.502 200.338 330.502C201.247 330.502 202.055 331.159 202.055 332.434C202.055 333.721 201.247 334.39 200.338 334.39ZM200.338 329.177C198.508 329.177 197.157 330.553 197.157 332.434C197.157 334.327 198.508 335.703 200.338 335.703C202.181 335.703 203.532 334.327 203.532 332.434C203.532 330.553 202.181 329.177 200.338 329.177ZM207.648 334.39C206.752 334.39 205.932 333.708 205.932 332.434C205.932 331.159 206.752 330.502 207.648 330.502C208.557 330.502 209.365 331.159 209.365 332.434C209.365 333.721 208.557 334.39 207.648 334.39ZM207.648 329.177C205.818 329.177 204.467 330.553 204.467 332.434C204.467 334.327 205.818 335.703 207.648 335.703C209.491 335.703 210.842 334.327 210.842 332.434C210.842 330.553 209.491 329.177 207.648 329.177ZM218.013 329.366H216.069L213.708 331.853V326.375H212.257V335.514H213.708V333.797L214.466 333.002L216.271 335.514H218.063L215.488 331.967L218.013 329.366ZM220.574 335.514V329.366H219.123V335.514H220.574ZM218.896 327.208C218.896 327.738 219.325 328.154 219.842 328.154C220.373 328.154 220.802 327.738 220.802 327.208C220.802 326.678 220.373 326.248 219.842 326.248C219.325 326.248 218.896 326.678 218.896 327.208ZM223.928 331.967C223.928 331.159 224.369 330.515 225.203 330.515C226.124 330.515 226.465 331.121 226.465 331.878V335.514H227.929V331.626C227.929 330.275 227.21 329.19 225.707 329.19C225.026 329.19 224.294 329.48 223.89 330.187V329.366H222.463V335.514H223.928V331.967ZM229.27 335.854C229.434 337.091 230.57 338.101 232.198 338.101C234.508 338.101 235.354 336.574 235.354 334.933V329.366H233.94V330.149C233.675 329.644 233.082 329.253 232.123 329.253C230.431 329.253 229.282 330.603 229.282 332.244C229.282 333.974 230.482 335.236 232.123 335.236C233.019 335.236 233.637 334.819 233.902 334.34V334.983C233.902 336.233 233.322 336.826 232.16 336.826C231.315 336.826 230.721 336.258 230.62 335.501L229.27 335.854ZM232.362 333.986C231.403 333.986 230.759 333.317 230.759 332.244C230.759 331.197 231.428 330.515 232.362 330.515C233.271 330.515 233.94 331.197 233.94 332.244C233.94 333.305 233.297 333.986 232.362 333.986ZM241.917 334.125V327.953H243.52C245.072 327.953 246.347 328.962 246.347 331.058C246.347 333.128 245.06 334.125 243.507 334.125H241.917ZM243.558 335.514C245.981 335.514 247.925 333.923 247.925 331.058C247.925 328.18 246.007 326.564 243.57 326.564H240.402V335.514H243.558ZM249.007 333.847C249.007 334.819 249.802 335.703 251.089 335.703C252.087 335.703 252.693 335.198 252.983 334.731C252.983 335.223 253.033 335.476 253.046 335.514H254.409C254.397 335.45 254.333 335.084 254.333 334.529V331.474C254.333 330.25 253.614 329.177 251.721 329.177C250.206 329.177 249.247 330.124 249.133 331.184L250.471 331.487C250.534 330.868 250.963 330.376 251.733 330.376C252.541 330.376 252.895 330.793 252.895 331.31C252.895 331.525 252.794 331.701 252.44 331.752L250.862 331.992C249.815 332.143 249.007 332.749 249.007 333.847ZM251.367 334.554C250.787 334.554 250.471 334.176 250.471 333.759C250.471 333.254 250.837 333.002 251.291 332.926L252.895 332.686V332.964C252.895 334.163 252.188 334.554 251.367 334.554ZM257.934 327.485H256.609V328.407C256.609 328.95 256.319 329.366 255.662 329.366H255.347V330.666H256.483V333.759C256.483 334.908 257.19 335.589 258.326 335.589C258.856 335.589 259.134 335.488 259.222 335.45V334.239C259.159 334.251 258.919 334.289 258.717 334.289C258.174 334.289 257.934 334.062 257.934 333.519V330.666H259.209V329.366H257.934V327.485ZM261.675 331.765C261.725 331.108 262.255 330.401 263.177 330.401C264.187 330.401 264.666 331.045 264.691 331.765H261.675ZM264.856 333.368C264.654 333.974 264.199 334.441 263.316 334.441C262.407 334.441 261.675 333.772 261.637 332.838H266.13C266.143 332.812 266.168 332.61 266.168 332.37C266.168 330.427 265.057 329.177 263.164 329.177C261.611 329.177 260.172 330.464 260.172 332.408C260.172 334.491 261.649 335.703 263.316 335.703C264.792 335.703 265.764 334.832 266.093 333.759L264.856 333.368ZM272.315 326.501H270.965L266.559 335.577H267.91L272.315 326.501ZM280.233 327.99V326.564H272.899V327.99H275.802V335.514H277.317V327.99H280.233ZM282.64 335.514V329.366H281.189V335.514H282.64ZM280.962 327.208C280.962 327.738 281.391 328.154 281.908 328.154C282.438 328.154 282.868 327.738 282.868 327.208C282.868 326.678 282.438 326.248 281.908 326.248C281.391 326.248 280.962 326.678 280.962 327.208ZM285.981 335.514V331.866C285.981 331.083 286.473 330.502 287.256 330.502C288.089 330.502 288.442 331.058 288.442 331.765V335.514H289.881V331.866C289.881 331.108 290.386 330.502 291.156 330.502C291.977 330.502 292.343 331.045 292.343 331.765V335.514H293.757V331.525C293.757 329.896 292.696 329.19 291.585 329.19C290.79 329.19 290.071 329.467 289.591 330.275C289.263 329.556 288.556 329.19 287.748 329.19C287.054 329.19 286.284 329.518 285.93 330.149V329.366H284.529V335.514H285.981ZM296.572 331.765C296.623 331.108 297.153 330.401 298.074 330.401C299.084 330.401 299.564 331.045 299.589 331.765H296.572ZM299.753 333.368C299.551 333.974 299.097 334.441 298.213 334.441C297.304 334.441 296.572 333.772 296.534 332.838H301.028C301.04 332.812 301.066 332.61 301.066 332.37C301.066 330.427 299.955 329.177 298.062 329.177C296.509 329.177 295.07 330.464 295.07 332.408C295.07 334.491 296.547 335.703 298.213 335.703C299.69 335.703 300.662 334.832 300.99 333.759L299.753 333.368Z" fill="black"/>
<path d="M308.07 326.564H306.884V328.218L305.381 327.7L305.015 328.786L306.543 329.291L305.583 330.565L306.517 331.247L307.464 329.934L308.474 331.26L309.395 330.578L308.411 329.291L309.938 328.786L309.572 327.7L308.07 328.205V326.564Z" fill="#FF0000"/>
<rect x="230.836" y="346.038" width="35.7351" height="36.6489" rx="5" fill="white"/>
<rect x="272.248" y="346.038" width="71.2642" height="36.6489" rx="5" fill="white"/>
<path d="M372.623 369.079C372.623 368.76 372.473 368.476 372.241 368.293C372.473 368.11 372.623 367.826 372.623 367.507V364.363C372.623 364.15 372.556 363.953 372.443 363.791H372.943V372.794H372.443C372.556 372.632 372.623 372.435 372.623 372.223V369.079ZM367.528 372.223C367.528 372.435 367.594 372.632 367.707 372.794H367.028C367.141 372.632 367.207 372.435 367.207 372.223V369.079C367.207 368.76 367.058 368.476 366.826 368.293C367.058 368.11 367.207 367.826 367.207 367.507V364.363C367.207 364.15 367.141 363.953 367.028 363.791H367.707C367.594 363.953 367.528 364.15 367.528 364.363V367.507C367.528 367.826 367.677 368.11 367.91 368.293C367.677 368.476 367.528 368.76 367.528 369.079V372.223ZM362.113 372.223C362.113 372.435 362.179 372.632 362.292 372.794H361.614C361.727 372.632 361.793 372.435 361.793 372.223V369.079C361.793 368.76 361.644 368.476 361.412 368.293C361.644 368.11 361.793 367.826 361.793 367.507V364.363C361.793 364.15 361.727 363.953 361.614 363.791H362.292C362.179 363.953 362.113 364.15 362.113 364.363V367.507C362.113 367.826 362.262 368.11 362.494 368.293C362.262 368.476 362.113 368.76 362.113 369.079V372.223ZM356.699 372.223C356.699 372.435 356.765 372.632 356.878 372.794H356.378V363.791H356.878C356.765 363.953 356.699 364.15 356.699 364.363V367.507C356.699 367.826 356.848 368.11 357.08 368.293C356.848 368.476 356.699 368.76 356.699 369.079V372.223ZM374.717 353.145C374.515 353.145 374.327 353.205 374.169 353.308V352.573C374.169 352.021 373.722 351.573 373.169 351.573H369.302C368.75 351.573 368.302 352.021 368.302 352.573V353.307C368.145 353.204 367.957 353.145 367.755 353.145H361.567C361.365 353.145 361.177 353.205 361.02 353.308V352.573C361.02 352.021 360.572 351.573 360.02 351.573H356.152C355.6 351.573 355.152 352.021 355.152 352.573V353.307C354.995 353.204 354.807 353.145 354.606 353.145H352.285C351.733 353.145 351.285 353.592 351.285 354.145V376.152C351.285 376.705 351.733 377.152 352.285 377.152H377.038C377.59 377.152 378.038 376.705 378.038 376.152V354.145C378.038 353.592 377.59 353.145 377.038 353.145H374.717Z" fill="#F38632" stroke="white" stroke-width="2" stroke-linejoin="round"/>
<path d="M569.127 242.944C569.127 242.944 585.333 271.14 586.172 264.451C586.172 264.451 583.178 221.534 572.312 214.192C561.438 206.871 542.163 201.72 542.163 201.72L569.127 242.944Z" fill="#349102"/>
<path d="M542.164 201.72C542.164 201.72 509.851 191.185 502.464 201.72C495.084 212.233 524.797 265.726 514.975 283.592C505.153 301.459 513.168 322.421 537.962 332.919C562.719 343.434 571.06 341.038 579.639 328.56C588.217 316.082 592.58 313.688 589.847 290.176C587.114 266.665 581.323 239.124 574.48 227.892C566.332 214.491 542.164 201.72 542.164 201.72Z" fill="#47C405"/>
<path d="M484.648 202.795C486.099 200.976 488.488 199.613 491.407 198.596C513.08 187.277 539.1 205.945 540.439 213.818C542.777 227.671 533.34 259.948 549.925 282.769C563.747 301.76 556.964 326.075 555.452 338.04C548.344 337.213 546.87 336.298 537.374 332.702C505.843 320.755 488.697 297.948 478.425 276.282C473.294 253.263 476.341 213.111 484.648 202.795Z" fill="#349102"/>
<path d="M576.959 263.099L550.736 269.966C550.736 269.966 560.149 291.39 563.442 291.83C577.647 293.762 587.822 283.796 587.822 283.796L576.959 263.099Z" fill="#349102"/>
<path d="M560.837 280.697L556.315 268.493L572.142 264.362L576.861 277.101C577.254 278.172 576.05 279.378 574.158 279.798L564.966 281.864C563.098 282.285 561.255 281.769 560.837 280.697Z" fill="#CCEA2A"/>
<path d="M475.33 498.498L474.57 504.868L485.709 505.76L487.228 498.88L475.33 498.498Z" fill="#F3B484"/>
<path d="M493.429 213.491C480.392 203.171 461.026 236.296 442.672 242.284L418.116 221.899L411.534 225.594C417.61 232.856 425.205 246.998 437.482 257.318C446.849 265.345 485.202 233.493 491.404 226.486C501.024 215.402 493.429 213.491 493.429 213.491Z" fill="#C4891D"/>
<path d="M510.138 304.968L495.961 398.739C509.125 402.052 527.911 434.788 547.404 467.277L529.898 479.174C529.898 479.174 479.38 432.247 471.405 407.785C463.558 383.833 477.101 307.261 477.101 307.261L510.138 304.968Z" fill="#22698B"/>
<g clip-path="url(#clip0)">
<path d="M525.37 475.551C525.37 475.551 530.791 483.469 532.472 486.109C534.154 488.748 528.308 497.378 527.764 503.608C527.219 509.838 535.293 511.617 535.293 511.617L551.203 498.596L556.342 487.293C556.342 487.293 563.08 481.713 563.824 478.534C564.569 475.356 549.224 464.813 547.075 466.201C544.927 467.589 536.772 473.455 532.405 472.487C528.038 471.583 525.37 475.551 525.37 475.551Z" fill="#FEC14F"/>
<path d="M535.594 511.807C535.594 511.807 532.46 511.81 530.682 509.58C530.682 509.58 537.015 508.982 541.622 504.397C546.23 499.812 547.514 496.141 547.514 496.141L552.638 486.104C553.523 485.536 557.593 478.923 561.458 474.763C563.021 476.334 564.019 477.716 563.824 478.597C563.08 481.776 556.342 487.356 556.342 487.356L551.643 498.658C551.643 498.658 547.855 504.526 544.444 507.233C541.075 509.906 535.594 511.807 535.594 511.807Z" fill="#D29420"/>
</g>
<path d="M511.403 144.818C511.403 144.818 502.543 143.034 488.493 159.725C479.633 170.299 474.949 189.538 483.05 190.047C491.151 190.557 493.429 176.16 493.429 176.16L492.67 168.133L493.176 163.037L498.872 158.578L507.606 152.717L511.403 144.818Z" fill="#BD5D00"/>
<path d="M515.96 185.844C515.707 185.844 515.58 185.716 515.454 185.716C515.327 185.716 498.366 186.481 498.999 195.144C500.011 208.394 500.265 205.846 496.467 209.414C495.202 210.56 499.758 214.637 503.935 223.938C513.808 214.255 513.935 215.02 516.466 212.217C516.973 211.58 525.074 214.765 525.074 214C525.074 213.746 515.327 208.394 515.074 208.012C514.061 206.101 514.441 199.094 515.96 185.844Z" fill="#F3B484"/>
<path d="M529.757 172.593L526.213 160.489C517.226 144.564 506.467 142.143 494.062 153.355C487.987 158.706 486.215 164.311 485.076 170.682C482.797 184.059 488.493 197.564 498.493 197.564C508.365 197.564 516.213 194.125 522.289 187.117L529.757 172.593Z" fill="#F3B484"/>
<path d="M483.81 163.929C483.81 151.189 488.873 144.054 498.872 142.27C509.758 140.487 522.162 142.398 529.63 152.208C545.199 172.72 516.34 196.545 515.454 192.85C514.947 190.43 518.112 185.206 520.77 181.384C522.289 181.129 523.555 180.492 524.694 179.473C527.352 177.562 527.478 170.3 522.922 170.3C518.365 170.3 518.491 181.002 516.846 176.67C515.833 173.867 514.314 172.211 512.542 171.828C509.125 170.682 506.72 169.79 505.328 169.28C503.302 168.388 505.328 154.374 504.188 160.107C503.809 162.528 503.176 165.076 502.543 167.497C492.29 168.771 485.961 167.497 483.81 163.929Z" fill="#BD5D00"/>
<path d="M517.986 159.342L525.327 166.859L530.01 172.465L529.377 177.562L526.972 185.206C526.972 185.206 526.213 199.73 534.187 201.004C542.162 202.278 541.655 182.403 535.073 170.172C524.821 150.934 515.707 150.806 515.707 150.806L517.986 159.342Z" fill="#BD5D00"/>
<path d="M530.896 334.908L509.758 314.268H493.936L488.113 361.154L480.899 411.479L474.317 505.887L495.708 512.894C495.708 512.894 498.746 500.918 504.062 481.807C509.378 462.696 510.264 413.263 511.657 401.032C513.049 388.801 530.263 345.101 530.263 345.101L530.896 334.908Z" fill="#297BA3"/>
<g clip-path="url(#clip1)">
<path d="M474.226 494.763C474.226 494.763 472.484 504.199 471.814 507.256C471.144 510.313 460.913 512.307 456.132 516.339C451.352 520.37 455.819 527.326 455.819 527.326L476.281 529.32L487.897 524.934C487.897 524.934 496.609 525.731 499.379 524.003C502.149 522.275 498.709 503.978 496.207 503.446C493.705 502.915 483.787 501.32 481.375 497.554C478.917 493.832 474.226 494.763 474.226 494.763Z" fill="#FEC14F"/>
<path d="M455.898 527.674C455.898 527.674 453.675 525.465 453.988 522.63C453.988 522.63 458.898 526.674 465.398 526.674C471.898 526.674 475.398 524.978 475.398 524.978L486.11 521.478C487.138 521.699 494.688 519.883 500.362 519.661C500.362 521.877 500.094 523.56 499.335 524.047C496.565 525.775 487.853 524.978 487.853 524.978L476.55 529.674C476.55 529.674 469.726 531.162 465.398 530.674C461.124 530.192 455.898 527.674 455.898 527.674Z" fill="#D29420"/>
</g>
<path d="M410.902 220.116C409.13 220.243 407.484 218.969 407.357 217.185L401.029 184.314C400.522 182.531 401.535 180.747 403.307 180.237L414.066 185.461C415.712 186.098 417.61 187.117 417.99 189.156L424.319 222.027C424.825 223.81 423.812 225.594 422.04 226.104L410.902 220.116Z" fill="#30393E"/>
<path d="M417.357 230.818C406.978 226.741 404.953 214.127 404.953 214.127C404.953 214.127 408.37 206.356 411.915 205.464C415.459 204.572 408.75 213.49 408.75 213.49L413.687 208.904C418.623 204.317 418.37 208.267 418.37 208.267L414.066 213.872L416.724 212.216C422.927 208.267 421.661 212.726 421.661 212.726C421.661 212.726 417.99 215.019 418.117 217.312C418.37 219.606 418.876 221.899 419.636 224.192L417.357 230.818Z" fill="#F3B484"/>
<path d="M526.212 355.293C526.212 355.293 472.038 324.206 473.05 322.677C474.063 321.148 481.278 265.217 477.101 252.731C468.873 228.015 487.227 208.649 487.227 208.649C499.125 208.012 511.15 209.286 522.668 212.598C526.086 213.49 528.364 216.675 528.238 220.243L531.655 288.66C531.655 288.66 540.515 338.858 526.212 355.293Z" fill="#D29420"/>
<path d="M514.898 193.174C518.498 189.974 519.065 194.007 518.898 195.674C518.898 196.674 518.698 199.174 517.898 201.174C516.898 203.674 518.898 203.674 518.898 206.174C518.898 208.174 516.732 209.341 515.898 209.174L514.398 211.174C513.898 211.507 512.098 212.274 510.898 214.674C509.398 217.674 494.898 218.674 491.898 217.174C488.898 215.674 485.398 211.174 490.398 208.174C495.398 205.174 489.215 203.752 491.898 200.174C493.398 198.174 493.398 197.174 496.398 197.174C496.898 199.674 500.898 200.174 504.898 199.174C508.898 198.174 510.398 197.174 514.898 193.174Z" fill="#D29420"/>
<path d="M518.768 208.174L530.768 214.174C527.268 214.174 521.568 214.774 518.768 223.174C516.435 230.174 519.428 246.674 520.268 251.174C521.114 255.705 504.898 227.674 507.398 219.674C509.398 213.274 514.898 208.174 518.768 208.174Z" fill="#307E06"/>
<path d="M488.052 206.464H492.336C489.554 207.464 485.399 212.668 481.201 220.464C478.095 226.234 475.274 239.118 475.267 245.088C475.522 247.329 475.648 248.302 475.405 246.997C475.31 246.49 475.266 245.845 475.267 245.088C474.635 239.55 473.211 226.264 474.617 220.464C477.447 208.79 484.429 206.88 488.052 206.464Z" fill="#307E06"/>
<path d="M500.773 199.674C500.273 199.841 499.173 200.874 498.773 203.674C498.273 207.174 499.536 205.747 498.773 209.674C497.898 214.174 498.937 212.617 494.898 218.674C492.898 221.674 484.398 237.174 487.898 250.174C491.398 263.174 490.524 276.674 490.898 278.674M491.398 291.674C491.065 298.341 489.898 312.974 487.898 318.174C485.898 323.374 484.398 328.341 483.898 330.174" stroke="#FEC14F" stroke-width="2"/>
<path d="M454.824 287.386C455.33 288.15 461.406 287.131 464.95 286.876C463.937 287.259 458.748 288.66 458.748 289.297C458.621 289.552 458.621 289.679 458.621 290.062C458.621 290.189 459.127 290.571 459.254 290.571C460.013 290.953 461.532 290.953 465.203 290.571C462.418 291.59 461.659 292.1 461.659 292.992C461.532 293.502 461.912 293.884 462.292 294.266C463.304 294.903 465.456 294.393 468.621 293.501C466.849 294.521 466.089 295.03 466.089 295.795C466.089 296.304 466.342 296.687 466.595 296.941C467.228 297.324 468.874 298.47 486.848 291.081C491.658 289.042 503.303 288.023 503.429 288.15L504.315 288.023L505.075 276.939L487.607 280.379C484.696 278.085 481.785 276.174 478.62 274.263C477.101 273.371 475.582 272.48 474.317 271.715C470.772 269.422 469.507 268.912 468.747 269.549C468.494 269.804 468.114 270.314 468.494 271.205C469.253 272.479 470.393 273.626 471.532 274.645C472.798 275.919 475.582 278.722 475.582 279.614C474.949 280.251 469.127 281.78 465.203 282.927C456.596 285.22 455.203 285.857 454.824 286.876V287.259V287.386Z" fill="#F3B484"/>
<path d="M524.061 214C508.239 218.841 524.061 253.751 518.365 272.352L487.734 279.174L487.734 291.674C497.1 290.782 512.29 289.424 527.732 285.22C539.63 282.162 535.706 232.219 533.554 223.046C530.01 208.776 524.061 214 524.061 214Z" fill="#C4891D"/>
<g opacity="0.61">
<path opacity="0.61" d="M497.14 185.87C497.35 185.912 497.476 185.829 497.559 185.663C497.685 185.456 497.643 185.167 497.476 185.001C496.638 184.381 496.009 184.339 495.465 184.298C495.088 184.256 494.878 184.256 494.711 184.05C494.501 183.843 494.418 183.636 494.418 183.346C494.418 183.057 494.627 182.85 494.795 182.684C497.308 181.153 497.35 179.084 497.35 178.008C497.35 177.76 497.14 177.553 496.889 177.553C496.638 177.553 496.428 177.76 496.428 178.008C496.428 179.043 496.386 180.657 494.292 181.939C493.831 182.229 493.496 182.725 493.454 183.305C493.412 183.884 493.664 184.381 494.082 184.753C494.501 185.125 494.92 185.167 495.381 185.208C495.8 185.25 496.303 185.291 496.889 185.787C496.973 185.829 497.099 185.87 497.14 185.87Z" fill="#DF7E5A"/>
</g>
<path d="M501.708 190.282C501.708 190.282 496.849 190.158 493.456 189.124C493.456 189.124 493.246 191.524 495.299 192.724C496.639 193.51 498.399 193.469 499.655 192.6C501.08 191.689 501.708 190.282 501.708 190.282Z" fill="#D86437"/>
<path opacity="0.2" d="M504.883 187.645C506.491 188.462 508.637 187.466 509.676 185.42C510.714 183.375 510.252 181.055 508.644 180.238C507.036 179.422 504.891 180.418 503.852 182.463C502.813 184.509 503.275 186.829 504.883 187.645Z" fill="#DD6637"/>
<path opacity="0.2" d="M487.681 184.918C489.038 184.775 489.941 182.809 489.7 180.528C489.458 178.246 488.163 176.514 486.807 176.657C485.451 176.801 484.547 178.766 484.788 181.048C485.03 183.329 486.325 185.062 487.681 184.918Z" fill="#DD6637"/>
<path d="M502.23 172.107C503.489 171.506 506.641 171.235 509.18 174.966" stroke="#C98659" stroke-linecap="round"/>
<path d="M494.76 170.82C493.773 170.311 491.201 169.494 488.316 171.195" stroke="#C98659" stroke-linecap="round"/>
<path d="M492.588 174.128C492.663 174.622 492.57 175.099 492.352 175.562C492.138 175.972 491.763 176.31 491.368 176.431C491.189 176.52 490.973 176.551 490.763 176.529C490.553 176.507 490.349 176.431 490.192 176.306C490.036 176.182 489.837 176.053 489.734 175.826C489.625 175.652 489.521 175.425 489.466 175.149C489.39 174.655 489.483 174.178 489.702 173.715C489.915 173.305 490.291 172.967 490.685 172.846C490.865 172.757 491.08 172.726 491.29 172.748C491.5 172.77 491.705 172.846 491.861 172.97C492.018 173.095 492.174 173.22 492.32 173.451C492.465 173.683 492.569 173.91 492.588 174.128Z" fill="#724422"/>
<path d="M505.732 175.934C505.782 176.429 505.667 176.956 505.443 177.413C505.179 177.864 504.821 178.139 504.446 178.249C504.235 178.327 504.039 178.3 503.843 178.272C503.647 178.245 503.459 178.164 503.317 178.035C503.137 177.901 503.002 177.719 502.907 177.543C502.812 177.367 502.725 177.137 502.684 176.86C502.634 176.365 502.748 175.838 502.973 175.382C503.236 174.93 503.595 174.655 503.97 174.546C504.181 174.467 504.377 174.494 504.572 174.522C504.768 174.55 504.957 174.631 505.098 174.759C505.279 174.893 505.413 175.075 505.508 175.251C505.603 175.427 505.691 175.657 505.732 175.934Z" fill="#724422"/>
<defs>
<filter id="filter0_d" x="439.083" y="23.949" width="101.664" height="101.664" filterUnits="userSpaceOnUse" color-interpolation-filters="sRGB">
<feFlood flood-opacity="0" result="BackgroundImageFix"/>
<feColorMatrix in="SourceAlpha" type="matrix" values="0 0 0 0 0 0 0 0 0 0 0 0 0 0 0 0 0 0 127 0" result="hardAlpha"/>
<feOffset dx="4" dy="4"/>
<feColorMatrix type="matrix" values="0 0 0 0 0.509804 0 0 0 0 0.509804 0 0 0 0 0.509804 0 0 0 0.25 0"/>
<feBlend mode="normal" in2="BackgroundImageFix" result="effect1_dropShadow"/>
<feBlend mode="normal" in="SourceGraphic" in2="effect1_dropShadow" result="shape"/>
</filter>
<linearGradient id="paint0_linear" x1="522.125" y1="38.5341" x2="454.482" y2="106.177" gradientUnits="userSpaceOnUse">
<stop stop-color="white"/>
<stop offset="0.8446" stop-color="white"/>
</linearGradient>
<clipPath id="clip0">
<rect width="47" height="35" fill="white" transform="matrix(-0.708812 0.705397 0.705397 0.708812 544.213 456.674)"/>
</clipPath>
<clipPath id="clip1">
<rect width="47" height="35" fill="white" transform="matrix(-1 0 0 1 500.898 494.674)"/>
</clipPath>
</defs>
</svg>
