<svg width="557" height="395" viewBox="0 0 657 495" fill="none" xmlns="http://www.w3.org/2000/svg">
<path d="M4.68988 325.02C12.0982 349.174 25.0628 441.216 153.782 485.921C282.502 530.627 371.031 389.887 496.325 376.543C621.525 363.2 659.215 353.85 655.881 280.704C652.548 207.558 559.666 102.465 433.169 43.8317C284.632 -24.9313 165.913 -4.47775 93.3119 55.6168C-8.18207 139.769 -5.21875 292.976 4.68988 325.02Z" fill="#DAE6FF"/>
<path d="M237.421 50.3159H513.999V425.538H237.421V50.3159Z" fill="#D29420"/>
<path d="M493.951 59.0903H255.919C252.455 59.0903 249.646 61.7188 249.646 64.9613V394.832C249.646 398.075 252.455 400.703 255.919 400.703H493.951C497.415 400.703 500.223 398.075 500.223 394.832V64.9613C500.223 61.7188 497.415 59.0903 493.951 59.0903Z" fill="white"/>
<rect x="360.98" y="127.13" width="47.4049" height="10" fill="#CBCBCB"/>
<path d="M336.298 371.061H413.416C414.976 371.061 416.17 372.235 416.17 373.772V387.327C416.17 388.863 414.976 390.037 413.416 390.037H336.298C334.737 390.037 333.544 388.863 333.544 387.327V373.772C333.544 372.326 334.829 371.061 336.298 371.061Z" fill="#58B966"/>
<path d="M354.659 379.374C354.567 378.742 354.016 377.838 352.547 377.838C351.446 377.838 350.528 378.651 350.528 379.645C350.528 380.549 351.17 381.091 352.088 381.272L352.915 381.453C353.374 381.543 353.649 381.814 353.649 382.175C353.649 382.537 353.282 382.898 352.731 382.898C351.905 382.898 351.538 382.356 351.446 381.814L350.344 382.085C350.436 382.898 351.079 383.892 352.639 383.892C354.016 383.892 354.751 382.989 354.751 382.085C354.751 381.272 354.2 380.549 353.098 380.368L352.272 380.187C351.813 380.097 351.629 379.826 351.629 379.555C351.629 379.193 351.997 378.832 352.547 378.832C353.282 378.832 353.557 379.284 353.649 379.645L354.659 379.374ZM358.148 383.712H359.158C359.158 383.531 359.158 383.26 359.158 382.989V379.736H358.056V382.085C358.056 382.537 357.78 382.898 357.321 382.898C356.771 382.898 356.587 382.537 356.587 382.085V379.736H355.485V382.266C355.485 383.17 356.036 383.802 357.046 383.802C357.505 383.802 357.964 383.621 358.148 383.26C358.148 383.441 358.148 383.621 358.148 383.712ZM361.453 383.712V383.26C361.636 383.621 362.095 383.802 362.646 383.802C363.84 383.802 364.574 382.898 364.574 381.724C364.574 380.549 363.932 379.645 362.738 379.645C362.095 379.645 361.728 379.916 361.545 380.187V377.838H360.443V383.712H361.453ZM363.472 381.724C363.472 382.447 363.013 382.898 362.463 382.898C361.912 382.898 361.453 382.447 361.453 381.724C361.453 381.001 361.912 380.549 362.463 380.549C363.013 380.639 363.472 381.001 363.472 381.724ZM366.502 383.712V381.362C366.502 380.91 366.778 380.549 367.237 380.549C367.696 380.549 367.971 380.91 367.971 381.272V383.621H369.073V381.272C369.073 380.82 369.348 380.459 369.807 380.459C370.266 380.459 370.542 380.82 370.542 381.181V383.531H371.643V380.91C371.643 379.826 370.909 379.374 370.174 379.374C369.624 379.374 369.165 379.555 368.889 380.007C368.705 379.555 368.246 379.374 367.696 379.374C367.237 379.374 366.686 379.555 366.502 380.007V379.555H365.492V383.531H366.502V383.712ZM373.847 383.712V379.736H372.745V383.712H373.847ZM372.561 378.47C372.561 378.832 372.837 379.103 373.204 379.103C373.571 379.103 373.847 378.832 373.847 378.47C373.847 378.109 373.571 377.838 373.204 377.838C372.929 377.748 372.561 378.019 372.561 378.47ZM376.325 378.561H375.316V379.103C375.316 379.464 375.132 379.736 374.673 379.736H374.489V380.73H375.224V382.627C375.224 383.441 375.683 383.892 376.509 383.892C376.876 383.892 377.06 383.802 377.152 383.802V382.898C377.06 382.898 376.968 382.898 376.784 382.898C376.509 382.898 376.325 382.808 376.325 382.447V380.73H377.152V379.736H376.325V378.561ZM381.375 383.712V381.453H383.67V380.459H381.375V379.013H383.945V378.019H380.273V383.802H381.375V383.712ZM386.332 382.898C385.782 382.898 385.322 382.537 385.322 381.724C385.322 381.001 385.782 380.549 386.332 380.549C386.883 380.549 387.342 380.91 387.342 381.724C387.342 382.537 386.883 382.898 386.332 382.898ZM386.332 379.645C385.139 379.645 384.221 380.549 384.221 381.724C384.221 382.989 385.139 383.802 386.332 383.802C387.526 383.802 388.444 382.898 388.444 381.724C388.444 380.549 387.526 379.645 386.332 379.645ZM391.841 379.736C391.749 379.736 391.657 379.736 391.565 379.736C391.198 379.736 390.647 379.826 390.372 380.368V379.736H389.27V383.712H390.372V381.904C390.372 381.001 390.831 380.73 391.382 380.73C391.474 380.73 391.565 380.73 391.749 380.73V379.736H391.841ZM393.677 383.712V381.362C393.677 380.91 393.952 380.549 394.411 380.549C394.87 380.549 395.146 380.91 395.146 381.272V383.621H396.247V381.272C396.247 380.82 396.523 380.459 396.982 380.459C397.441 380.459 397.716 380.82 397.716 381.181V383.531H398.818V380.91C398.818 379.826 398.084 379.374 397.349 379.374C396.798 379.374 396.339 379.555 396.064 380.007C395.88 379.555 395.421 379.374 394.87 379.374C394.411 379.374 393.861 379.555 393.677 380.007V379.555H392.667V383.531H393.677V383.712Z" fill="white"/>
<path d="M406.621 380.549L432.97 442.721L443.068 425.099L450.688 431.967C454.269 435.13 459.777 434.949 463.082 431.425C466.296 427.901 466.112 422.479 462.531 419.226L454.912 412.358L471.804 400.881L406.621 380.549Z" fill="white"/>
<path d="M463.725 402.056L412.865 386.242L433.429 434.678L442.151 419.497L453.168 429.347C455.279 431.244 458.492 431.064 460.42 428.985C462.348 426.907 462.165 423.744 460.053 421.846L449.036 411.996L463.725 402.056Z" fill="#303339"/>
<path d="M478.761 221.472H276.994V264.972H478.761V221.472Z" fill="#F5F5F5"/>
<path d="M478.275 221.996H277.48V264.448H478.275V221.996Z" stroke="#DBDBDB" stroke-width="1.15154"/>
<path d="M297.225 315.605C300.171 315.605 302.56 313.225 302.56 310.288C302.56 307.352 300.171 304.972 297.225 304.972C294.278 304.972 291.89 307.352 291.89 310.288C291.89 313.225 294.278 315.605 297.225 315.605Z" fill="white"/>
<path d="M297.224 315.121C299.902 315.121 302.074 312.957 302.074 310.288C302.074 307.619 299.902 305.455 297.224 305.455C294.545 305.455 292.374 307.619 292.374 310.288C292.374 312.957 294.545 315.121 297.224 315.121Z" stroke="#09224C" stroke-width="1.15154"/>
<path d="M297.225 331.071C300.171 331.071 302.56 328.691 302.56 325.755C302.56 322.818 300.171 320.438 297.225 320.438C294.278 320.438 291.89 322.818 291.89 325.755C291.89 328.691 294.278 331.071 297.225 331.071Z" fill="white"/>
<path d="M297.224 330.587C299.902 330.587 302.074 328.424 302.074 325.754C302.074 323.085 299.902 320.921 297.224 320.921C294.545 320.921 292.374 323.085 292.374 325.754C292.374 328.424 294.545 330.587 297.224 330.587Z" stroke="#09224C" stroke-width="1.15154"/>
<path d="M297.225 362.605C300.171 362.605 302.56 360.225 302.56 357.288C302.56 354.352 300.171 351.972 297.225 351.972C294.278 351.972 291.89 354.352 291.89 357.288C291.89 360.225 294.278 362.605 297.225 362.605Z" fill="white"/>
<path d="M297.224 362.121C299.902 362.121 302.074 359.957 302.074 357.288C302.074 354.619 299.902 352.455 297.224 352.455C294.545 352.455 292.374 354.619 292.374 357.288C292.374 359.957 294.545 362.121 297.224 362.121Z" stroke="#09224C" stroke-width="1.15154"/>
<path d="M297.225 346.537C300.171 346.537 302.56 344.157 302.56 341.221C302.56 338.285 300.171 335.904 297.225 335.904C294.278 335.904 291.89 338.285 291.89 341.221C291.89 344.157 294.278 346.537 297.225 346.537Z" fill="white"/>
<path d="M297.224 346.054C299.902 346.054 302.074 343.89 302.074 341.221C302.074 338.552 299.902 336.388 297.224 336.388C294.545 336.388 292.374 338.552 292.374 341.221C292.374 343.89 294.545 346.054 297.224 346.054Z" stroke="#09224C" stroke-width="1.15154"/>
<path d="M297.035 150.949C299.982 150.949 302.371 148.569 302.371 145.633C302.371 142.696 299.982 140.316 297.035 140.316C294.089 140.316 291.7 142.696 291.7 145.633C291.7 148.569 294.089 150.949 297.035 150.949Z" fill="white"/>
<path d="M297.034 150.466C299.713 150.466 301.884 148.302 301.884 145.633C301.884 142.963 299.713 140.8 297.034 140.8C294.356 140.8 292.184 142.963 292.184 145.633C292.184 148.302 294.356 150.466 297.034 150.466Z" stroke="#09224C" stroke-width="1.15154"/>
<path d="M297.035 166.416C299.982 166.416 302.371 164.035 302.371 161.099C302.371 158.163 299.982 155.782 297.035 155.782C294.089 155.782 291.7 158.163 291.7 161.099C291.7 164.035 294.089 166.416 297.035 166.416Z" fill="white"/>
<path d="M297.034 165.932C299.713 165.932 301.884 163.768 301.884 161.099C301.884 158.43 299.713 156.266 297.034 156.266C294.356 156.266 292.184 158.43 292.184 161.099C292.184 163.768 294.356 165.932 297.034 165.932Z" stroke="#09224C" stroke-width="1.15154"/>
<path d="M297.035 197.949C299.982 197.949 302.371 195.569 302.371 192.633C302.371 189.696 299.982 187.316 297.035 187.316C294.089 187.316 291.7 189.696 291.7 192.633C291.7 195.569 294.089 197.949 297.035 197.949Z" fill="white"/>
<path d="M297.034 197.465C299.713 197.465 301.884 195.302 301.884 192.632C301.884 189.963 299.713 187.799 297.034 187.799C294.356 187.799 292.184 189.963 292.184 192.632C292.184 195.302 294.356 197.465 297.034 197.465Z" stroke="#09224C" stroke-width="1.15154"/>
<path d="M297.035 181.882C299.982 181.882 302.371 179.501 302.371 176.565C302.371 173.629 299.982 171.249 297.035 171.249C294.089 171.249 291.7 173.629 291.7 176.565C291.7 179.501 294.089 181.882 297.035 181.882Z" fill="white"/>
<path d="M297.034 181.398C299.713 181.398 301.884 179.234 301.884 176.565C301.884 173.896 299.713 171.732 297.034 171.732C294.356 171.732 292.184 173.896 292.184 176.565C292.184 179.234 294.356 181.398 297.034 181.398Z" stroke="#09224C" stroke-width="1.15154"/>
<rect x="278.152" y="127.13" width="68.2547" height="10" fill="#CBCBCB"/>
<rect x="278.152" y="202.472" width="45.9284" height="10" fill="#CBCBCB"/>
<rect x="330.101" y="202.472" width="71.7425" height="10" fill="#CBCBCB"/>
<rect x="277.48" y="278.972" width="62.9072" height="10" fill="#CBCBCB"/>
<rect x="345.917" y="278.972" width="40.1291" height="10" fill="#CBCBCB"/>
<rect x="308.995" y="305.033" width="40.1291" height="10" fill="#CBCBCB"/>
<rect width="40.1291" height="10" transform="matrix(1 0 0 -1 306.814 197.316)" fill="#CBCBCB"/>
<rect x="308.933" y="320.499" width="60.3043" height="10" fill="#CBCBCB"/>
<rect width="60.3043" height="10" transform="matrix(1 0 0 -1 306.753 181.85)" fill="#CBCBCB"/>
<rect x="308.933" y="352.033" width="60.3043" height="10" fill="#CBCBCB"/>
<rect width="60.3043" height="10" transform="matrix(1 0 0 -1 306.753 150.316)" fill="#CBCBCB"/>
<rect x="308.933" y="335.332" width="34.9929" height="10" fill="#CBCBCB"/>
<rect width="34.9929" height="10" transform="matrix(1 0 0 -1 306.753 167.017)" fill="#CBCBCB"/>
<rect x="405.092" y="202.472" width="33.7692" height="10" fill="#CBCBCB"/>
<path d="M308.598 102.105C308.826 102.18 308.977 102.406 308.901 102.708C308.901 102.859 308.826 102.935 308.826 103.085C308.826 103.689 309.204 104.142 309.734 104.368C309.961 104.444 310.113 104.745 310.037 104.972C309.961 105.198 309.81 105.273 309.583 105.273C309.507 105.273 309.507 105.273 309.431 105.273C308.523 104.972 307.917 104.066 307.917 103.161C307.917 102.935 307.917 102.708 307.993 102.482C308.068 102.18 308.296 102.029 308.598 102.105Z" fill="#167A9A"/>
<path d="M316.624 96.823C316.852 96.5967 317.003 96.2194 317.003 95.8422C317.003 95.0877 316.397 94.4841 315.64 94.4841C315.413 94.4841 315.186 94.2577 315.186 94.0314C315.186 93.805 315.413 93.5787 315.64 93.5787C316.927 93.5787 317.912 94.635 317.912 95.8422C317.912 96.4458 317.684 97.0494 317.23 97.5021C317.154 97.5775 317.003 97.653 316.927 97.653C316.852 97.653 316.7 97.5775 316.624 97.5021C316.397 97.2757 316.397 96.9739 316.624 96.823Z" fill="#167A9A"/>
<path d="M357.813 98.7848V87.5427H355.239L351.604 96.144L347.97 87.5427H345.396V98.7848H347.289V90.5607L350.772 98.7848H352.437L355.92 90.4852V98.7848H357.813ZM361.674 94.1068C361.75 93.2769 362.432 92.3715 363.567 92.3715C364.854 92.3715 365.46 93.2014 365.46 94.1068H361.674ZM365.687 96.0686C365.46 96.8231 364.854 97.4267 363.719 97.4267C362.583 97.4267 361.674 96.5967 361.599 95.3895H367.277C367.277 95.3895 367.353 95.0877 367.353 94.7859C367.353 92.3715 365.99 90.787 363.567 90.787C361.599 90.787 359.782 92.3715 359.782 94.8613C359.782 97.5021 361.674 99.0111 363.719 99.0111C365.612 99.0111 366.823 97.9548 367.202 96.5967L365.687 96.0686ZM370.306 94.9368C370.306 93.4278 371.214 92.5224 372.426 92.5224C373.637 92.5224 374.47 93.4278 374.47 94.9368C374.47 96.4458 373.637 97.4267 372.426 97.4267C371.139 97.3512 370.306 96.3704 370.306 94.9368ZM376.212 87.3163H374.395V91.9942C374.167 91.4661 373.486 90.8625 372.123 90.8625C369.927 90.8625 368.413 92.6733 368.413 94.9368C368.413 97.2758 369.927 99.0111 372.123 99.0111C373.183 99.0111 374.016 98.483 374.395 97.8039C374.395 98.1057 374.47 98.6339 374.47 98.7848H376.212C376.212 98.6339 376.136 98.1057 376.136 97.3512V87.3163H376.212ZM380.452 98.7848V91.0888H378.635V98.7848H380.452ZM378.332 88.3726C378.332 89.0517 378.862 89.5798 379.543 89.5798C380.225 89.5798 380.755 89.0517 380.755 88.3726C380.755 87.6936 380.225 87.1654 379.543 87.1654C378.862 87.1654 378.332 87.6936 378.332 88.3726ZM386.206 92.5224C387.417 92.5224 387.872 93.2769 388.099 93.9559L389.765 93.3523C389.462 92.1451 388.326 90.787 386.206 90.787C384.01 90.787 382.269 92.5224 382.269 94.8613C382.269 97.2003 384.01 98.9357 386.282 98.9357C388.326 98.9357 389.462 97.653 389.84 96.4458L388.25 95.8422C388.099 96.4458 387.493 97.2758 386.282 97.2758C385.146 97.2758 384.086 96.3704 384.086 94.8613C384.086 93.3523 385.07 92.5224 386.206 92.5224ZM390.9 96.6722C390.9 97.8794 391.885 99.0111 393.55 99.0111C394.838 99.0111 395.595 98.4075 395.898 97.8039C395.898 98.4075 395.973 98.7093 395.973 98.7848H397.715C397.715 98.7093 397.639 98.2566 397.639 97.5776V93.7296C397.639 92.2206 396.73 90.8625 394.383 90.8625C392.49 90.8625 391.279 92.0697 391.127 93.3523L392.793 93.7296C392.869 92.9751 393.399 92.3715 394.383 92.3715C395.368 92.3715 395.822 92.8996 395.822 93.5787C395.822 93.8805 395.67 94.1068 395.216 94.1068L393.247 94.4086C391.96 94.5595 390.9 95.314 390.9 96.6722ZM393.929 97.5776C393.172 97.5776 392.793 97.1249 392.793 96.5967C392.793 95.9931 393.248 95.6159 393.853 95.5404L395.898 95.2386V95.6158C395.822 97.1249 394.913 97.5776 393.929 97.5776ZM401.728 98.7848V87.3163H399.91V98.7848H401.728ZM417.325 98.7848V87.5427H415.432V92.2206H410.132V87.5427H408.239V98.7848H410.132V93.9559H415.432V98.7848H417.325ZM421.716 98.7848V91.0888H419.899V98.7848H421.716ZM419.596 88.3726C419.596 89.0517 420.126 89.5798 420.808 89.5798C421.489 89.5798 422.019 89.0517 422.019 88.3726C422.019 87.6936 421.489 87.1654 420.808 87.1654C420.126 87.1654 419.596 87.6936 419.596 88.3726ZM423.382 96.6722C423.458 97.5776 424.366 99.0111 426.562 99.0111C428.531 99.0111 429.515 97.7285 429.515 96.5213C429.515 95.3895 428.758 94.4841 427.319 94.1823L426.108 93.9559C425.653 93.8805 425.351 93.5787 425.351 93.126C425.351 92.6733 425.805 92.2206 426.486 92.2206C427.546 92.2206 427.849 92.8996 427.925 93.3523L429.515 92.8996C429.363 92.1451 428.682 90.7116 426.562 90.7116C424.972 90.7116 423.685 91.8433 423.685 93.2014C423.685 94.2577 424.366 95.1631 425.805 95.4649L426.941 95.6913C427.546 95.8422 427.849 96.144 427.849 96.5213C427.849 96.974 427.471 97.4267 426.713 97.4267C425.729 97.4267 425.199 96.8231 425.123 96.144L423.382 96.6722ZM433.679 88.6744H432.013V89.8062C432.013 90.4852 431.635 91.0134 430.802 91.0134H430.423V92.6733H431.862V96.5213C431.862 97.9548 432.771 98.7848 434.209 98.7848C434.891 98.7848 435.193 98.6339 435.345 98.6339V97.1249C435.269 97.1249 434.966 97.2003 434.739 97.2003C434.058 97.2003 433.755 96.8985 433.755 96.2195V92.6733H435.345V91.0134H433.755V88.6744H433.679ZM440.494 97.3512C439.358 97.3512 438.298 96.5213 438.298 94.8613C438.298 93.2014 439.358 92.4469 440.494 92.4469C441.629 92.4469 442.689 93.2769 442.689 94.8613C442.689 96.5213 441.629 97.3512 440.494 97.3512ZM440.494 90.8625C438.222 90.8625 436.481 92.5978 436.481 94.9368C436.481 97.3512 438.146 99.0111 440.494 99.0111C442.841 99.0111 444.506 97.2758 444.506 94.9368C444.506 92.5224 442.841 90.8625 440.494 90.8625ZM450.866 91.0134C450.791 91.0134 450.564 90.9379 450.336 90.9379C449.352 90.9379 448.444 91.4661 448.065 92.296V91.0888H446.248V98.7848H448.065V95.0877C448.065 93.6541 448.746 92.8242 450.185 92.8242C450.412 92.8242 450.564 92.8242 450.791 92.8996V91.0134H450.866ZM455.031 101.878L459.952 91.0134H457.984L455.864 95.9177L453.668 91.0134H451.548L454.879 97.8039L452.986 101.878H455.031Z" fill="#167A9A"/>
<path d="M296.863 83.921H310.188C310.567 83.5438 311.173 83.3174 311.703 83.3174C312.308 83.3174 312.838 83.5438 313.217 83.921H326.543C327.149 83.921 327.603 84.3737 327.603 84.9774C327.603 86.1846 326.619 87.2409 325.331 87.2409H325.18C325.18 87.3163 325.18 87.3163 325.18 87.3918C325.18 88.599 324.196 89.6553 322.909 89.6553H322.757C322.757 89.7307 322.757 89.7307 322.757 89.8062C322.757 91.0134 321.773 92.0697 320.486 92.0697H314.958C314.731 92.0697 314.504 91.8433 314.504 91.617C314.504 91.3906 314.731 91.1643 314.958 91.1643H320.486C321.243 91.1643 321.849 90.5607 321.849 89.8062C321.849 89.7307 321.773 89.6553 321.697 89.6553H321.091H319.804C319.577 89.6553 319.35 89.4289 319.35 89.2026C319.35 88.9762 319.577 88.7499 319.804 88.7499H321.697C321.697 88.7499 321.697 88.7499 321.773 88.7499H322.984C323.741 88.7499 324.347 88.1463 324.347 87.3918C324.347 87.3163 324.271 87.2409 324.196 87.2409H315.716C315.488 87.2409 315.261 87.0145 315.261 86.7882C315.261 86.5618 315.488 86.3355 315.716 86.3355H323.514H325.331C326.089 86.3355 326.694 85.7319 326.694 84.9774C326.694 84.9019 326.619 84.8265 326.543 84.8265H313.823C313.898 85.0528 313.898 85.3546 313.898 85.581L313.747 88.6744H318.138C318.366 88.6744 318.593 88.9008 318.593 89.1271C318.593 89.3535 318.366 89.5798 318.138 89.5798H313.671L313.293 97.1249H314.428C315.716 97.1249 316.7 98.1812 316.7 99.3884C316.7 99.992 316.397 100.671 315.943 101.048C315.716 101.199 315.488 101.199 315.261 101.048C315.11 100.822 315.11 100.596 315.261 100.369C315.564 100.143 315.716 99.7656 315.716 99.3884C315.716 98.6339 315.11 98.0303 314.353 98.0303H313.141L313.217 100.822H313.368C314.656 100.822 315.64 101.878 315.64 103.085C315.64 104.066 315.034 104.896 314.126 105.198C313.898 105.274 313.596 105.123 313.52 104.896C313.444 104.67 313.596 104.368 313.823 104.293C314.353 104.066 314.731 103.614 314.731 103.01C314.731 102.255 314.126 101.652 313.368 101.652H313.217L312.914 107.839C312.914 108.442 312.384 108.895 311.778 108.895C311.173 108.895 310.718 108.442 310.643 107.839L310.34 101.652H308.977C307.69 101.652 306.706 100.596 306.706 99.3884C306.706 99.2375 306.706 99.0866 306.706 99.0111C306.781 98.7848 307.008 98.5584 307.236 98.6339C307.463 98.7093 307.69 98.9357 307.614 99.162C307.614 99.2375 307.614 99.3129 307.614 99.3884C307.614 100.143 308.22 100.746 308.977 100.746H310.34L310.188 98.1057H307.841C306.554 98.1057 305.57 97.0494 305.57 95.8422C305.57 94.5596 306.554 93.5787 307.841 93.5787C308.068 93.5787 308.296 93.805 308.296 94.0314C308.296 94.2578 308.068 94.4841 307.841 94.4841C307.084 94.4841 306.478 95.0877 306.478 95.8422C306.478 96.5967 307.084 97.2003 307.841 97.2003H310.113L309.734 89.6553H304.888C304.661 89.6553 304.434 89.4289 304.434 89.2026C304.434 88.9762 304.661 88.7499 304.888 88.7499H309.658L309.507 85.6564C309.507 85.4301 309.507 85.1283 309.583 84.9019H296.863C296.787 84.9019 296.711 84.9774 296.711 85.0528C296.711 85.8073 297.317 86.4109 298.074 86.4109H299.437H307.841C308.068 86.4109 308.296 86.6373 308.296 86.8636C308.296 87.09 308.068 87.3163 307.841 87.3163H299.285C299.21 87.3163 299.134 87.3918 299.134 87.4672C299.134 88.2217 299.74 88.8253 300.497 88.8253H301.708C301.708 88.8253 301.708 88.8253 301.784 88.8253H303.223C303.45 88.8253 303.677 89.0517 303.677 89.278C303.677 89.5044 303.45 89.7307 303.223 89.7307H303.071H301.708C301.633 89.7307 301.557 89.8062 301.557 89.8816C301.557 90.6361 302.163 91.2397 302.92 91.2397H308.523C308.75 91.2397 308.977 91.4661 308.977 91.6924C308.977 91.9188 308.75 92.1451 308.523 92.1451H302.92C301.708 92.1451 300.648 91.1643 300.648 89.8816C300.648 89.8062 300.648 89.8062 300.648 89.7307H300.497C299.285 89.7307 298.225 88.7499 298.225 87.4672C298.225 87.3918 298.225 87.3918 298.225 87.3163H298.074C296.863 87.3163 295.803 86.3355 295.803 85.0528C295.803 84.3737 296.257 83.921 296.863 83.921ZM311.551 107.914C311.551 107.99 311.627 108.065 311.703 108.065C311.778 108.065 311.854 107.99 311.854 107.914L312.157 101.727H311.248L311.551 107.914ZM311.248 100.822H312.308L312.46 98.1057H311.173L311.248 100.822ZM311.021 97.2003H312.46L312.99 85.581C312.99 85.2037 312.914 84.9019 312.611 84.6756C312.384 84.4492 312.081 84.2983 311.703 84.2983C311.324 84.2983 311.021 84.4492 310.794 84.6756C310.567 84.9019 310.416 85.2792 310.416 85.581L311.021 97.2003Z" fill="#167A9A"/>
<path d="M311.778 82.4875C310.34 82.4875 309.128 81.2803 309.128 79.8468C309.128 78.4132 310.34 77.206 311.778 77.206C313.217 77.206 314.428 78.4132 314.428 79.8468C314.353 81.3558 313.217 82.4875 311.778 82.4875ZM311.778 78.1868C310.87 78.1868 310.113 78.9414 310.113 79.9222C310.113 80.9031 310.87 81.6576 311.778 81.6576C312.687 81.6576 313.444 80.9031 313.444 79.9222C313.444 78.9414 312.687 78.1868 311.778 78.1868Z" fill="#167A9A"/>
<path d="M336.234 76.5269V109.725" stroke="#167A9A" stroke-width="0.754504" stroke-linecap="round" stroke-linejoin="round"/>
<path d="M237.421 37.5783H510.774V50.3164H237.421V37.5783Z" fill="#C4C4C4"/>
<rect x="250.569" y="42.0745" width="4.44477" height="4.49578" fill="white"/>
<rect x="259.459" y="42.0744" width="4.44477" height="4.49578" fill="white"/>
<rect x="268.349" y="42.0744" width="4.44477" height="4.49578" fill="white"/>
<rect x="320.945" y="42.0744" width="119.268" height="4.49578" fill="white"/>
<g filter="url(#filter0_d)">
<path d="M523.45 106.558C550.419 106.558 572.282 84.6956 572.282 57.7265C572.282 30.7573 550.419 8.89453 523.45 8.89453C496.481 8.89453 474.618 30.7573 474.618 57.7265C474.618 84.6956 496.481 106.558 523.45 106.558Z" fill="#FDF9F9"/>
</g>
<path d="M546.213 36.287L527.769 30.5234C525.69 29.861 523.275 29.861 521.196 30.5234L502.752 36.287C501.142 36.7508 500.069 38.2745 500.069 39.8645V46.688C500.069 62.6539 508.05 77.6923 521.397 86.9008C522.336 87.5633 523.476 87.8945 524.482 87.8945C525.488 87.8945 526.629 87.6295 527.568 86.9008C534.274 82.3297 539.64 76.3011 543.262 69.4112C546.951 62.5214 548.963 54.7041 548.963 46.7543V40.0632C549.097 38.3407 547.957 36.8833 546.213 36.287Z" fill="#0D8DF0" stroke="#51B2FF" stroke-width="3.4928"/>
<path d="M546.415 36.155L527.971 30.3914C525.892 29.7289 523.477 29.7289 521.398 30.3914L502.954 36.155C501.344 36.6187 500.271 38.1424 500.271 39.7324V46.556C500.271 62.5218 508.252 77.5602 521.599 86.7687C522.538 87.4312 523.678 87.7624 524.684 87.7624C525.69 87.7624 526.83 87.4974 527.769 86.7687C534.476 82.1976 539.842 76.169 543.464 69.2791C547.152 62.3893 549.165 54.572 549.165 46.6222V39.9311C549.232 38.2087 548.091 36.685 546.415 36.155Z" fill="url(#paint0_linear)"/>
<path d="M533.268 40.2624C532.061 39.2686 531.122 39.5336 529.915 41.6536C529.11 43.1111 527.769 43.3098 526.964 43.2435V42.9786C527.903 42.5148 528.574 41.5873 528.574 40.5274C528.574 39.0037 527.299 37.7449 525.69 37.7449C524.147 37.7449 522.806 39.0037 522.806 40.5274C522.806 41.5873 523.476 42.5148 524.415 42.9786V43.2435C523.61 43.3098 522.269 43.1111 521.464 41.6536C520.257 39.4674 519.318 39.2024 518.111 40.2624C516.836 41.2561 511.806 47.1522 505.703 46.6222C505.703 46.6222 506.91 49.2721 510.264 48.7422C510.264 48.7422 512.007 50.5309 514.891 49.2721C514.891 49.2721 516.367 50.5971 518.714 49.4046C518.714 49.4046 520.458 50.7296 522.269 49.6034C522.269 49.6034 523.342 50.3321 524.482 50.1334L524.549 56.8907C524.415 56.8245 524.281 56.8245 524.147 56.8245C524.147 56.8245 522.135 56.427 519.922 55.8307C517.91 55.3007 515.562 54.4395 515.227 53.9758C515.294 53.9095 515.294 53.9095 515.361 53.9095C515.562 53.8433 515.897 53.7108 516.233 53.6445C516.971 53.4458 518.044 53.4458 519.05 53.3795C521.062 53.3133 521.464 53.3795 521.531 53.4458C521.531 53.3795 522.739 53.5783 523.007 52.3858C523.007 52.3858 523.074 52.3196 523.007 52.3196C522.94 51.5246 522.269 51.4583 521.8 51.3921C520.928 51.2596 521.397 51.3258 520.257 51.3258C518.379 51.4583 512.544 50.9946 511.806 53.9758C511.806 54.042 511.806 54.1083 511.806 54.1745C512.075 56.7582 517.574 57.8844 521.598 58.7457C520.257 59.6731 519.519 60.8656 519.251 62.3231C519.117 63.9793 520.458 65.503 523.543 67.2917C521.263 68.9479 519.72 70.4054 519.855 72.2603C520.056 73.784 521.397 75.7052 524.08 77.0302C524.08 77.0302 522.269 74.2478 522.135 72.7241C522.001 71.8628 522.537 70.5379 524.751 68.9479L524.818 74.5128C524.818 74.9765 525.22 75.374 525.69 75.374C526.159 75.374 526.561 74.9765 526.561 74.5128L526.629 69.0804C528.641 70.6041 529.11 71.8628 529.043 72.6578C528.909 74.1815 527.098 76.964 527.098 76.964C529.714 75.7052 531.122 73.7178 531.323 72.1941C531.458 70.3391 529.915 68.8817 527.635 67.2255C530.72 65.503 532.061 63.9793 531.927 62.2568C531.659 60.7331 530.921 59.5406 529.58 58.6794C533.604 57.8844 539.103 56.7582 539.372 54.1083C539.372 54.042 539.372 53.9758 539.372 53.9095C538.634 50.9284 532.799 51.3921 530.921 51.2596C529.781 51.2596 530.25 51.1933 529.378 51.3258C528.842 51.3921 528.238 51.4583 528.171 52.2533C528.171 52.3196 528.171 52.3196 528.171 52.3196C528.507 53.512 529.647 53.247 529.647 53.3795C529.714 53.3795 530.049 53.3133 532.128 53.3133C533.134 53.3795 534.14 53.4458 534.945 53.5783C535.348 53.6445 535.616 53.777 535.817 53.8433C535.884 53.9095 535.951 53.9095 535.951 53.9095C535.616 54.3733 533.335 55.2345 531.256 55.7645C529.11 56.3607 527.031 56.7582 527.031 56.7582C526.964 56.7582 526.964 56.7582 526.897 56.8245L526.964 50.1334C528.171 50.3321 529.177 49.6034 529.177 49.6034C530.988 50.7296 532.732 49.4046 532.732 49.4046C535.079 50.5971 536.555 49.2721 536.555 49.2721C539.372 50.5309 541.183 48.7422 541.183 48.7422C544.469 49.3384 545.743 46.6222 545.743 46.6222C539.506 47.1522 534.476 41.2561 533.268 40.2624ZM522.94 64.2443C522.202 63.7805 521.8 63.1843 521.934 62.7206C522.001 62.1243 521.733 60.7331 524.549 59.7394L524.616 65.3705C524.08 64.9068 523.543 64.5755 522.94 64.2443ZM529.043 62.7206C529.11 63.1181 528.775 63.7805 528.037 64.2443C527.5 64.5093 527.031 64.8405 526.561 65.1718L526.629 59.8056C529.177 60.7994 529.043 62.1243 529.043 62.7206Z" fill="white"/>
<path d="M169.302 161.819C185.932 151.387 212.649 164.488 226.107 180.358C232.753 199.114 233.386 205.444 234.573 219.823C236.076 237.718 229.415 247.447 215.852 255.253C199.904 264.432 169.303 247.956 169.303 247.956C169.303 247.956 78.5374 218.755 169.302 161.819Z" fill="#BD5D00"/>
<path d="M169.777 216.565L167.087 281.74C176.186 293.774 198.733 294.868 202.61 281.349C198.1 267.204 195.727 242.666 196.597 216.643L169.777 216.565Z" fill="#F3B484"/>
<path d="M219.461 453.038L221.597 463.432L215.347 484.062C215.347 484.062 252.611 485.782 249.842 482.187C247.389 479.061 222.705 404.431 222.705 404.431L218.116 405.525L219.461 453.038Z" fill="#00A7A3"/>
<path d="M225.633 348.946L240.111 402.79L187.103 415.371L168.907 275.332H206.882L225.633 348.946Z" fill="#00A7A3"/>
<path d="M210.917 335.036C210.917 335.036 220.728 437.331 231.487 467.261C232.99 471.481 235.601 473.669 237.104 474.529C245.886 479.139 259.336 471.95 259.336 471.95L210.917 335.036Z" fill="#00A7A3"/>
<path d="M235.759 342.851C243.117 340.194 248.18 333.708 247.706 326.205C247.468 321.595 244.778 315.421 240.823 309.873C236.313 301.824 235.917 295.415 236.63 290.883C237.104 276.191 231.566 268.846 216.455 267.361C210.68 267.126 204.983 266.892 199.208 266.736L232.357 459.915C234.414 472.028 232.911 484.844 244.937 484.844C252.532 484.844 269.7 484.844 275.633 482.968C265.19 465.62 230.854 377.548 235.759 342.851Z" fill="white"/>
<path d="M129.191 280.958C127.055 308.232 147.704 342.226 152.688 374.813C155.853 395.287 127.846 466.167 127.451 484.141C144.777 484.922 194.857 486.876 213.528 486.016C224.367 485.469 224.288 467.495 223.576 456.945C219.857 403.337 212.104 353.713 191.376 308.31C184.888 294.243 175.078 271.815 166.929 259.468C144.223 265.016 131.486 271.815 129.191 280.958Z" fill="white"/>
<path d="M217.167 356.995C217.167 356.995 236.788 343.085 237.5 345.898C238.212 348.712 231.091 355.276 231.091 355.276L217.167 356.995Z" fill="#F3B484"/>
<path d="M168.67 234.304L166.613 232.976C171.676 244.854 181.566 256.029 198.338 260.796C198.101 258.843 197.863 255.951 197.784 253.919C182.278 250.168 174.366 245.011 168.67 234.304Z" fill="#EA9C68"/>
<path d="M157.04 210.548C157.04 212.033 162.894 248.762 200.632 254.388C202.689 254.623 208.623 254.154 210.284 251.966C216.772 243.76 221.677 231.257 220.807 216.8C219.62 197.263 212.025 184.369 200.791 182.102C178.796 177.57 183.623 172.1 172.705 177.726C161.866 183.509 157.04 210.548 157.04 210.548Z" fill="#F3B484" stroke="#F3B484" stroke-miterlimit="10"/>
<path opacity="0.31" d="M198.1 260.718L212.737 346.289L221.835 291.039L211.233 283.928L218.037 272.518L198.1 260.718Z" fill="#D7D6D9"/>
<path opacity="0.31" d="M155.616 413.965L193.749 419.044C193.749 419.044 189.556 431.313 175.473 431.313C161.391 431.313 148.179 425.296 149.128 422.717C149.919 419.982 155.616 413.965 155.616 413.965Z" fill="#D7D6D9"/>
<path opacity="0.31" d="M205.854 347.227C196.281 311.123 167.087 259.39 167.087 259.39L150.868 268.767L171.438 288.148L159.65 298.229C174.445 301.433 205.854 347.227 205.854 347.227Z" fill="#D7D6D9"/>
<path d="M175.735 254.455C169.09 266.255 139.827 246.707 132.526 237.469C125.225 228.231 118.67 198.134 142.17 185.654C152.139 145.799 195.89 147.596 203.722 166.664C204.276 167.836 201.586 164.163 200.795 164.554C200.399 164.71 201.982 166.742 201.507 169.243C201.349 170.649 200.557 171.509 200.162 171.978C199.608 172.681 199.45 172.838 199.529 172.916C199.608 173.072 199.925 172.994 200.004 172.994C200.716 173.228 200.774 187.114 195.5 193.286C189.421 200.4 178.92 196.461 175.735 200.973C172.551 205.485 173.383 207.365 171.405 210.022C171.012 210.41 169.025 213.375 168.041 216.678C167.171 219.491 168.437 221.523 169.386 224.805C169.386 224.805 182.223 241.639 175.735 254.455Z" fill="#BD5D00"/>
<path d="M310.365 309.56L257.199 310.967C255.142 311.045 253.323 312.139 252.453 313.858L217.879 380.049C217.325 380.987 217.642 382.159 218.433 382.862C218.67 383.096 219.066 383.253 219.382 383.253L270.174 380.205C270.886 380.127 271.598 379.736 271.994 379.111L312.185 311.905C312.58 311.279 312.422 310.576 311.947 310.107L311.789 309.951C311.552 309.795 310.998 309.56 310.365 309.56Z" fill="#E8E7E6"/>
<path d="M254.747 314.327L219.54 381.768C219.145 382.471 219.699 383.331 220.49 383.253L270.491 380.205C271.044 380.205 271.598 379.814 271.915 379.345L312.263 311.904C312.501 311.514 312.184 311.045 311.71 311.045L257.357 312.53C256.25 312.608 255.3 313.311 254.747 314.327Z" fill="#AFADAC"/>
<path opacity="0.18" d="M220.569 377.157L218.037 379.814C218.037 379.814 217.483 381.768 219.857 380.986C222.151 380.283 244.462 377.079 249.209 372.39C253.955 367.701 253.955 366.06 253.955 366.06L220.569 377.157Z" fill="#606060"/>
<path d="M254.589 367.545C252.453 370.905 247.864 373.406 236.392 376.063C230.379 377.47 221.123 378.72 209.651 377.001C209.493 376.766 210.047 374.422 209.809 374.188C207.752 370.358 206.012 366.998 203.797 363.481C217.167 351.681 237.895 356.37 241.772 355.432C249.842 353.479 253.56 349.884 256.329 351.681C258.861 353.244 258.782 358.167 257.595 361.059L254.589 367.545Z" fill="#F3B484"/>
<path opacity="0.31" d="M144.223 343.476L151.739 315.89C151.739 315.89 162.261 356.917 161.075 370.905C159.888 384.894 146.755 429.438 139.634 438.659C139.634 438.659 151.502 388.332 150.552 375.438C149.682 362.7 144.223 343.476 144.223 343.476Z" fill="#D7D8D9"/>
<path d="M206.724 357.699C204.271 358.089 202.135 358.48 200.316 358.949C176.265 364.732 134.017 380.127 134.017 380.127L154.587 299.166C154.587 299.166 161.074 277.754 141.296 277.207C132.197 276.973 129.112 281.036 129.112 281.036C129.112 281.036 73.4939 423.342 126.58 413.105C159.73 406.697 208.227 383.331 208.227 383.331C208.227 383.331 212.499 370.671 206.724 357.699Z" fill="white"/>
<path opacity="0.31" d="M206.724 357.699C204.272 358.089 202.136 358.48 200.316 358.949C176.265 364.732 134.017 380.127 134.017 380.127C134.017 380.127 114.555 385.988 126.66 386.222C137.736 386.457 183.702 373.641 201.107 365.044C200.791 362.544 207.911 360.356 206.724 357.699Z" fill="#D7D6D9"/>
<path d="M206.724 357.699C204.271 358.089 202.214 358.48 200.474 358.949C202.768 368.248 202.452 379.971 202.056 386.222C206.012 384.425 208.306 383.331 208.306 383.331C208.306 383.331 212.499 370.671 206.724 357.699Z" fill="white"/>
<path d="M200.553 273.222L192.958 284.944L175.711 275.41C175.711 275.41 185.205 297.76 190.189 300.026C195.094 302.293 202.926 291.196 202.926 291.196L200.553 273.222Z" fill="#00BBB6"/>
<path d="M228.164 327.534C227.373 322.298 222.309 318.703 216.93 319.328C211.55 319.954 207.831 324.721 208.702 329.878C209.493 335.036 214.556 338.709 219.936 338.084C225.316 337.459 229.034 332.77 228.164 327.534Z" fill="#A6A6A6"/>
<path d="M218.829 323.783C218.75 323.783 218.67 323.783 218.591 323.783C217.721 323.783 216.851 323.158 216.851 322.454C217.088 274.472 203.322 263.688 203.085 263.532C202.135 262.672 197.23 260.718 198.021 260.015C198.654 259.39 202.768 260.015 205.379 261.578C206.012 261.969 220.332 273.378 220.174 322.454C220.332 323.158 219.699 323.705 218.829 323.783Z" fill="#8E8E8E"/>
<path d="M223.734 328.081C223.259 324.877 220.49 322.532 217.642 322.845C214.715 323.236 212.737 326.127 213.132 329.331C213.607 332.535 216.376 334.88 219.224 334.567C222.151 334.255 224.287 331.363 223.734 328.081Z" fill="#878787"/>
<path d="M173.812 292.68C171.992 291.274 169.698 290.649 166.85 290.805C163.527 271.268 166.612 264.86 166.692 264.626C167.166 263.844 166.692 262.906 165.9 262.594C165.03 262.203 163.923 262.594 163.448 263.375C163.29 263.61 159.729 270.408 163.29 291.274C160.679 291.977 158.701 293.227 157.514 295.025C154.903 299.088 157.277 304.246 157.356 304.402C157.752 305.184 158.78 305.575 159.65 305.184C160.521 304.793 160.995 303.934 160.6 303.152C160.6 303.152 158.78 299.167 160.521 296.431C161.391 295.103 162.973 294.321 165.426 293.853C167.957 293.462 169.935 293.774 171.28 294.712C173.97 296.822 173.496 301.277 173.496 301.277C173.416 302.136 174.128 302.839 175.078 302.996C175.236 302.996 175.315 302.996 175.553 302.996C176.344 302.918 176.977 302.292 177.056 301.589C177.214 301.589 177.768 295.884 173.812 292.68Z" fill="#8E8E8E"/>
<path d="M164.951 345.117C164.872 345.117 164.714 345.117 164.556 345.195C163.923 345.273 163.369 345.039 163.369 344.57C163.29 344.101 163.843 343.788 164.318 343.71C174.999 342.538 175.236 313.78 174.445 302.761C174.445 302.292 174.92 301.98 175.553 301.902C176.185 301.823 176.66 302.136 176.739 302.527C177.135 306.59 179.271 342.929 164.951 345.117Z" fill="#C9C9CD"/>
<path d="M166.613 343.554C166.375 342.304 165.347 341.444 164.318 341.522C163.211 341.679 162.578 342.851 162.894 344.101C163.131 345.351 164.16 346.211 165.188 346.133C166.217 345.977 166.929 344.804 166.613 343.554Z" fill="#878787"/>
<path d="M186.233 340.897C186.312 340.897 186.47 340.897 186.629 340.819C187.262 340.741 187.578 340.272 187.499 339.881C187.42 339.412 186.787 339.256 186.233 339.334C175.711 341.444 164.16 314.483 160.521 303.933C160.362 303.465 159.809 303.308 159.176 303.465C158.543 303.543 158.226 304.012 158.384 304.402C159.65 308.466 171.834 343.32 186.233 340.897Z" fill="#C9C9CD"/>
<path d="M184.018 340.037C183.781 338.787 184.414 337.615 185.442 337.459C186.471 337.302 187.499 338.162 187.737 339.412C187.974 340.663 187.341 341.835 186.312 341.991C185.363 342.147 184.335 341.288 184.018 340.037Z" fill="#878787"/>
<g opacity="0.61">
<path opacity="0.61" d="M202.689 231.179C202.294 231.257 202.056 231.1 201.898 230.788C201.661 230.397 201.74 229.85 202.056 229.538C203.639 228.365 204.825 228.287 205.854 228.209C206.566 228.131 206.961 228.131 207.278 227.74C207.673 227.349 207.832 226.959 207.832 226.412C207.832 225.865 207.436 225.474 207.12 225.161C202.373 222.27 202.294 218.362 202.294 216.331C202.294 215.862 202.689 215.471 203.164 215.471C203.639 215.471 204.034 215.862 204.034 216.331C204.034 218.284 204.113 221.332 208.069 223.755C208.939 224.302 209.572 225.239 209.651 226.333C209.73 227.428 209.256 228.365 208.465 229.069C207.673 229.772 206.882 229.85 206.012 229.928C205.221 230.006 204.271 230.085 203.164 231.022C203.006 231.1 202.768 231.179 202.689 231.179Z" fill="#DF7E5A"/>
</g>
<path opacity="0.2" d="M189.915 233.493C186.878 235.036 182.826 233.154 180.864 229.291C178.903 225.428 179.774 221.047 182.811 219.505C185.849 217.962 189.901 219.844 191.862 223.707C193.824 227.569 192.952 231.951 189.915 233.493Z" fill="#DD6637"/>
<path opacity="0.2" d="M218.035 229.419C214.647 229.061 212.271 225.278 212.727 220.969C213.183 216.661 216.299 213.459 219.686 213.818C223.074 214.176 225.45 217.96 224.994 222.268C224.538 226.576 221.422 229.778 218.035 229.419Z" fill="#DD6637"/>
<path d="M191.031 205.333C188.654 204.197 182.7 203.685 177.905 210.731" stroke="#C98659" stroke-width="1.5" stroke-linecap="round"/>
<path d="M205.138 202.901C207.002 201.94 211.861 200.397 217.308 203.609" stroke="#C98659" stroke-width="1.5" stroke-linecap="round"/>
<path d="M209.241 209.149C209.099 210.083 209.274 210.983 209.687 211.857C210.09 212.631 210.799 213.271 211.545 213.498C211.883 213.666 212.29 213.725 212.687 213.683C213.083 213.641 213.469 213.499 213.765 213.263C214.061 213.028 214.436 212.784 214.631 212.355C214.837 212.027 215.032 211.599 215.138 211.077C215.28 210.144 215.104 209.244 214.691 208.369C214.289 207.595 213.58 206.956 212.834 206.728C212.495 206.56 212.088 206.501 211.692 206.543C211.295 206.585 210.909 206.728 210.613 206.963C210.318 207.198 210.022 207.434 209.747 207.871C209.473 208.308 209.277 208.737 209.241 209.149Z" fill="#724422"/>
<path d="M184.418 212.56C184.323 213.495 184.539 214.49 184.963 215.353C185.46 216.205 186.137 216.724 186.846 216.932C187.244 217.08 187.614 217.028 187.984 216.976C188.354 216.924 188.71 216.771 188.977 216.528C189.319 216.275 189.572 215.932 189.751 215.599C189.931 215.266 190.096 214.833 190.173 214.31C190.267 213.374 190.052 212.379 189.628 211.517C189.13 210.665 188.453 210.145 187.745 209.938C187.347 209.789 186.977 209.841 186.607 209.893C186.237 209.946 185.881 210.098 185.614 210.341C185.272 210.594 185.019 210.938 184.839 211.27C184.66 211.603 184.495 212.036 184.418 212.56Z" fill="#724422"/>
<path d="M196.597 237.04C196.597 237.04 205.774 236.805 212.183 234.851C212.183 234.851 212.578 239.384 208.702 241.65C206.17 243.135 202.847 243.057 200.474 241.416C197.784 239.697 196.597 237.04 196.597 237.04Z" fill="#D86437"/>
<path opacity="0.31" d="M147.862 407.478L202.214 386.3C202.293 386.3 182.435 399.507 147.862 407.478Z" fill="#D7D6D9"/>
<path d="M268.513 340.35C266.061 339.881 262.58 342.616 260.76 346.446C258.94 350.275 259.415 353.713 261.868 354.182C264.32 354.651 267.722 351.916 269.621 348.087C271.361 344.257 270.887 340.819 268.513 340.35Z" fill="#E1E2E3"/>
<defs>
<filter id="filter0_d" x="474.618" y="8.89453" width="101.664" height="101.664" filterUnits="userSpaceOnUse" color-interpolation-filters="sRGB">
<feFlood flood-opacity="0" result="BackgroundImageFix"/>
<feColorMatrix in="SourceAlpha" type="matrix" values="0 0 0 0 0 0 0 0 0 0 0 0 0 0 0 0 0 0 127 0" result="hardAlpha"/>
<feOffset dx="4" dy="4"/>
<feColorMatrix type="matrix" values="0 0 0 0 0.509804 0 0 0 0 0.509804 0 0 0 0 0.509804 0 0 0 0.25 0"/>
<feBlend mode="normal" in2="BackgroundImageFix" result="effect1_dropShadow"/>
<feBlend mode="normal" in="SourceGraphic" in2="effect1_dropShadow" result="shape"/>
</filter>
<linearGradient id="paint0_linear" x1="500.214" y1="58.8783" x2="549.129" y2="58.8783" gradientUnits="userSpaceOnUse">
<stop offset="0.00382763" stop-color="#0D3BF0" stop-opacity="0"/>
<stop offset="1" stop-color="#0D3BF0" stop-opacity="0.3"/>
</linearGradient>
</defs>
</svg>
