<svg width="770" height="438" viewBox="0 0 770 438" fill="none" xmlns="http://www.w3.org/2000/svg">
<path d="M765.846 287.457C759.29 308.832 747.817 390.283 633.907 429.845C519.998 469.407 441.654 344.86 330.776 333.052C219.981 321.244 186.627 312.969 189.578 248.239C192.528 183.509 274.723 90.5081 386.666 38.6207C518.113 -22.2308 623.172 -4.13049 687.42 49.0499C777.237 123.52 774.614 259.099 765.846 287.457Z" fill="#DAE6FF"/>
<path d="M658.33 198.419C653.047 182.263 644.792 171.217 635.382 171.712C621.679 169.569 578.094 163.963 559.274 174.514L557.458 175.009C555.807 175.998 554.321 177.152 553 178.471C544.91 185.23 537.316 205.179 528.236 224.962C515.524 252.659 499.344 289.027 533.849 292.819C537.646 293.149 528.236 297.171 537.481 283.653L533.849 319.922C535.005 333.276 554.486 333.111 568.024 333.441L588.825 334.1C602.858 334.595 639.509 352.4 650.901 344.322C662.623 336.079 667.41 318.933 668.236 298.985C670.052 299.315 671.868 299.15 673.519 298.49C683.424 293.544 664.108 216.224 658.33 198.419Z" fill="#F38632"/>
<path d="M582.222 140.223H610.288C608.637 144.015 608.307 148.136 608.967 152.258L611.608 166.271C613.259 179.13 607.811 185.725 600.217 187.703C596.255 188.528 591.962 187.374 588.991 184.571C585.358 181.274 585.358 174.844 586.349 169.569L587.505 165.777C588.825 160.666 582.222 140.223 582.222 140.223Z" fill="#FED1BA"/>
<path d="M585.169 160.929L608.274 159.064C608.274 159.064 603.24 167.301 597.749 168.026C592.579 168.708 585.169 160.929 585.169 160.929Z" fill="#F1BDA2"/>
<path d="M618.542 108.075C618.542 108.075 631.255 141.377 606.821 159.512C583.047 177.317 565.712 126.375 565.712 126.375L586.184 99.1726L618.542 108.075Z" fill="#FED1BA"/>
<path d="M617.222 83.5652C613.92 77.4653 603.354 63.9467 578.094 79.4437C577.434 79.9383 576.608 80.1031 575.783 80.268C570.665 80.5977 550.689 83.5652 553.165 107.14C554.156 114.065 550.028 124.616 541.278 128.078C523.778 135.002 512.057 168.964 547.882 178.526C549.368 178.855 550.854 178.526 552.009 177.701L554.816 175.723C557.623 173.745 560.924 172.92 564.226 173.085L578.92 174.239C579.415 174.239 579.745 174.239 580.075 174.239C582.717 173.745 591.302 171.601 589.321 161.215C589.156 160.061 588.495 158.907 587.67 158.248C583.873 154.95 572.646 144.399 570.5 136.98L570.005 135.332C568.849 132.694 570.17 129.562 572.811 128.408C572.811 128.408 572.976 128.408 573.141 128.243C579.632 111.894 596.09 117.032 605.17 107.965C607.151 105.986 610.453 105.986 612.434 107.965L619.203 114.889C619.863 115.548 620.524 116.538 620.689 117.527C621.844 123.297 624.156 143.575 608.307 156.434C607.151 157.258 606.491 158.577 606.325 159.896C605.995 163.029 605.5 168.799 606.986 172.59C607.811 174.404 609.627 175.723 611.774 175.558H632.575C633.071 175.558 633.566 175.558 634.061 175.393C637.858 174.239 653.377 168.304 645.123 151.818C640.5 141.926 637.858 131.375 637.363 120.494C637.363 120.329 637.363 120 637.363 119.835C637.693 116.538 640.665 88.1813 621.349 86.3679C619.698 86.203 618.047 85.2138 617.222 83.5652Z" fill="#6E0403"/>
<path d="M569.675 133.629C569.675 133.629 571.16 154.072 587.67 162.644C604.179 171.217 617.717 148.961 617.717 148.961C617.717 148.961 623 135.937 621.514 125.386C620.028 114.835 614.085 115.659 614.085 115.659L595.264 121.429L579.25 128.188L569.675 133.629Z" fill="#FED1BA"/>
<path opacity="0.24" d="M588.052 150.555C588.052 150.555 589.898 155.215 595.514 155.215C601.131 155.215 602.977 150.555 602.977 150.555H588.052Z" fill="#7D160E"/>
<path d="M588.534 150.314H602.816C602.816 150.314 600.57 154.412 594.953 154.091C589.336 153.85 588.534 150.314 588.534 150.314Z" fill="white"/>
<path d="M580.726 126.131C580.553 126.854 580.61 127.577 580.841 128.22C581.071 128.862 581.532 129.344 582.051 129.585C582.282 129.746 582.57 129.746 582.858 129.746C583.146 129.746 583.377 129.666 583.607 129.505C583.838 129.344 584.068 129.184 584.241 128.862C584.414 128.621 584.587 128.3 584.645 127.978C584.818 127.255 584.76 126.532 584.53 125.89C584.299 125.247 583.838 124.765 583.319 124.524C583.089 124.363 582.8 124.363 582.512 124.363C582.224 124.363 581.994 124.443 581.763 124.604C581.532 124.765 581.302 124.925 581.129 125.247C581.014 125.488 580.841 125.809 580.726 126.131Z" fill="#724422"/>
<path d="M588.889 119.548C589.133 119.678 589.435 119.585 589.565 119.342C589.695 119.098 589.602 118.795 589.358 118.665L588.889 119.548ZM575.671 122.291C575.531 122.529 575.61 122.835 575.848 122.976C576.085 123.116 576.392 123.037 576.532 122.799L575.671 122.291ZM589.358 118.665C588.324 118.116 587.358 117.612 586.267 117.322C585.162 117.029 583.95 116.96 582.405 117.232L582.58 118.217C583.995 117.967 585.06 118.036 586.01 118.289C586.975 118.545 587.844 118.993 588.889 119.548L589.358 118.665ZM582.405 117.232C579.261 117.788 577.248 119.616 575.671 122.291L576.532 122.799C578.009 120.295 579.804 118.708 582.58 118.217L582.405 117.232Z" fill="#510605"/>
<path d="M604.371 120.838C604.122 120.959 603.823 120.856 603.703 120.607C603.582 120.359 603.685 120.06 603.934 119.939L604.371 120.838ZM617.481 124.057C617.613 124.3 617.522 124.604 617.28 124.735C617.037 124.867 616.733 124.776 616.602 124.534L617.481 124.057ZM603.934 119.939C604.987 119.427 605.97 118.959 607.072 118.708C608.187 118.455 609.401 118.43 610.934 118.758L610.724 119.736C609.318 119.435 608.252 119.466 607.293 119.684C606.32 119.905 605.435 120.321 604.371 120.838L603.934 119.939ZM610.934 118.758C614.056 119.428 616.002 121.327 617.481 124.057L616.602 124.534C615.217 121.978 613.48 120.327 610.724 119.736L610.934 118.758Z" fill="#510605"/>
<path d="M612.565 126.131C612.737 126.854 612.68 127.577 612.45 128.22C612.221 128.863 611.762 129.345 611.245 129.586C611.015 129.746 610.728 129.746 610.441 129.746C610.154 129.746 609.925 129.666 609.695 129.505C609.465 129.345 609.236 129.184 609.063 128.863C608.891 128.622 608.719 128.3 608.662 127.979C608.489 127.256 608.547 126.533 608.776 125.89C609.006 125.247 609.465 124.765 609.982 124.524C610.212 124.363 610.499 124.363 610.786 124.363C611.073 124.363 611.302 124.444 611.532 124.604C611.762 124.765 611.991 124.926 612.163 125.247C612.336 125.488 612.45 125.809 612.565 126.131Z" fill="#724422"/>
<path d="M613.073 146.197C615.407 146.724 617.984 144.121 618.828 140.382C619.673 136.642 618.465 133.184 616.131 132.657C613.797 132.13 611.22 134.734 610.376 138.473C609.531 142.212 610.739 145.67 613.073 146.197Z" fill="#FAB18F"/>
<path d="M579.226 145.497C581.801 144.874 583.159 141.349 582.257 137.623C581.356 133.897 578.537 131.382 575.961 132.005C573.386 132.628 572.029 136.154 572.93 139.88C573.832 143.605 576.65 146.121 579.226 145.497Z" fill="#FAB18F"/>
<path opacity="0.61" d="M598.47 143.689C598.829 143.764 599.045 143.614 599.189 143.314C599.404 142.939 599.332 142.414 599.045 142.114C597.608 140.988 596.53 140.913 595.596 140.838C594.949 140.763 594.59 140.763 594.302 140.388C593.943 140.013 593.799 139.638 593.799 139.112C593.799 138.587 594.158 138.212 594.446 137.912C598.757 135.136 598.829 131.384 598.829 129.433C598.829 128.983 598.47 128.608 598.039 128.608C597.608 128.608 597.248 128.983 597.248 129.433C597.248 131.309 597.177 134.235 593.584 136.561C592.793 137.086 592.218 137.987 592.146 139.037C592.074 140.088 592.506 140.988 593.224 141.664C593.943 142.339 594.661 142.414 595.452 142.489C596.17 142.564 597.033 142.639 598.039 143.539C598.183 143.614 598.398 143.689 598.47 143.689Z" fill="#DF7E5A"/>
<path d="M517.698 266.547L515.016 265.805C513.563 265.395 512.596 264.089 512.929 262.976L517.729 246.147C518.023 245.103 519.291 244.585 520.636 244.956C521.973 245.327 522.909 246.479 522.793 247.561L520.667 265.132C520.528 266.284 519.182 266.957 517.698 266.547Z" fill="#FFAB75"/>
<path d="M677.711 270.08L680.393 269.338C681.847 268.928 682.813 267.622 682.481 266.508L677.68 249.68C677.386 248.636 676.118 248.118 674.773 248.489C673.436 248.86 672.501 250.012 672.617 251.094L674.742 268.665C674.882 269.817 676.227 270.49 677.711 270.08Z" fill="#FFAB75"/>
<path d="M652.466 208.087H547.383V231.731H652.466V208.087Z" fill="#E6E6E6"/>
<path d="M649.246 189.698H546.803V321.214H649.246V189.698Z" fill="#FFBE5C"/>
<path d="M641.353 194.499H554.696C552.276 194.499 550.344 196.431 550.344 198.851V312.309C550.344 314.728 552.276 316.661 554.696 316.661H641.392C643.811 316.661 645.744 314.728 645.744 312.309V198.858C645.713 196.439 643.772 194.499 641.353 194.499Z" fill="white"/>
<path d="M568.324 208.39H630.267C630.638 208.39 631.009 208.39 631.381 208.429V211.142C631.009 211.181 630.638 211.181 630.267 211.181H568.324C567.953 211.181 567.582 211.181 567.203 211.142V208.429C567.574 208.39 567.945 208.39 568.324 208.39Z" fill="#B3B3B3"/>
<path d="M582.092 203.767H616.484C616.709 203.767 616.894 203.767 617.118 203.806V206.527C616.933 206.565 616.709 206.565 616.484 206.565H582.092C581.868 206.565 581.682 206.565 581.458 206.527V203.806C581.652 203.767 581.868 203.736 582.092 203.767Z" fill="#B3B3B3"/>
<path d="M559.875 256.403H579.456C579.564 256.403 579.719 256.403 579.827 256.441V259.155C579.719 259.193 579.603 259.193 579.456 259.193H559.875C559.767 259.193 559.612 259.193 559.504 259.155V256.441C559.651 256.403 559.759 256.403 559.875 256.403Z" fill="#B9B9B9"/>
<path d="M582.989 256.403H596.95C597.027 256.403 597.135 256.403 597.213 256.441V259.155C597.135 259.193 597.027 259.193 596.95 259.193H582.989C582.912 259.193 582.803 259.193 582.726 259.155V256.441C582.842 256.403 582.912 256.403 582.989 256.403Z" fill="#B9B9B9"/>
<path d="M583.136 263.035H560.393C559.798 263.035 559.35 263.522 559.35 264.079V266.947C559.35 267.542 559.837 267.991 560.393 267.991H583.136C583.731 267.991 584.179 267.504 584.179 266.947V264.079C584.218 263.515 583.731 263.035 583.136 263.035Z" stroke="#989898" stroke-width="0.39127" stroke-miterlimit="10"/>
<path d="M611.313 263.035H587.341C586.746 263.035 586.298 263.522 586.298 264.079V266.947C586.298 267.542 586.785 267.991 587.341 267.991H611.313C611.908 267.991 612.357 267.504 612.357 266.947V264.079C612.395 263.515 611.908 263.035 611.313 263.035Z" stroke="#989898" stroke-width="0.39127" stroke-miterlimit="10"/>
<path d="M560.471 279.563H580.345C580.639 279.601 580.94 279.71 581.165 279.972C581.389 280.197 581.458 280.49 581.458 280.831V283.327C581.458 283.621 581.381 283.961 581.165 284.185C580.94 284.41 580.678 284.557 580.345 284.595H560.471C560.177 284.557 559.875 284.448 559.651 284.185C559.427 283.923 559.35 283.668 559.35 283.327V280.831C559.35 280.537 559.427 280.197 559.651 279.972C559.875 279.71 560.169 279.594 560.471 279.563Z" stroke="#989898" stroke-width="0.368937" stroke-miterlimit="10"/>
<path d="M585.555 279.563H611.057C611.39 279.563 611.73 279.671 611.985 279.895C612.248 280.119 612.395 280.452 612.395 280.792V283.289C612.395 283.621 612.248 283.961 611.985 284.185C611.722 284.41 611.39 284.557 611.057 284.518H585.555C585.223 284.518 584.883 284.41 584.627 284.185C584.365 283.961 584.218 283.629 584.218 283.289V280.792C584.218 280.459 584.365 280.119 584.627 279.895C584.883 279.671 585.223 279.563 585.555 279.563Z" stroke="#989898" stroke-width="0.406538" stroke-miterlimit="10"/>
<path d="M611.313 271.222H560.424C559.829 271.222 559.38 271.709 559.38 272.265V275.133C559.38 275.728 559.867 276.177 560.424 276.177H611.344C611.939 276.177 612.387 275.69 612.387 275.133V272.265C612.395 271.67 611.908 271.222 611.313 271.222Z" stroke="#989898" stroke-width="0.39127" stroke-miterlimit="10"/>
<path d="M567.613 219.854H585.926C586.035 219.854 586.15 219.854 586.259 219.893V222.019C586.15 222.057 586.035 222.057 585.926 222.057H567.613C567.505 222.057 567.389 222.057 567.281 222.019V219.893C567.389 219.854 567.505 219.854 567.613 219.854Z" fill="#B3B3B3"/>
<path d="M590.17 219.854H612.99C613.137 219.854 613.284 219.854 613.4 219.893V222.019C613.253 222.057 613.137 222.057 612.99 222.057H590.17C590.024 222.057 589.877 222.057 589.761 222.019V219.893C589.877 219.854 590.024 219.854 590.17 219.854Z" fill="#B3B3B3"/>
<path d="M559.35 248.325H638.006" stroke="#989898" stroke-width="0.39127" stroke-miterlimit="10"/>
<path d="M583.066 299.028H613.292C613.624 299.028 613.926 299.175 614.188 299.399C614.413 299.623 614.559 299.955 614.559 300.296V304.648C614.559 304.795 614.521 304.98 614.451 305.135C614.374 305.282 614.304 305.436 614.188 305.545C614.08 305.653 613.926 305.769 613.779 305.807C613.632 305.885 613.477 305.916 613.292 305.916H583.066C582.919 305.916 582.734 305.877 582.579 305.807C582.432 305.73 582.285 305.66 582.169 305.545C582.061 305.436 581.945 305.282 581.907 305.135C581.829 304.988 581.798 304.841 581.798 304.648V300.296C581.798 299.963 581.945 299.662 582.169 299.399C582.432 299.175 582.726 299.028 583.066 299.028Z" fill="#B9B9B9"/>
<path d="M561.545 222.977C562.658 222.977 563.555 222.08 563.555 220.967C563.555 219.854 562.658 218.957 561.545 218.957C560.424 218.957 559.535 219.854 559.535 220.967C559.535 222.088 560.432 222.977 561.545 222.977Z" fill="#C4C4C4"/>
<path d="M567.574 228.489H582.463C582.54 228.489 582.648 228.489 582.726 228.527V230.646C582.648 230.684 582.54 230.684 582.463 230.684H567.574C567.497 230.684 567.389 230.684 567.312 230.646V228.527C567.389 228.489 567.466 228.489 567.574 228.489Z" fill="#B3B3B3"/>
<path d="M586.599 228.489H603.644C603.753 228.489 603.868 228.489 603.946 228.527V230.646C603.838 230.684 603.722 230.684 603.644 230.684H586.599C586.491 230.684 586.375 230.684 586.305 230.646V228.527C586.375 228.489 586.483 228.489 586.599 228.489Z" fill="#B3B3B3"/>
<path d="M561.545 231.612C562.658 231.612 563.555 230.715 563.555 229.602C563.555 228.489 562.658 227.592 561.545 227.592C560.424 227.592 559.535 228.489 559.535 229.602C559.535 230.723 560.432 231.612 561.545 231.612Z" fill="#C4C4C4"/>
<path d="M567.652 237.123H587.712C587.82 237.123 587.975 237.123 588.083 237.162V239.288C587.975 239.326 587.82 239.326 587.712 239.326H567.652C567.544 239.326 567.389 239.326 567.281 239.288V237.162C567.428 237.123 567.536 237.123 567.652 237.123Z" fill="#BBBDBF"/>
<path d="M591.361 237.123H609.859C609.968 237.123 610.084 237.123 610.192 237.162V239.288C610.084 239.326 609.968 239.326 609.859 239.326H591.361C591.252 239.326 591.137 239.326 591.028 239.288V237.162C591.137 237.123 591.252 237.123 591.361 237.123Z" fill="#BBBDBF"/>
<path d="M561.545 240.246C562.658 240.246 563.555 239.35 563.555 238.236C563.555 237.116 562.658 236.227 561.545 236.227C560.424 236.227 559.535 237.123 559.535 238.236C559.535 239.357 560.432 240.246 561.545 240.246Z" stroke="#989898" stroke-width="0.39127" stroke-miterlimit="10"/>
<path d="M671.563 235.408H523.566C521.432 235.408 519.701 237.139 519.701 239.273V330.274C519.701 332.408 521.432 334.139 523.566 334.139H671.563C673.697 334.139 675.428 332.408 675.428 330.274V239.273C675.42 237.139 673.689 235.408 671.563 235.408Z" fill="#FFD382"/>
<path d="M596.818 323.301C614.668 323.386 629.177 309.008 629.262 291.151C629.347 273.302 614.961 258.792 597.112 258.707C579.263 258.622 564.753 273.008 564.668 290.857C564.583 308.668 578.969 323.216 596.818 323.301Z" fill="white"/>
<path opacity="0.05" d="M623.38 296.439L627.4 280.112C624.524 272.073 618.556 265.479 610.865 261.799L604.812 293.563L582.734 311.327L623.38 296.439Z" fill="black"/>
<path d="M597.112 258.707C594.152 258.707 591.229 259.086 588.4 259.851L585.439 270.511L591.446 271.4L597.661 273.557L603.289 276.394L607.819 260.57C604.386 259.348 600.792 258.707 597.112 258.707Z" fill="#F38632"/>
<path d="M588.825 301.393L582.734 311.334L583.538 299.615L585.316 299.7L587.473 300.296L588.825 301.393Z" fill="#4E4E4E"/>
<path d="M588.825 301.394L587.426 300.335L585.269 299.739L583.491 299.654L585.439 270.55L591.446 271.439L597.661 273.595L603.242 276.432L588.825 301.394Z" fill="url(#paint0_linear)"/>
<path d="M588.4 259.85L585.439 270.511L591.446 271.399L595.164 258.753C592.884 258.876 590.642 259.263 588.4 259.85Z" fill="#F6A259"/>
<g opacity="0.2">
<path opacity="0.2" d="M607.819 260.57C605.956 259.889 604.054 259.387 602.106 259.085L597.661 273.549L582.726 311.319L588.818 301.339L603.242 276.386L607.819 260.57Z" fill="#1A1A1A"/>
</g>
<path opacity="0.15" d="M582.734 311.203L591.492 271.439L585.486 270.55L582.734 311.203Z" fill="white"/>
<path d="M538.539 284.713C538.725 283.113 537.797 281.621 536.452 281.289L523.202 278.235L540.217 276.929C541.817 276.821 543.046 275.251 543.046 273.396C543.046 271.533 541.778 269.972 540.217 269.863L520.899 268.526L536.159 267.413C537.535 267.305 538.617 265.96 538.617 264.359C538.617 262.759 537.535 261.422 536.159 261.306L516.539 259.891C515.982 259.559 515.348 259.335 514.637 259.335C512.365 259.335 510.502 261.491 510.502 264.174C510.502 265.295 510.834 266.331 511.398 267.189C511.584 267.707 511.885 268.116 512.256 268.456C510.764 269.315 509.729 271.139 509.729 273.218C509.729 274.749 510.285 276.125 511.143 277.091C510.401 278.019 509.914 279.287 509.914 280.663C509.914 283.531 511.885 285.873 514.344 285.873L535.787 287.404C537.163 287.504 538.354 286.314 538.539 284.713Z" fill="#FFBB8F"/>
<path d="M657.099 285.132C656.914 283.532 657.841 282.04 659.187 281.708L672.436 278.654L655.422 277.348C653.822 277.239 652.593 275.67 652.593 273.815C652.593 271.952 653.86 270.39 655.422 270.282L674.74 268.945L659.48 267.832C658.104 267.723 657.022 266.378 657.022 264.778C657.022 263.178 658.104 261.841 659.48 261.725L679.1 260.31C679.656 259.978 680.29 259.753 681.001 259.753C683.274 259.753 685.137 261.91 685.137 264.593C685.137 265.713 684.805 266.749 684.24 267.607C684.055 268.125 683.753 268.535 683.382 268.875C684.874 269.733 685.91 271.558 685.91 273.637C685.91 275.168 685.354 276.544 684.496 277.51C685.238 278.438 685.725 279.705 685.725 281.081C685.725 283.949 683.753 286.292 681.295 286.292L659.851 287.822C658.514 287.923 657.285 286.732 657.099 285.132Z" fill="#FFBB8F"/>
<path d="M675.204 235.446H519.894L520.899 231.388H674.199L675.204 235.446Z" fill="#E6E6E6"/>
<path d="M519.701 229.555C519.701 227.422 521.432 225.69 523.566 225.69H548.202C551.186 225.69 553.614 228.11 553.614 231.101V239.319H519.701V229.555Z" fill="#FFD382"/>
<path d="M143.76 84.8916H231.691C234.918 84.8916 237.532 82.1551 237.532 78.7769V74.2624C237.532 70.8842 234.918 68.1477 231.691 68.1477H143.76C140.533 68.1477 137.918 70.8842 137.918 74.2624V78.7769C137.911 82.1551 140.533 84.8916 143.76 84.8916Z" fill="#6DBCDB"/>
<path d="M152.352 76.2456C152.669 76.8872 151.517 143.507 151.517 143.507L147.101 143.438L146.215 76.0833L152.352 76.2456Z" fill="#6DBCDB"/>
<path d="M143.718 124.289L154.213 124.622L154.471 141.18L166.48 147.395L166.635 158.28L159.117 169.697L158.459 154.051L148.659 148.972L140.476 153.688L141.34 170.563L132.537 159.787L132.803 149.714L143.63 140.886L143.718 124.289Z" fill="#6DBCDB"/>
<path d="M217.26 85.1854L260.139 139.329C264.629 145.003 272.672 145.791 278.093 141.083C283.514 136.383 284.267 127.965 279.769 122.299L236.89 68.1555C232.4 62.4814 224.357 61.693 218.943 66.4007C213.515 71.1008 212.769 79.5114 217.26 85.1854Z" fill="#6DBCDB"/>
<path d="M267.502 233.453C277.391 233.453 285.412 225.057 285.412 214.707V134.234C285.412 123.883 277.391 115.488 267.502 115.488C257.613 115.488 249.593 123.883 249.593 134.234V214.707C249.593 225.057 257.613 233.453 267.502 233.453Z" fill="#6DBCDB"/>
<path d="M268.92 140.79C273.732 139.972 276.999 135.227 276.218 130.191C275.437 125.155 270.904 121.735 266.093 122.553C261.281 123.37 258.014 128.115 258.795 133.151C259.576 138.187 264.109 141.607 268.92 140.79Z" fill="#398EAE"/>
<path d="M228.433 82.124C231.391 82.124 233.788 79.6148 233.788 76.5195C233.788 73.4243 231.391 70.915 228.433 70.915C225.476 70.915 223.079 73.4243 223.079 76.5195C223.079 79.6148 225.476 82.124 228.433 82.124Z" fill="#398EAE"/>
<path d="M147.012 73.8294C145.594 75.3136 145.594 77.7255 147.012 79.2175C148.43 80.7017 150.734 80.7017 152.16 79.2175C153.578 77.7332 153.578 75.3214 152.16 73.8294C150.734 72.3375 148.43 72.3375 147.012 73.8294Z" fill="#398EAE"/>
<path d="M145.917 188.841H48.0455V320.357H145.917V188.841Z" fill="#FFBE5C"/>
<path d="M138.376 193.642H55.5858C53.2742 193.642 51.4279 195.574 51.4279 197.994V311.452C51.4279 313.871 53.2742 315.804 55.5858 315.804H138.413C140.725 315.804 142.571 313.871 142.571 311.452V198.002C142.541 195.582 140.688 193.642 138.376 193.642Z" fill="white"/>
<path d="M68.6065 207.533H127.786C128.14 207.533 128.495 207.533 128.849 207.572V210.285C128.495 210.324 128.14 210.324 127.786 210.324H68.6065C68.252 210.324 67.8975 210.324 67.5356 210.285V207.572C67.8901 207.533 68.2446 207.533 68.6065 207.533Z" fill="#B3B3B3"/>
<path d="M81.7599 202.911H114.617C114.832 202.911 115.009 202.911 115.223 202.949V205.67C115.046 205.709 114.832 205.709 114.617 205.709H81.7599C81.5457 205.709 81.3685 205.709 81.1543 205.67V202.949C81.3315 202.911 81.5457 202.88 81.7599 202.911Z" fill="#B3B3B3"/>
<path d="M67.9268 218.997H85.4228C85.5262 218.997 85.637 218.997 85.7404 219.036V221.162C85.637 221.2 85.5262 221.2 85.4228 221.2H67.9268C67.8234 221.2 67.7126 221.2 67.6093 221.162V219.036C67.7126 218.997 67.8234 218.997 67.9268 218.997Z" fill="#B3B3B3"/>
<path d="M89.4776 218.997H111.279C111.42 218.997 111.56 218.997 111.671 219.036V221.162C111.53 221.2 111.42 221.2 111.279 221.2H89.4776C89.3373 221.2 89.197 221.2 89.0862 221.162V219.036C89.197 218.997 89.3373 218.997 89.4776 218.997Z" fill="#B3B3B3"/>
<path d="M60.0321 247.468H135.178" stroke="#989898" stroke-width="0.39127" stroke-miterlimit="10"/>
<path d="M62.1295 222.12C63.193 222.12 64.0497 221.223 64.0497 220.11C64.0497 218.997 63.193 218.1 62.1295 218.1C61.0587 218.1 60.2094 218.997 60.2094 220.11C60.2094 221.231 61.0661 222.12 62.1295 222.12Z" fill="#B3B3B3"/>
<path d="M67.8899 227.632H82.1142C82.188 227.632 82.2914 227.632 82.3653 227.67V229.789C82.2914 229.827 82.188 229.827 82.1142 229.827H67.8899C67.816 229.827 67.7126 229.827 67.6388 229.789V227.67C67.7126 227.632 67.7865 227.632 67.8899 227.632Z" fill="#B3B3B3"/>
<path d="M86.0654 227.632H102.35C102.454 227.632 102.564 227.632 102.638 227.67V229.789C102.535 229.827 102.424 229.827 102.35 229.827H86.0654C85.962 229.827 85.8513 229.827 85.7848 229.789V227.67C85.8513 227.632 85.9547 227.632 86.0654 227.632Z" fill="#B3B3B3"/>
<path d="M62.1295 230.755C63.193 230.755 64.0497 229.858 64.0497 228.745C64.0497 227.632 63.193 226.735 62.1295 226.735C61.0587 226.735 60.2094 227.632 60.2094 228.745C60.2094 229.866 61.0661 230.755 62.1295 230.755Z" fill="#B3B3B3"/>
<path d="M67.9638 236.267H87.1288C87.2322 236.267 87.3799 236.267 87.4833 236.305V238.431C87.3799 238.47 87.2322 238.47 87.1288 238.47H67.9638C67.8604 238.47 67.7126 238.47 67.6093 238.431V236.305C67.7496 236.267 67.853 236.267 67.9638 236.267Z" fill="#BBBDBF"/>
<path d="M90.6147 236.267H108.288C108.391 236.267 108.502 236.267 108.605 236.305V238.431C108.502 238.47 108.391 238.47 108.288 238.47H90.6147C90.5113 238.47 90.4005 238.47 90.2971 238.431V236.305C90.4005 236.267 90.5113 236.267 90.6147 236.267Z" fill="#BBBDBF"/>
<path d="M62.1296 239.39C63.193 239.39 64.0497 238.493 64.0497 237.38C64.0497 236.259 63.193 235.37 62.1296 235.37C61.0587 235.37 60.2094 236.267 60.2094 237.38C60.2094 238.501 61.0661 239.39 62.1296 239.39Z" stroke="#989898" stroke-width="0.39127" stroke-miterlimit="10"/>
<path d="M167.238 234.551H25.8452C23.8068 234.551 22.1525 236.282 22.1525 238.416V329.417C22.1525 331.551 23.8068 333.283 25.8452 333.283H167.238C169.277 333.283 170.931 331.551 170.931 329.417V238.416C170.924 236.282 169.269 234.551 167.238 234.551Z" fill="#FFD382"/>
<path d="M146.035 234.59H22.3368L23.1344 230.531H146.035V234.59Z" fill="#E6E6E6"/>
<path d="M22.1525 228.698C22.1525 226.565 23.8068 224.833 25.8452 224.833H49.3824C52.2332 224.833 54.5522 227.253 54.5522 230.244V238.462H22.1525V228.698Z" fill="#FFD382"/>
<path d="M239.829 374.857H21.1333C10.7346 374.857 2.30054 366.029 2.30054 355.144C2.30054 344.252 10.7273 335.432 21.1333 335.432C131.286 335.432 239.837 335.432 239.837 335.432V374.857H239.829Z" fill="#6DBCDB" stroke="#6DBCDB" stroke-width="3.2484" stroke-miterlimit="10"/>
<path d="M25.8305 366.932C32.0507 366.932 37.0932 361.654 37.0932 355.144C37.0932 348.633 32.0507 343.355 25.8305 343.355C19.6102 343.355 14.5677 348.633 14.5677 355.144C14.5677 361.654 19.6102 366.932 25.8305 366.932Z" fill="#3D93B4"/>
<path d="M64.3378 366.932C70.558 366.932 75.6005 361.654 75.6005 355.144C75.6005 348.633 70.558 343.355 64.3378 343.355C58.1176 343.355 53.0751 348.633 53.0751 355.144C53.0751 361.654 58.1176 366.932 64.3378 366.932Z" fill="#3D93B4"/>
<path d="M102.845 366.932C109.065 366.932 114.108 361.654 114.108 355.144C114.108 348.633 109.065 343.355 102.845 343.355C96.625 343.355 91.5825 348.633 91.5825 355.144C91.5825 361.654 96.625 366.932 102.845 366.932Z" fill="#3D93B4"/>
<path d="M141.353 366.932C147.573 366.932 152.615 361.654 152.615 355.144C152.615 348.633 147.573 343.355 141.353 343.355C135.132 343.355 130.09 348.633 130.09 355.144C130.09 361.654 135.132 366.932 141.353 366.932Z" fill="#3D93B4"/>
<path d="M179.86 366.932C186.08 366.932 191.123 361.654 191.123 355.144C191.123 348.633 186.08 343.355 179.86 343.355C173.64 343.355 168.597 348.633 168.597 355.144C168.597 361.654 173.64 366.932 179.86 366.932Z" fill="#3D93B4"/>
<path d="M218.367 366.932C224.588 366.932 229.63 361.654 229.63 355.144C229.63 348.633 224.588 343.355 218.367 343.355C212.147 343.355 207.105 348.633 207.105 355.144C207.105 361.654 212.147 366.932 218.367 366.932Z" fill="#3D93B4"/>
<path d="M449.855 374.856H668.551C678.949 374.856 687.384 366.028 687.384 355.144C687.384 344.26 678.957 335.432 668.551 335.432C558.398 335.432 449.855 335.432 449.855 335.432V374.856Z" fill="#6DBCDB" stroke="#6DBCDB" stroke-width="3.2484" stroke-miterlimit="10"/>
<path d="M663.854 366.932C670.074 366.932 675.116 361.654 675.116 355.143C675.116 348.633 670.074 343.355 663.854 343.355C657.634 343.355 652.591 348.633 652.591 355.143C652.591 361.654 657.634 366.932 663.854 366.932Z" fill="#3D93B4"/>
<path d="M625.346 366.932C631.566 366.932 636.609 361.654 636.609 355.143C636.609 348.633 631.566 343.355 625.346 343.355C619.126 343.355 614.083 348.633 614.083 355.143C614.083 361.654 619.126 366.932 625.346 366.932Z" fill="#3D93B4"/>
<path d="M586.839 366.932C593.059 366.932 598.102 361.654 598.102 355.143C598.102 348.633 593.059 343.355 586.839 343.355C580.619 343.355 575.576 348.633 575.576 355.143C575.576 361.654 580.619 366.932 586.839 366.932Z" fill="#3D93B4"/>
<path d="M548.331 366.932C554.552 366.932 559.594 361.654 559.594 355.143C559.594 348.633 554.552 343.355 548.331 343.355C542.111 343.355 537.069 348.633 537.069 355.143C537.069 361.654 542.111 366.932 548.331 366.932Z" fill="#3D93B4"/>
<path d="M509.824 366.932C516.044 366.932 521.087 361.654 521.087 355.143C521.087 348.633 516.044 343.355 509.824 343.355C503.604 343.355 498.562 348.633 498.562 355.143C498.562 361.654 503.604 366.932 509.824 366.932Z" fill="#3D93B4"/>
<path d="M471.317 366.932C477.537 366.932 482.579 361.654 482.579 355.143C482.579 348.633 477.537 343.355 471.317 343.355C465.096 343.355 460.054 348.633 460.054 355.143C460.054 361.654 465.096 366.932 471.317 366.932Z" fill="#3D93B4"/>
<path d="M460.054 210.324H223.079V379.321H460.054V210.324Z" fill="#6DBCDB"/>
<path d="M411.01 233.938H388.639V257.353H411.01V233.938Z" fill="#257493"/>
<path d="M407.269 245.201C407.269 249.507 403.938 252.993 399.824 252.993C395.711 252.993 392.38 249.507 392.38 245.201C392.38 240.895 395.711 237.409 399.824 237.409C403.938 237.401 407.269 240.895 407.269 245.201Z" fill="#CCEA2A"/>
<path d="M379.847 270.496H272.123V363.306H379.847V270.496Z" fill="#44A4C9"/>
<path d="M373.813 275.691H278.15V358.111H373.813V275.691Z" fill="#FFF6ED"/>
<path d="M272.123 230.58L272.123 262.606L379.847 262.606L379.847 230.58L272.123 230.58Z" fill="#44A4C9"/>
<path d="M278.15 233.689L278.15 259.862L373.813 259.862L373.813 233.689L278.15 233.689Z" fill="#FFFBF8"/>
<path d="M294.872 237.117C300.295 237.117 304.684 241.356 304.684 246.593C304.684 251.829 300.295 256.068 294.872 256.068C289.45 256.068 285.06 251.829 285.06 246.593C285.06 241.364 289.458 237.117 294.872 237.117Z" fill="#455A64"/>
<path d="M294.872 238.713C299.385 238.713 303.04 242.243 303.04 246.6C303.04 250.958 299.385 254.488 294.872 254.488C290.36 254.488 286.705 250.958 286.705 246.6C286.705 242.243 290.36 238.713 294.872 238.713Z" fill="#EBEBEB"/>
<path d="M294.88 238.713L294.88 246.6L294.88 254.48C290.367 254.48 286.712 250.958 286.712 246.608C286.712 242.235 290.367 238.713 294.88 238.713Z" fill="#44A4C9"/>
<path d="M294.887 246.659L294.887 254.48C292.669 254.48 290.65 253.624 289.174 252.243L294.887 246.659Z" fill="#CCEA2A"/>
<path d="M288.876 248.151L288.785 247.73L295.423 245.987L295.637 246.925L288.876 248.151Z" fill="#5C2EC7"/>
<path d="M325.827 237.117C331.249 237.117 335.639 241.356 335.639 246.593C335.639 251.829 331.249 256.068 325.827 256.068C320.404 256.068 316.015 251.829 316.015 246.593C316.015 241.364 320.404 237.117 325.827 237.117Z" fill="#455A64"/>
<path d="M325.827 238.713C330.339 238.713 333.994 242.243 333.994 246.6C333.994 250.958 330.339 254.488 325.827 254.488C321.314 254.488 317.659 250.958 317.659 246.6C317.659 242.243 321.314 238.713 325.827 238.713Z" fill="#EBEBEB"/>
<path d="M325.827 238.713L325.827 246.6L325.827 254.48C321.314 254.48 317.659 250.958 317.659 246.608C317.659 242.235 321.322 238.713 325.827 238.713Z" fill="#44A4C9"/>
<path d="M325.835 246.659L325.835 254.48C323.617 254.48 321.598 253.624 320.122 252.243L325.835 246.659Z" fill="#CCEA2A"/>
<path d="M319.686 246.63L319.701 246.209L326.584 246.172L326.538 247.139L319.686 246.63Z" fill="#5C2EC7"/>
<path d="M356.781 237.117C362.204 237.117 366.594 241.356 366.594 246.593C366.594 251.829 362.204 256.068 356.781 256.068C351.359 256.068 346.969 251.829 346.969 246.593C346.969 241.364 351.367 237.117 356.781 237.117Z" fill="#455A64"/>
<path d="M356.782 238.713C361.294 238.713 364.95 242.243 364.95 246.6C364.95 250.958 361.294 254.488 356.782 254.488C352.269 254.488 348.614 250.958 348.614 246.6C348.621 242.243 352.277 238.713 356.782 238.713Z" fill="#EBEBEB"/>
<path d="M356.79 238.713L356.79 246.6L356.79 254.48C352.278 254.48 348.622 250.958 348.622 246.608C348.622 242.235 352.278 238.713 356.79 238.713Z" fill="#44A4C9"/>
<path d="M356.797 246.659L356.797 254.48C354.58 254.48 352.561 253.624 351.084 252.243L356.797 246.659Z" fill="#CCEA2A"/>
<path d="M351.298 243.654L351.52 243.284L357.592 246.408L357.088 247.236L351.298 243.654Z" fill="#5C2EC7"/>
<path d="M403.81 271.629H394.003V363.306H403.81V271.629Z" fill="#257493"/>
<path d="M400.619 277.998H397.184V356.949H400.619V277.998Z" fill="#133A78"/>
<path d="M398.906 316.438C398.264 316.438 397.74 315.889 397.74 315.216V282.454C397.74 281.782 398.264 281.233 398.906 281.233C399.549 281.233 400.073 281.782 400.073 282.454V315.216C400.066 315.896 399.549 316.438 398.906 316.438Z" fill="white"/>
<path d="M402.906 281.631C402.906 283.841 401.117 285.631 398.907 285.631C396.696 285.631 394.906 283.841 394.906 281.631C394.906 279.42 396.696 277.631 398.907 277.631C401.117 277.631 402.906 279.42 402.906 281.631Z" fill="#6DBCDB"/>
<path d="M297.293 325.514H294.523V324.504H301.149V325.514H298.38V333.331H297.293V325.514ZM301.39 327.869C301.39 327.671 301.368 327.36 301.325 326.937L302.283 326.808L302.387 327.753H302.399C302.555 327.554 302.706 327.382 302.852 327.235C302.999 327.088 303.15 326.963 303.305 326.86C303.469 326.748 303.625 326.691 303.771 326.691C303.97 326.683 304.246 326.704 304.6 326.756L304.367 327.753C304.082 327.701 303.883 327.679 303.771 327.688C303.625 327.688 303.469 327.757 303.305 327.895C303.141 328.033 302.999 328.18 302.878 328.335C302.723 328.525 302.572 328.741 302.425 328.982V333.331H301.39V327.869ZM309.273 330.341C309.1 330.35 308.936 330.358 308.781 330.367C308.625 330.376 308.47 330.388 308.315 330.406C308.168 330.414 308.034 330.427 307.914 330.445C307.292 330.522 306.852 330.66 306.594 330.859C306.335 331.048 306.205 331.325 306.205 331.687C306.205 331.989 306.296 332.218 306.477 332.373C306.667 332.52 306.913 332.593 307.215 332.593C307.629 332.593 307.996 332.524 308.315 332.386C308.643 332.239 308.962 332.049 309.273 331.816V330.341ZM309.26 332.722C308.854 332.955 308.475 333.145 308.121 333.292C307.776 333.43 307.4 333.499 306.995 333.499C306.417 333.499 305.955 333.361 305.61 333.085C305.274 332.8 305.105 332.334 305.105 331.687C305.105 331.35 305.192 331.057 305.364 330.807C305.537 330.557 305.761 330.35 306.037 330.186C306.322 330.013 306.641 329.879 306.995 329.785C307.349 329.69 307.711 329.629 308.082 329.603C308.237 329.586 308.44 329.573 308.69 329.565C308.94 329.547 309.135 329.534 309.273 329.526C309.273 329.224 309.264 328.956 309.247 328.723C309.229 328.482 309.178 328.279 309.091 328.115C309.005 327.942 308.876 327.813 308.703 327.727C308.539 327.64 308.302 327.597 307.991 327.597C307.741 327.597 307.5 327.615 307.267 327.649C307.034 327.675 306.827 327.705 306.645 327.74C306.43 327.783 306.231 327.83 306.05 327.882L305.843 326.989C306.059 326.937 306.292 326.89 306.542 326.847C306.758 326.804 307.008 326.769 307.292 326.743C307.577 326.709 307.884 326.691 308.211 326.691C308.651 326.691 309.005 326.756 309.273 326.886C309.549 327.015 309.76 327.192 309.907 327.416C310.062 327.632 310.166 327.882 310.217 328.167C310.278 328.443 310.308 328.736 310.308 329.047V332.153C310.308 332.274 310.308 332.403 310.308 332.541C310.317 332.671 310.325 332.8 310.334 332.929C310.351 333.059 310.368 333.193 310.386 333.331L309.389 333.434L309.26 332.722ZM312.145 328.115C312.154 327.934 312.132 327.541 312.081 326.937L313.038 326.808L313.181 327.636C313.44 327.464 313.694 327.313 313.944 327.183C314.203 327.054 314.466 326.942 314.734 326.847C315.001 326.743 315.26 326.691 315.51 326.691C315.864 326.691 316.157 326.735 316.39 326.821C316.632 326.898 316.826 327.032 316.973 327.222C317.119 327.412 317.223 327.662 317.283 327.973C317.352 328.283 317.387 328.672 317.387 329.137V333.331H316.351V329.254C316.351 328.995 316.347 328.766 316.339 328.568C316.33 328.361 316.291 328.188 316.222 328.05C316.162 327.904 316.062 327.791 315.924 327.714C315.795 327.636 315.609 327.597 315.368 327.597C315.144 327.597 314.906 327.649 314.656 327.753C314.406 327.848 314.16 327.96 313.918 328.089C313.677 328.219 313.431 328.37 313.181 328.542V333.331H312.145V328.115ZM322.73 327.882C322.368 327.77 322.044 327.697 321.76 327.662C321.483 327.619 321.229 327.597 320.996 327.597C320.694 327.597 320.439 327.671 320.232 327.817C320.034 327.964 319.935 328.154 319.935 328.387C319.943 328.594 320.034 328.771 320.206 328.917C320.379 329.064 320.577 329.198 320.802 329.319C321.035 329.431 321.289 329.556 321.565 329.694C321.85 329.832 322.113 329.987 322.355 330.16C322.605 330.332 322.808 330.539 322.963 330.781C323.118 331.023 323.2 331.312 323.209 331.648C323.2 332.011 323.118 332.312 322.963 332.554C322.816 332.787 322.622 332.977 322.381 333.123C322.148 333.262 321.893 333.356 321.617 333.408C321.341 333.469 321.082 333.499 320.841 333.499C320.53 333.499 320.206 333.482 319.87 333.447C319.542 333.413 319.188 333.339 318.809 333.227L319.003 332.295C319.391 332.399 319.745 332.476 320.064 332.528C320.383 332.571 320.647 332.593 320.854 332.593C321.009 332.593 321.16 332.576 321.307 332.541C321.462 332.507 321.6 332.459 321.721 332.399C321.841 332.33 321.936 332.243 322.005 332.14C322.083 332.036 322.122 331.92 322.122 331.79C322.113 331.549 322.031 331.346 321.876 331.182C321.721 331.01 321.518 330.859 321.268 330.729C321.026 330.591 320.763 330.457 320.478 330.328C320.202 330.19 319.939 330.035 319.689 329.862C319.447 329.681 319.244 329.47 319.081 329.228C318.917 328.978 318.835 328.672 318.835 328.309C318.835 328.05 318.899 327.822 319.029 327.623C319.167 327.416 319.339 327.248 319.546 327.119C319.762 326.98 319.995 326.877 320.245 326.808C320.504 326.73 320.754 326.691 320.996 326.691C321.246 326.691 321.527 326.713 321.837 326.756C322.148 326.791 322.506 326.86 322.911 326.963L322.73 327.882ZM324.607 323.637L325.642 323.521V333.331H324.607V323.637ZM331.125 330.341C330.952 330.35 330.788 330.358 330.633 330.367C330.477 330.376 330.322 330.388 330.167 330.406C330.02 330.414 329.886 330.427 329.766 330.445C329.144 330.522 328.704 330.66 328.446 330.859C328.187 331.048 328.057 331.325 328.057 331.687C328.057 331.989 328.148 332.218 328.329 332.373C328.519 332.52 328.765 332.593 329.067 332.593C329.481 332.593 329.848 332.524 330.167 332.386C330.495 332.239 330.814 332.049 331.125 331.816V330.341ZM331.112 332.722C330.706 332.955 330.326 333.145 329.973 333.292C329.628 333.43 329.252 333.499 328.847 333.499C328.269 333.499 327.807 333.361 327.462 333.085C327.125 332.8 326.957 332.334 326.957 331.687C326.957 331.35 327.044 331.057 327.216 330.807C327.389 330.557 327.613 330.35 327.889 330.186C328.174 330.013 328.493 329.879 328.847 329.785C329.2 329.69 329.563 329.629 329.934 329.603C330.089 329.586 330.292 329.573 330.542 329.565C330.792 329.547 330.986 329.534 331.125 329.526C331.125 329.224 331.116 328.956 331.099 328.723C331.081 328.482 331.03 328.279 330.943 328.115C330.857 327.942 330.728 327.813 330.555 327.727C330.391 327.64 330.154 327.597 329.843 327.597C329.593 327.597 329.351 327.615 329.119 327.649C328.886 327.675 328.679 327.705 328.497 327.74C328.282 327.783 328.083 327.83 327.902 327.882L327.695 326.989C327.911 326.937 328.144 326.89 328.394 326.847C328.609 326.804 328.86 326.769 329.144 326.743C329.429 326.709 329.735 326.691 330.063 326.691C330.503 326.691 330.857 326.756 331.125 326.886C331.401 327.015 331.612 327.192 331.759 327.416C331.914 327.632 332.017 327.882 332.069 328.167C332.13 328.443 332.16 328.736 332.16 329.047V332.153C332.16 332.274 332.16 332.403 332.16 332.541C332.168 332.671 332.177 332.8 332.186 332.929C332.203 333.059 332.22 333.193 332.238 333.331L331.241 333.434L331.112 332.722ZM335.499 324.88V326.821H337.375V327.662H335.499V331.118C335.499 331.402 335.503 331.64 335.511 331.829C335.529 332.019 335.559 332.17 335.602 332.282C335.645 332.394 335.706 332.476 335.783 332.528C335.861 332.571 335.96 332.593 336.081 332.593C336.409 332.584 336.788 332.463 337.22 332.231L337.53 333.02C337.246 333.21 336.978 333.335 336.728 333.395C336.486 333.464 336.245 333.499 336.003 333.499C335.434 333.499 335.033 333.339 334.8 333.02C334.575 332.692 334.463 332.153 334.463 331.402V327.662H333.273V326.821H334.463V325.009L335.499 324.88ZM338.698 326.808L339.734 326.691V333.331H338.698V326.808ZM338.53 324.957C338.53 324.759 338.595 324.595 338.724 324.465C338.862 324.327 339.031 324.258 339.229 324.258C339.436 324.258 339.609 324.327 339.747 324.465C339.893 324.595 339.967 324.759 339.967 324.957C339.967 325.156 339.893 325.324 339.747 325.462C339.609 325.591 339.436 325.656 339.229 325.656C339.031 325.656 338.862 325.591 338.724 325.462C338.595 325.324 338.53 325.156 338.53 324.957ZM341.606 328.115C341.614 327.934 341.593 327.541 341.541 326.937L342.499 326.808L342.641 327.636C342.9 327.464 343.154 327.313 343.405 327.183C343.663 327.054 343.927 326.942 344.194 326.847C344.461 326.743 344.72 326.691 344.971 326.691C345.324 326.691 345.618 326.735 345.851 326.821C346.092 326.898 346.286 327.032 346.433 327.222C346.58 327.412 346.683 327.662 346.744 327.973C346.813 328.283 346.847 328.672 346.847 329.137V333.331H345.812V329.254C345.812 328.995 345.807 328.766 345.799 328.568C345.79 328.361 345.751 328.188 345.682 328.05C345.622 327.904 345.523 327.791 345.385 327.714C345.255 327.636 345.07 327.597 344.828 327.597C344.604 327.597 344.367 327.649 344.116 327.753C343.866 327.848 343.62 327.96 343.379 328.089C343.137 328.219 342.891 328.37 342.641 328.542V333.331H341.606V328.115ZM353.769 333.952C353.769 334.271 353.735 334.582 353.666 334.884C353.597 335.186 353.463 335.453 353.265 335.686C353.075 335.928 352.803 336.117 352.449 336.255C352.104 336.402 351.647 336.475 351.077 336.475C350.715 336.467 350.4 336.445 350.133 336.411C349.865 336.376 349.611 336.324 349.369 336.255C349.128 336.195 348.908 336.122 348.709 336.035L348.981 335.129C349.317 335.276 349.658 335.388 350.003 335.466C350.357 335.544 350.672 335.582 350.948 335.582C351.25 335.582 351.513 335.552 351.737 335.492C351.962 335.431 352.147 335.328 352.294 335.181C352.449 335.043 352.561 334.858 352.63 334.625C352.708 334.392 352.747 334.103 352.747 333.758V332.813C352.566 332.934 352.376 333.046 352.177 333.149C351.988 333.244 351.781 333.326 351.556 333.395C351.341 333.464 351.129 333.499 350.922 333.499C350.12 333.499 349.486 333.218 349.02 332.658C348.554 332.088 348.321 331.243 348.321 330.121C348.321 329.474 348.42 328.935 348.618 328.503C348.826 328.063 349.084 327.71 349.395 327.442C349.706 327.175 350.046 326.985 350.417 326.873C350.788 326.752 351.142 326.691 351.479 326.691C351.919 326.691 352.32 326.73 352.682 326.808C353.053 326.877 353.416 326.933 353.769 326.976V333.952ZM351.039 332.593C351.228 332.593 351.423 332.558 351.621 332.489C351.819 332.42 352.009 332.338 352.19 332.243C352.38 332.149 352.566 332.036 352.747 331.907V327.779C352.643 327.753 352.523 327.722 352.385 327.688C352.264 327.671 352.126 327.653 351.97 327.636C351.815 327.61 351.651 327.597 351.479 327.597C351.116 327.597 350.806 327.662 350.547 327.791C350.288 327.921 350.072 328.098 349.9 328.322C349.736 328.546 349.615 328.81 349.537 329.112C349.46 329.414 349.421 329.733 349.421 330.069C349.421 330.371 349.451 330.673 349.511 330.975C349.58 331.277 349.684 331.549 349.822 331.79C349.96 332.032 350.128 332.226 350.327 332.373C350.525 332.52 350.763 332.593 351.039 332.593ZM305.439 340.504H310.849V341.501H306.526V344.322H310.538V345.293H306.526V349.331H305.439V340.504ZM312.832 346.108C312.832 346.945 313.018 347.57 313.389 347.985C313.768 348.39 314.277 348.593 314.916 348.593C315.546 348.593 316.037 348.39 316.391 347.985C316.745 347.579 316.922 346.971 316.922 346.16C316.922 345.297 316.732 344.654 316.352 344.231C315.981 343.809 315.472 343.597 314.825 343.597C314.178 343.597 313.682 343.809 313.337 344.231C313 344.646 312.832 345.271 312.832 346.108ZM311.732 346.095C311.732 345.439 311.836 344.896 312.043 344.464C312.25 344.024 312.513 343.675 312.832 343.416C313.151 343.149 313.492 342.963 313.855 342.86C314.226 342.748 314.575 342.691 314.903 342.691C315.213 342.691 315.55 342.743 315.912 342.847C316.283 342.942 316.624 343.119 316.935 343.377C317.245 343.628 317.504 343.968 317.711 344.4C317.918 344.823 318.022 345.362 318.022 346.017C318.022 346.699 317.914 347.264 317.698 347.713C317.491 348.161 317.228 348.52 316.909 348.787C316.59 349.046 316.245 349.227 315.874 349.331C315.503 349.443 315.157 349.499 314.838 349.499C314.51 349.499 314.165 349.447 313.803 349.344C313.44 349.24 313.104 349.063 312.793 348.813C312.491 348.554 312.237 348.205 312.03 347.765C311.831 347.325 311.732 346.768 311.732 346.095ZM319.539 343.869C319.539 343.671 319.517 343.36 319.474 342.937L320.432 342.808L320.535 343.753H320.548C320.704 343.554 320.855 343.382 321.001 343.235C321.148 343.088 321.299 342.963 321.454 342.86C321.618 342.748 321.773 342.691 321.92 342.691C322.119 342.683 322.395 342.704 322.748 342.756L322.515 343.753C322.231 343.701 322.032 343.679 321.92 343.688C321.773 343.688 321.618 343.757 321.454 343.895C321.29 344.033 321.148 344.18 321.027 344.335C320.872 344.525 320.721 344.741 320.574 344.982V349.331H319.539V343.869ZM323.899 343.999C323.899 343.705 323.873 343.351 323.821 342.937L324.792 342.808L324.934 343.623C325.167 343.451 325.396 343.3 325.62 343.17C325.845 343.041 326.086 342.929 326.345 342.834C326.604 342.739 326.867 342.691 327.135 342.691C327.566 342.691 327.907 342.769 328.157 342.924C328.407 343.071 328.593 343.326 328.713 343.688C329.067 343.438 329.434 343.209 329.814 343.002C330.202 342.795 330.603 342.691 331.017 342.691C331.336 342.691 331.608 342.735 331.832 342.821C332.057 342.898 332.238 343.032 332.376 343.222C332.514 343.412 332.613 343.662 332.674 343.973C332.734 344.283 332.764 344.672 332.764 345.137V349.331H331.729V345.254C331.729 344.995 331.725 344.766 331.716 344.568C331.707 344.361 331.677 344.188 331.625 344.05C331.574 343.904 331.487 343.791 331.367 343.714C331.254 343.636 331.09 343.597 330.875 343.597C330.676 343.597 330.487 343.628 330.305 343.688C330.133 343.74 329.952 343.817 329.762 343.921C329.572 344.024 329.279 344.236 328.882 344.555V349.331H327.846V345.254C327.846 344.995 327.842 344.766 327.833 344.568C327.825 344.361 327.795 344.188 327.743 344.05C327.691 343.904 327.605 343.791 327.484 343.714C327.372 343.636 327.208 343.597 326.992 343.597C326.768 343.597 326.535 343.645 326.293 343.74C326.052 343.835 325.823 343.947 325.607 344.076C325.392 344.206 325.167 344.357 324.934 344.529V349.331H323.899V343.999ZM338.111 343.882C337.749 343.77 337.425 343.697 337.141 343.662C336.864 343.619 336.61 343.597 336.377 343.597C336.075 343.597 335.82 343.671 335.613 343.817C335.415 343.964 335.316 344.154 335.316 344.387C335.324 344.594 335.415 344.771 335.588 344.917C335.76 345.064 335.959 345.198 336.183 345.319C336.416 345.431 336.67 345.556 336.946 345.694C337.231 345.832 337.494 345.987 337.736 346.16C337.986 346.332 338.189 346.539 338.344 346.781C338.499 347.023 338.581 347.312 338.59 347.648C338.581 348.011 338.499 348.312 338.344 348.554C338.197 348.787 338.003 348.977 337.762 349.123C337.529 349.262 337.274 349.356 336.998 349.408C336.722 349.469 336.463 349.499 336.222 349.499C335.911 349.499 335.588 349.482 335.251 349.447C334.923 349.413 334.569 349.339 334.19 349.227L334.384 348.295C334.772 348.399 335.126 348.476 335.445 348.528C335.764 348.571 336.028 348.593 336.235 348.593C336.39 348.593 336.541 348.576 336.688 348.541C336.843 348.507 336.981 348.459 337.102 348.399C337.222 348.33 337.317 348.243 337.386 348.14C337.464 348.036 337.503 347.92 337.503 347.79C337.494 347.549 337.412 347.346 337.257 347.182C337.102 347.01 336.899 346.859 336.649 346.729C336.407 346.591 336.144 346.457 335.859 346.328C335.583 346.19 335.32 346.035 335.07 345.862C334.828 345.681 334.626 345.47 334.462 345.228C334.298 344.978 334.216 344.672 334.216 344.309C334.216 344.05 334.28 343.822 334.41 343.623C334.548 343.416 334.72 343.248 334.927 343.119C335.143 342.98 335.376 342.877 335.626 342.808C335.885 342.73 336.135 342.691 336.377 342.691C336.627 342.691 336.908 342.713 337.218 342.756C337.529 342.791 337.887 342.86 338.292 342.963L338.111 343.882ZM339.716 348.567C339.716 348.36 339.789 348.183 339.936 348.036C340.083 347.881 340.264 347.803 340.479 347.803C340.704 347.803 340.894 347.881 341.049 348.036C341.204 348.183 341.282 348.36 341.282 348.567C341.282 348.783 341.204 348.964 341.049 349.111C340.894 349.257 340.704 349.331 340.479 349.331C340.264 349.331 340.083 349.257 339.936 349.111C339.789 348.964 339.716 348.783 339.716 348.567ZM342.585 348.567C342.585 348.36 342.658 348.183 342.805 348.036C342.951 347.881 343.133 347.803 343.348 347.803C343.573 347.803 343.762 347.881 343.918 348.036C344.073 348.183 344.151 348.36 344.151 348.567C344.151 348.783 344.073 348.964 343.918 349.111C343.762 349.257 343.573 349.331 343.348 349.331C343.133 349.331 342.951 349.257 342.805 349.111C342.658 348.964 342.585 348.783 342.585 348.567ZM345.454 348.567C345.454 348.36 345.527 348.183 345.674 348.036C345.82 347.881 346.002 347.803 346.217 347.803C346.442 347.803 346.631 347.881 346.787 348.036C346.942 348.183 347.02 348.36 347.02 348.567C347.02 348.783 346.942 348.964 346.787 349.111C346.631 349.257 346.442 349.331 346.217 349.331C346.002 349.331 345.82 349.257 345.674 349.111C345.527 348.964 345.454 348.783 345.454 348.567Z" fill="#44A4C9"/>
<path opacity="0.8" d="M316.41 301.848C316.631 300.046 317.318 298.392 318.323 297.016L314.741 293.267C312.843 295.625 311.602 298.593 311.336 301.848H316.41Z" fill="#398EAE"/>
<path opacity="0.1" d="M327.244 287.848V293.151C328.965 293.383 330.546 294.102 331.86 295.154L335.442 291.404C333.182 289.418 330.346 288.127 327.244 287.848Z" fill="#398EAE"/>
<path opacity="0.7" d="M318.331 309.316C317.319 307.94 316.64 306.285 316.418 304.484H311.352C311.618 307.739 312.851 310.699 314.756 313.065L318.331 309.316Z" fill="#398EAE"/>
<path d="M320.11 295.154C321.424 294.094 323.005 293.383 324.726 293.151V287.848C321.616 288.127 318.788 289.418 316.528 291.412L320.11 295.154Z" fill="#398EAE"/>
<path opacity="0.3" d="M335.553 304.484C335.331 306.285 334.644 307.94 333.64 309.316L337.222 313.065C339.12 310.707 340.36 307.739 340.626 304.484H335.553Z" fill="#398EAE"/>
<path opacity="0.2" d="M333.64 297.016C334.652 298.392 335.331 300.046 335.553 301.848H340.619C340.353 298.593 339.12 295.632 337.214 293.267L333.64 297.016Z" fill="#398EAE"/>
<path opacity="0.5" d="M324.726 313.189C323.005 312.957 321.424 312.238 320.11 311.187L316.528 314.936C318.78 316.922 321.616 318.221 324.726 318.499V313.189Z" fill="#398EAE"/>
<path opacity="0.4" d="M331.853 311.179C330.538 312.238 328.958 312.949 327.237 313.181V318.484C330.346 318.206 333.175 316.915 335.435 314.92L331.853 311.179Z" fill="#398EAE"/>
<path d="M79.069 313.647L86.7799 308.392C88.8197 309.643 91.0329 310.586 93.348 311.19L94.9769 320.189H103.095L104.724 310.901C107.051 310.326 109.291 309.443 111.384 308.274L119.042 313.529L124.77 307.801L119.515 300.143C120.753 298.064 121.694 295.822 122.313 293.483L131.43 291.854V283.683L122.326 282.067C121.709 279.726 120.762 277.483 119.515 275.407L124.77 267.762L119.042 262.035L111.384 267.407C109.273 266.348 107.076 265.469 104.816 264.78L103.148 255.375H95.082L93.3349 264.715C91.057 265.275 88.8716 266.16 86.8456 267.342L79.1872 262.087L73.4598 267.46L78.7143 275.644C77.4696 277.667 76.581 279.889 76.0871 282.212L66.629 283.841V292.012L75.9163 293.693C76.519 295.973 77.4388 298.158 78.6486 300.182L73.4598 307.775L79.069 313.647Z" fill="#D85528"/>
<path d="M93.9126 293.299C94.5674 293.99 95.3615 294.535 96.2423 294.897C97.1231 295.26 98.0707 295.431 99.0226 295.4C99.9341 295.438 100.844 295.291 101.697 294.969C102.551 294.646 103.33 294.154 103.988 293.522C104.728 292.723 105.276 291.766 105.591 290.724L113.302 292.182L115.745 292.707C115.745 292.891 115.049 294.757 115.049 294.757C114.061 297.024 112.652 299.083 110.898 300.826C109.323 302.287 107.475 303.423 105.459 304.167C103.444 304.911 101.301 305.249 99.1539 305.16C94.6761 305.227 90.3536 303.521 87.1297 300.412C83.9058 297.304 82.0422 293.047 81.9455 288.57C81.9324 288.333 81.9324 288.096 81.9455 287.86C81.8932 285.544 82.3227 283.242 83.2069 281.101C84.0911 278.959 85.4106 277.025 87.0818 275.42C88.7074 273.766 90.6573 272.465 92.8093 271.599C94.9612 270.733 97.2688 270.321 99.5874 270.389C101.853 270.321 104.108 270.735 106.202 271.602C108.297 272.469 110.184 273.771 111.738 275.42C113.137 276.864 114.267 278.545 115.075 280.386C115.511 281.313 115.824 282.294 116.008 283.302L106.011 285.154C105.603 283.682 104.699 282.395 103.452 281.512C102.205 280.629 100.692 280.203 99.1671 280.307C98.1977 280.268 97.2314 280.441 96.3354 280.813C95.4394 281.185 94.6351 281.747 93.9783 282.461C93.2953 283.191 92.7628 284.048 92.4112 284.983C92.0596 285.918 91.8957 286.914 91.929 287.913C91.8629 289.898 92.5746 291.83 93.9126 293.299Z" fill="white"/>
<defs>
<linearGradient id="paint0_linear" x1="589.342" y1="286.245" x2="596.904" y2="287.176" gradientUnits="userSpaceOnUse">
<stop stop-color="#F1CEBA"/>
<stop offset="1" stop-color="#B8846F"/>
</linearGradient>
</defs>
</svg>
