<svg width="529" height="327" viewBox="0 0 629 427" fill="none" xmlns="http://www.w3.org/2000/svg">
<path d="M4.34778 277.339C11.1324 297.922 23.0057 376.352 140.89 414.447C258.774 452.542 339.851 332.614 454.597 321.243C569.258 309.873 603.775 301.906 600.722 239.576C597.669 177.246 512.606 87.6944 396.757 37.7311C260.724 -20.8636 152 -3.43459 85.5096 47.7736C-7.44067 119.482 -4.72675 250.033 4.34778 277.339Z" fill="#DAE6FF"/>
<path d="M628.842 17.2646H338.572V389.543H628.842V17.2646Z" fill="#3D93B4"/>
<path d="M617.783 27.8593H350.836V366.232H617.783V27.8593Z" fill="white"/>
<path d="M522.971 336.174H444.686C441.352 336.174 438.649 338.877 438.649 342.211V348.724C438.649 352.059 441.352 354.762 444.686 354.762H522.971C526.305 354.762 529.008 352.059 529.008 348.724V342.211C529.008 338.877 526.305 336.174 522.971 336.174Z" fill="#FEC14F"/>
<path d="M486.002 128.388H393.715C392.347 128.388 391.239 129.497 391.239 130.864V142.708C391.239 144.075 392.347 145.184 393.715 145.184H486.002C487.37 145.184 488.479 144.075 488.479 142.708V130.864C488.479 129.497 487.37 128.388 486.002 128.388Z" fill="white"/>
<path d="M486.003 129.007H393.715C392.69 129.007 391.858 129.838 391.858 130.864V142.708C391.858 143.733 392.69 144.565 393.715 144.565H486.003C487.028 144.565 487.86 143.733 487.86 142.708V130.864C487.86 129.838 487.028 129.007 486.003 129.007Z" stroke="#9B9B9B" stroke-width="0.734869"/>
<path d="M592.549 128.388H500.262C498.894 128.388 497.785 129.497 497.785 130.864V142.708C497.785 144.075 498.894 145.184 500.262 145.184H592.549C593.916 145.184 595.025 144.075 595.025 142.708V130.864C595.025 129.497 593.916 128.388 592.549 128.388Z" fill="white"/>
<path d="M592.549 129.007H500.262C499.236 129.007 498.404 129.838 498.404 130.864V142.708C498.404 143.733 499.236 144.565 500.262 144.565H592.549C593.575 144.565 594.406 143.733 594.406 142.708V130.864C594.406 129.838 593.575 129.007 592.549 129.007Z" stroke="#9B9B9B" stroke-width="0.734869"/>
<path d="M486.002 171.815H393.715C392.347 171.815 391.239 172.924 391.239 174.292V185.251C391.239 186.619 392.347 187.727 393.715 187.727H486.002C487.37 187.727 488.479 186.619 488.479 185.251V174.292C488.479 172.924 487.37 171.815 486.002 171.815Z" fill="white"/>
<path d="M486.003 172.435H393.715C392.69 172.435 391.858 173.266 391.858 174.292V185.251C391.858 186.277 392.69 187.108 393.715 187.108H486.003C487.028 187.108 487.86 186.277 487.86 185.251V174.292C487.86 173.266 487.028 172.435 486.003 172.435Z" stroke="#9B9B9B" stroke-width="0.734869"/>
<path d="M489.891 233.803H409.474V242.643H489.891V233.803Z" fill="#D1D1D1"/>
<path d="M457.159 255.313H409.474V264.153H457.159V255.313Z" fill="#D1D1D1"/>
<path d="M462.771 276.823H409.474V285.662H462.771V276.823Z" fill="#D1D1D1"/>
<path d="M478.669 298.331H409.474V307.17H478.669V298.331Z" fill="#D1D1D1"/>
<path d="M556.291 233.803H499.254V242.643H556.291V233.803Z" fill="#D1D1D1"/>
<path d="M449.719 210.393H392.682V219.232H449.719V210.393Z" fill="#D1D1D1"/>
<path d="M448.276 155.561H391.239V164.4H448.276V155.561Z" fill="#D1D1D1"/>
<path d="M448.276 107.222H391.239V116.061H448.276V107.222Z" fill="#D1D1D1"/>
<path d="M549.243 107.222H456.894V115.879H549.243V107.222Z" fill="#D1D1D1"/>
<path d="M556.291 255.313H467.458V264.153H556.291V255.313Z" fill="#D1D1D1"/>
<path d="M544.134 276.823H474.004V285.662H544.134V276.823Z" fill="#D1D1D1"/>
<path d="M546.939 298.331H489.902V307.17H546.939V298.331Z" fill="#D1D1D1"/>
<path opacity="0.428" d="M504.511 341.866H462.964V349.823H504.511V341.866Z" fill="white"/>
<path d="M617.778 47.6293H350.836V81.0864H617.778V47.6293Z" fill="#FFD592"/>
<path d="M395.162 265.637C398.519 265.637 401.241 262.916 401.241 259.559C401.241 256.202 398.519 253.48 395.162 253.48C391.805 253.48 389.084 256.202 389.084 259.559C389.084 262.916 391.805 265.637 395.162 265.637Z" fill="white"/>
<path d="M395.162 265.018C398.177 265.018 400.621 262.574 400.621 259.559C400.621 256.544 398.177 254.099 395.162 254.099C392.147 254.099 389.703 256.544 389.703 259.559C389.703 262.574 392.147 265.018 395.162 265.018Z" stroke="#707070" stroke-width="0.734869"/>
<path d="M395.162 287.147C398.519 287.147 401.241 284.426 401.241 281.069C401.241 277.712 398.519 274.99 395.162 274.99C391.805 274.99 389.084 277.712 389.084 281.069C389.084 284.426 391.805 287.147 395.162 287.147Z" fill="white"/>
<path d="M395.162 286.528C398.177 286.528 400.621 284.084 400.621 281.069C400.621 278.054 398.177 275.61 395.162 275.61C392.147 275.61 389.703 278.054 389.703 281.069C389.703 284.084 392.147 286.528 395.162 286.528Z" stroke="#707070" stroke-width="0.734869"/>
<path d="M395.162 308.656C398.519 308.656 401.241 305.935 401.241 302.578C401.241 299.221 398.519 296.5 395.162 296.5C391.805 296.5 389.084 299.221 389.084 302.578C389.084 305.935 391.805 308.656 395.162 308.656Z" fill="white"/>
<path d="M395.162 308.037C398.177 308.037 400.621 305.593 400.621 302.578C400.621 299.563 398.177 297.119 395.162 297.119C392.147 297.119 389.703 299.563 389.703 302.578C389.703 305.593 392.147 308.037 395.162 308.037Z" stroke="#707070" stroke-width="0.734869"/>
<g filter="url(#filter0_d)">
<path d="M357.19 132.878H108.497C105.899 132.878 103.735 134.97 103.735 137.639V232.658C103.735 235.255 105.827 237.42 108.497 237.42H357.19C359.787 237.42 361.952 235.327 361.952 232.658V137.639C361.952 134.97 359.787 132.878 357.19 132.878Z" fill="white"/>
<path d="M357.19 133.238H108.497C106.116 133.238 104.168 135.186 104.168 137.567V232.586C104.168 234.967 106.116 236.915 108.497 236.915H357.19C359.571 236.915 361.519 234.967 361.519 232.586V137.639C361.519 135.186 359.571 133.238 357.19 133.238Z" stroke="#B7B7B7" stroke-width="0.734844"/>
<path d="M357.19 249.142H108.497C105.899 249.142 103.735 250.658 103.735 252.592V321.446C103.735 323.329 105.827 324.897 108.497 324.897H357.19C359.787 324.897 361.952 323.381 361.952 321.446V252.592C361.952 250.658 359.787 249.142 357.19 249.142Z" fill="white"/>
<path d="M357.19 249.403H108.497C106.116 249.403 104.168 250.815 104.168 252.54V321.394C104.168 323.119 106.116 324.531 108.497 324.531H357.19C359.571 324.531 361.519 323.119 361.519 321.394V252.592C361.519 250.815 359.571 249.403 357.19 249.403Z" stroke="#B7B7B7" stroke-width="0.734844"/>
<path d="M108.497 132.878H116.433V237.42H108.497C107.27 237.42 106.044 236.915 105.106 236.049C104.24 235.183 103.735 233.956 103.735 232.658V137.639C103.735 136.413 104.24 135.186 105.106 134.248C105.972 133.31 107.27 132.878 108.497 132.878Z" fill="#5495FF"/>
<path d="M183.891 174.074H339.946C340.668 174.074 341.245 174.94 341.245 176.022V195.502C341.245 196.584 340.668 197.45 339.946 197.45H183.891C183.169 197.45 182.592 196.584 182.592 195.502V176.022C182.592 174.94 183.169 174.074 183.891 174.074Z" stroke="#B7B7B7" stroke-width="1.46975"/>
<path d="M183.891 143.772H339.946C340.668 143.772 341.245 144.637 341.245 145.72V165.2C341.245 166.282 340.668 167.148 339.946 167.148H183.891C183.169 167.148 182.592 166.282 182.592 165.2V145.72C182.592 144.637 183.169 143.772 183.891 143.772Z" stroke="#B7B7B7" stroke-width="1.46975"/>
<path d="M183.891 204.015H339.946C340.668 204.015 341.245 204.881 341.245 205.963V225.443C341.245 226.525 340.668 227.391 339.946 227.391H183.891C183.169 227.391 182.592 226.525 182.592 225.443V205.963C182.592 204.881 183.169 204.015 183.891 204.015Z" stroke="#B7B7B7" stroke-width="1.46975"/>
<path d="M133.099 183.814C132.233 183.525 131.584 183.237 131.151 182.876C130.718 182.515 130.574 182.01 130.574 181.505C130.574 180.856 130.79 180.351 131.295 179.99C131.8 179.557 132.449 179.413 133.243 179.413C133.82 179.413 134.253 179.485 134.686 179.701C135.119 179.918 135.408 180.206 135.696 180.567C135.913 180.928 136.057 181.361 136.057 181.794H135.047C135.047 181.289 134.902 180.928 134.614 180.639C134.325 180.351 133.892 180.206 133.315 180.206C132.81 180.206 132.377 180.351 132.089 180.567C131.8 180.784 131.656 181.072 131.656 181.505C131.656 181.794 131.8 182.082 132.089 182.299C132.377 182.515 132.81 182.732 133.46 182.876C134.109 183.092 134.614 183.237 134.975 183.453C135.335 183.67 135.624 183.958 135.768 184.247C135.913 184.535 136.057 184.896 136.057 185.257C136.057 185.906 135.84 186.411 135.335 186.772C134.83 187.133 134.181 187.349 133.315 187.349C132.738 187.349 132.305 187.277 131.8 187.061C131.367 186.844 130.934 186.555 130.718 186.195C130.429 185.834 130.357 185.401 130.357 184.968H131.367C131.367 185.473 131.512 185.834 131.872 186.123C132.233 186.411 132.666 186.555 133.315 186.555C133.892 186.555 134.253 186.411 134.542 186.195C134.83 185.978 134.975 185.69 134.975 185.257C134.975 184.824 134.83 184.607 134.542 184.391C134.325 184.247 133.82 184.03 133.099 183.814ZM142.839 180.279H140.314V187.277H139.303V180.279H136.778V179.413H142.839V180.279ZM147.889 185.257H144.57L143.849 187.349H142.767L145.797 179.485H146.735L149.765 187.349H148.683L147.889 185.257ZM144.931 184.391H147.6L146.23 180.712L144.931 184.391ZM155.537 180.279H153.012V187.277H152.001V180.279H149.476V179.413H155.537V180.279ZM161.164 183.67H157.773V186.483H161.741V187.349H156.763V179.485H161.741V180.351H157.845V182.876H161.236V183.67H161.164Z" fill="black"/>
<path d="M133.388 217.651L135.624 211.158H136.779L133.821 219.022H132.883L129.997 211.158H131.151L133.388 217.651ZM141.829 216.93H138.51L137.789 219.022H136.706L139.737 211.158H140.675L143.705 219.022H142.623L141.829 216.93ZM138.799 216.064H141.468L140.097 212.384L138.799 216.064ZM145.725 218.156H149.477V219.022H144.715V211.158H145.725V218.156ZM155.898 211.086V216.425C155.898 217.146 155.681 217.795 155.176 218.228C154.743 218.733 154.094 218.95 153.3 219.022H153.012C152.146 219.022 151.497 218.805 150.92 218.3C150.415 217.867 150.126 217.218 150.126 216.352V211.013H151.136V216.352C151.136 216.93 151.28 217.362 151.641 217.651C151.93 217.94 152.435 218.156 153.012 218.156C153.589 218.156 154.022 218.012 154.383 217.651C154.671 217.362 154.888 216.93 154.888 216.352V211.013H155.898V211.086ZM162.03 215.342H158.639V218.156H162.607V219.022H157.557V211.158H162.535V212.024H158.639V214.549H162.03V215.342Z" fill="black"/>
<path d="M131.945 158.779H130.863V150.914H131.873V158.779H131.945ZM138.15 155.315H134.831V158.779H133.821V150.914H138.727V151.78H134.903V154.45H138.222V155.315H138.15Z" fill="black"/>
<path d="M109.208 249.142H117.128V325.053H109.208C107.948 325.053 106.739 324.689 105.848 324.042C104.957 323.395 104.456 322.517 104.456 321.602V252.592C104.456 251.677 104.957 250.8 105.848 250.152C106.739 249.505 107.948 249.142 109.208 249.142Z" fill="#47C405"/>
<path d="M196.113 271.043C195.963 270.321 195.363 269.393 193.864 269.393C192.636 269.393 191.671 270.33 191.671 271.371C191.671 272.364 192.345 272.983 193.292 273.189L194.239 273.395C194.904 273.536 195.232 273.948 195.232 274.426C195.232 275.007 194.782 275.485 193.864 275.485C192.861 275.485 192.336 274.801 192.27 274.061L191.389 274.342C191.511 275.288 192.27 276.319 193.873 276.319C195.288 276.319 196.169 275.382 196.169 274.351C196.169 273.423 195.551 272.73 194.445 272.486L193.451 272.271C192.889 272.149 192.598 271.783 192.598 271.305C192.598 270.687 193.133 270.199 193.882 270.199C194.81 270.199 195.213 270.855 195.288 271.333L196.113 271.043ZM198.174 273.526C198.193 272.861 198.549 272.336 199.224 272.336C200.011 272.336 200.273 272.842 200.273 273.47V276.179H201.154V273.32C201.154 272.317 200.62 271.539 199.542 271.539C199.027 271.539 198.502 271.718 198.174 272.196V269.393H197.293V276.179H198.174V273.526ZM204.486 275.532C203.736 275.532 203.08 274.97 203.08 273.92C203.08 272.88 203.736 272.317 204.486 272.317C205.236 272.317 205.892 272.88 205.892 273.92C205.892 274.97 205.236 275.532 204.486 275.532ZM204.486 271.53C203.137 271.53 202.181 272.552 202.181 273.92C202.181 275.298 203.137 276.319 204.486 276.319C205.836 276.319 206.792 275.298 206.792 273.92C206.792 272.552 205.836 271.53 204.486 271.53ZM210.367 271.671L209.196 275.063L208.184 271.671H207.218L208.699 276.179H209.627L210.798 272.749L211.998 276.179H212.907L214.369 271.671H213.441L212.448 275.063L211.276 271.671H210.367Z" fill="#666666"/>
<path d="M197.631 305.092V301.84H194.454V302.665H196.76C196.722 303.349 196.188 304.399 194.707 304.399C193.517 304.399 192.392 303.527 192.392 301.765C192.392 300.003 193.554 299.15 194.745 299.15C195.776 299.15 196.554 299.713 196.853 300.669L197.688 300.312C197.303 299.113 196.188 298.307 194.745 298.307C193.105 298.307 191.455 299.516 191.455 301.765C191.455 304.014 193.011 305.233 194.679 305.233C195.794 305.233 196.516 304.68 196.807 304.155L196.891 305.092H197.631ZM201.452 300.537C201.405 300.528 201.283 300.509 201.161 300.509C200.702 300.509 200.14 300.678 199.812 301.371V300.584H198.949V305.092H199.83V302.833C199.83 301.84 200.327 301.446 201.068 301.446C201.189 301.446 201.321 301.456 201.452 301.475V300.537ZM202.11 303.883C202.11 304.595 202.7 305.233 203.619 305.233C204.425 305.233 204.874 304.802 205.071 304.483C205.071 304.811 205.099 304.98 205.118 305.092H205.98C205.962 304.98 205.924 304.745 205.924 304.352V302.093C205.924 301.212 205.399 300.444 204.05 300.444C203.075 300.444 202.297 301.043 202.203 301.906L203.047 302.102C203.103 301.578 203.45 301.193 204.068 301.193C204.753 301.193 205.043 301.559 205.043 301.999C205.043 302.159 204.968 302.299 204.696 302.337L203.478 302.515C202.7 302.627 202.11 303.077 202.11 303.883ZM203.74 304.492C203.291 304.492 203.009 304.174 203.009 303.836C203.009 303.433 203.291 303.218 203.665 303.161L205.043 302.955V303.161C205.043 304.146 204.462 304.492 203.74 304.492ZM207.821 302.824C207.821 301.896 208.346 301.24 209.152 301.24C209.958 301.24 210.446 301.878 210.446 302.805C210.446 303.733 209.949 304.436 209.143 304.436C208.299 304.436 207.821 303.752 207.821 302.824ZM210.455 304.483C210.455 304.755 210.483 304.989 210.502 305.092H211.355C211.345 305.017 211.308 304.689 211.308 304.258V298.307H210.436V301.221C210.286 300.856 209.855 300.462 209.059 300.462C207.784 300.462 206.922 301.549 206.922 302.824C206.922 304.164 207.737 305.214 209.059 305.214C209.761 305.214 210.239 304.839 210.455 304.408V304.483ZM215.732 304.549C215.732 304.736 215.75 304.989 215.769 305.092H216.613C216.594 304.933 216.566 304.614 216.566 304.258V300.584H215.685V303.302C215.685 303.986 215.329 304.455 214.616 304.455C213.876 304.455 213.595 303.911 213.595 303.293V300.584H212.714V303.424C212.714 304.445 213.351 305.233 214.401 305.233C214.926 305.233 215.488 305.017 215.732 304.549ZM217.788 303.883C217.788 304.595 218.378 305.233 219.297 305.233C220.103 305.233 220.553 304.802 220.749 304.483C220.749 304.811 220.778 304.98 220.796 305.092H221.659C221.64 304.98 221.602 304.745 221.602 304.352V302.093C221.602 301.212 221.078 300.444 219.728 300.444C218.753 300.444 217.975 301.043 217.882 301.906L218.725 302.102C218.781 301.578 219.128 301.193 219.747 301.193C220.431 301.193 220.721 301.559 220.721 301.999C220.721 302.159 220.646 302.299 220.375 302.337L219.156 302.515C218.378 302.627 217.788 303.077 217.788 303.883ZM219.419 304.492C218.969 304.492 218.688 304.174 218.688 303.836C218.688 303.433 218.969 303.218 219.344 303.161L220.721 302.955V303.161C220.721 304.146 220.14 304.492 219.419 304.492ZM224.156 299.16H223.35V299.891C223.35 300.284 223.143 300.584 222.656 300.584H222.412V301.381H223.275V303.855C223.275 304.67 223.762 305.139 224.531 305.139C224.83 305.139 225.055 305.083 225.13 305.055V304.305C225.055 304.324 224.896 304.342 224.784 304.342C224.324 304.342 224.156 304.136 224.156 303.724V301.381H225.13V300.584H224.156V299.16ZM226.832 302.374C226.87 301.793 227.32 301.221 228.06 301.221C228.857 301.221 229.278 301.728 229.297 302.374H226.832ZM229.428 303.546C229.26 304.052 228.894 304.455 228.163 304.455C227.404 304.455 226.823 303.893 226.804 303.087H230.197C230.206 303.03 230.216 302.918 230.216 302.805C230.216 301.4 229.438 300.444 228.051 300.444C226.917 300.444 225.895 301.409 225.895 302.824C225.895 304.352 226.954 305.233 228.163 305.233C229.213 305.233 229.934 304.605 230.187 303.808L229.428 303.546ZM235.37 302.252V305.092H236.289V302.252L238.632 298.447H237.582L235.858 301.409L234.133 298.447H233.027L235.37 302.252ZM239.206 302.374C239.244 301.793 239.694 301.221 240.434 301.221C241.231 301.221 241.653 301.728 241.671 302.374H239.206ZM241.802 303.546C241.634 304.052 241.268 304.455 240.537 304.455C239.778 304.455 239.197 303.893 239.178 303.087H242.571C242.58 303.03 242.59 302.918 242.59 302.805C242.59 301.4 241.812 300.444 240.425 300.444C239.291 300.444 238.269 301.409 238.269 302.824C238.269 304.352 239.328 305.233 240.537 305.233C241.587 305.233 242.309 304.605 242.562 303.808L241.802 303.546ZM243.433 303.883C243.433 304.595 244.024 305.233 244.942 305.233C245.748 305.233 246.198 304.802 246.395 304.483C246.395 304.811 246.423 304.98 246.442 305.092H247.304C247.285 304.98 247.248 304.745 247.248 304.352V302.093C247.248 301.212 246.723 300.444 245.373 300.444C244.399 300.444 243.621 301.043 243.527 301.906L244.37 302.102C244.427 301.578 244.773 301.193 245.392 301.193C246.076 301.193 246.367 301.559 246.367 301.999C246.367 302.159 246.292 302.299 246.02 302.337L244.802 302.515C244.024 302.627 243.433 303.077 243.433 303.883ZM245.064 304.492C244.614 304.492 244.333 304.174 244.333 303.836C244.333 303.433 244.614 303.218 244.989 303.161L246.367 302.955V303.161C246.367 304.146 245.786 304.492 245.064 304.492ZM251.122 300.537C251.076 300.528 250.954 300.509 250.832 300.509C250.373 300.509 249.81 300.678 249.482 301.371V300.584H248.62V305.092H249.501V302.833C249.501 301.84 249.998 301.446 250.738 301.446C250.86 301.446 250.991 301.456 251.122 301.475V300.537Z" fill="#666666"/>
<path d="M184.579 291.146H340.609C341.322 291.146 341.898 292.017 341.898 293.097V312.604C341.898 313.681 341.321 314.554 340.609 314.554H184.579C183.866 314.554 183.289 313.683 183.289 312.604V293.097C183.289 292.017 183.867 291.146 184.579 291.146Z" stroke="#B7B7B7" stroke-width="1.46974"/>
<path d="M184.579 262.128H340.609C341.322 262.128 341.898 263 341.898 264.079V283.586C341.898 284.663 341.321 285.537 340.609 285.537H184.579C183.866 285.537 183.289 284.665 183.289 283.586V264.079C183.289 263 183.867 262.128 184.579 262.128Z" stroke="#B7B7B7" stroke-width="1.46974"/>
<path d="M133.596 301.009C132.769 300.771 132.166 300.48 131.788 300.135C131.413 299.787 131.225 299.358 131.225 298.849C131.225 298.273 131.455 297.797 131.913 297.422C132.376 297.044 132.975 296.854 133.712 296.854C134.214 296.854 134.661 296.952 135.053 297.146C135.448 297.34 135.753 297.608 135.967 297.95C136.185 298.291 136.294 298.665 136.294 299.07H135.324C135.324 298.628 135.184 298.281 134.902 298.03C134.621 297.775 134.224 297.648 133.712 297.648C133.236 297.648 132.864 297.754 132.597 297.965C132.332 298.172 132.2 298.462 132.2 298.834C132.2 299.132 132.325 299.385 132.576 299.592C132.831 299.797 133.261 299.984 133.867 300.155C134.477 300.326 134.953 300.515 135.294 300.723C135.639 300.927 135.894 301.166 136.058 301.441C136.225 301.716 136.309 302.039 136.309 302.41C136.309 303.003 136.078 303.479 135.616 303.837C135.154 304.192 134.536 304.37 133.762 304.37C133.26 304.37 132.791 304.274 132.355 304.083C131.92 303.889 131.583 303.624 131.346 303.29C131.111 302.955 130.994 302.575 130.994 302.149H131.964C131.964 302.591 132.126 302.941 132.451 303.199C132.779 303.454 133.216 303.581 133.762 303.581C134.271 303.581 134.661 303.477 134.932 303.269C135.204 303.062 135.339 302.779 135.339 302.421C135.339 302.062 135.214 301.786 134.963 301.592C134.711 301.394 134.256 301.2 133.596 301.009ZM142.603 297.749H140.252V304.269H139.293V297.749H136.947V296.955H142.603V297.749ZM147.325 302.36H144.261L143.573 304.269H142.578L145.371 296.955H146.215L149.013 304.269H148.024L147.325 302.36ZM144.553 301.567H147.039L145.793 298.145L144.553 301.567ZM154.399 297.749H152.048V304.269H151.088V297.749H148.742V296.955H154.399V297.749ZM159.618 300.888H156.448V303.48H160.13V304.269H155.484V296.955H160.08V297.749H156.448V300.1H159.618V300.888Z" fill="black"/>
<path d="M192.814 188.159V181.514H191.877V188.159H192.814ZM193.988 186.987C194.063 187.503 194.588 188.299 195.825 188.299C196.94 188.299 197.475 187.54 197.475 186.903C197.475 186.237 197.043 185.741 196.228 185.563L195.497 185.403C195.15 185.328 194.982 185.131 194.982 184.86C194.982 184.55 195.281 184.26 195.731 184.26C196.444 184.26 196.631 184.775 196.669 185.01L197.446 184.719C197.353 184.316 196.968 183.51 195.731 183.51C194.85 183.51 194.129 184.166 194.129 184.935C194.129 185.572 194.55 186.05 195.253 186.2L196.022 186.369C196.397 186.453 196.603 186.669 196.603 186.95C196.603 187.268 196.331 187.55 195.834 187.55C195.197 187.55 194.841 187.175 194.785 186.706L193.988 186.987ZM205.124 188.159V187.306H202.003V185.272H204.833V184.41H202.003V182.367H205.124V181.514H201.084V188.159H205.124ZM210.293 189.939V183.651H209.44V184.344C209.252 183.941 208.774 183.538 207.996 183.538C206.675 183.538 205.878 184.616 205.878 185.891C205.878 187.203 206.722 188.281 208.015 188.281C208.681 188.281 209.187 187.981 209.421 187.521V189.939H210.293ZM206.778 185.891C206.778 184.963 207.284 184.316 208.1 184.316C208.896 184.316 209.43 184.963 209.43 185.891C209.43 186.818 208.896 187.503 208.1 187.503C207.293 187.503 206.778 186.818 206.778 185.891ZM214.67 187.615C214.67 187.803 214.689 188.056 214.707 188.159H215.551C215.532 187.999 215.504 187.681 215.504 187.325V183.651H214.623V186.369C214.623 187.053 214.267 187.521 213.555 187.521C212.814 187.521 212.533 186.978 212.533 186.359V183.651H211.652V186.49C211.652 187.512 212.289 188.299 213.339 188.299C213.864 188.299 214.426 188.084 214.67 187.615ZM216.726 186.95C216.726 187.662 217.317 188.299 218.235 188.299C219.041 188.299 219.491 187.868 219.688 187.55C219.688 187.878 219.716 188.046 219.735 188.159H220.597C220.578 188.046 220.541 187.812 220.541 187.418V185.16C220.541 184.279 220.016 183.51 218.666 183.51C217.692 183.51 216.914 184.11 216.82 184.972L217.663 185.169C217.72 184.644 218.066 184.26 218.685 184.26C219.369 184.26 219.66 184.625 219.66 185.066C219.66 185.225 219.585 185.366 219.313 185.403L218.095 185.581C217.317 185.694 216.726 186.144 216.726 186.95ZM218.357 187.559C217.907 187.559 217.626 187.24 217.626 186.903C217.626 186.5 217.907 186.284 218.282 186.228L219.66 186.022V186.228C219.66 187.212 219.079 187.559 218.357 187.559ZM222.794 188.159V181.373H221.913V188.159H222.794ZM231.341 182.367V181.514H225.98V182.367H228.201V188.159H229.119V182.367H231.341ZM233.225 187.512C232.475 187.512 231.819 186.95 231.819 185.9C231.819 184.86 232.475 184.297 233.225 184.297C233.975 184.297 234.631 184.86 234.631 185.9C234.631 186.95 233.975 187.512 233.225 187.512ZM233.225 183.51C231.875 183.51 230.92 184.532 230.92 185.9C230.92 187.278 231.875 188.299 233.225 188.299C234.575 188.299 235.531 187.278 235.531 185.9C235.531 184.532 234.575 183.51 233.225 183.51Z" fill="#666666"/>
<path d="M193.47 214.899V217.739H194.389V214.899L196.732 211.094H195.682L193.957 214.056L192.233 211.094H191.127L193.47 214.899ZM197.306 215.021C197.344 214.44 197.794 213.869 198.534 213.869C199.331 213.869 199.752 214.375 199.771 215.021H197.306ZM199.902 216.193C199.734 216.699 199.368 217.102 198.637 217.102C197.878 217.102 197.297 216.54 197.278 215.734H200.671C200.68 215.677 200.69 215.565 200.69 215.452C200.69 214.047 199.912 213.091 198.525 213.091C197.391 213.091 196.369 214.056 196.369 215.471C196.369 216.999 197.428 217.88 198.637 217.88C199.687 217.88 200.408 217.252 200.662 216.455L199.902 216.193ZM201.392 216.568C201.467 217.083 201.992 217.88 203.229 217.88C204.345 217.88 204.879 217.121 204.879 216.483C204.879 215.818 204.448 215.321 203.632 215.143L202.901 214.984C202.555 214.909 202.386 214.712 202.386 214.44C202.386 214.131 202.686 213.84 203.136 213.84C203.848 213.84 204.035 214.356 204.073 214.59L204.851 214.3C204.757 213.897 204.373 213.091 203.136 213.091C202.255 213.091 201.533 213.747 201.533 214.515C201.533 215.153 201.955 215.631 202.658 215.78L203.426 215.949C203.801 216.034 204.007 216.249 204.007 216.53C204.007 216.849 203.736 217.13 203.239 217.13C202.601 217.13 202.245 216.755 202.189 216.287L201.392 216.568Z" fill="#666666"/>
<path d="M131.441 275.757V268.443H133.506C134.142 268.443 134.705 268.584 135.194 268.865C135.683 269.146 136.059 269.547 136.324 270.066C136.592 270.585 136.728 271.181 136.731 271.854V272.321C136.731 273.011 136.597 273.616 136.329 274.135C136.064 274.654 135.684 275.052 135.189 275.33C134.696 275.608 134.122 275.751 133.466 275.757H131.441ZM132.406 269.237V274.969H133.42C134.164 274.969 134.742 274.738 135.154 274.275C135.569 273.813 135.776 273.155 135.776 272.301V271.874C135.776 271.044 135.581 270.399 135.189 269.94C134.8 269.478 134.248 269.243 133.531 269.237H132.406ZM143.819 272.336C143.819 273.053 143.699 273.679 143.457 274.215C143.216 274.748 142.875 275.155 142.433 275.436C141.991 275.717 141.475 275.858 140.885 275.858C140.309 275.858 139.799 275.717 139.353 275.436C138.908 275.151 138.561 274.748 138.313 274.225C138.069 273.699 137.943 273.092 137.937 272.402V271.874C137.937 271.171 138.059 270.55 138.303 270.01C138.548 269.471 138.893 269.059 139.338 268.775C139.787 268.487 140.299 268.343 140.875 268.343C141.461 268.343 141.977 268.485 142.423 268.77C142.871 269.051 143.216 269.461 143.457 270C143.699 270.536 143.819 271.161 143.819 271.874V272.336ZM142.86 271.864C142.86 270.997 142.685 270.332 142.337 269.87C141.989 269.404 141.502 269.171 140.875 269.171C140.266 269.171 139.785 269.404 139.434 269.87C139.085 270.332 138.906 270.975 138.896 271.799V272.336C138.896 273.177 139.072 273.838 139.424 274.321C139.779 274.8 140.266 275.039 140.885 275.039C141.508 275.039 141.991 274.813 142.332 274.361C142.674 273.905 142.85 273.254 142.86 272.407V271.864Z" fill="black"/>
<path d="M196.479 157.857H197.472L194.829 151.212H193.77L191.127 157.857H192.111L192.814 156.001H195.757L196.479 157.857ZM194.276 152.168L195.429 155.148H193.142L194.276 152.168ZM200.775 153.302C200.728 153.292 200.606 153.274 200.484 153.274C200.025 153.274 199.462 153.442 199.134 154.136V153.349H198.272V157.857H199.153V155.598C199.153 154.604 199.65 154.211 200.39 154.211C200.512 154.211 200.643 154.22 200.775 154.239V153.302ZM202.239 155.139C202.277 154.558 202.727 153.986 203.467 153.986C204.264 153.986 204.686 154.492 204.704 155.139H202.239ZM204.836 156.31C204.667 156.816 204.301 157.219 203.57 157.219C202.811 157.219 202.23 156.657 202.211 155.851H205.604C205.613 155.795 205.623 155.682 205.623 155.57C205.623 154.164 204.845 153.208 203.458 153.208C202.324 153.208 201.302 154.173 201.302 155.589C201.302 157.116 202.361 157.997 203.57 157.997C204.62 157.997 205.342 157.369 205.595 156.573L204.836 156.31ZM210.215 159.74L213.149 153.349H212.202L210.852 156.46L209.447 153.349H208.434L210.374 157.36L209.25 159.74H210.215ZM215.744 157.21C214.994 157.21 214.338 156.648 214.338 155.598C214.338 154.558 214.994 153.995 215.744 153.995C216.494 153.995 217.15 154.558 217.15 155.598C217.15 156.648 216.494 157.21 215.744 157.21ZM215.744 153.208C214.394 153.208 213.438 154.23 213.438 155.598C213.438 156.976 214.394 157.997 215.744 157.997C217.093 157.997 218.049 156.976 218.049 155.598C218.049 154.23 217.093 153.208 215.744 153.208ZM222.102 157.313C222.102 157.5 222.12 157.753 222.139 157.857H222.983C222.964 157.697 222.936 157.379 222.936 157.022V153.349H222.055V156.066C222.055 156.751 221.699 157.219 220.986 157.219C220.246 157.219 219.965 156.676 219.965 156.057V153.349H219.084V156.188C219.084 157.21 219.721 157.997 220.771 157.997C221.296 157.997 221.858 157.782 222.102 157.313ZM226.501 156.648C226.501 157.36 227.092 157.997 228.01 157.997C228.816 157.997 229.266 157.566 229.463 157.247C229.463 157.575 229.491 157.744 229.51 157.857H230.372C230.353 157.744 230.316 157.51 230.316 157.116V154.857C230.316 153.976 229.791 153.208 228.441 153.208C227.466 153.208 226.689 153.808 226.595 154.67L227.438 154.867C227.495 154.342 227.841 153.958 228.46 153.958C229.144 153.958 229.435 154.323 229.435 154.764C229.435 154.923 229.36 155.064 229.088 155.101L227.869 155.279C227.092 155.392 226.501 155.842 226.501 156.648ZM228.132 157.257C227.682 157.257 227.401 156.938 227.401 156.601C227.401 156.198 227.682 155.982 228.057 155.926L229.435 155.72V155.926C229.435 156.91 228.853 157.257 228.132 157.257ZM239.879 157.857V154.604H236.702V155.429H239.008C238.97 156.113 238.436 157.163 236.955 157.163C235.765 157.163 234.64 156.291 234.64 154.529C234.64 152.767 235.802 151.915 236.993 151.915C238.024 151.915 238.801 152.477 239.101 153.433L239.935 153.077C239.551 151.877 238.436 151.071 236.993 151.071C235.352 151.071 233.703 152.28 233.703 154.529C233.703 156.779 235.259 157.997 236.927 157.997C238.042 157.997 238.764 157.444 239.054 156.919L239.139 157.857H239.879ZM243.7 153.302C243.653 153.292 243.531 153.274 243.409 153.274C242.95 153.274 242.388 153.442 242.06 154.136V153.349H241.197V157.857H242.078V155.598C242.078 154.604 242.575 154.211 243.316 154.211C243.437 154.211 243.569 154.22 243.7 154.239V153.302ZM244.358 156.648C244.358 157.36 244.948 157.997 245.866 157.997C246.672 157.997 247.122 157.566 247.319 157.247C247.319 157.575 247.347 157.744 247.366 157.857H248.228C248.21 157.744 248.172 157.51 248.172 157.116V154.857C248.172 153.976 247.647 153.208 246.298 153.208C245.323 153.208 244.545 153.808 244.451 154.67L245.295 154.867C245.351 154.342 245.698 153.958 246.316 153.958C247.001 153.958 247.291 154.323 247.291 154.764C247.291 154.923 247.216 155.064 246.944 155.101L245.726 155.279C244.948 155.392 244.358 155.842 244.358 156.648ZM245.988 157.257C245.538 157.257 245.257 156.938 245.257 156.601C245.257 156.198 245.538 155.982 245.913 155.926L247.291 155.72V155.926C247.291 156.91 246.71 157.257 245.988 157.257ZM250.069 155.589C250.069 154.661 250.594 154.005 251.4 154.005C252.206 154.005 252.694 154.642 252.694 155.57C252.694 156.498 252.197 157.201 251.391 157.201C250.547 157.201 250.069 156.516 250.069 155.589ZM252.703 157.247C252.703 157.519 252.731 157.753 252.75 157.857H253.603C253.593 157.782 253.556 157.454 253.556 157.022V151.071H252.684V153.986C252.534 153.62 252.103 153.227 251.306 153.227C250.032 153.227 249.17 154.314 249.17 155.589C249.17 156.929 249.985 157.978 251.306 157.978C252.009 157.978 252.487 157.604 252.703 157.172V157.247ZM257.979 157.313C257.979 157.5 257.998 157.753 258.017 157.857H258.86C258.842 157.697 258.814 157.379 258.814 157.022V153.349H257.933V156.066C257.933 156.751 257.576 157.219 256.864 157.219C256.124 157.219 255.843 156.676 255.843 156.057V153.349H254.962V156.188C254.962 157.21 255.599 157.997 256.649 157.997C257.173 157.997 257.736 157.782 257.979 157.313ZM260.036 156.648C260.036 157.36 260.626 157.997 261.545 157.997C262.351 157.997 262.801 157.566 262.997 157.247C262.997 157.575 263.026 157.744 263.044 157.857H263.906C263.888 157.744 263.85 157.51 263.85 157.116V154.857C263.85 153.976 263.325 153.208 261.976 153.208C261.001 153.208 260.223 153.808 260.13 154.67L260.973 154.867C261.029 154.342 261.376 153.958 261.995 153.958C262.679 153.958 262.969 154.323 262.969 154.764C262.969 154.923 262.894 155.064 262.623 155.101L261.404 155.279C260.626 155.392 260.036 155.842 260.036 156.648ZM261.667 157.257C261.217 157.257 260.936 156.938 260.936 156.601C260.936 156.198 261.217 155.982 261.592 155.926L262.969 155.72V155.926C262.969 156.91 262.388 157.257 261.667 157.257ZM266.404 151.924H265.598V152.655C265.598 153.049 265.391 153.349 264.904 153.349H264.66V154.145H265.523V156.619C265.523 157.435 266.01 157.903 266.778 157.903C267.078 157.903 267.303 157.847 267.378 157.819V157.069C267.303 157.088 267.144 157.107 267.032 157.107C266.572 157.107 266.404 156.901 266.404 156.488V154.145H267.378V153.349H266.404V151.924ZM269.08 155.139C269.118 154.558 269.567 153.986 270.308 153.986C271.105 153.986 271.526 154.492 271.545 155.139H269.08ZM271.676 156.31C271.508 156.816 271.142 157.219 270.411 157.219C269.652 157.219 269.071 156.657 269.052 155.851H272.445C272.454 155.795 272.463 155.682 272.463 155.57C272.463 154.164 271.686 153.208 270.299 153.208C269.164 153.208 268.143 154.173 268.143 155.589C268.143 157.116 269.202 157.997 270.411 157.997C271.461 157.997 272.182 157.369 272.435 156.573L271.676 156.31ZM280.261 152.721C280.111 151.999 279.511 151.071 278.012 151.071C276.784 151.071 275.819 152.008 275.819 153.049C275.819 154.042 276.493 154.661 277.44 154.867L278.387 155.073C279.052 155.214 279.38 155.626 279.38 156.104C279.38 156.685 278.93 157.163 278.012 157.163C277.009 157.163 276.484 156.479 276.418 155.738L275.537 156.02C275.659 156.966 276.418 157.997 278.021 157.997C279.436 157.997 280.317 157.06 280.317 156.029C280.317 155.101 279.699 154.408 278.593 154.164L277.599 153.948C277.037 153.827 276.746 153.461 276.746 152.983C276.746 152.364 277.281 151.877 278.03 151.877C278.958 151.877 279.361 152.533 279.436 153.011L280.261 152.721ZM282.576 151.924H281.77V152.655C281.77 153.049 281.564 153.349 281.076 153.349H280.833V154.145H281.695V156.619C281.695 157.435 282.182 157.903 282.951 157.903C283.251 157.903 283.476 157.847 283.551 157.819V157.069C283.476 157.088 283.316 157.107 283.204 157.107C282.745 157.107 282.576 156.901 282.576 156.488V154.145H283.551V153.349H282.576V151.924ZM287.698 157.313C287.698 157.5 287.716 157.753 287.735 157.857H288.579C288.56 157.697 288.532 157.379 288.532 157.022V153.349H287.651V156.066C287.651 156.751 287.295 157.219 286.582 157.219C285.842 157.219 285.561 156.676 285.561 156.057V153.349H284.68V156.188C284.68 157.21 285.317 157.997 286.367 157.997C286.892 157.997 287.454 157.782 287.698 157.313ZM290.514 155.589C290.514 154.661 291.039 154.005 291.845 154.005C292.651 154.005 293.138 154.642 293.138 155.57C293.138 156.498 292.642 157.201 291.836 157.201C290.992 157.201 290.514 156.516 290.514 155.589ZM293.148 157.247C293.148 157.519 293.176 157.753 293.195 157.857H294.047C294.038 157.782 294.001 157.454 294.001 157.022V151.071H293.129V153.986C292.979 153.62 292.548 153.227 291.751 153.227C290.477 153.227 289.614 154.314 289.614 155.589C289.614 156.929 290.43 157.978 291.751 157.978C292.454 157.978 292.932 157.604 293.148 157.172V157.247ZM296.071 155.139C296.108 154.558 296.558 153.986 297.299 153.986C298.095 153.986 298.517 154.492 298.536 155.139H296.071ZM298.667 156.31C298.498 156.816 298.133 157.219 297.402 157.219C296.643 157.219 296.061 156.657 296.043 155.851H299.435C299.445 155.795 299.454 155.682 299.454 155.57C299.454 154.164 298.676 153.208 297.289 153.208C296.155 153.208 295.134 154.173 295.134 155.589C295.134 157.116 296.193 157.997 297.402 157.997C298.451 157.997 299.173 157.369 299.426 156.573L298.667 156.31ZM301.46 155.251C301.46 154.567 301.816 154.014 302.509 154.014C303.297 154.014 303.559 154.52 303.559 155.148V157.857H304.44V154.998C304.44 153.995 303.906 153.217 302.828 153.217C302.303 153.217 301.769 153.433 301.441 153.995V153.349H300.579V157.857H301.46V155.251ZM307.022 151.924H306.216V152.655C306.216 153.049 306.01 153.349 305.523 153.349H305.279V154.145H306.141V156.619C306.141 157.435 306.629 157.903 307.397 157.903C307.697 157.903 307.922 157.847 307.997 157.819V157.069C307.922 157.088 307.763 157.107 307.65 157.107C307.191 157.107 307.022 156.901 307.022 156.488V154.145H307.997V153.349H307.022V151.924ZM311.131 155.954C311.121 155.86 311.121 155.823 311.121 155.776C311.121 155.41 311.243 155.073 311.534 154.876L311.965 154.586C312.508 154.22 312.921 153.705 312.921 152.955C312.921 151.999 312.18 151.071 310.868 151.071C309.425 151.071 308.797 152.13 308.797 152.992C308.797 153.161 308.816 153.311 308.853 153.442L309.762 153.555C309.725 153.452 309.697 153.255 309.697 153.096C309.697 152.505 310.053 151.896 310.868 151.896C311.618 151.896 311.984 152.411 311.984 152.964C311.984 153.33 311.805 153.667 311.487 153.883L311.074 154.164C310.521 154.539 310.297 155.007 310.297 155.626C310.297 155.748 310.297 155.842 310.306 155.954H311.131ZM310.1 157.294C310.1 157.632 310.372 157.903 310.709 157.903C311.046 157.903 311.327 157.632 311.327 157.294C311.327 156.957 311.046 156.676 310.709 156.676C310.372 156.676 310.1 156.957 310.1 157.294Z" fill="#666666"/>
</g>
<path d="M414.942 265.683C414.942 265.683 420.858 267.92 428.65 239.71C430.021 234.804 431.897 226.795 425.548 220.663C419.199 214.53 417.395 202.482 386.588 201.905C368.912 201.544 370.066 202.121 368.263 202.915C365.088 204.285 362.852 204.285 364.439 211.789C366.315 220.158 359.749 216.045 360.254 226.218C360.471 230.331 372.303 249.522 372.303 249.522L379.374 235.886L406.862 248.44L414.942 265.683Z" fill="#7C4723"/>
<path d="M381.683 242.452V249.161C381.683 249.594 381.322 249.955 380.889 249.955H374.179C373.746 249.955 373.386 249.594 373.386 249.161V242.452C373.386 242.019 373.746 241.658 374.179 241.658H380.889C381.322 241.658 381.683 242.019 381.683 242.452Z" stroke="#B5B7CC" stroke-width="0.795897"/>
<path d="M286.015 290.069C286.015 290.069 309.463 325.133 320.718 339.49C322.882 342.376 326.851 342.737 329.015 343.098C343.084 345.623 393.659 322.68 393.659 322.68L385.723 285.091C385.723 285.091 336.23 314.094 332.262 315.177L299.723 285.812L286.015 290.069Z" fill="#F3B484"/>
<path d="M271.296 266.838L272.379 267.559L262.639 266.116C262.639 266.116 261.917 266.838 262.999 268.28C263.36 269.002 270.575 271.527 271.657 271.888L264.082 270.445C264.082 270.445 264.803 271.527 266.246 272.609C267.328 273.331 271.657 274.774 273.1 275.135C273.822 278.381 275.986 284.081 279.233 286.967C281.036 288.41 292.219 282.999 292.219 282.999L278.15 261.499L272.379 258.252L262.278 254.284C262.278 254.284 261.196 256.088 263.721 258.252C266.246 260.416 271.296 262.581 271.296 262.581L261.556 259.695C261.556 259.695 260.474 262.22 262.999 263.302C265.525 264.312 270.936 266.477 271.296 266.838Z" fill="#F3B484"/>
<path d="M282.84 289.348C286.808 290.069 286.087 290.141 286.087 290.141L293.302 300.098L300.516 286.534L292.941 279.68L279.954 262.148C279.233 261.426 278.511 260.705 277.429 260.344L269.493 257.458L274.543 266.765L277.79 273.547L282.119 281.051L276.419 283.143C276.347 283.287 278.8 288.265 282.84 289.348Z" fill="#F3B484"/>
<path d="M288.973 285.091C285.365 284.369 282.479 281.844 281.397 278.67C281.036 277.588 281.036 276.505 280.315 275.784C279.593 275.062 278.511 274.702 277.429 274.341C276.347 273.98 275.265 273.98 274.182 273.259C273.1 272.537 272.379 271.455 272.739 270.373C273.1 269.291 273.822 268.569 274.904 268.569C275.986 268.569 276.707 268.569 277.79 268.93C280.676 269.651 283.562 270.734 286.087 272.176" fill="#F3B484"/>
<path d="M288.973 284.73C288.612 284.73 288.251 284.369 287.891 284.369C286.808 284.009 285.726 283.287 284.283 282.205C283.562 281.844 282.84 280.762 282.479 280.041C281.758 279.319 281.397 278.237 281.036 277.155C281.036 276.794 280.676 276.072 280.315 275.712C279.954 275.351 279.594 274.99 278.872 274.63C277.79 274.269 276.708 273.908 275.265 273.547C273.822 272.826 272.74 271.744 272.74 270.301C272.74 269.579 273.461 268.858 273.822 268.497C274.543 268.136 274.904 267.776 275.625 267.776C276.708 267.776 277.79 268.136 278.872 268.497C279.594 268.858 280.676 269.218 281.397 269.579C282.84 270.301 284.283 271.022 285.005 271.383C286.087 271.744 286.448 272.104 286.448 272.104C286.448 272.104 285.726 271.744 285.005 271.383C283.922 271.022 282.84 270.661 281.036 269.94C280.315 269.94 279.594 269.579 278.511 269.218C277.429 269.218 276.347 268.858 275.265 268.858C274.182 268.858 273.1 269.579 273.1 270.661C273.1 271.022 273.461 271.744 273.822 272.104C274.182 272.465 274.543 272.826 275.265 273.187C276.347 273.547 277.79 273.908 278.872 274.269C279.233 274.63 279.954 274.99 280.315 275.351C280.676 276.072 280.676 276.433 281.036 277.155C281.397 278.237 281.758 279.319 282.119 280.041C282.84 280.762 283.201 281.484 283.922 282.205C285.005 283.287 286.448 284.009 287.169 284.369C288.251 284.73 288.612 284.73 288.612 284.73C288.612 284.73 288.251 284.73 288.973 284.73Z" fill="#D39871"/>
<path d="M377.065 419.43L472.084 418.997C465.59 404.639 455.851 391.004 455.851 391.004H389.33C389.33 391.076 375.262 416.255 377.065 419.43Z" fill="#1A2E35"/>
<path d="M375.045 310.848L379.879 283.071C370.86 285.596 358.09 296.851 342.939 306.879L353.04 340.572C353.04 340.572 371.077 331.265 372.52 331.265L375.045 310.848Z" fill="#5495FF"/>
<path d="M465.23 360.629C461.262 359.187 457.654 359.547 457.654 359.547C457.654 359.908 461.262 359.908 465.23 361.351C469.198 362.794 472.084 364.958 472.084 364.958C472.084 364.598 469.559 362.072 465.23 360.629Z" fill="#925249"/>
<path d="M360.832 413.658L373.097 412.215L396.545 412.937C400.513 412.937 407.728 409.329 407.728 409.329L401.235 393.962L399.07 395.405L371.221 397.569L357.152 404.351L360.832 413.658Z" fill="#F3B484"/>
<path d="M415.881 256.376C415.881 256.665 423.456 256.953 422.374 249.666C421.219 242.091 414.51 245.698 414.221 245.698C414.149 245.698 415.592 256.088 415.881 256.376Z" fill="#F3B484"/>
<path d="M417.54 253.274C417.829 253.274 418.117 253.562 418.694 253.274C419.849 252.985 420.354 251.326 420.065 249.883C419.777 249.017 419.488 248.512 419.199 247.935C418.911 247.358 418.334 247.069 417.829 247.069C417.54 247.069 417.54 247.069 417.251 247.358C416.963 247.646 416.963 247.646 416.963 247.935C416.963 248.223 417.251 248.223 417.251 248.223C417.251 248.223 417.251 248.223 417.251 247.935C417.54 247.646 417.829 247.358 418.117 247.358C418.406 247.358 418.983 247.646 419.272 248.223C419.56 248.512 419.849 249.378 419.849 249.883C419.849 251.254 419.56 252.697 418.694 252.985C418.406 252.985 418.117 252.985 417.829 252.985H417.54C417.251 252.985 417.54 253.274 417.54 253.274Z" fill="#925249"/>
<path d="M529.008 417.41H278.8V426.373H529.008V417.41Z" fill="#D29420"/>
<path d="M381.033 371.019C380.672 376.358 382.476 391.437 389.33 391.437C395.823 391.437 455.778 391.437 455.778 391.437C455.778 391.437 462.632 382.49 463.354 373.544C464.075 364.598 452.171 308.755 452.171 308.755C452.171 308.755 452.532 287.255 447.842 284.442C442.431 281.195 441.421 276.217 417.612 279.824C417.612 279.824 400.585 277.515 390.773 279.824L379.23 283.432C379.23 283.432 371.654 302.046 369.49 331.41C368.696 340.933 381.394 365.319 381.033 371.019Z" fill="#5495FF"/>
<path d="M447.481 284.73C442.07 280.762 431.609 284.009 428.001 292.594C424.394 300.819 428.001 307.601 429.084 311.569C430.166 315.537 443.874 345.551 443.874 345.551L477.495 329.822C477.495 329.822 460.107 292.233 447.481 284.73Z" fill="#5495FF"/>
<path d="M474.176 331.626L486.08 363.876C488.605 372.101 481.391 379.604 481.391 379.604L407.656 409.69L401.162 394.323L458.231 359.98C458.231 359.98 453.902 353.92 447.409 343.531L474.176 331.626Z" fill="#F3B484"/>
<path d="M417.54 285.307C417.828 292.883 412.201 299.665 404.625 300.17C396.761 300.747 390.268 299.881 389.474 292.017L388.609 278.525C388.609 278.525 378.219 277.66 374.54 264.457C372.88 257.747 372.015 246.78 371.726 237.762C371.437 229.609 379.302 220.591 387.454 220.591L414.149 222.827L414.437 227.301L417.54 285.307Z" fill="#F3B484" stroke="#F3B484" stroke-width="0.669439" stroke-miterlimit="10"/>
<path d="M377.642 245.987C378.797 245.987 379.59 246.853 379.59 247.646C379.59 248.512 378.725 249.306 377.931 249.306C376.777 249.306 375.983 248.44 375.983 247.646C375.983 246.492 376.56 245.987 377.642 245.987Z" fill="#4B1710"/>
<path d="M375.694 242.307C376.272 241.73 377.065 241.153 378.22 241.153C379.374 241.153 380.456 241.441 381.033 241.73C381.61 242.019 381.899 242.596 381.899 242.596C381.899 242.884 380.528 242.019 378.508 242.307C376.56 242.596 375.406 243.678 375.117 243.462C375.117 243.173 375.117 242.884 375.694 242.307Z" fill="#4B1710"/>
<path d="M395.03 244.832C396.184 244.832 396.978 245.698 396.978 246.492C396.978 247.357 396.112 248.151 395.318 248.151C394.164 248.151 393.37 247.285 393.37 246.492C393.37 245.409 393.948 244.832 395.03 244.832Z" fill="#4B1710"/>
<path d="M393.876 240.648C394.453 240.071 395.246 239.494 396.401 239.494C397.555 239.494 398.637 239.782 399.214 240.071C399.792 240.359 400.08 240.937 400.08 240.937C400.08 241.225 398.709 240.359 396.689 240.648C394.741 240.937 393.587 242.019 393.298 241.802C393.37 241.73 393.37 241.225 393.876 240.648Z" fill="#4B1710"/>
<path d="M385.218 260.993C384.929 260.993 384.641 260.993 384.352 260.993C384.064 260.993 383.775 260.705 383.486 260.416C383.198 259.551 383.486 259.045 383.486 258.468C383.775 257.314 384.064 256.232 384.352 254.789C385.723 249.45 387.166 245.265 387.455 245.265C387.743 245.265 386.589 249.738 385.218 255.077C384.641 256.232 384.352 257.603 384.064 258.757C383.775 259.334 383.486 259.911 383.775 260.128C384.064 260.416 384.352 260.416 384.929 260.416C386.877 260.416 388.032 260.705 388.032 260.705C388.032 260.705 386.877 260.993 385.218 260.993Z" fill="#4B1710"/>
<path d="M389.114 271.166C393.876 270.734 395.102 266.693 395.102 264.745C393.443 266.693 388.176 269.868 380.023 266.765C381.033 268.353 384.28 271.527 389.114 271.166Z" fill="#4B1710"/>
<path d="M375.766 219.292C375.189 222.539 372.231 228.238 375.478 227.517C379.735 226.507 390.99 222.972 391.927 225.641C396.112 237.473 405.058 233.505 409.82 237.978C414.582 242.452 414.077 245.915 412.85 249.45C411.624 252.985 414.726 251.759 414.726 251.759C414.726 251.759 414.293 246.853 416.386 244.688C418.478 242.524 419.632 223.477 418.839 222.755C418.045 221.962 403.327 216.767 401.523 215.829C399.647 214.891 377.281 211.212 377.281 211.212L375.766 219.292Z" fill="#7C4723"/>
<path d="M388.537 282.277C402.605 281.989 406.213 272.177 406.213 272.177C397.772 278.67 388.248 278.886 388.248 278.886L388.537 282.277Z" fill="#C6865C"/>
<path d="M396.144 63.8235V60.1271H398.129C399.386 60.1271 400.15 60.8372 400.15 61.9844C400.15 63.0951 399.386 63.8235 398.129 63.8235H396.144ZM398.439 65.9903C400.988 65.9903 402.681 64.3151 402.681 61.9662C402.681 59.6355 400.988 57.942 398.439 57.942H393.613V70.8521H396.126V65.9903H398.439ZM415.273 70.8521V57.942H412.742V63.1315H407.115V57.942H404.603V70.8521H407.115V65.4987H412.742V70.8521H415.273ZM420.736 68.5213V60.2728H422.758C424.87 60.2728 426.618 61.602 426.618 64.4062C426.618 67.2103 424.852 68.5213 422.739 68.5213H420.736ZM422.83 70.8521C426.509 70.8521 429.222 68.4849 429.222 64.4062C429.222 60.3274 426.527 57.942 422.849 57.942H418.224V70.8521H422.83ZM442.272 70.8521H445.076L442.308 65.5715C444.002 65.0799 445.058 63.7142 445.058 61.9116C445.058 59.6719 443.456 57.942 440.943 57.942H435.899V70.8521H438.43V65.8811H439.741L442.272 70.8521ZM438.43 63.7142V60.1271H440.469C441.744 60.1271 442.49 60.8372 442.49 61.9298C442.49 62.9859 441.744 63.7142 440.469 63.7142H438.43ZM448.615 65.353C448.669 64.5336 449.361 63.5868 450.618 63.5868C452.001 63.5868 452.584 64.4608 452.621 65.353H448.615ZM452.857 67.6837C452.566 68.4849 451.947 69.0494 450.818 69.0494C449.616 69.0494 448.615 68.1936 448.56 67.01H454.969C454.969 66.9736 455.006 66.6094 455.006 66.2634C455.006 63.3865 453.349 61.6202 450.581 61.6202C448.287 61.6202 446.175 63.4775 446.175 66.3363C446.175 69.3589 448.341 71.1252 450.8 71.1252C453.003 71.1252 454.423 69.8324 454.878 68.2846L452.857 67.6837ZM456.276 71.3437C456.531 73.0553 458.169 74.5848 460.628 74.5848C463.996 74.5848 465.325 72.3452 465.325 69.887V61.8933H462.995V62.9495C462.685 62.3486 461.866 61.7295 460.445 61.7295C457.987 61.7295 456.276 63.7324 456.276 66.0996C456.276 68.6124 458.06 70.4515 460.445 70.4515C461.738 70.4515 462.576 69.887 462.94 69.3043V69.9598C462.94 71.6897 462.084 72.4544 460.555 72.4544C459.408 72.4544 458.625 71.7443 458.461 70.761L456.276 71.3437ZM460.864 68.3757C459.608 68.3757 458.716 67.5016 458.716 66.0996C458.716 64.7157 459.662 63.8417 460.864 63.8417C462.03 63.8417 462.976 64.7157 462.976 66.0996C462.976 67.4834 462.102 68.3757 460.864 68.3757ZM470.199 70.8521V61.8933H467.778V70.8521H470.199ZM467.486 58.9617C467.486 59.7629 468.16 60.4366 468.98 60.4366C469.817 60.4366 470.473 59.7629 470.473 58.9617C470.473 58.1241 469.817 57.4504 468.98 57.4504C468.16 57.4504 467.486 58.1241 467.486 58.9617ZM472.027 68.3575C472.137 69.3771 473.065 71.1252 475.76 71.1252C478.109 71.1252 479.238 69.6321 479.238 68.1754C479.238 66.8643 478.346 65.79 476.58 65.4258L475.305 65.1527C474.813 65.0617 474.486 64.7885 474.486 64.3515C474.486 63.8417 474.996 63.4593 475.633 63.4593C476.652 63.4593 477.035 64.133 477.108 64.6611L479.129 64.2059C479.02 63.2408 478.164 61.6202 475.615 61.6202C473.684 61.6202 472.264 62.9495 472.264 64.5518C472.264 65.8082 473.047 66.8461 474.777 67.2285L475.961 67.5016C476.652 67.6473 476.926 67.9751 476.926 68.3757C476.926 68.8491 476.543 69.2679 475.742 69.2679C474.686 69.2679 474.158 68.6124 474.103 67.9022L472.027 68.3575ZM484.172 59.2167H481.987V60.4731C481.987 61.2742 481.55 61.8933 480.603 61.8933H480.147V64.042H481.768V68.2118C481.768 69.9416 482.861 70.9795 484.609 70.9795C485.319 70.9795 485.756 70.8521 485.974 70.761V68.758C485.847 68.7945 485.519 68.8309 485.228 68.8309C484.536 68.8309 484.172 68.576 484.172 67.793V64.042H485.974V61.8933H484.172V59.2167ZM493.37 61.8569C493.187 61.8387 493.005 61.8205 492.805 61.8205C492.04 61.8205 490.802 62.039 490.256 63.2226V61.8933H487.907V70.8521H490.329V66.7551C490.329 64.825 491.403 64.2241 492.641 64.2241C492.86 64.2241 493.096 64.2423 493.37 64.2969V61.8569ZM494.58 68.4121C494.58 69.8142 495.746 71.107 497.657 71.107C498.987 71.107 499.842 70.4879 500.298 69.7777C500.298 70.1237 500.334 70.6153 500.389 70.8521H502.61C502.556 70.5425 502.501 69.9052 502.501 69.4318V65.0252C502.501 63.2226 501.445 61.6202 498.604 61.6202C496.201 61.6202 494.908 63.168 494.762 64.57L496.911 65.0252C496.984 64.2423 497.566 63.5686 498.622 63.5686C499.642 63.5686 500.134 64.0966 500.134 64.7339C500.134 65.0435 499.97 65.2984 499.46 65.3712L497.257 65.699C495.764 65.9175 494.58 66.8097 494.58 68.4121ZM498.167 69.3043C497.384 69.3043 497.002 68.7945 497.002 68.2664C497.002 67.5745 497.494 67.2285 498.113 67.1375L500.134 66.8279V67.2285C500.134 68.8127 499.187 69.3043 498.167 69.3043ZM507.875 59.2167H505.69V60.4731C505.69 61.2742 505.253 61.8933 504.306 61.8933H503.851V64.042H505.471V68.2118C505.471 69.9416 506.564 70.9795 508.312 70.9795C509.022 70.9795 509.459 70.8521 509.678 70.761V68.758C509.55 68.7945 509.222 68.8309 508.931 68.8309C508.239 68.8309 507.875 68.576 507.875 67.793V64.042H509.678V61.8933H507.875V59.2167ZM514.157 70.8521V61.8933H511.735V70.8521H514.157ZM511.443 58.9617C511.443 59.7629 512.117 60.4366 512.937 60.4366C513.774 60.4366 514.43 59.7629 514.43 58.9617C514.43 58.1241 513.774 57.4504 512.937 57.4504C512.117 57.4504 511.443 58.1241 511.443 58.9617ZM520.773 68.9219C519.59 68.9219 518.497 68.0479 518.497 66.3727C518.497 64.6793 519.59 63.8235 520.773 63.8235C521.957 63.8235 523.05 64.6793 523.05 66.3727C523.05 68.0661 521.957 68.9219 520.773 68.9219ZM520.773 61.6202C518.097 61.6202 516.076 63.605 516.076 66.3727C516.076 69.1222 518.097 71.1252 520.773 71.1252C523.45 71.1252 525.471 69.1222 525.471 66.3727C525.471 63.605 523.45 61.6202 520.773 61.6202ZM529.805 65.699C529.805 64.6611 530.424 63.8417 531.48 63.8417C532.645 63.8417 533.137 64.6247 533.137 65.6261V70.8521H535.559V65.2073C535.559 63.2408 534.539 61.6566 532.318 61.6566C531.352 61.6566 530.278 62.0754 529.732 63.0041V61.8933H527.383V70.8521H529.805V65.699ZM545.229 70.8521V65.8264H550.236V63.5139H545.21V60.3274H550.855V57.942H542.697V70.8521H545.229ZM556.177 68.9219C554.994 68.9219 553.901 68.0479 553.901 66.3727C553.901 64.6793 554.994 63.8235 556.177 63.8235C557.361 63.8235 558.453 64.6793 558.453 66.3727C558.453 68.0661 557.361 68.9219 556.177 68.9219ZM556.177 61.6202C553.501 61.6202 551.48 63.605 551.48 66.3727C551.48 69.1222 553.501 71.1252 556.177 71.1252C558.854 71.1252 560.875 69.1222 560.875 66.3727C560.875 63.605 558.854 61.6202 556.177 61.6202ZM568.249 61.8569C568.067 61.8387 567.885 61.8205 567.685 61.8205C566.92 61.8205 565.682 62.039 565.136 63.2226V61.8933H562.787V70.8521H565.209V66.7551C565.209 64.825 566.283 64.2241 567.521 64.2241C567.74 64.2241 567.976 64.2423 568.249 64.2969V61.8569ZM572.375 70.8521V65.6079C572.375 64.6247 572.994 63.8417 574.05 63.8417C575.143 63.8417 575.634 64.57 575.634 65.5351V70.8521H578.038V65.6079C578.038 64.6429 578.657 63.8417 579.695 63.8417C580.805 63.8417 581.279 64.57 581.279 65.5351V70.8521H583.628V65.0435C583.628 62.6399 582.044 61.6384 580.387 61.6384C579.203 61.6384 578.256 62.039 577.546 63.1315C577.091 62.1665 576.108 61.6384 574.888 61.6384C573.904 61.6384 572.757 62.1118 572.266 62.9859V61.8933H569.953V70.8521H572.375Z" fill="white"/>
<path d="M338.572 4.52637H628.842V17.2644H338.572V4.52637Z" fill="#C4C4C4"/>
<rect x="352.534" y="9.02246" width="4.71984" height="4.49578" fill="white"/>
<rect x="361.974" y="9.02246" width="4.71984" height="4.49578" fill="white"/>
<rect x="371.414" y="9.02246" width="4.71984" height="4.49578" fill="white"/>
<rect x="427.265" y="9.02246" width="126.649" height="4.49578" fill="white"/>
<path d="M239.003 340.523H329.021C331.383 340.523 333.576 341.985 334.475 344.178L362.195 411.818H411.842C413.248 411.818 414.373 412.943 414.373 414.348C414.373 415.754 413.248 416.878 411.842 416.878H270.546C266.667 416.878 263.124 414.573 261.55 411.031L233.606 348.845C231.919 344.965 234.73 340.523 239.003 340.523Z" fill="#C1C1C1"/>
<path d="M287.47 379.938C288.089 382.974 290.731 384.998 293.374 384.492C296.017 383.986 297.703 381.062 297.085 378.026C296.466 374.99 293.824 372.966 291.181 373.472C288.539 373.978 286.852 376.902 287.47 379.938Z" fill="white"/>
<path d="M274.257 416.935L412.18 416.822C413.585 416.822 414.71 415.698 414.71 414.292C414.71 412.886 413.585 411.762 412.18 411.762L261.831 411.818L263.687 414.179C266.329 416.091 268.072 417.216 274.257 416.935Z" fill="#919090"/>
<defs>
<filter id="filter0_d" x="103.735" y="132.871" width="264.217" height="198.182" filterUnits="userSpaceOnUse" color-interpolation-filters="sRGB">
<feFlood flood-opacity="0" result="BackgroundImageFix"/>
<feColorMatrix in="SourceAlpha" type="matrix" values="0 0 0 0 0 0 0 0 0 0 0 0 0 0 0 0 0 0 127 0" result="hardAlpha"/>
<feOffset dx="6" dy="6"/>
<feColorMatrix type="matrix" values="0 0 0 0 0.811765 0 0 0 0 0.847059 0 0 0 0 0.988235 0 0 0 0.25 0"/>
<feBlend mode="normal" in2="BackgroundImageFix" result="effect1_dropShadow"/>
<feBlend mode="normal" in="SourceGraphic" in2="effect1_dropShadow" result="shape"/>
</filter>
</defs>
</svg>
