<svg width="508" height="384" viewBox="0 0 608 484" fill="none" xmlns="http://www.w3.org/2000/svg">
<path d="M605.997 251.159C590.334 110.248 485.344 8.4559 294.754 1.08838C104.223 -6.38006 -17.8426 136.289 2.52602 262.291C22.8791 388.552 159.084 293.876 325.192 433.377C491.142 572.92 621.558 392.013 605.997 251.159Z" fill="#DAE6FF"/>
<path d="M169.265 112.385H441.418V460.371H169.265V112.385Z" fill="#E0E1E4"/>
<path d="M183.152 161.051H430.628V443.681H183.152V161.051Z" fill="#F7F7F7"/>
<path d="M430.629 112.712H182.867V161.55H430.629V112.712Z" fill="#6DBCDB"/>
<path d="M256.56 132.675V131.464H249V132.675H252.138V140.791H253.422V132.675H256.56ZM260.126 137.516V136.448H256.56V137.516H260.126ZM267.757 133.529C267.543 132.532 266.687 131.18 264.619 131.18C262.907 131.18 261.552 132.532 261.552 133.956C261.552 135.38 262.479 136.234 263.834 136.519L265.189 136.804C266.117 137.017 266.616 137.587 266.616 138.228C266.616 139.011 265.974 139.723 264.69 139.723C263.264 139.723 262.551 138.726 262.479 137.729L261.267 138.156C261.409 139.509 262.479 140.933 264.761 140.933C266.758 140.933 267.971 139.58 267.971 138.156C267.971 136.875 267.115 135.878 265.546 135.522L264.12 135.238C263.335 135.095 262.907 134.526 262.907 133.885C262.907 133.031 263.692 132.319 264.69 132.319C265.974 132.319 266.544 133.244 266.687 133.885L267.757 133.529ZM270.61 137.089C270.61 136.163 271.109 135.38 272.107 135.38C273.248 135.38 273.605 136.092 273.605 136.946V140.719H274.817V136.733C274.817 135.309 274.033 134.241 272.535 134.241C271.822 134.241 271.038 134.526 270.61 135.166V131.251H269.397V140.791H270.61V137.089ZM278.027 140.791V134.454H276.814V140.791H278.027ZM276.529 132.034C276.529 132.532 276.957 132.888 277.385 132.888C277.884 132.888 278.312 132.461 278.312 132.034C278.312 131.536 277.884 131.108 277.385 131.108C276.886 131.18 276.529 131.536 276.529 132.034ZM283.661 134.383C283.59 134.383 283.447 134.312 283.233 134.312C282.591 134.312 281.807 134.526 281.307 135.522V134.383H280.095V140.719H281.307V137.516C281.307 136.092 282.021 135.594 283.019 135.594C283.162 135.594 283.376 135.594 283.59 135.665V134.383H283.661ZM287.013 132.461H285.872V133.458C285.872 134.027 285.587 134.454 284.873 134.454H284.517V135.594H285.729V139.082C285.729 140.221 286.442 140.862 287.512 140.862C287.94 140.862 288.225 140.791 288.368 140.719V139.651C288.297 139.651 288.011 139.723 287.869 139.723C287.227 139.723 287.013 139.438 287.013 138.868V135.594H288.368V134.454H287.013V132.461ZM294.145 136.092C294.145 133.671 295.785 132.39 297.497 132.39C299.208 132.39 300.849 133.6 300.849 136.092C300.849 138.512 299.208 139.794 297.497 139.794C295.785 139.794 294.145 138.512 294.145 136.092ZM292.861 136.092C292.861 139.224 295.215 140.933 297.568 140.933C299.922 140.933 302.275 139.153 302.275 136.092C302.275 133.031 299.922 131.251 297.568 131.251C295.215 131.251 292.861 132.959 292.861 136.092ZM307.41 134.383C307.339 134.383 307.196 134.312 306.982 134.312C306.34 134.312 305.556 134.526 305.057 135.522V134.383H303.844V140.719H305.057V137.516C305.057 136.092 305.77 135.594 306.768 135.594C306.911 135.594 307.125 135.594 307.339 135.665V134.383H307.41ZM309.407 137.587C309.407 136.305 310.12 135.38 311.261 135.38C312.402 135.38 313.116 136.305 313.116 137.587C313.116 138.868 312.402 139.865 311.261 139.865C310.12 139.865 309.407 138.868 309.407 137.587ZM313.116 139.936C313.116 140.292 313.187 140.648 313.187 140.791H314.399C314.399 140.719 314.328 140.221 314.328 139.651V131.251H313.116V135.38C312.902 134.882 312.331 134.312 311.19 134.312C309.407 134.312 308.195 135.807 308.195 137.658C308.195 139.509 309.336 141.004 311.19 141.004C312.188 141.004 312.83 140.506 313.187 139.865V139.936H313.116ZM317.252 136.946C317.323 136.163 317.965 135.309 318.964 135.309C320.105 135.309 320.675 136.021 320.675 136.946H317.252ZM320.889 138.584C320.675 139.296 320.105 139.865 319.106 139.865C318.037 139.865 317.252 139.082 317.181 137.943H321.959C321.959 137.872 321.959 137.729 321.959 137.516C321.959 135.522 320.889 134.17 318.892 134.17C317.323 134.17 315.826 135.522 315.826 137.516C315.826 139.651 317.323 140.933 319.035 140.933C320.533 140.933 321.531 140.079 321.888 138.94L320.889 138.584ZM327.094 134.383C327.023 134.383 326.88 134.312 326.666 134.312C326.024 134.312 325.24 134.526 324.741 135.522V134.383H323.528V140.719H324.741V137.516C324.741 136.092 325.454 135.594 326.452 135.594C326.595 135.594 326.809 135.594 327.023 135.665V134.383H327.094ZM333.156 140.791V136.875H337.15V135.665H333.156V132.675H337.578V131.464H331.872V140.791H333.156ZM341.287 139.865C340.217 139.865 339.29 139.082 339.29 137.587C339.29 136.092 340.217 135.309 341.287 135.309C342.356 135.309 343.283 136.092 343.283 137.587C343.283 139.082 342.356 139.865 341.287 139.865ZM341.287 134.241C339.361 134.241 338.006 135.665 338.006 137.587C338.006 139.509 339.361 140.933 341.287 140.933C343.212 140.933 344.567 139.509 344.567 137.587C344.496 135.665 343.212 134.241 341.287 134.241ZM349.631 134.383C349.56 134.383 349.417 134.312 349.203 134.312C348.561 134.312 347.777 134.526 347.277 135.522V134.383H346.065V140.719H347.277V137.516C347.277 136.092 347.991 135.594 348.989 135.594C349.132 135.594 349.346 135.594 349.56 135.665V134.383H349.631ZM352.198 140.791V136.946C352.198 136.021 352.769 135.309 353.696 135.309C354.623 135.309 355.051 135.95 355.051 136.733V140.719H356.264V136.875C356.264 135.95 356.834 135.309 357.761 135.309C358.688 135.309 359.116 135.95 359.116 136.733V140.719H360.329V136.59C360.329 134.953 359.259 134.17 358.118 134.17C357.333 134.17 356.477 134.454 355.978 135.38C355.622 134.597 354.837 134.17 354.053 134.17C353.339 134.17 352.555 134.526 352.127 135.166V134.312H350.915V140.648H352.198V140.791Z" fill="white"/>
<path d="M281.307 145.489V151.968H283.59C284.802 151.968 285.587 151.256 285.587 150.188C285.587 149.476 285.159 148.835 284.445 148.622C285.016 148.408 285.444 147.91 285.444 147.198C285.444 146.201 284.731 145.418 283.518 145.418H281.307V145.489ZM282.235 148.266V146.201H283.304C284.017 146.201 284.517 146.628 284.517 147.198C284.517 147.767 284.089 148.194 283.376 148.194H282.235V148.266ZM282.235 151.184V149.12H283.518C284.303 149.12 284.731 149.547 284.731 150.188C284.731 150.828 284.231 151.184 283.518 151.184H282.235ZM289.438 151.398C289.438 151.612 289.438 151.825 289.509 151.896H290.365C290.365 151.754 290.294 151.398 290.294 151.113V147.554H289.438V150.188C289.438 150.828 289.081 151.327 288.368 151.327C287.655 151.327 287.369 150.828 287.369 150.188V147.554H286.514V150.33C286.514 151.327 287.156 152.11 288.154 152.11C288.653 152.039 289.224 151.896 289.438 151.398ZM292.79 153.747L295.642 147.554H294.715L293.432 150.615L292.077 147.554H291.078L293.004 151.469L291.934 153.818H292.79V153.747ZM298.495 150.757C298.495 151.469 299.066 152.039 299.993 152.039C300.777 152.039 301.205 151.612 301.419 151.327C301.419 151.612 301.419 151.825 301.491 151.896H302.346C302.346 151.754 302.275 151.54 302.275 151.184V148.977C302.275 148.123 301.776 147.34 300.421 147.34C299.494 147.34 298.709 147.91 298.638 148.764L299.494 148.977C299.565 148.479 299.922 148.123 300.492 148.123C301.134 148.123 301.419 148.479 301.419 148.906C301.419 149.049 301.348 149.191 301.063 149.262L299.85 149.405C299.066 149.547 298.495 149.974 298.495 150.757ZM300.064 151.327C299.636 151.327 299.351 151.042 299.351 150.686C299.351 150.259 299.636 150.117 299.993 150.045L301.348 149.832V150.045C301.348 151.042 300.777 151.327 300.064 151.327ZM310.405 146.272V145.418H305.199V146.272H307.339V151.896H308.266V146.272H310.405ZM312.902 149.689V148.906H310.405V149.689H312.902ZM313.615 150.828C313.686 151.327 314.185 152.11 315.398 152.11C316.468 152.11 317.038 151.398 317.038 150.757C317.038 150.117 316.61 149.618 315.826 149.476L315.113 149.333C314.756 149.262 314.613 149.049 314.613 148.835C314.613 148.55 314.899 148.266 315.326 148.266C316.04 148.266 316.182 148.764 316.254 148.977L317.038 148.693C316.967 148.266 316.539 147.482 315.398 147.482C314.542 147.482 313.829 148.123 313.829 148.835C313.829 149.476 314.257 149.903 314.899 150.045L315.683 150.188C316.04 150.259 316.254 150.472 316.254 150.757C316.254 151.042 315.968 151.327 315.469 151.327C314.827 151.327 314.471 150.971 314.471 150.472L313.615 150.828ZM319.035 149.333C319.035 148.693 319.392 148.194 320.034 148.194C320.818 148.194 321.032 148.693 321.032 149.333V151.968H321.888V149.191C321.888 148.194 321.389 147.482 320.319 147.482C319.82 147.482 319.32 147.625 318.964 148.123V145.418H318.108V152.039H318.964V149.333H319.035ZM324.099 151.968V147.554H323.243V151.968H324.099ZM323.1 145.916C323.1 146.272 323.385 146.557 323.742 146.557C324.099 146.557 324.384 146.272 324.384 145.916C324.384 145.56 324.099 145.276 323.742 145.276C323.385 145.276 323.1 145.56 323.1 145.916ZM328.021 147.482C327.95 147.482 327.879 147.482 327.736 147.482C327.308 147.482 326.737 147.625 326.452 148.337V147.554H325.596V151.968H326.452V149.761C326.452 148.764 326.951 148.408 327.665 148.408C327.807 148.408 327.879 148.408 328.021 148.408V147.482ZM330.303 146.13H329.519V146.842C329.519 147.198 329.305 147.482 328.877 147.482H328.663V148.266H329.519V150.686C329.519 151.469 330.018 151.968 330.731 151.968C331.017 151.968 331.231 151.896 331.302 151.896V151.184C331.231 151.184 331.088 151.256 330.945 151.256C330.517 151.256 330.303 151.042 330.303 150.686V148.408H331.231V147.625H330.303V146.13Z" fill="white"/>
<path d="M219.616 182.366V174.464H217.833L215.266 180.515L212.698 174.464H210.915V182.366H212.199V176.6L214.624 182.366H215.765L218.261 176.529V182.366H219.616ZM223.04 184.573L226.534 176.956H225.179L223.681 180.373L222.112 176.956H220.686L223.04 181.726L221.756 184.573H223.04ZM231.669 178.095V175.674H233.096C233.951 175.674 234.451 176.173 234.451 176.885C234.451 177.596 233.951 178.095 233.096 178.095H231.669ZM233.31 179.234C234.807 179.234 235.806 178.237 235.806 176.813C235.806 175.461 234.807 174.393 233.31 174.393H230.385V182.295H231.741V179.234H233.31ZM240.014 176.885C239.942 176.885 239.8 176.885 239.657 176.885C238.944 176.885 238.373 177.24 238.088 177.81V176.956H236.804V182.366H238.088V179.803C238.088 178.807 238.516 178.237 239.586 178.237C239.728 178.237 239.871 178.237 240.014 178.237V176.885ZM243.437 181.37C242.652 181.37 241.939 180.8 241.939 179.661C241.939 178.522 242.652 177.952 243.437 177.952C244.221 177.952 244.935 178.522 244.935 179.661C244.935 180.729 244.221 181.37 243.437 181.37ZM243.437 176.742C241.796 176.742 240.655 177.952 240.655 179.59C240.655 181.227 241.868 182.509 243.437 182.509C245.077 182.509 246.29 181.298 246.29 179.59C246.29 177.952 245.077 176.742 243.437 176.742ZM248.358 179.59C248.358 178.522 249 177.881 249.856 177.881C250.711 177.881 251.282 178.522 251.282 179.59C251.282 180.658 250.711 181.298 249.856 181.298C248.928 181.37 248.358 180.658 248.358 179.59ZM252.566 174.25H251.282V177.525C251.139 177.169 250.64 176.742 249.713 176.742C248.215 176.742 247.145 178.024 247.145 179.59C247.145 181.227 248.215 182.437 249.784 182.437C250.569 182.437 251.139 182.081 251.353 181.583C251.353 181.797 251.353 182.153 251.425 182.295H252.637C252.637 182.224 252.566 181.797 252.566 181.298V174.25ZM257.772 181.726C257.772 181.939 257.772 182.224 257.843 182.295H259.056C259.056 182.081 258.984 181.726 258.984 181.298V176.885H257.701V180.088C257.701 180.8 257.344 181.298 256.559 181.298C255.775 181.298 255.49 180.729 255.49 180.088V176.885H254.206V180.302C254.206 181.512 254.99 182.437 256.274 182.437C256.845 182.509 257.487 182.224 257.772 181.726ZM262.978 177.952C263.834 177.952 264.191 178.522 264.262 178.949L265.403 178.522C265.189 177.668 264.405 176.742 262.907 176.742C261.338 176.742 260.125 177.952 260.125 179.59C260.125 181.227 261.338 182.509 262.907 182.509C264.333 182.509 265.118 181.583 265.403 180.729L264.262 180.302C264.119 180.729 263.763 181.298 262.907 181.298C262.122 181.298 261.409 180.658 261.409 179.59C261.48 178.522 262.194 177.952 262.978 177.952ZM268.327 175.247H267.186V176.03C267.186 176.529 266.901 176.885 266.33 176.885H266.045V178.024H267.043V180.729C267.043 181.726 267.685 182.366 268.684 182.366C269.183 182.366 269.397 182.295 269.468 182.224V181.227C269.397 181.227 269.183 181.298 269.04 181.298C268.541 181.298 268.327 181.085 268.327 180.586V178.095H269.468V176.956H268.327V175.247ZM270.395 180.871C270.467 181.512 271.037 182.509 272.606 182.509C273.961 182.509 274.674 181.583 274.674 180.8C274.674 180.017 274.104 179.376 273.105 179.163L272.25 179.02C271.893 178.949 271.679 178.735 271.679 178.451C271.679 178.095 272.036 177.81 272.464 177.81C273.177 177.81 273.391 178.308 273.462 178.593L274.532 178.308C274.461 177.739 273.961 176.813 272.464 176.813C271.322 176.813 270.467 177.596 270.467 178.593C270.467 179.305 270.966 179.946 271.964 180.159L272.749 180.373C273.177 180.444 273.391 180.658 273.391 180.942C273.391 181.298 273.105 181.583 272.606 181.583C271.893 181.583 271.536 181.156 271.465 180.658L270.395 180.871Z" fill="black"/>
<path d="M246.718 211.555L239.229 216.823V233.838H217.334V216.823L216.122 215.969L209.775 211.555L216.122 202.513C216.479 202.015 216.978 201.588 217.477 201.303C217.976 201.018 218.618 200.876 219.26 200.876H237.161C237.803 200.876 238.373 201.018 238.944 201.303C239.514 201.588 239.942 202.015 240.299 202.513L246.718 211.555Z" fill="#CCEA2A"/>
<path d="M223.325 200.876L224.966 198.954L228.246 203.297V207.568L223.325 200.876Z" fill="#B0CA24"/>
<path d="M233.167 200.876L231.527 198.954L228.246 203.297V207.568L233.167 200.876Z" fill="#B0CA24"/>
<path d="M224.965 198.954H231.527L228.246 203.297L224.965 198.954Z" fill="#369D00"/>
<path d="M217.341 208.257L217.768 208.542V216.8C217.768 216.871 217.768 216.871 217.697 216.942C217.626 217.013 217.626 217.013 217.554 217.013C217.483 217.013 217.483 217.013 217.412 216.942C217.341 216.871 217.341 216.871 217.341 216.8V208.257Z" fill="#4B9641"/>
<path d="M239.334 208.066L238.906 208.351V216.609C238.906 216.681 238.906 216.681 238.978 216.752C239.049 216.823 239.049 216.823 239.12 216.823C239.192 216.823 239.192 216.823 239.263 216.752C239.334 216.681 239.334 216.681 239.334 216.609V208.066Z" fill="#4B9641"/>
<path d="M246.718 260.25L239.229 265.518V282.533H217.334V265.518L216.122 264.664L209.775 260.25L216.122 251.208C216.479 250.71 216.978 250.283 217.477 249.998C218.048 249.713 218.618 249.571 219.26 249.571H237.161C237.803 249.571 238.373 249.713 238.944 249.998C239.514 250.283 239.942 250.71 240.299 251.208L246.718 260.25Z" fill="#F38632"/>
<path d="M223.325 249.571L224.966 247.649L228.246 251.992V256.263L223.325 249.571Z" fill="#FFCB6A"/>
<path d="M233.167 249.571L231.527 247.649L228.246 251.992V256.263L233.167 249.571Z" fill="#FFCB6A"/>
<path d="M224.965 247.649H231.527L228.246 251.992L224.965 247.649Z" fill="#C63737"/>
<path d="M217.334 265.518L216.906 265.233V256.975C216.906 256.904 216.906 256.904 216.978 256.832C217.049 256.761 217.049 256.761 217.12 256.761C217.192 256.761 217.192 256.761 217.263 256.832C217.334 256.904 217.334 256.904 217.334 256.975V265.518Z" fill="#9B5400"/>
<path d="M298.203 411.57H210.69C208.601 411.57 206.902 414.105 206.902 417.219V429.315C206.902 432.43 208.601 434.965 210.69 434.965H298.203C300.291 434.965 301.991 432.43 301.991 429.315V417.219C301.991 414.105 300.291 411.57 298.203 411.57Z" fill="#FFB200"/>
<path d="M226.838 423.032V420.255H228.479C229.477 420.255 230.048 420.825 230.048 421.679C230.048 422.534 229.477 423.032 228.479 423.032H226.838ZM228.693 424.029C230.19 424.029 231.189 423.032 231.189 421.679C231.189 420.327 230.19 419.33 228.693 419.33H225.769V427.375H226.91V424.1H228.693V424.029ZM235.254 427.517C236.894 427.517 238.178 426.52 238.178 424.598V419.33H237.037V424.598C237.037 425.808 236.395 426.52 235.254 426.52C234.113 426.52 233.471 425.808 233.471 424.598V419.33H232.401V424.598C232.33 426.449 233.614 427.517 235.254 427.517ZM244.24 427.303H245.524L243.598 423.957C244.811 423.744 245.524 422.818 245.524 421.679C245.524 420.327 244.597 419.259 243.028 419.259H240.104V427.303H241.245V424.029H242.457L244.24 427.303ZM241.173 423.032V420.255H242.885C243.812 420.255 244.383 420.825 244.383 421.679C244.383 422.534 243.741 423.032 242.885 423.032H241.173ZM250.516 427.517C252.37 427.517 253.654 426.449 254.082 424.954L253.084 424.598C252.727 425.666 251.871 426.52 250.516 426.52C249.019 426.52 247.663 425.452 247.663 423.317C247.663 421.252 249.09 420.184 250.516 420.184C251.8 420.184 252.727 420.896 253.012 422.106L254.011 421.75C253.583 420.184 252.299 419.188 250.445 419.188C248.448 419.188 246.451 420.683 246.451 423.388C246.522 426.022 248.448 427.517 250.516 427.517ZM261.856 427.303V419.259H260.786V422.676H256.65V419.259H255.509V427.303H256.65V423.744H260.786V427.303H261.856ZM269.487 427.303H270.699L267.49 419.259H266.206L262.997 427.303H264.209L265.065 425.025H268.631L269.487 427.303ZM266.848 420.469L268.275 424.1H265.493L266.848 420.469ZM276.833 421.11C276.619 420.255 275.906 419.116 274.123 419.116C272.625 419.116 271.484 420.255 271.484 421.537C271.484 422.747 272.268 423.459 273.481 423.744L274.622 423.957C275.406 424.1 275.834 424.598 275.834 425.239C275.834 425.951 275.264 426.52 274.194 426.52C272.982 426.52 272.34 425.666 272.268 424.812L271.199 425.168C271.341 426.307 272.268 427.588 274.194 427.588C275.906 427.588 276.976 426.449 276.976 425.239C276.976 424.1 276.191 423.245 274.907 422.961L273.695 422.676C272.982 422.534 272.696 422.106 272.696 421.537C272.696 420.754 273.338 420.184 274.265 420.184C275.406 420.184 275.906 420.967 275.977 421.537L276.833 421.11ZM283.323 427.303V426.307H279.543V423.815H282.966V422.747H279.543V420.255H283.323V419.259H278.402V427.303H283.323Z" fill="white"/>
<path d="M209.418 305.527H404.404" stroke="#B7B7B7" stroke-width="1.07466" stroke-linecap="round"/>
<path d="M270.895 208.707H266.829C265.688 208.707 264.833 209.633 264.833 210.7V214.758C264.833 215.897 265.76 216.752 266.829 216.752H270.895C272.036 216.752 272.892 215.826 272.892 214.758V210.7C272.892 209.633 272.036 208.707 270.895 208.707Z" fill="white"/>
<path d="M270.895 256.334H266.829C265.688 256.334 264.833 257.26 264.833 258.327V262.385C264.833 263.524 265.76 264.379 266.829 264.379H270.895C272.036 264.379 272.892 263.453 272.892 262.385V258.327C272.892 257.26 272.036 256.334 270.895 256.334Z" fill="white"/>
<path d="M331.231 334.36H276.387C274.675 334.36 273.32 335.713 273.32 337.421V343.472C273.32 345.181 274.675 346.534 276.387 346.534H331.231C332.942 346.534 334.297 345.181 334.297 343.472V337.421C334.297 335.713 332.942 334.36 331.231 334.36Z" stroke="#B7B7B7" stroke-width="1.07466" stroke-miterlimit="10"/>
<path d="M400.338 334.36H342.428C340.716 334.36 339.361 335.713 339.361 337.421V343.472C339.361 345.181 340.716 346.534 342.428 346.534H400.338C402.05 346.534 403.405 345.181 403.405 343.472V337.421C403.405 335.713 401.979 334.36 400.338 334.36Z" stroke="#B7B7B7" stroke-width="1.07466" stroke-miterlimit="10"/>
<path d="M400.338 352.585H276.457C274.746 352.585 273.391 353.938 273.391 355.646V361.697C273.391 363.406 274.746 364.759 276.457 364.759H400.338C402.05 364.759 403.405 363.406 403.405 361.697V355.646C403.405 353.938 401.979 352.585 400.338 352.585Z" stroke="#B7B7B7" stroke-width="1.07466" stroke-miterlimit="10"/>
<path d="M347.491 371.807H276.386C274.674 371.807 273.319 373.159 273.319 374.868V380.919C273.319 382.628 274.674 383.98 276.386 383.98H347.491C349.203 383.98 350.558 382.628 350.558 380.919V374.868C350.558 373.23 349.203 371.807 347.491 371.807Z" stroke="#B7B7B7" stroke-width="1.07466" stroke-miterlimit="10"/>
<path d="M400.338 390.103H276.457C274.746 390.103 273.391 391.455 273.391 393.164V399.215C273.391 400.924 274.746 402.277 276.457 402.277H400.338C402.05 402.277 403.405 400.924 403.405 399.215V393.164C403.405 391.455 401.979 390.103 400.338 390.103Z" stroke="#B7B7B7" stroke-width="1.07466" stroke-miterlimit="10"/>
<path d="M400.338 371.807H357.69C355.978 371.807 354.623 373.159 354.623 374.868V380.919C354.623 382.628 355.978 383.98 357.69 383.98H400.338C402.05 383.98 403.405 382.628 403.405 380.919V374.868C403.405 373.23 401.979 371.807 400.338 371.807Z" stroke="#B7B7B7" stroke-width="1.07466" stroke-miterlimit="10"/>
<path d="M322.244 222.803H309.122C308.337 222.803 307.695 223.444 307.695 224.227V230.349C307.695 231.132 308.337 231.773 309.122 231.773H322.316C323.1 231.773 323.742 231.132 323.742 230.349V224.227C323.671 223.373 323.029 222.803 322.244 222.803Z" stroke="#B7B7B7" stroke-width="1.07466" stroke-miterlimit="10"/>
<path d="M320.248 223.729L321.959 226.505H318.465L320.248 223.729Z" fill="#B7B7B7"/>
<path d="M320.248 230.705L318.536 227.929H322.031L320.248 230.705Z" fill="#B7B7B7"/>
<path d="M270.895 209.205H266.83C265.974 209.205 265.332 209.917 265.332 210.7V214.758C265.332 215.613 266.045 216.253 266.83 216.253H270.895C271.751 216.253 272.393 215.541 272.393 214.758V210.7C272.393 209.917 271.751 209.205 270.895 209.205Z" stroke="#B7B7B7" stroke-width="1.07466"/>
<path d="M332.443 209.205H278.811V215.399H332.443V209.205Z" fill="#B7B7B7"/>
<path d="M299.922 223.871H278.811V230.064H299.922V223.871Z" fill="#B7B7B7"/>
<path d="M406.971 209.205H385.861V215.399H406.971V209.205Z" fill="#B7B7B7"/>
<path d="M322.244 271.356H309.122C308.337 271.356 307.695 271.996 307.695 272.779V278.902C307.695 279.685 308.337 280.326 309.122 280.326H322.316C323.1 280.326 323.742 279.685 323.742 278.902V272.779C323.671 271.996 323.029 271.356 322.244 271.356Z" stroke="#B7B7B7" stroke-width="1.07466" stroke-miterlimit="10"/>
<path d="M320.248 272.352L321.959 275.129H318.465L320.248 272.352Z" fill="#B7B7B7"/>
<path d="M320.248 279.329L318.536 276.553H322.031L320.248 279.329Z" fill="#B7B7B7"/>
<path d="M270.895 257.829H266.83C265.974 257.829 265.332 258.541 265.332 259.324V263.382C265.332 264.236 266.045 264.877 266.83 264.877H270.895C271.751 264.877 272.393 264.165 272.393 263.382V259.324C272.393 258.47 271.751 257.829 270.895 257.829Z" stroke="#B7B7B7" stroke-width="1.07466"/>
<path d="M332.443 257.829H278.811V264.023H332.443V257.829Z" fill="#B7B7B7"/>
<path d="M299.922 272.495H278.811V278.688H299.922V272.495Z" fill="#B7B7B7"/>
<path d="M406.971 257.829H385.861V264.023H406.971V257.829Z" fill="#B7B7B7"/>
<path d="M263.335 337.136H209.703V343.33H263.335V337.136Z" fill="#B7B7B7"/>
<path d="M263.335 354.436H209.703V360.629H263.335V354.436Z" fill="#B7B7B7"/>
<path d="M263.335 374.939H209.703V381.133H263.335V374.939Z" fill="#B7B7B7"/>
<path d="M263.335 392.595H209.703V398.788H263.335V392.595Z" fill="#B7B7B7"/>
<path d="M362.183 313.999H252.28V320.193H362.183V313.999Z" fill="#B7B7B7"/>
<path d="M168.95 99.6471H441.418V112.385H168.95V99.6471Z" fill="#C4C4C4"/>
<rect x="182.056" y="104.143" width="4.43037" height="4.49578" fill="white"/>
<rect x="190.917" y="104.143" width="4.43037" height="4.49578" fill="white"/>
<rect x="199.778" y="104.143" width="4.43037" height="4.49578" fill="white"/>
<rect x="252.204" y="104.143" width="118.882" height="4.49578" fill="white"/>
<g filter="url(#filter0_d)">
<path d="M484.077 190.671C504.43 190.671 520.929 174.171 520.929 153.818C520.929 133.465 504.43 116.966 484.077 116.966C463.724 116.966 447.224 133.465 447.224 153.818C447.224 174.171 463.724 190.671 484.077 190.671Z" fill="url(#paint0_linear)"/>
<path d="M500.862 154.673C500.862 158.162 500.862 161.579 500.862 165.067C500.862 165.779 500.791 166.491 500.506 167.203C500.221 167.844 499.864 168.485 499.293 168.983C498.794 169.481 498.152 169.908 497.51 170.193C496.869 170.478 496.084 170.549 495.371 170.549C488.382 170.549 481.464 170.549 474.474 170.549C473.761 170.549 473.048 170.478 472.335 170.193C471.693 169.908 471.051 169.552 470.552 168.983C470.053 168.485 469.625 167.844 469.411 167.203C469.126 166.562 469.054 165.779 469.054 165.067C469.054 158.091 469.054 151.185 469.054 144.208C469.054 143.496 469.197 142.784 469.411 142.144C469.696 141.503 470.053 140.862 470.552 140.364C471.051 139.866 471.693 139.438 472.335 139.225C472.977 138.94 473.69 138.798 474.403 138.869C481.464 138.94 488.382 138.869 495.371 138.869C496.084 138.869 496.797 139.011 497.439 139.225C498.081 139.51 498.723 139.866 499.222 140.364C499.721 140.862 500.149 141.432 500.363 142.144C500.648 142.784 500.791 143.496 500.72 144.208C500.862 147.697 500.862 151.185 500.862 154.673ZM495.086 154.673C495.086 151.968 495.086 149.263 495.086 146.486C495.157 146.202 495.086 145.917 495.014 145.703C494.943 145.419 494.8 145.205 494.586 145.063C494.372 144.849 494.158 144.707 493.944 144.635C493.659 144.564 493.445 144.493 493.16 144.564H476.757C476.471 144.564 476.186 144.564 475.972 144.635C475.687 144.707 475.473 144.849 475.33 145.063C475.116 145.276 474.974 145.49 474.902 145.703C474.831 145.988 474.76 146.202 474.831 146.486C474.831 151.897 474.831 157.307 474.831 162.789C474.76 163.074 474.831 163.359 474.902 163.572C474.974 163.857 475.116 164.071 475.33 164.284C475.544 164.498 475.758 164.64 476.043 164.711C476.329 164.783 476.614 164.854 476.828 164.783C482.248 164.783 487.668 164.783 493.16 164.783C493.445 164.854 493.731 164.783 493.944 164.711C494.158 164.64 494.444 164.498 494.658 164.284C494.872 164.071 495.014 163.857 495.086 163.644C495.157 163.359 495.228 163.145 495.157 162.86C495.086 160.155 495.086 157.379 495.086 154.673Z" fill="black"/>
<path d="M489.309 154.673C489.309 155.741 489.309 156.738 489.309 157.806C489.309 158.66 488.952 158.945 488.168 158.945C486.028 158.945 483.889 158.945 481.82 158.945C480.964 158.945 480.679 158.66 480.679 157.806C480.679 155.67 480.679 153.606 480.679 151.47C480.679 150.616 481.036 150.331 481.892 150.331C483.96 150.331 486.099 150.331 488.168 150.331C489.024 150.331 489.38 150.687 489.38 151.541C489.309 152.609 489.309 153.677 489.309 154.673Z" fill="black"/>
</g>
<g filter="url(#filter1_d)">
<g filter="url(#filter2_d)">
<path d="M85.2691 231.773C105.622 231.773 122.121 215.274 122.121 194.921C122.121 174.568 105.622 158.068 85.2691 158.068C64.9161 158.068 48.4167 174.568 48.4167 194.921C48.4167 215.274 64.9161 231.773 85.2691 231.773Z" fill="url(#paint1_linear)"/>
<path fill-rule="evenodd" clip-rule="evenodd" d="M83.6741 189.431C83.6741 188.078 84.8152 187.58 86.6695 187.58C89.6649 187.651 92.6603 188.434 95.3704 189.787V181.528C92.589 180.461 89.6649 179.891 86.6695 179.891C79.5376 179.891 74.8306 183.593 74.8306 189.787C74.8306 199.397 88.0959 197.902 88.0959 202.032C88.0959 203.669 86.6695 204.167 84.7439 204.167C81.3919 203.954 78.1112 203.028 75.1872 201.391V209.72C78.1826 211.002 81.4632 211.714 84.7439 211.714C92.0184 211.714 97.0108 208.083 97.0108 201.889C97.0108 191.495 83.6741 193.346 83.6741 189.431Z" fill="#6772E5"/>
</g>
</g>
<g filter="url(#filter3_d)">
<path d="M363.947 82.5828C384.3 82.5828 400.799 66.0834 400.799 45.7304C400.799 25.3775 384.3 8.87811 363.947 8.87811C343.594 8.87811 327.095 25.3775 327.095 45.7304C327.095 66.0834 343.594 82.5828 363.947 82.5828Z" fill="url(#paint2_linear)"/>
<path d="M362.644 38.3385H362.786L365.996 47.5221H359.506L362.644 38.3385ZM366.566 59.3399H378.762V57.9873C376.408 57.7025 375.695 57.4889 374.126 53.2887C372.415 48.8036 370.489 43.4642 368.635 38.2673L365.711 30.0091L363.5 30.5786L354.513 53.431C352.944 57.4178 352.374 57.6313 349.735 57.9873V59.3399H359.791V57.9873L358.721 57.8449C356.653 57.6313 356.582 57.133 357.224 54.9261C357.794 53.0039 358.365 51.0817 358.935 49.7291H366.852C367.494 51.3665 368.349 53.7158 368.92 55.1396C369.704 57.0618 369.419 57.5601 367.779 57.7737L366.638 57.9161L366.566 59.3399Z" fill="#004B63"/>
</g>
<g filter="url(#filter4_d)">
<path d="M209.865 89.854C230.218 89.854 246.717 73.3546 246.717 53.0016C246.717 32.6486 230.218 16.1493 209.865 16.1493C189.512 16.1493 173.013 32.6486 173.013 53.0016C173.013 73.3546 189.512 89.854 209.865 89.854Z" fill="url(#paint3_linear)"/>
<path d="M222.169 43.6754C220.742 42.1092 218.246 41.3973 214.965 41.3973H205.551C205.266 41.3973 204.909 41.5397 204.696 41.7533C204.482 41.9668 204.268 42.2516 204.268 42.5364L200.345 67.311C200.345 67.4534 200.345 67.5246 200.345 67.6669C200.345 67.8093 200.416 67.8805 200.488 67.9517C200.559 68.0229 200.63 68.0941 200.773 68.1653C200.844 68.2365 200.987 68.2365 201.13 68.2365H206.906L208.333 58.9816L208.261 59.2663C208.333 58.9816 208.475 58.6968 208.689 58.4832C208.903 58.2697 209.26 58.1273 209.545 58.1273H212.327C217.747 58.1273 221.955 55.9204 223.238 49.5843C223.31 49.3707 223.31 49.2284 223.31 49.0148C223.809 46.6655 223.452 45.0993 222.169 43.6754Z" fill="#003087"/>
<path d="M222.169 43.6754C220.742 42.1092 218.246 41.3973 214.965 41.3973H205.551C205.266 41.3973 204.909 41.5397 204.696 41.7533C204.482 41.9668 204.268 42.2516 204.268 42.5364L200.345 67.311C200.345 67.4534 200.345 67.5246 200.345 67.6669C200.345 67.8093 200.416 67.8805 200.488 67.9517C200.559 68.0229 200.63 68.0941 200.773 68.1653C200.844 68.2365 200.987 68.2365 201.13 68.2365H206.906L208.333 58.9816L208.261 59.2663C208.333 58.9816 208.475 58.6968 208.689 58.4832C208.903 58.2697 209.26 58.1273 209.545 58.1273H212.327C217.747 58.1273 221.955 55.9204 223.238 49.5843C223.31 49.3707 223.31 49.2284 223.31 49.0148C223.809 46.6655 223.452 45.0993 222.169 43.6754Z" fill="#003087"/>
<path d="M210.316 47.7498C210.409 47.3793 210.595 47.1015 210.873 46.8236C211.151 46.5457 211.522 46.4531 211.894 46.4531H221.451C222.472 46.4531 223.585 46.5457 224.606 46.6383C225.163 46.7309 225.627 46.8236 226.184 47.0088C226.74 47.1941 227.297 47.3793 227.854 47.6572C228.318 44.6005 227.854 42.5627 226.184 40.6176C224.328 38.5798 221.08 37.6535 216.812 37.6535H204.563C204.192 37.6535 203.728 37.8388 203.449 38.1167C203.171 38.3945 202.893 38.7651 202.893 39.1356L197.789 71.3696C197.789 71.5549 197.789 71.6475 197.789 71.8327C197.789 72.018 197.882 72.1106 197.975 72.2032C198.068 72.2959 198.16 72.3885 198.346 72.4811C198.439 72.5738 198.624 72.5737 198.81 72.5737H206.326L208.182 60.5323L210.316 47.7498Z" fill="#003087"/>
<path d="M227.728 45.7304C227.728 46.0083 227.635 46.1936 227.635 46.4715C226.058 54.7152 220.49 57.5866 213.438 57.5866H209.819C209.448 57.5866 208.984 57.7719 208.706 58.0498C208.427 58.3277 208.149 58.6982 208.149 59.0687L206.293 70.7396L205.736 74.0742C205.736 74.1668 205.736 74.352 205.736 74.4447C205.736 74.5373 205.829 74.6299 205.922 74.8152C206.015 74.9078 206.108 75.0004 206.2 75.0931C206.293 75.1857 206.386 75.1857 206.572 75.1857C206.664 75.1857 206.664 75.1857 206.757 75.1857H213.16C213.531 75.1857 213.902 75.0931 214.181 74.8152C214.459 74.5373 214.645 74.2594 214.737 73.8889L214.83 73.611L216.036 66.0157L216.129 65.5525C216.222 65.182 216.408 64.9041 216.686 64.6263C216.964 64.3484 217.336 64.2558 217.707 64.2558H218.635C224.759 64.2558 229.584 61.7548 231.069 54.53C231.626 51.4733 231.347 48.9724 229.77 47.2125C228.935 46.5641 228.378 46.1009 227.728 45.7304Z" fill="#009CDE"/>
<path d="M225.839 46.3789C225.561 46.2862 225.375 46.2862 225.097 46.1936C224.818 46.101 224.54 46.101 224.262 46.0083C223.241 45.8231 222.127 45.7305 221.107 45.7305H211.549C211.178 45.7305 210.807 45.8231 210.528 46.101C210.25 46.3788 210.064 46.6567 209.971 47.0272L207.93 59.9023L207.837 60.2728C207.93 59.9023 208.116 59.5318 208.394 59.2539C208.672 58.9761 209.136 58.7908 209.508 58.7908H213.126C220.179 58.7908 225.653 55.9194 227.324 47.6756C227.416 47.3977 227.416 47.2125 227.416 46.9346C226.952 46.7493 226.581 46.5641 226.117 46.3789C226.117 46.4715 226.025 46.4715 225.839 46.3789Z" fill="#012169"/>
</g>
<defs>
<filter id="filter0_d" x="447.224" y="116.966" width="77.7047" height="77.7047" filterUnits="userSpaceOnUse" color-interpolation-filters="sRGB">
<feFlood flood-opacity="0" result="BackgroundImageFix"/>
<feColorMatrix in="SourceAlpha" type="matrix" values="0 0 0 0 0 0 0 0 0 0 0 0 0 0 0 0 0 0 127 0" result="hardAlpha"/>
<feOffset dx="4" dy="4"/>
<feColorMatrix type="matrix" values="0 0 0 0 0 0 0 0 0 0 0 0 0 0 0 0 0 0 0.15 0"/>
<feBlend mode="normal" in2="BackgroundImageFix" result="effect1_dropShadow"/>
<feBlend mode="normal" in="SourceGraphic" in2="effect1_dropShadow" result="shape"/>
</filter>
<filter id="filter1_d" x="44.4167" y="158.068" width="81.7047" height="81.7047" filterUnits="userSpaceOnUse" color-interpolation-filters="sRGB">
<feFlood flood-opacity="0" result="BackgroundImageFix"/>
<feColorMatrix in="SourceAlpha" type="matrix" values="0 0 0 0 0 0 0 0 0 0 0 0 0 0 0 0 0 0 127 0" result="hardAlpha"/>
<feOffset dy="4"/>
<feGaussianBlur stdDeviation="2"/>
<feColorMatrix type="matrix" values="0 0 0 0 0 0 0 0 0 0 0 0 0 0 0 0 0 0 0.1 0"/>
<feBlend mode="normal" in2="BackgroundImageFix" result="effect1_dropShadow"/>
<feBlend mode="normal" in="SourceGraphic" in2="effect1_dropShadow" result="shape"/>
</filter>
<filter id="filter2_d" x="48.4167" y="158.068" width="77.7047" height="77.7047" filterUnits="userSpaceOnUse" color-interpolation-filters="sRGB">
<feFlood flood-opacity="0" result="BackgroundImageFix"/>
<feColorMatrix in="SourceAlpha" type="matrix" values="0 0 0 0 0 0 0 0 0 0 0 0 0 0 0 0 0 0 127 0" result="hardAlpha"/>
<feOffset dx="4" dy="4"/>
<feColorMatrix type="matrix" values="0 0 0 0 0 0 0 0 0 0 0 0 0 0 0 0 0 0 0.25 0"/>
<feBlend mode="normal" in2="BackgroundImageFix" result="effect1_dropShadow"/>
<feBlend mode="normal" in="SourceGraphic" in2="effect1_dropShadow" result="shape"/>
</filter>
<filter id="filter3_d" x="327.095" y="8.87811" width="77.7047" height="77.7047" filterUnits="userSpaceOnUse" color-interpolation-filters="sRGB">
<feFlood flood-opacity="0" result="BackgroundImageFix"/>
<feColorMatrix in="SourceAlpha" type="matrix" values="0 0 0 0 0 0 0 0 0 0 0 0 0 0 0 0 0 0 127 0" result="hardAlpha"/>
<feOffset dx="4" dy="4"/>
<feColorMatrix type="matrix" values="0 0 0 0 0 0 0 0 0 0 0 0 0 0 0 0 0 0 0.1 0"/>
<feBlend mode="normal" in2="BackgroundImageFix" result="effect1_dropShadow"/>
<feBlend mode="normal" in="SourceGraphic" in2="effect1_dropShadow" result="shape"/>
</filter>
<filter id="filter4_d" x="173.013" y="16.1493" width="77.7047" height="77.7047" filterUnits="userSpaceOnUse" color-interpolation-filters="sRGB">
<feFlood flood-opacity="0" result="BackgroundImageFix"/>
<feColorMatrix in="SourceAlpha" type="matrix" values="0 0 0 0 0 0 0 0 0 0 0 0 0 0 0 0 0 0 127 0" result="hardAlpha"/>
<feOffset dx="4" dy="4"/>
<feColorMatrix type="matrix" values="0 0 0 0 0 0 0 0 0 0 0 0 0 0 0 0 0 0 0.1 0"/>
<feBlend mode="normal" in2="BackgroundImageFix" result="effect1_dropShadow"/>
<feBlend mode="normal" in="SourceGraphic" in2="effect1_dropShadow" result="shape"/>
</filter>
<linearGradient id="paint0_linear" x1="509.894" y1="127.973" x2="458.846" y2="179.022" gradientUnits="userSpaceOnUse">
<stop stop-color="white"/>
<stop offset="0.8446" stop-color="white"/>
</linearGradient>
<linearGradient id="paint1_linear" x1="111.087" y1="169.075" x2="60.038" y2="220.124" gradientUnits="userSpaceOnUse">
<stop stop-color="white"/>
<stop offset="0.8446" stop-color="white"/>
</linearGradient>
<linearGradient id="paint2_linear" x1="389.765" y1="19.8851" x2="338.716" y2="70.9336" gradientUnits="userSpaceOnUse">
<stop stop-color="white"/>
<stop offset="0.8446" stop-color="white"/>
</linearGradient>
<linearGradient id="paint3_linear" x1="235.683" y1="27.1563" x2="184.634" y2="78.2048" gradientUnits="userSpaceOnUse">
<stop stop-color="white"/>
<stop offset="0.8446" stop-color="white"/>
</linearGradient>
</defs>
</svg>
