<svg width="650" height="509" viewBox="0 0 650 509" fill="none" xmlns="http://www.w3.org/2000/svg">
<path d="M601.006 119.917C510.657 -2.8878 358.153 -41.2331 176.702 54.3794C-4.74893 149.867 -41.7159 348.36 44.9996 454.749C131.84 561.389 207.779 399.988 437.475 440.589C667.045 481.315 691.23 242.722 601.006 119.917Z" fill="#DAE6FF"/>
<g filter="url(#filter0_d)">
<path d="M242.451 110.36C263.363 110.36 280.317 93.4065 280.317 72.4937C280.317 51.5809 263.363 34.6277 242.451 34.6277C221.538 34.6277 204.585 51.5809 204.585 72.4937C204.585 93.4065 221.538 110.36 242.451 110.36Z" fill="url(#paint0_linear)"/>
<path d="M232.479 57.0492L257.07 57.3692C258.7 57.4166 260.042 58.7102 259.996 60.4173L259.676 85.0087C259.629 86.6383 258.335 87.9807 256.628 87.9348L232.037 87.6148C230.407 87.5674 229.065 86.2738 229.111 84.5667L229.431 59.9753C229.478 58.3457 230.851 57.0794 232.479 57.0492Z" fill="url(#paint1_linear)"/>
<path d="M248.146 61.2572L254.585 61.3706C255.36 61.3563 255.994 62.0425 256.008 62.8178L255.892 73.2902C255.906 74.0655 255.22 74.6986 254.444 74.713L248.005 74.5996C247.23 74.614 246.597 73.9277 246.582 73.1524L246.699 62.6801C246.684 61.9048 247.37 61.2716 248.146 61.2572Z" fill="white"/>
<path d="M234.881 61.1152L241.32 61.2286C242.096 61.2142 242.729 61.9005 242.743 62.6758L242.536 80.8279C242.551 81.6032 241.865 82.2364 241.089 82.2507L234.65 82.1374C233.875 82.1517 233.241 81.4655 233.227 80.6901L233.434 62.538C233.418 61.6852 234.104 61.052 234.881 61.1152Z" fill="white"/>
</g>
<g filter="url(#filter1_d)">
<path d="M365.207 118.187C386.12 118.187 403.073 101.234 403.073 80.3212C403.073 59.4084 386.12 42.4552 365.207 42.4552C344.294 42.4552 327.341 59.4084 327.341 80.3212C327.341 101.234 344.294 118.187 365.207 118.187Z" fill="url(#paint2_linear)"/>
<path d="M363.786 66.1254L350.139 71.786C349.984 71.8636 349.828 71.9411 349.751 72.0962C349.673 72.2513 349.596 72.4064 349.596 72.639C349.596 72.8716 349.673 73.0267 349.751 73.1818C349.828 73.3369 349.984 73.4145 350.139 73.492L363.864 78.92C365.105 79.3853 366.423 79.3853 367.586 78.92L381.311 73.492C381.466 73.4145 381.621 73.3369 381.699 73.1818C381.776 73.0267 381.854 72.8716 381.854 72.639C381.854 72.4839 381.776 72.2513 381.699 72.0962C381.621 71.9411 381.466 71.8636 381.311 71.786L367.663 66.1254C366.423 65.5826 365.027 65.5826 363.786 66.1254Z" fill="#FFCC00"/>
<path d="M366.966 81.8667V95.4368C366.966 95.5919 366.966 95.747 367.043 95.9021C367.121 96.0572 367.198 96.1347 367.353 96.2123C367.508 96.2898 367.586 96.3673 367.741 96.3673C367.896 96.3673 368.051 96.3673 368.206 96.2898L383.482 90.3965C383.637 90.3189 383.793 90.2414 383.87 90.0863C383.948 89.9312 384.025 89.7761 384.025 89.5435V75.8959C384.025 75.7408 384.025 75.5857 383.948 75.4306C383.87 75.2755 383.793 75.198 383.637 75.1204C383.482 75.0429 383.405 74.9653 383.25 74.9653C383.095 74.9653 382.94 74.9653 382.784 75.0429L367.508 80.9362C367.353 81.0137 367.198 81.0913 367.121 81.2464C366.966 81.479 366.888 81.6341 366.966 81.8667Z" fill="#31C2F2"/>
<path d="M363.399 82.5646L358.436 84.9684L348.898 89.5435C348.743 89.621 348.588 89.621 348.433 89.621C348.278 89.621 348.123 89.5435 347.967 89.4659C347.812 89.3884 347.735 89.2333 347.657 89.1558C347.58 89.0007 347.502 88.8456 347.502 88.6905V75.9734C347.502 75.8183 347.502 75.7407 347.58 75.6632C347.657 75.5857 347.735 75.4306 347.812 75.353C347.89 75.2755 347.967 75.1979 348.045 75.1979C348.2 75.1204 348.278 75.1204 348.433 75.0428C348.588 75.0428 348.743 75.0428 348.82 75.1204L363.321 80.8586C363.476 80.9362 363.631 81.0137 363.709 81.1688C363.786 81.3239 363.864 81.479 363.864 81.634C363.864 81.7891 363.864 82.0218 363.709 82.1768C363.709 82.3319 363.554 82.487 363.399 82.5646Z" fill="#ED3049"/>
<path d="M363.399 82.5646L358.901 84.7358L347.735 75.353C347.812 75.2755 347.89 75.1979 347.967 75.1979C348.123 75.1204 348.2 75.1204 348.355 75.0428C348.51 75.0428 348.665 75.0428 348.743 75.1204L363.244 80.8586C363.399 80.9362 363.554 81.0137 363.631 81.1688C363.709 81.3239 363.786 81.479 363.786 81.634C363.786 81.7891 363.786 82.0218 363.631 82.1768C363.631 82.3319 363.554 82.487 363.399 82.5646Z" fill="#C62842"/>
</g>
<g filter="url(#filter2_d)">
<path d="M485.222 116.229C506.135 116.229 523.088 99.276 523.088 78.3632C523.088 57.4504 506.135 40.4972 485.222 40.4972C464.309 40.4972 447.356 57.4504 447.356 78.3632C447.356 99.276 464.309 116.229 485.222 116.229Z" fill="url(#paint3_linear)"/>
<path d="M504.466 86.5441C504.931 87.242 504.853 88.0949 504.233 88.5602C503.535 89.0255 502.605 88.9479 502.062 88.3276L498.65 83.9076L495.315 88.1725C494.85 88.8704 493.842 88.8704 493.144 88.4051C492.446 87.9398 492.369 87.0093 492.834 86.389L496.711 81.3486L492.834 76.3083C492.369 75.6104 492.524 74.6799 493.144 74.1371C493.842 73.6718 494.773 73.8269 495.315 74.4473L498.65 78.8673L502.062 74.6799C502.527 73.982 503.457 73.9045 504.233 74.3697C504.931 74.835 504.931 75.8431 504.466 76.541L500.666 81.5037L504.466 86.5441ZM486.708 85.9237C484.149 85.9237 482.133 83.9851 482.133 81.4262C482.133 79.0223 484.149 76.9287 486.708 76.9287C489.267 76.9287 491.283 78.9448 491.283 81.4262C491.206 83.9851 489.19 85.9237 486.708 85.9237ZM473.293 85.9237C470.734 85.9237 468.718 83.9851 468.718 81.4262C468.718 79.0223 470.734 76.9287 473.293 76.9287C475.852 76.9287 477.868 78.9448 477.868 81.4262C477.868 83.9851 475.774 85.9237 473.293 85.9237ZM486.708 74.0596C483.917 74.0596 481.358 75.6104 480.117 77.9367C478.876 75.6104 476.317 74.0596 473.371 74.0596C471.587 74.0596 470.036 74.6799 468.796 75.5329V69.3294C468.796 68.554 468.098 67.8561 467.322 67.8561C466.469 67.8561 465.771 68.554 465.771 69.3294V81.5813C465.849 85.6911 469.183 88.8704 473.293 88.8704C476.24 88.8704 478.721 87.242 480.039 84.8381C481.28 87.1644 483.839 88.8704 486.631 88.8704C490.818 88.8704 494.23 85.536 494.23 81.3486C494.307 77.3939 490.895 74.0596 486.708 74.0596Z" fill="#0071F7"/>
</g>
<g filter="url(#filter3_d)">
<path d="M179.72 209.991C200.633 209.991 217.586 193.037 217.586 172.125C217.586 151.212 200.633 134.259 179.72 134.259C158.807 134.259 141.854 151.212 141.854 172.125C141.854 193.037 158.807 209.991 179.72 209.991Z" fill="url(#paint4_linear)"/>
<path d="M180.625 162.872L170.933 168.998L180.625 175.124L170.933 181.25L161.24 175.124L170.933 168.998L161.24 162.872L170.933 156.746L180.625 162.872ZM170.933 183.344L180.625 177.218L190.318 183.344L180.625 189.469L170.933 183.344ZM180.625 175.201L190.318 169.076L180.625 162.95L190.318 156.824L200.011 162.95L190.318 169.076L200.011 175.201L190.318 181.327L180.625 175.201Z" fill="#0061FF"/>
</g>
<g filter="url(#filter4_d)">
<path d="M568.24 216.104C589.153 216.104 606.106 199.151 606.106 178.238C606.106 157.325 589.153 140.372 568.24 140.372C547.327 140.372 530.374 157.325 530.374 178.238C530.374 199.151 547.327 216.104 568.24 216.104Z" fill="url(#paint5_linear)"/>
<path fill-rule="evenodd" clip-rule="evenodd" d="M563.873 160.533C561.857 160.533 560.228 162.162 560.228 164.178C560.228 166.194 561.857 167.822 563.873 167.822H567.517V164.178C567.517 162.162 565.889 160.533 563.873 160.533ZM563.873 170.304H554.18C552.164 170.304 550.535 171.932 550.535 173.948C550.535 175.964 552.164 177.593 554.18 177.593H563.873C565.889 177.593 567.517 175.964 567.517 173.948C567.517 171.932 565.889 170.304 563.873 170.304Z" fill="#36C5F0"/>
<path fill-rule="evenodd" clip-rule="evenodd" d="M586.981 173.948C586.981 171.932 585.352 170.304 583.336 170.304C581.32 170.304 579.691 171.932 579.691 173.948V177.593H583.336C585.352 177.593 586.981 175.964 586.981 173.948ZM577.288 173.948V164.178C577.288 162.162 575.659 160.533 573.643 160.533C571.627 160.533 569.999 162.162 569.999 164.178V173.948C569.999 175.964 571.627 177.593 573.643 177.593C575.659 177.593 577.288 175.964 577.288 173.948Z" fill="#2EB67D"/>
<path fill-rule="evenodd" clip-rule="evenodd" d="M573.643 197.056C575.659 197.056 577.288 195.428 577.288 193.412C577.288 191.395 575.659 189.767 573.643 189.767H569.999V193.412C569.999 195.428 571.627 197.056 573.643 197.056ZM573.643 187.363H583.336C585.352 187.363 586.981 185.735 586.981 183.719C586.981 181.703 585.352 180.074 583.336 180.074H573.643C571.627 180.074 569.999 181.703 569.999 183.719C569.999 185.735 571.627 187.363 573.643 187.363Z" fill="#ECB22E"/>
<path fill-rule="evenodd" clip-rule="evenodd" d="M550.535 183.719C550.535 185.735 552.163 187.363 554.18 187.363C556.196 187.363 557.824 185.735 557.824 183.719V180.074H554.18C552.163 180.074 550.535 181.703 550.535 183.719ZM560.228 183.719V193.489C560.228 195.505 561.856 197.134 563.873 197.134C565.889 197.134 567.517 195.505 567.517 193.489V183.719C567.517 181.703 565.889 180.074 563.873 180.074C561.856 180.074 560.228 181.703 560.228 183.719Z" fill="#E01E5A"/>
</g>
<path d="M231.405 140.372H504.79V478.039H231.405V140.372Z" fill="#398EAE"/>
<path d="M490.77 152.376H244.672C241.527 152.376 238.933 154.821 238.933 157.785V460.626C238.933 463.59 241.527 466.035 244.672 466.035H490.848C493.993 466.035 496.588 463.59 496.588 460.626V157.785C496.509 154.821 493.993 152.376 490.77 152.376Z" fill="white"/>
<path d="M231.405 127.634H504.758V140.372H231.405V127.634Z" fill="#C4C4C4"/>
<rect x="244.553" y="132.13" width="4.44477" height="4.49578" fill="white"/>
<rect x="253.443" y="132.13" width="4.44477" height="4.49578" fill="white"/>
<rect x="262.333" y="132.13" width="4.44477" height="4.49578" fill="white"/>
<rect x="314.929" y="132.13" width="119.268" height="4.49578" fill="white"/>
<path d="M496.588 159.349H238.933V188.09H496.588V159.349Z" fill="#FFDC9B" fill-opacity="0.45"/>
<path d="M339.069 234.697H276.604V250.776H339.069V234.697Z" fill="#C0C0C0"/>
<path d="M338.625 235.141H277.049V250.331H338.625V235.141V235.141Z" stroke="white" stroke-width="1.06126"/>
<path d="M339.069 249.887H276.604V268.634H339.069V249.887Z" fill="#E9E9E9"/>
<path d="M338.625 250.331H277.049V268.189H338.625V250.331V250.331Z" stroke="white" stroke-width="1.06126"/>
<path d="M400.719 249.887H338.254V268.634H400.719V249.887Z" fill="#E9E9E9"/>
<path d="M400.275 250.331H338.699V268.189H400.275V250.331Z" stroke="white" stroke-width="1.06126"/>
<path d="M462.295 249.887H399.83V268.634H462.295V249.887Z" fill="#E9E9E9"/>
<path d="M461.851 250.331H400.275V268.189H461.851V250.331Z" stroke="white" stroke-width="1.06126"/>
<path d="M400.719 234.697H338.254V250.776H400.719V234.697Z" fill="#C0C0C0"/>
<path d="M400.275 235.141H338.699V250.331H400.275V235.141Z" stroke="white" stroke-width="1.06126"/>
<path d="M462.295 234.697H399.83V250.776H462.295V234.697Z" fill="#C0C0C0"/>
<path d="M461.851 235.141H400.275V250.331H461.851V235.141Z" stroke="white" stroke-width="1.06126"/>
<path d="M308.318 264.188C311.06 264.188 313.209 261.965 313.209 259.297C313.209 256.556 310.986 254.407 308.318 254.407C305.577 254.407 303.428 256.63 303.428 259.297C303.428 261.965 305.577 264.188 308.318 264.188Z" fill="white"/>
<path d="M369.894 264.188C372.636 264.188 374.785 261.965 374.785 259.297C374.785 256.556 372.562 254.407 369.894 254.407C367.153 254.407 365.004 256.63 365.004 259.297C365.004 261.965 367.153 264.188 369.894 264.188Z" fill="white"/>
<path d="M431.47 264.188C434.212 264.188 436.36 261.965 436.36 259.297C436.36 256.556 434.138 254.407 431.47 254.407C428.728 254.407 426.579 256.63 426.579 259.297C426.579 261.965 428.802 264.188 431.47 264.188Z" fill="white"/>
<path d="M462.295 299.903H276.604V340.065H462.221V299.903H462.295Z" fill="#F5F5F5"/>
<path d="M461.851 300.422H277.049V339.62H461.851V300.422Z" stroke="#DBDBDB" stroke-width="1.06126"/>
<path d="M295.277 386.895C298.019 386.895 300.168 384.672 300.168 382.005C300.168 379.337 297.945 377.114 295.277 377.114C292.535 377.114 290.387 379.337 290.387 382.005C290.387 384.672 292.535 386.895 295.277 386.895Z" fill="white"/>
<path d="M295.277 386.45C297.722 386.45 299.723 384.45 299.723 382.005C299.723 379.559 297.722 377.559 295.277 377.559C292.832 377.559 290.831 379.559 290.831 382.005C290.757 384.45 292.758 386.45 295.277 386.45Z" stroke="#09224C" stroke-width="1.06126"/>
<path d="M295.277 401.122C298.019 401.122 300.168 398.899 300.168 396.231C300.168 393.564 297.945 391.341 295.277 391.341C292.535 391.341 290.387 393.564 290.387 396.231C290.387 398.899 292.535 401.122 295.277 401.122Z" fill="white"/>
<path d="M295.277 400.677C297.722 400.677 299.723 398.677 299.723 396.231C299.723 393.786 297.722 391.785 295.277 391.785C292.832 391.785 290.831 393.786 290.831 396.231C290.757 398.677 292.758 400.677 295.277 400.677Z" stroke="#09224C" stroke-width="1.06126"/>
<path d="M295.277 430.243C298.019 430.243 300.168 428.02 300.168 425.352C300.168 422.61 297.945 420.462 295.277 420.462C292.536 420.462 290.387 422.685 290.387 425.352C290.313 428.094 292.536 430.243 295.277 430.243Z" fill="white"/>
<path d="M295.277 429.798C297.722 429.798 299.723 427.797 299.723 425.352C299.723 422.907 297.722 420.906 295.277 420.906C292.832 420.906 290.831 422.907 290.831 425.352C290.757 427.797 292.758 429.798 295.277 429.798Z" stroke="#09224C" stroke-width="1.06126"/>
<path d="M295.277 415.423C298.019 415.423 300.168 413.2 300.168 410.532C300.168 407.791 297.945 405.642 295.277 405.642C292.536 405.642 290.387 407.865 290.387 410.532C290.313 413.2 292.536 415.423 295.277 415.423Z" fill="white"/>
<path d="M295.277 414.978C297.722 414.978 299.723 412.978 299.723 410.532C299.723 408.087 297.722 406.086 295.277 406.086C292.832 406.086 290.831 408.087 290.831 410.532C290.757 412.978 292.758 414.978 295.277 414.978Z" stroke="#09224C" stroke-width="1.06126"/>
<path d="M363.967 197.944H276.753V207.206H363.967V197.944Z" fill="#FFDC9B"/>
<path d="M339.588 217.728H276.753V226.99H339.588V217.728Z" fill="#FFDC9B"/>
<path d="M324.917 239.661H290.312V245.811H324.917V239.661Z" fill="#E1E1E1"/>
<path d="M387.678 239.661H353.074V245.811H387.678V239.661Z" fill="#E1E1E1"/>
<path d="M448.365 239.661H413.761V245.811H448.365V239.661Z" fill="#E1E1E1"/>
<path d="M318.989 282.416H276.753V291.678H318.989V282.416Z" fill="#FFDC9B"/>
<path d="M388.715 282.416H322.693V291.678H388.715V282.416Z" fill="#FFDC9B"/>
<path d="M334.92 353.032H277.049V362.294H334.92V353.032Z" fill="#FFDC9B"/>
<path d="M376.934 353.032H340.033V362.294H376.934V353.032Z" fill="#FFDC9B"/>
<path d="M342.997 377.114H306.095V386.376H342.997V377.114Z" fill="#FFDC9B"/>
<path d="M361.521 391.415H306.021V400.677H361.521V391.415Z" fill="#FFDC9B"/>
<path d="M361.521 420.462H306.021V429.724H361.521V420.462Z" fill="#FFDC9B"/>
<path d="M338.254 405.049H306.021V414.311H338.254V405.049Z" fill="#FFDC9B"/>
<path d="M424.653 282.416H393.606V291.678H424.653V282.416Z" fill="#FFDC9B"/>
<path d="M388.789 217.728H345.145V226.99H388.789V217.728Z" fill="#FFDC9B"/>
<path d="M424.653 197.944H369.598V207.206H424.653V197.944Z" fill="#FFDC9B"/>
<path d="M320.969 168.127L322.336 168.127L322.336 172.927L327.949 172.927L327.949 168.127L329.316 168.127L329.316 179.223L327.949 179.223L327.949 174.147L322.336 174.147L322.336 179.223L320.969 179.223L320.969 168.127ZM337.852 179.028C337.602 179.104 337.342 179.169 337.071 179.223C336.811 179.278 336.518 179.326 336.192 179.37C335.878 179.413 335.547 179.435 335.2 179.435C334.657 179.435 334.153 179.359 333.687 179.207C333.22 179.055 332.814 178.811 332.466 178.475C332.119 178.139 331.843 177.705 331.637 177.173C331.441 176.631 331.344 175.969 331.344 175.188C331.344 174.483 331.441 173.865 331.637 173.334C331.832 172.791 332.098 172.341 332.434 171.983C332.781 171.614 333.182 171.338 333.638 171.153C334.104 170.969 334.609 170.877 335.151 170.877C335.683 170.877 336.144 170.98 336.534 171.186C336.924 171.392 337.244 171.674 337.494 172.032C337.754 172.379 337.944 172.791 338.063 173.268C338.194 173.735 338.259 174.228 338.259 174.749L338.015 175.465L332.759 175.465C332.759 175.801 332.803 176.137 332.889 176.474C332.976 176.81 333.123 177.114 333.329 177.385C333.546 177.656 333.822 177.878 334.159 178.052C334.506 178.215 334.934 178.296 335.444 178.296C335.769 178.296 336.068 178.28 336.339 178.247C336.61 178.204 336.843 178.16 337.038 178.117C337.244 178.063 337.434 178.003 337.608 177.938L337.852 179.028ZM336.908 174.424C336.908 174.348 336.892 174.18 336.859 173.919C336.827 173.659 336.751 173.388 336.632 173.106C336.512 172.824 336.328 172.574 336.078 172.357C335.829 172.13 335.498 172.016 335.086 172.016C334.63 172.016 334.256 172.113 333.963 172.309C333.67 172.493 333.437 172.715 333.264 172.976C333.09 173.236 332.971 173.502 332.906 173.773C332.841 174.044 332.808 174.261 332.808 174.424L336.908 174.424ZM344.585 175.465C344.369 175.476 344.162 175.487 343.967 175.498C343.772 175.508 343.577 175.525 343.381 175.546C343.197 175.557 343.029 175.573 342.877 175.595C342.096 175.693 341.543 175.866 341.218 176.116C340.892 176.354 340.729 176.702 340.729 177.157C340.729 177.537 340.843 177.824 341.071 178.019C341.31 178.204 341.619 178.296 341.999 178.296C342.519 178.296 342.98 178.209 343.381 178.036C343.794 177.851 344.195 177.613 344.585 177.32L344.585 175.465ZM344.569 178.459C344.059 178.752 343.582 178.99 343.137 179.175C342.704 179.348 342.232 179.435 341.722 179.435C340.995 179.435 340.415 179.261 339.981 178.914C339.558 178.556 339.346 177.971 339.346 177.157C339.346 176.734 339.455 176.365 339.672 176.051C339.889 175.736 340.171 175.476 340.518 175.27C340.876 175.053 341.277 174.885 341.722 174.765C342.167 174.646 342.622 174.57 343.089 174.538C343.284 174.516 343.539 174.5 343.853 174.489C344.168 174.467 344.412 174.451 344.585 174.44C344.585 174.06 344.575 173.724 344.553 173.431C344.531 173.127 344.466 172.873 344.358 172.666C344.249 172.45 344.087 172.287 343.87 172.178C343.664 172.07 343.365 172.016 342.975 172.016C342.66 172.016 342.356 172.037 342.064 172.081C341.771 172.113 341.51 172.151 341.283 172.195C341.011 172.249 340.762 172.309 340.534 172.374L340.274 171.251C340.545 171.186 340.838 171.126 341.152 171.072C341.424 171.018 341.738 170.974 342.096 170.942C342.454 170.898 342.839 170.877 343.251 170.877C343.805 170.877 344.249 170.958 344.585 171.121C344.933 171.284 345.198 171.506 345.383 171.788C345.578 172.059 345.708 172.374 345.773 172.732C345.849 173.079 345.887 173.447 345.887 173.838L345.887 177.743C345.887 177.895 345.887 178.057 345.887 178.231C345.898 178.394 345.909 178.556 345.92 178.719C345.941 178.882 345.963 179.05 345.985 179.223L344.732 179.354L344.569 178.459ZM348.181 167.037L349.482 166.891L349.482 179.223L348.181 179.223L348.181 167.037ZM353.723 168.599L353.723 171.039L356.082 171.039L356.082 172.097L353.723 172.097L353.723 176.441C353.723 176.799 353.728 177.097 353.739 177.336C353.761 177.575 353.799 177.764 353.853 177.905C353.907 178.047 353.983 178.15 354.081 178.215C354.179 178.269 354.303 178.296 354.455 178.296C354.867 178.285 355.345 178.133 355.887 177.84L356.277 178.833C355.919 179.072 355.583 179.229 355.269 179.305C354.965 179.392 354.661 179.435 354.358 179.435C353.642 179.435 353.137 179.234 352.844 178.833C352.562 178.421 352.421 177.743 352.421 176.799L352.421 172.097L350.925 172.097L350.925 171.039L352.421 171.039L352.421 168.762L353.723 168.599ZM357.746 167.037L359.048 166.891L359.048 172.064C359.373 171.848 359.693 171.658 360.008 171.495C360.333 171.332 360.664 171.191 361 171.072C361.336 170.942 361.662 170.877 361.976 170.877C362.421 170.877 362.79 170.931 363.083 171.039C363.386 171.137 363.63 171.305 363.815 171.544C363.999 171.782 364.129 172.097 364.205 172.488C364.292 172.878 364.335 173.366 364.335 173.952L364.335 179.223L363.034 179.223L363.034 174.098C363.034 173.773 363.028 173.485 363.018 173.236C363.007 172.976 362.958 172.759 362.871 172.585C362.795 172.401 362.67 172.26 362.497 172.162C362.334 172.064 362.101 172.016 361.797 172.016C361.515 172.016 361.212 172.081 360.886 172.211C360.561 172.33 360.252 172.471 359.959 172.634C359.666 172.797 359.362 172.986 359.048 173.203L359.048 179.223L357.746 179.223L357.746 167.037ZM376.285 169.656C376.024 169.591 375.753 169.532 375.471 169.478C375.222 169.423 374.934 169.38 374.609 169.347C374.294 169.304 373.963 169.282 373.616 169.282C372.814 169.282 372.239 169.407 371.892 169.656C371.544 169.895 371.371 170.269 371.371 170.779C371.382 171.18 371.528 171.522 371.81 171.804C372.092 172.075 372.445 172.33 372.868 172.569C373.291 172.797 373.752 173.024 374.251 173.252C374.761 173.469 375.227 173.724 375.65 174.017C376.073 174.299 376.426 174.635 376.708 175.026C377 175.405 377.147 175.872 377.147 176.425C377.147 177.065 377.006 177.58 376.724 177.971C376.453 178.361 376.106 178.665 375.683 178.882C375.259 179.099 374.793 179.245 374.283 179.321C373.784 179.397 373.307 179.435 372.851 179.435C372.418 179.435 372.022 179.408 371.664 179.354C371.306 179.299 370.997 179.24 370.736 179.175C370.433 179.099 370.156 179.012 369.907 178.914L370.232 177.596C370.481 177.705 370.747 177.797 371.029 177.873C371.279 177.938 371.555 177.998 371.859 178.052C372.174 178.106 372.504 178.133 372.851 178.133C373.275 178.133 373.66 178.106 374.007 178.052C374.365 177.998 374.674 177.911 374.934 177.792C375.194 177.672 375.395 177.515 375.536 177.32C375.688 177.125 375.764 176.886 375.764 176.604C375.753 176.181 375.612 175.839 375.341 175.579C375.081 175.308 374.728 175.053 374.283 174.814C373.849 174.565 373.378 174.326 372.868 174.098C372.369 173.87 371.908 173.61 371.485 173.317C371.062 173.024 370.704 172.677 370.411 172.276C370.129 171.875 369.988 171.376 369.988 170.779C369.988 170.432 370.048 170.09 370.167 169.754C370.286 169.418 370.487 169.12 370.769 168.859C371.062 168.599 371.436 168.387 371.892 168.225C372.358 168.062 372.933 167.981 373.616 167.981C374.007 167.981 374.375 168.002 374.723 168.046C375.081 168.078 375.39 168.116 375.65 168.16C375.954 168.214 376.241 168.274 376.512 168.339L376.285 169.656ZM383.807 178.329L383.775 178.329C383.677 178.404 383.536 178.507 383.352 178.638C383.167 178.757 382.956 178.876 382.717 178.996C382.479 179.115 382.213 179.218 381.92 179.305C381.638 179.392 381.351 179.435 381.058 179.435C380.656 179.435 380.315 179.381 380.033 179.272C379.751 179.175 379.523 179.006 379.349 178.768C379.176 178.529 379.051 178.215 378.975 177.824C378.899 177.434 378.861 176.946 378.861 176.36L378.861 171.039L380.163 171.039L380.163 176.165C380.163 176.49 380.168 176.783 380.179 177.043C380.19 177.303 380.228 177.526 380.293 177.71C380.358 177.895 380.461 178.041 380.602 178.15C380.754 178.247 380.965 178.296 381.237 178.296C381.519 178.296 381.812 178.236 382.115 178.117C382.419 177.998 382.696 177.862 382.945 177.71C383.238 177.537 383.525 177.341 383.807 177.125L383.807 171.039L385.109 171.039L385.109 178.166C385.12 178.556 385.147 178.909 385.19 179.223L383.905 179.354L383.807 178.329ZM387.49 172.357C387.49 172.108 387.463 171.717 387.409 171.186L388.613 171.023L388.743 172.211L388.759 172.211C388.955 171.961 389.145 171.744 389.329 171.56C389.513 171.376 389.703 171.218 389.898 171.088C390.104 170.947 390.3 170.877 390.484 170.877C390.734 170.866 391.081 170.893 391.525 170.958L391.233 172.211C390.875 172.146 390.625 172.119 390.484 172.13C390.3 172.13 390.104 172.216 389.898 172.39C389.692 172.563 389.513 172.748 389.361 172.943C389.166 173.182 388.976 173.453 388.792 173.757L388.792 179.223L387.49 179.223L387.49 172.357ZM391.947 171.039L393.379 171.039L395.364 176.815L395.722 178.101L395.738 178.101L396.112 176.815L398.227 171.039L399.594 171.039L396.421 179.223L394.957 179.223L391.947 171.039ZM406.889 179.028C406.64 179.104 406.379 179.169 406.108 179.223C405.848 179.278 405.555 179.326 405.23 179.37C404.915 179.413 404.584 179.435 404.237 179.435C403.695 179.435 403.19 179.359 402.724 179.207C402.258 179.055 401.851 178.811 401.504 178.475C401.157 178.139 400.88 177.705 400.674 177.173C400.479 176.631 400.381 175.969 400.381 175.188C400.381 174.483 400.479 173.865 400.674 173.334C400.869 172.791 401.135 172.341 401.471 171.983C401.818 171.614 402.22 171.338 402.675 171.153C403.142 170.969 403.646 170.877 404.188 170.877C404.72 170.877 405.181 170.98 405.571 171.186C405.962 171.392 406.282 171.674 406.531 172.032C406.792 172.379 406.981 172.791 407.101 173.268C407.231 173.735 407.296 174.228 407.296 174.749L407.052 175.465L401.797 175.465C401.797 175.801 401.84 176.137 401.927 176.474C402.014 176.81 402.16 177.114 402.366 177.385C402.583 177.656 402.86 177.878 403.196 178.052C403.543 178.215 403.971 178.296 404.481 178.296C404.807 178.296 405.105 178.28 405.376 178.247C405.647 178.204 405.88 178.16 406.076 178.117C406.282 178.063 406.472 178.003 406.645 177.938L406.889 179.028ZM405.946 174.424C405.946 174.348 405.929 174.18 405.897 173.919C405.864 173.659 405.788 173.388 405.669 173.106C405.55 172.824 405.365 172.574 405.116 172.357C404.866 172.13 404.535 172.016 404.123 172.016C403.668 172.016 403.294 172.113 403.001 172.309C402.708 172.493 402.475 172.715 402.301 172.976C402.127 173.236 402.008 173.502 401.943 173.773C401.878 174.044 401.845 174.261 401.845 174.424L405.946 174.424ZM408.01 171.039L409.393 171.039L410.922 174.733C411.074 175.091 411.209 175.449 411.329 175.807C411.459 176.165 411.573 176.485 411.67 176.767C411.79 177.103 411.893 177.428 411.98 177.743L411.996 177.743C412.093 177.428 412.202 177.103 412.321 176.767C412.419 176.485 412.533 176.165 412.663 175.807C412.793 175.449 412.929 175.091 413.07 174.733L414.485 171.039L415.852 171.039L411.98 180.802C411.828 181.203 411.627 181.55 411.378 181.843C411.139 182.136 410.906 182.38 410.678 182.575C410.407 182.803 410.125 182.998 409.832 183.161L409.197 182.038C409.425 181.93 409.637 181.794 409.832 181.631C410.005 181.49 410.179 181.311 410.353 181.094C410.526 180.888 410.667 180.639 410.776 180.346L411.28 179.012L408.01 171.039Z" fill="#5C2EC7"/>
<path d="M320.011 476.183L242.45 459.009C242.45 459.009 214.413 422.984 187.495 391.912C179.587 399.74 175.194 411.801 167.206 419.549L226.395 485.049C228.552 487.445 231.587 488.803 234.782 488.803L316.976 489.043L345.093 491.279V473.307L320.011 476.183Z" fill="#FAB99A"/>
<path d="M174.555 380.969C188.134 377.374 242.451 458.929 242.451 458.929C242.451 458.929 235.102 462.364 222.002 480.176L201.074 457.012C201.074 457.012 159.458 417.712 151.55 404.053C143.642 390.554 160.975 384.643 174.555 380.969Z" fill="#FAB99A"/>
<path d="M198.198 284.956C190.45 269.22 172.797 264.268 155.224 264.188C149.473 264.188 144.281 264.907 139.488 266.344C132.299 269.54 118.081 289.828 113.528 323.137C111.851 335.279 116.883 333.521 137.332 350.376C155.703 365.472 179.347 355.248 190.53 348.538C204.748 339.991 205.467 341.509 207.065 330.167C206.745 316.907 199.396 287.272 198.198 284.956Z" fill="#0E2127"/>
<path d="M147.955 371.144C147.955 371.144 125.749 367.39 113.129 377.853C100.588 388.397 110.493 480.097 110.493 495.593C110.493 511.089 124.711 503.82 124.711 503.82C124.711 503.82 171.2 503.181 200.195 503.82C200.195 503.82 202.352 457.651 201.793 446.548C201.234 435.445 197.639 402.376 185.418 384.963C182.063 380.09 147.955 371.144 147.955 371.144Z" fill="#F38632"/>
<path d="M148.514 338.074C148.514 338.074 148.434 338.793 148.275 339.991C147.556 345.743 144.68 364.594 142.044 369.626C138.849 375.697 154.585 389.276 170.321 388.078C175.034 387.678 167.365 377.214 167.605 375.297C168.084 371.703 168.723 366.83 169.442 361.798C169.842 359.002 170.241 356.127 170.56 353.411C171.599 345.743 172.398 339.432 172.398 339.432L148.514 338.074Z" fill="#FFBD9E"/>
<path d="M148.195 341.429C148.435 339.992 148.594 339.193 148.594 339.193L173.676 338.634C173.676 338.634 172.238 346.062 170.401 355.088C169.762 358.283 169.123 361.638 168.484 364.913C164.65 364.354 160.576 362.437 156.502 358.922C152.109 355.088 149.154 350.455 147.476 345.503C147.716 343.826 147.955 342.468 148.195 341.429Z" fill="#D69E78"/>
<path d="M270.887 476.183L193.326 459.009C193.326 459.009 165.289 422.984 138.37 391.912C130.462 399.74 126.069 411.801 118.081 419.549L177.27 485.049C179.427 487.445 182.462 488.803 185.657 488.803L267.851 489.043L295.968 491.279V473.307L270.887 476.183Z" fill="#FFBD9E"/>
<path d="M430.242 387.838H302.359C299.004 387.838 295.888 389.915 294.61 393.03L255.231 489.123H184.699C182.702 489.123 181.104 490.72 181.104 492.717C181.104 494.714 182.702 496.312 184.699 496.312H385.431C390.943 496.312 395.975 493.037 398.212 488.005L437.911 399.66C440.307 394.148 436.313 387.838 430.242 387.838Z" fill="#C1C1C1"/>
<path d="M361.388 443.832C360.509 448.146 356.755 451.021 353.001 450.302C349.247 449.583 346.85 445.43 347.729 441.116C348.608 436.803 352.362 433.928 356.116 434.646C359.87 435.365 362.267 439.519 361.388 443.832Z" fill="white"/>
<path d="M380.159 496.392L184.22 496.232C182.223 496.232 180.625 494.634 180.625 492.637C180.625 490.64 182.223 489.043 184.22 489.043L397.812 489.123L395.176 492.478C391.422 495.193 388.946 496.791 380.159 496.392Z" fill="#919090"/>
<path d="M168.883 278.166C168.883 278.166 155.384 276.649 146.917 287.272C139.967 296.059 135.974 321.939 142.524 337.196C144.281 341.27 152.588 349.098 156.662 351.893C164.17 356.926 168.084 358.044 172.478 355.568C186.696 347.5 190.849 338.154 192.527 322.978C193.326 315.549 198.917 310.037 198.278 302.769C197 289.11 189.012 277.687 168.883 278.166Z" fill="#FFBD9E"/>
<path d="M189.412 278.246C189.412 278.246 193.645 303.567 152.668 311.156C150.511 311.555 145.319 324.575 146.278 318.345C148.674 302.928 124.871 328.17 124.871 328.17C124.871 328.17 123.273 284.636 142.284 279.125C161.295 273.533 189.412 278.246 189.412 278.246Z" fill="#0E2127"/>
<path d="M147.077 308.28C148.115 313.872 146.038 318.984 142.364 319.703C138.69 320.422 134.855 316.508 133.817 310.916C132.779 305.325 134.855 300.213 138.53 299.494C142.204 298.775 146.038 302.689 147.077 308.28Z" fill="#FFBD9E"/>
<path d="M120.478 372.661C133.098 369.067 174.315 432.889 174.315 432.889C185.498 447.906 193.326 458.769 193.326 458.769C193.326 458.769 179.268 458.29 173.676 481.055L153.307 458.929C153.307 458.929 113.768 421.147 108.895 403.494C104.742 388.557 107.937 376.336 120.478 372.661Z" fill="#FFBD9E"/>
<path d="M97.7888 508.525L406.116 508.525L406.116 496.224L97.7888 496.224L97.7888 508.525Z" fill="#D29420"/>
<path d="M167.765 376.256C173.596 374.898 175.753 393.589 175.194 399.979C174.634 406.37 143.562 383.844 140.846 377.933C138.13 372.022 139.728 369.227 142.044 369.946" stroke="#FFFF6C" stroke-width="1.34763" stroke-miterlimit="10"/>
<path d="M182.381 318.474C181.715 319.396 181.482 320.824 181.382 321.994C180.716 329.789 183.506 328.168 182.381 331.046C181.49 333.328 176.609 331.382 175.055 331.046" stroke="#C98659" stroke-width="0.775435" stroke-linecap="round"/>
<path d="M173.676 309.744C172.293 308.199 168.122 306.026 162.506 309.696" stroke="#724422" stroke-width="0.775435" stroke-linecap="round"/>
<path d="M185.451 311.6C187.182 310.459 191.77 309.422 196.264 314.403" stroke="#724422" stroke-width="0.775435" stroke-linecap="round"/>
<path d="M158.93 334.952C162.405 334.711 164.958 330.698 164.632 325.989C164.305 321.28 161.224 317.658 157.749 317.899C154.273 318.139 151.721 322.152 152.047 326.861C152.373 331.57 155.455 335.192 158.93 334.952Z" fill="#F8AC89"/>
<path d="M187.483 317.376C186.98 317.921 186.69 318.582 186.561 319.33C186.47 320.007 186.63 320.73 186.996 321.201C187.133 321.457 187.362 321.672 187.629 321.817C187.896 321.961 188.2 322.036 188.49 322.011C188.78 321.986 189.123 321.991 189.435 321.797C189.709 321.673 190.022 321.479 190.319 321.185C190.821 320.64 191.111 319.979 191.24 319.232C191.331 318.554 191.171 317.831 190.805 317.36C190.668 317.104 190.439 316.889 190.172 316.744C189.906 316.6 189.601 316.525 189.311 316.55C189.022 316.575 188.732 316.599 188.366 316.765C188.001 316.93 187.688 317.124 187.483 317.376Z" fill="#724422"/>
<path d="M167.518 314.332C167.108 314.945 166.875 315.711 166.824 316.461C166.825 317.231 167.066 317.836 167.443 318.236C167.643 318.483 167.9 318.581 168.157 318.68C168.414 318.778 168.7 318.801 168.963 318.73C169.277 318.679 169.568 318.534 169.807 318.369C170.047 318.203 170.315 317.964 170.56 317.63C170.971 317.017 171.204 316.251 171.255 315.501C171.254 314.731 171.013 314.126 170.636 313.726C170.436 313.479 170.178 313.381 169.921 313.283C169.664 313.184 169.379 313.161 169.116 313.232C168.802 313.283 168.511 313.429 168.271 313.594C168.032 313.759 167.764 313.998 167.518 314.332Z" fill="#724422"/>
<path d="M189.13 337.906C189.269 338.078 189.313 338.162 189.32 338.083C189.712 337.074 190.329 334.641 190.908 332.045C191.578 328.976 192.117 325.655 192.117 325.655C192.117 325.655 189.496 325.832 188.159 328.925C186.822 332.018 187.552 335.447 189.13 337.906Z" fill="#FAB18F"/>
<path d="M182.285 342.19C182.285 342.19 168.865 341.871 167.907 340.992C167.028 340.113 168.272 347.143 175.256 347.143C179.189 347.143 182.285 342.19 182.285 342.19Z" fill="#E08A68"/>
<g filter="url(#filter5_d)">
<path d="M78.4039 263.822C99.3167 263.822 116.27 246.869 116.27 225.956C116.27 205.043 99.3167 188.09 78.4039 188.09C57.491 188.09 40.5378 205.043 40.5378 225.956C40.5378 246.869 57.491 263.822 78.4039 263.822Z" fill="url(#paint6_linear)"/>
</g>
<defs>
<filter id="filter0_d" x="204.585" y="34.6277" width="79.732" height="80.732" filterUnits="userSpaceOnUse" color-interpolation-filters="sRGB">
<feFlood flood-opacity="0" result="BackgroundImageFix"/>
<feColorMatrix in="SourceAlpha" type="matrix" values="0 0 0 0 0 0 0 0 0 0 0 0 0 0 0 0 0 0 127 0" result="hardAlpha"/>
<feOffset dx="4" dy="5"/>
<feColorMatrix type="matrix" values="0 0 0 0 0.509804 0 0 0 0 0.509804 0 0 0 0 0.509804 0 0 0 0.25 0"/>
<feBlend mode="normal" in2="BackgroundImageFix" result="effect1_dropShadow"/>
<feBlend mode="normal" in="SourceGraphic" in2="effect1_dropShadow" result="shape"/>
</filter>
<filter id="filter1_d" x="327.341" y="42.4552" width="79.732" height="80.732" filterUnits="userSpaceOnUse" color-interpolation-filters="sRGB">
<feFlood flood-opacity="0" result="BackgroundImageFix"/>
<feColorMatrix in="SourceAlpha" type="matrix" values="0 0 0 0 0 0 0 0 0 0 0 0 0 0 0 0 0 0 127 0" result="hardAlpha"/>
<feOffset dx="4" dy="5"/>
<feColorMatrix type="matrix" values="0 0 0 0 0.509804 0 0 0 0 0.509804 0 0 0 0 0.509804 0 0 0 0.25 0"/>
<feBlend mode="normal" in2="BackgroundImageFix" result="effect1_dropShadow"/>
<feBlend mode="normal" in="SourceGraphic" in2="effect1_dropShadow" result="shape"/>
</filter>
<filter id="filter2_d" x="447.356" y="40.4972" width="79.732" height="80.732" filterUnits="userSpaceOnUse" color-interpolation-filters="sRGB">
<feFlood flood-opacity="0" result="BackgroundImageFix"/>
<feColorMatrix in="SourceAlpha" type="matrix" values="0 0 0 0 0 0 0 0 0 0 0 0 0 0 0 0 0 0 127 0" result="hardAlpha"/>
<feOffset dx="4" dy="5"/>
<feColorMatrix type="matrix" values="0 0 0 0 0.509804 0 0 0 0 0.509804 0 0 0 0 0.509804 0 0 0 0.25 0"/>
<feBlend mode="normal" in2="BackgroundImageFix" result="effect1_dropShadow"/>
<feBlend mode="normal" in="SourceGraphic" in2="effect1_dropShadow" result="shape"/>
</filter>
<filter id="filter3_d" x="141.854" y="134.259" width="79.732" height="80.732" filterUnits="userSpaceOnUse" color-interpolation-filters="sRGB">
<feFlood flood-opacity="0" result="BackgroundImageFix"/>
<feColorMatrix in="SourceAlpha" type="matrix" values="0 0 0 0 0 0 0 0 0 0 0 0 0 0 0 0 0 0 127 0" result="hardAlpha"/>
<feOffset dx="4" dy="5"/>
<feColorMatrix type="matrix" values="0 0 0 0 0.509804 0 0 0 0 0.509804 0 0 0 0 0.509804 0 0 0 0.25 0"/>
<feBlend mode="normal" in2="BackgroundImageFix" result="effect1_dropShadow"/>
<feBlend mode="normal" in="SourceGraphic" in2="effect1_dropShadow" result="shape"/>
</filter>
<filter id="filter4_d" x="530.374" y="140.372" width="79.732" height="80.732" filterUnits="userSpaceOnUse" color-interpolation-filters="sRGB">
<feFlood flood-opacity="0" result="BackgroundImageFix"/>
<feColorMatrix in="SourceAlpha" type="matrix" values="0 0 0 0 0 0 0 0 0 0 0 0 0 0 0 0 0 0 127 0" result="hardAlpha"/>
<feOffset dx="4" dy="5"/>
<feColorMatrix type="matrix" values="0 0 0 0 0.509804 0 0 0 0 0.509804 0 0 0 0 0.509804 0 0 0 0.25 0"/>
<feBlend mode="normal" in2="BackgroundImageFix" result="effect1_dropShadow"/>
<feBlend mode="normal" in="SourceGraphic" in2="effect1_dropShadow" result="shape"/>
</filter>
<filter id="filter5_d" x="40.5378" y="188.09" width="79.732" height="80.732" filterUnits="userSpaceOnUse" color-interpolation-filters="sRGB">
<feFlood flood-opacity="0" result="BackgroundImageFix"/>
<feColorMatrix in="SourceAlpha" type="matrix" values="0 0 0 0 0 0 0 0 0 0 0 0 0 0 0 0 0 0 127 0" result="hardAlpha"/>
<feOffset dx="4" dy="5"/>
<feColorMatrix type="matrix" values="0 0 0 0 0.509804 0 0 0 0 0.509804 0 0 0 0 0.509804 0 0 0 0.25 0"/>
<feBlend mode="normal" in2="BackgroundImageFix" result="effect1_dropShadow"/>
<feBlend mode="normal" in="SourceGraphic" in2="effect1_dropShadow" result="shape"/>
</filter>
<linearGradient id="paint0_linear" x1="268.978" y1="45.9375" x2="216.526" y2="98.39" gradientUnits="userSpaceOnUse">
<stop stop-color="white"/>
<stop offset="0.8446" stop-color="white"/>
</linearGradient>
<linearGradient id="paint1_linear" x1="244.781" y1="57.2087" x2="244.366" y2="87.8356" gradientUnits="userSpaceOnUse">
<stop stop-color="#0091E6"/>
<stop offset="1" stop-color="#0079BF"/>
</linearGradient>
<linearGradient id="paint2_linear" x1="391.734" y1="53.765" x2="339.282" y2="106.218" gradientUnits="userSpaceOnUse">
<stop stop-color="white"/>
<stop offset="0.8446" stop-color="white"/>
</linearGradient>
<linearGradient id="paint3_linear" x1="511.749" y1="51.807" x2="459.297" y2="104.26" gradientUnits="userSpaceOnUse">
<stop stop-color="white"/>
<stop offset="0.8446" stop-color="white"/>
</linearGradient>
<linearGradient id="paint4_linear" x1="206.247" y1="145.568" x2="153.795" y2="198.021" gradientUnits="userSpaceOnUse">
<stop stop-color="white"/>
<stop offset="0.8446" stop-color="white"/>
</linearGradient>
<linearGradient id="paint5_linear" x1="594.768" y1="151.682" x2="542.315" y2="204.134" gradientUnits="userSpaceOnUse">
<stop stop-color="white"/>
<stop offset="0.8446" stop-color="white"/>
</linearGradient>
<linearGradient id="paint6_linear" x1="104.932" y1="199.4" x2="52.4788" y2="251.852" gradientUnits="userSpaceOnUse">
<stop stop-color="white"/>
<stop offset="0.8446" stop-color="white"/>
</linearGradient>
</defs>
</svg>
